<svg xmlns="http://www.w3.org/2000/svg" xmlns:xlink="http://www.w3.org/1999/xlink" width="1080" zoomAndPan="magnify" viewBox="0 0 810 809.999993" height="1080" preserveAspectRatio="xMidYMid meet" version="1.0"><defs><clipPath id="3afdf35e1d"><path d="M 0 87 L 805 87 L 805 809.773438 L 0 809.773438 Z M 0 87 " clip-rule="nonzero"/></clipPath></defs><g clip-path="url(#3afdf35e1d)"><path fill="#f5f2ed" d="M 790.324219 358.308594 C 705.101562 263.851562 611.433594 176.835938 511.960938 99.695312 C 490.039062 82.59375 458.402344 84.414062 438.324219 103.902344 C 296.410156 242.386719 159.679688 389.558594 31.914062 541.375 C 14.015625 562.929688 14.542969 594.644531 33.117188 615.117188 C 65.78125 651.453125 100.199219 686.65625 135.28125 720.433594 L 135.085938 720.457031 C 139.367188 724.566406 143.601562 728.773438 147.890625 732.800781 C 153.148438 737.867188 157.660156 742.21875 162.316406 746.558594 C 165.625 749.652344 165.800781 754.84375 162.714844 758.164062 C 161.097656 759.894531 158.910156 760.765625 156.714844 760.765625 C 154.710938 760.765625 152.699219 760.039062 151.113281 758.5625 C 146.394531 754.15625 141.816406 749.742188 137.25 745.335938 C 129.105469 737.671875 121.476562 730.207031 113.789062 722.714844 C 0.960938 735.644531 0.488281 753.8125 0.488281 761.09375 C 0.488281 792.050781 127.554688 803.789062 234.125 808.1875 C 265.726562 809.605469 300.96875 810.324219 338.867188 810.324219 C 376.761719 810.324219 411.992188 809.605469 443.578125 808.1875 C 550.183594 803.789062 677.25 792.050781 677.25 761.09375 C 677.25 753.507812 676.949219 734.433594 553.730469 721.582031 C 546.816406 728.859375 539.933594 736.195312 532.972656 743.347656 L 528.402344 748.105469 C 525.132812 751.535156 521.832031 754.988281 518.453125 758.363281 C 516.847656 759.964844 514.75 760.765625 512.648438 760.765625 C 510.550781 760.765625 508.453125 759.964844 506.847656 758.363281 C 503.644531 755.15625 503.644531 749.964844 506.847656 746.761719 C 510.132812 743.476562 513.355469 740.109375 516.542969 736.769531 L 521.191406 731.929688 C 525.148438 727.855469 529.050781 723.664062 533 719.554688 L 532.96875 719.550781 C 620.726562 627.867188 707.660156 531.328125 791.511719 432.089844 C 809.523438 410.597656 808.996094 378.875 790.324219 358.308594 Z M 778.964844 421.519531 C 691.59375 524.917969 600.886719 625.542969 509.347656 720.640625 C 496.433594 734.171875 483.4375 747.65625 470.3125 761.0625 C 469.546875 761.84375 468.988281 762.746094 468.601562 763.699219 C 451.425781 765.261719 431.511719 766.601562 408.53125 767.546875 C 387.554688 768.492188 364.117188 768.972656 338.867188 768.972656 C 313.613281 768.972656 290.175781 768.492188 269.171875 767.546875 C 244.203125 766.515625 222.851562 765.023438 204.71875 763.285156 C 204.597656 763.164062 204.550781 763.003906 204.421875 762.890625 C 188.882812 748.996094 173.699219 734.917969 159.238281 721 C 129.734375 693.089844 101.078125 663.695312 73.066406 633.777344 L 375.480469 539.71875 C 418.613281 526.296875 451.738281 490.640625 461.945312 446.640625 L 533.484375 138.308594 C 620.378906 208.441406 702.726562 285.71875 778.160156 369.316406 C 791.367188 383.859375 791.703125 406.320312 778.964844 421.519531 Z M 778.964844 421.519531 " fill-opacity="1" fill-rule="nonzero"/></g></svg>