<svg xmlns="http://www.w3.org/2000/svg" xmlns:xlink="http://www.w3.org/1999/xlink" width="150" zoomAndPan="magnify" viewBox="0 0 112.5 30.000001" height="40" preserveAspectRatio="xMidYMid meet" version="1.0"><defs><g/><clipPath id="eb4fcacba7"><path d="M 1.574219 0.28125 L 110.445312 0.28125 L 110.445312 29.03125 L 1.574219 29.03125 Z M 1.574219 0.28125 " clip-rule="nonzero"/></clipPath><clipPath id="6bf24d15cb"><path d="M 8.832031 0.28125 L 103.183594 0.28125 C 105.109375 0.28125 106.957031 1.046875 108.316406 2.40625 C 109.679688 3.765625 110.445312 5.613281 110.445312 7.539062 L 110.445312 21.773438 C 110.445312 23.699219 109.679688 25.546875 108.316406 26.90625 C 106.957031 28.265625 105.109375 29.03125 103.183594 29.03125 L 8.832031 29.03125 C 6.90625 29.03125 5.058594 28.265625 3.699219 26.90625 C 2.335938 25.546875 1.574219 23.699219 1.574219 21.773438 L 1.574219 7.539062 C 1.574219 5.613281 2.335938 3.765625 3.699219 2.40625 C 5.058594 1.046875 6.90625 0.28125 8.832031 0.28125 Z M 8.832031 0.28125 " clip-rule="nonzero"/></clipPath><clipPath id="f7d5f778bb"><path d="M 1.578125 0.28125 L 110.445312 0.28125 L 110.445312 29.03125 L 1.578125 29.03125 Z M 1.578125 0.28125 " clip-rule="nonzero"/></clipPath><clipPath id="2bea043749"><path d="M 8.835938 0.28125 L 103.179688 0.28125 C 105.105469 0.28125 106.949219 1.046875 108.3125 2.40625 C 109.671875 3.765625 110.4375 5.613281 110.4375 7.539062 L 110.4375 21.773438 C 110.4375 23.695312 109.671875 25.542969 108.3125 26.902344 C 106.949219 28.265625 105.105469 29.027344 103.179688 29.027344 L 8.835938 29.027344 C 6.910156 29.027344 5.066406 28.265625 3.703125 26.902344 C 2.34375 25.542969 1.578125 23.695312 1.578125 21.773438 L 1.578125 7.539062 C 1.578125 5.613281 2.34375 3.765625 3.703125 2.40625 C 5.066406 1.046875 6.910156 0.28125 8.835938 0.28125 Z M 8.835938 0.28125 " clip-rule="nonzero"/></clipPath></defs><g clip-path="url(#eb4fcacba7)"><g clip-path="url(#6bf24d15cb)"><path fill="#1d7886" d="M 1.574219 0.28125 L 110.402344 0.28125 L 110.402344 29.03125 L 1.574219 29.03125 Z M 1.574219 0.28125 " fill-opacity="1" fill-rule="nonzero"/></g></g><g clip-path="url(#f7d5f778bb)"><g clip-path="url(#2bea043749)"><path stroke-linecap="butt" transform="matrix(0.725806, 0, 0, 0.725806, 1.578403, 0.280445)" fill="none" stroke-linejoin="miter" d="M 9.99927 0.00110902 L 139.984001 0.00110902 C 142.6373 0.00110902 145.177578 1.05597 147.055877 2.928887 C 148.928794 4.801804 149.983655 7.347464 149.983655 10.000763 L 149.983655 29.612569 C 149.983655 32.260486 148.928794 34.806146 147.055877 36.679063 C 145.177578 38.557362 142.6373 39.606841 139.984001 39.606841 L 9.99927 39.606841 C 7.345971 39.606841 4.805693 38.557362 2.927394 36.679063 C 1.054478 34.806146 -0.000383669 32.260486 -0.000383669 29.612569 L -0.000383669 10.000763 C -0.000383669 7.347464 1.054478 4.801804 2.927394 2.928887 C 4.805693 1.05597 7.345971 0.00110902 9.99927 0.00110902 Z M 9.99927 0.00110902 " stroke="#e9a436" stroke-width="4" stroke-opacity="1" stroke-miterlimit="4"/></g></g><g fill="#e9a436" fill-opacity="1"><g transform="translate(19.75986, 19.330644)"><g><path d="M 6.6875 -0.296875 C 5.507812 0.140625 4.023438 0.359375 2.234375 0.359375 C 1.929688 0.359375 1.660156 0.234375 1.421875 -0.015625 C 1.179688 -0.265625 1.0625 -0.535156 1.0625 -0.828125 L 1.0625 -8.84375 C 1.039062 -9.1875 1.023438 -9.523438 1.015625 -9.859375 C 1.003906 -10.253906 1.019531 -10.582031 1.0625 -10.84375 C 1.132812 -11.320312 1.570312 -11.613281 2.375 -11.71875 C 2.757812 -11.820312 3.394531 -11.875 4.28125 -11.875 C 5.238281 -11.875 6.15625 -11.566406 7.03125 -10.953125 C 8.050781 -10.234375 8.5625 -9.335938 8.5625 -8.265625 C 8.5625 -7.691406 8.453125 -7.203125 8.234375 -6.796875 C 8.066406 -6.484375 7.78125 -6.140625 7.375 -5.765625 C 7.863281 -5.523438 8.296875 -5.164062 8.671875 -4.6875 C 9.097656 -4.15625 9.3125 -3.625 9.3125 -3.09375 C 9.3125 -2.425781 8.945312 -1.789062 8.21875 -1.1875 C 7.726562 -0.789062 7.21875 -0.492188 6.6875 -0.296875 Z M 4.28125 -9.828125 C 3.632812 -9.828125 3.242188 -9.820312 3.109375 -9.8125 L 3.125 -8.21875 L 3.109375 -6.625 C 3.566406 -6.570312 3.914062 -6.550781 4.15625 -6.5625 C 5.695312 -6.6875 6.46875 -7.253906 6.46875 -8.265625 C 6.46875 -8.628906 6.238281 -8.976562 5.78125 -9.3125 C 5.3125 -9.65625 4.8125 -9.828125 4.28125 -9.828125 Z M 5.171875 -4.484375 C 4.710938 -4.484375 4.023438 -4.5 3.109375 -4.53125 L 3.109375 -1.703125 C 3.984375 -1.753906 4.925781 -1.921875 5.9375 -2.203125 C 6.820312 -2.453125 7.257812 -2.726562 7.25 -3.03125 C 7.238281 -3.414062 6.953125 -3.757812 6.390625 -4.0625 C 5.960938 -4.300781 5.554688 -4.441406 5.171875 -4.484375 Z M 5.171875 -4.484375 "/></g></g></g><g fill="#e9a436" fill-opacity="1"><g transform="translate(29.518067, 19.330644)"><g><path d="M 3.890625 0.453125 C 2.953125 0.453125 2.148438 0.128906 1.484375 -0.515625 C 0.742188 -1.210938 0.359375 -2.144531 0.328125 -3.3125 C 0.285156 -4.425781 0.585938 -5.421875 1.234375 -6.296875 C 2.003906 -7.328125 3.070312 -7.84375 4.4375 -7.84375 C 5.445312 -7.84375 6.25 -7.4375 6.84375 -6.625 C 7.375 -5.90625 7.640625 -5.007812 7.640625 -3.9375 C 7.640625 -2.757812 7.328125 -1.757812 6.703125 -0.9375 C 6.003906 -0.0078125 5.066406 0.453125 3.890625 0.453125 Z M 4.34375 -5.84375 C 3.71875 -5.851562 3.226562 -5.570312 2.875 -5 C 2.570312 -4.519531 2.421875 -3.957031 2.421875 -3.3125 C 2.421875 -2.707031 2.59375 -2.242188 2.9375 -1.921875 C 3.207031 -1.671875 3.523438 -1.546875 3.890625 -1.546875 C 4.328125 -1.546875 4.707031 -1.691406 5.03125 -1.984375 C 5.394531 -2.335938 5.59375 -2.8125 5.625 -3.40625 C 5.6875 -5.03125 5.257812 -5.84375 4.34375 -5.84375 Z M 4.34375 -5.84375 "/></g></g></g><g fill="#e9a436" fill-opacity="1"><g transform="translate(37.658726, 19.330644)"><g><path d="M 3.890625 0.453125 C 2.953125 0.453125 2.148438 0.128906 1.484375 -0.515625 C 0.742188 -1.210938 0.359375 -2.144531 0.328125 -3.3125 C 0.285156 -4.425781 0.585938 -5.421875 1.234375 -6.296875 C 2.003906 -7.328125 3.070312 -7.84375 4.4375 -7.84375 C 5.445312 -7.84375 6.25 -7.4375 6.84375 -6.625 C 7.375 -5.90625 7.640625 -5.007812 7.640625 -3.9375 C 7.640625 -2.757812 7.328125 -1.757812 6.703125 -0.9375 C 6.003906 -0.0078125 5.066406 0.453125 3.890625 0.453125 Z M 4.34375 -5.84375 C 3.71875 -5.851562 3.226562 -5.570312 2.875 -5 C 2.570312 -4.519531 2.421875 -3.957031 2.421875 -3.3125 C 2.421875 -2.707031 2.59375 -2.242188 2.9375 -1.921875 C 3.207031 -1.671875 3.523438 -1.546875 3.890625 -1.546875 C 4.328125 -1.546875 4.707031 -1.691406 5.03125 -1.984375 C 5.394531 -2.335938 5.59375 -2.8125 5.625 -3.40625 C 5.6875 -5.03125 5.257812 -5.84375 4.34375 -5.84375 Z M 4.34375 -5.84375 "/></g></g></g><g fill="#e9a436" fill-opacity="1"><g transform="translate(45.799385, 19.330644)"><g><path d="M 6.109375 -6.09375 C 6.003906 -6.09375 5.878906 -6.09375 5.734375 -6.09375 C 5.585938 -6.101562 5.460938 -6.109375 5.359375 -6.109375 C 5.148438 -6.109375 4.910156 -6.085938 4.640625 -6.046875 C 4.734375 -4.015625 4.78125 -2.6875 4.78125 -2.0625 C 4.78125 -1.988281 4.78125 -1.863281 4.78125 -1.6875 C 4.789062 -1.507812 4.796875 -1.363281 4.796875 -1.25 C 4.796875 -0.09375 4.429688 0.484375 3.703125 0.484375 C 3.421875 0.484375 3.179688 0.398438 2.984375 0.234375 C 2.753906 0.046875 2.640625 -0.179688 2.640625 -0.453125 C 2.640625 -0.628906 2.644531 -0.898438 2.65625 -1.265625 C 2.675781 -1.628906 2.6875 -1.90625 2.6875 -2.09375 C 2.6875 -2.695312 2.644531 -4 2.5625 -6 C 2.25 -6.019531 1.773438 -6.0625 1.140625 -6.125 C 0.503906 -6.195312 0.1875 -6.523438 0.1875 -7.109375 C 0.1875 -7.390625 0.28125 -7.628906 0.46875 -7.828125 C 0.664062 -8.023438 0.914062 -8.125 1.21875 -8.125 C 1.40625 -8.125 1.832031 -8.09375 2.5 -8.03125 C 2.5 -8.1875 2.488281 -8.453125 2.46875 -8.828125 C 2.445312 -9.148438 2.4375 -9.398438 2.4375 -9.578125 C 2.4375 -9.859375 2.535156 -10.09375 2.734375 -10.28125 C 2.941406 -10.46875 3.195312 -10.5625 3.5 -10.5625 C 4.238281 -10.5625 4.609375 -9.9375 4.609375 -8.6875 L 4.59375 -8.0625 C 4.90625 -8.101562 5.160156 -8.125 5.359375 -8.125 C 5.941406 -8.125 6.335938 -8.085938 6.546875 -8.015625 C 6.953125 -7.867188 7.15625 -7.5625 7.15625 -7.09375 C 7.15625 -6.800781 7.054688 -6.5625 6.859375 -6.375 C 6.660156 -6.1875 6.410156 -6.09375 6.109375 -6.09375 Z M 6.109375 -6.09375 "/></g></g></g><g fill="#e9a436" fill-opacity="1"><g transform="translate(53.093476, 19.330644)"><g><path d="M 6.09375 -5.53125 C 5.59375 -5.53125 5.289062 -5.738281 5.1875 -6.15625 C 4.988281 -6.195312 4.785156 -6.21875 4.578125 -6.21875 C 3.359375 -6.21875 2.75 -6.050781 2.75 -5.71875 C 2.75 -5.519531 3.113281 -5.253906 3.84375 -4.921875 C 4.84375 -4.460938 5.519531 -4.101562 5.875 -3.84375 C 6.601562 -3.3125 6.96875 -2.71875 6.96875 -2.0625 C 6.96875 -1.1875 6.566406 -0.523438 5.765625 -0.078125 C 5.109375 0.273438 4.304688 0.453125 3.359375 0.453125 C 2.691406 0.453125 2.082031 0.347656 1.53125 0.140625 C 0.769531 -0.140625 0.390625 -0.554688 0.390625 -1.109375 C 0.390625 -1.609375 0.691406 -1.859375 1.296875 -1.859375 C 1.523438 -1.859375 1.859375 -1.785156 2.296875 -1.640625 C 2.734375 -1.492188 3.070312 -1.421875 3.3125 -1.421875 C 4.332031 -1.421875 4.847656 -1.628906 4.859375 -2.046875 C 4.859375 -2.296875 4.5 -2.578125 3.78125 -2.890625 C 2.75 -3.347656 2.085938 -3.679688 1.796875 -3.890625 C 1.078125 -4.390625 0.71875 -4.992188 0.71875 -5.703125 C 0.71875 -6.722656 1.257812 -7.40625 2.34375 -7.75 C 2.96875 -7.957031 3.921875 -8.0625 5.203125 -8.0625 C 5.710938 -8.0625 6.085938 -8 6.328125 -7.875 C 6.660156 -7.695312 6.828125 -7.367188 6.828125 -6.890625 C 6.828125 -5.984375 6.582031 -5.53125 6.09375 -5.53125 Z M 6.09375 -5.53125 "/></g></g></g><g fill="#e9a436" fill-opacity="1"><g transform="translate(60.629443, 19.330644)"><g><path d="M 6.109375 -6.09375 C 6.003906 -6.09375 5.878906 -6.09375 5.734375 -6.09375 C 5.585938 -6.101562 5.460938 -6.109375 5.359375 -6.109375 C 5.148438 -6.109375 4.910156 -6.085938 4.640625 -6.046875 C 4.734375 -4.015625 4.78125 -2.6875 4.78125 -2.0625 C 4.78125 -1.988281 4.78125 -1.863281 4.78125 -1.6875 C 4.789062 -1.507812 4.796875 -1.363281 4.796875 -1.25 C 4.796875 -0.09375 4.429688 0.484375 3.703125 0.484375 C 3.421875 0.484375 3.179688 0.398438 2.984375 0.234375 C 2.753906 0.046875 2.640625 -0.179688 2.640625 -0.453125 C 2.640625 -0.628906 2.644531 -0.898438 2.65625 -1.265625 C 2.675781 -1.628906 2.6875 -1.90625 2.6875 -2.09375 C 2.6875 -2.695312 2.644531 -4 2.5625 -6 C 2.25 -6.019531 1.773438 -6.0625 1.140625 -6.125 C 0.503906 -6.195312 0.1875 -6.523438 0.1875 -7.109375 C 0.1875 -7.390625 0.28125 -7.628906 0.46875 -7.828125 C 0.664062 -8.023438 0.914062 -8.125 1.21875 -8.125 C 1.40625 -8.125 1.832031 -8.09375 2.5 -8.03125 C 2.5 -8.1875 2.488281 -8.453125 2.46875 -8.828125 C 2.445312 -9.148438 2.4375 -9.398438 2.4375 -9.578125 C 2.4375 -9.859375 2.535156 -10.09375 2.734375 -10.28125 C 2.941406 -10.46875 3.195312 -10.5625 3.5 -10.5625 C 4.238281 -10.5625 4.609375 -9.9375 4.609375 -8.6875 L 4.59375 -8.0625 C 4.90625 -8.101562 5.160156 -8.125 5.359375 -8.125 C 5.941406 -8.125 6.335938 -8.085938 6.546875 -8.015625 C 6.953125 -7.867188 7.15625 -7.5625 7.15625 -7.09375 C 7.15625 -6.800781 7.054688 -6.5625 6.859375 -6.375 C 6.660156 -6.1875 6.410156 -6.09375 6.109375 -6.09375 Z M 6.109375 -6.09375 "/></g></g></g><g fill="#e9a436" fill-opacity="1"><g transform="translate(67.923535, 19.330644)"><g><path d="M 7.109375 -5.453125 C 7.054688 -4.679688 6.707031 -4.296875 6.0625 -4.296875 C 5.425781 -4.296875 5.109375 -4.625 5.109375 -5.28125 L 5.0625 -6.046875 C 3.925781 -5.859375 3.113281 -5.273438 2.625 -4.296875 L 2.640625 -0.484375 C 2.640625 -0.203125 2.539062 0.03125 2.34375 0.21875 C 2.144531 0.40625 1.894531 0.5 1.59375 0.5 C 1.28125 0.5 1.039062 0.398438 0.875 0.203125 C 0.707031 0.0234375 0.625 -0.203125 0.625 -0.484375 L 0.625 -5.4375 C 0.625 -5.59375 0.628906 -5.828125 0.640625 -6.140625 C 0.648438 -6.453125 0.65625 -6.6875 0.65625 -6.84375 C 0.65625 -7.125 0.738281 -7.359375 0.90625 -7.546875 C 1.082031 -7.734375 1.328125 -7.828125 1.640625 -7.828125 C 2.191406 -7.828125 2.519531 -7.539062 2.625 -6.96875 C 3.519531 -7.632812 4.515625 -7.96875 5.609375 -7.96875 C 6.609375 -7.96875 7.109375 -7.296875 7.109375 -5.953125 C 7.109375 -5.703125 7.109375 -5.535156 7.109375 -5.453125 Z M 7.109375 -5.453125 "/></g></g></g><g fill="#e9a436" fill-opacity="1"><g transform="translate(75.361234, 19.330644)"><g><path d="M 7.296875 0.5 C 7.066406 0.5 6.695312 0.25 6.1875 -0.25 C 5.726562 -0.03125 5.320312 0.132812 4.96875 0.25 C 4.613281 0.363281 4.3125 0.421875 4.0625 0.421875 C 2.851562 0.421875 1.941406 0.0976562 1.328125 -0.546875 C 0.722656 -1.203125 0.421875 -2.179688 0.421875 -3.484375 C 0.421875 -4.691406 0.867188 -5.726562 1.765625 -6.59375 C 2.660156 -7.457031 3.734375 -7.890625 4.984375 -7.890625 C 5.460938 -7.890625 6.019531 -7.753906 6.65625 -7.484375 C 7.414062 -7.160156 7.796875 -6.78125 7.796875 -6.34375 C 7.796875 -6.164062 7.738281 -6.003906 7.625 -5.859375 C 7.570312 -5.660156 7.53125 -5.410156 7.5 -5.109375 C 7.476562 -4.804688 7.46875 -4.445312 7.46875 -4.03125 C 7.46875 -3.070312 7.535156 -2.378906 7.671875 -1.953125 C 7.679688 -1.910156 7.796875 -1.648438 8.015625 -1.171875 C 8.210938 -0.734375 8.3125 -0.488281 8.3125 -0.4375 C 8.3125 -0.164062 8.207031 0.0546875 8 0.234375 C 7.800781 0.410156 7.566406 0.5 7.296875 0.5 Z M 5.421875 -4.6875 C 5.421875 -4.84375 5.429688 -5.023438 5.453125 -5.234375 C 5.472656 -5.453125 5.507812 -5.6875 5.5625 -5.9375 C 5.457031 -5.988281 5.363281 -6.023438 5.28125 -6.046875 C 5.207031 -6.078125 5.144531 -6.09375 5.09375 -6.09375 C 4.40625 -6.09375 3.800781 -5.820312 3.28125 -5.28125 C 2.769531 -4.738281 2.515625 -4.117188 2.515625 -3.421875 C 2.515625 -2.742188 2.632812 -2.234375 2.875 -1.890625 C 3.125 -1.554688 3.488281 -1.390625 3.96875 -1.390625 C 4.28125 -1.390625 4.578125 -1.4375 4.859375 -1.53125 C 5.140625 -1.632812 5.398438 -1.789062 5.640625 -2 C 5.492188 -3.195312 5.421875 -4.09375 5.421875 -4.6875 Z M 5.421875 -4.6875 "/></g></g></g><g fill="#e9a436" fill-opacity="1"><g transform="translate(83.962964, 19.330644)"><g><path d="M 4.265625 0.453125 C 3.828125 0.453125 3.367188 0.398438 2.890625 0.296875 L 2.890625 3.375 C 2.890625 3.664062 2.789062 3.90625 2.59375 4.09375 C 2.394531 4.289062 2.144531 4.390625 1.84375 4.390625 C 1.539062 4.390625 1.289062 4.289062 1.09375 4.09375 C 0.894531 3.90625 0.796875 3.664062 0.796875 3.375 C 0.796875 3.144531 0.800781 2.207031 0.8125 0.5625 C 0.820312 -0.65625 0.820312 -1.648438 0.8125 -2.421875 C 0.800781 -3.515625 0.765625 -4.453125 0.703125 -5.234375 C 0.628906 -6.316406 0.59375 -6.816406 0.59375 -6.734375 C 0.59375 -7.148438 0.6875 -7.503906 0.875 -7.796875 C 1.09375 -8.140625 1.382812 -8.3125 1.75 -8.3125 C 2.03125 -8.3125 2.265625 -8.210938 2.453125 -8.015625 C 2.648438 -7.828125 2.75 -7.597656 2.75 -7.328125 L 2.75 -7.265625 C 3.082031 -7.453125 3.414062 -7.59375 3.75 -7.6875 C 4.09375 -7.78125 4.4375 -7.828125 4.78125 -7.828125 C 5.945312 -7.828125 6.796875 -7.332031 7.328125 -6.34375 C 7.722656 -5.601562 7.921875 -4.644531 7.921875 -3.46875 C 7.921875 -2.363281 7.609375 -1.445312 6.984375 -0.71875 C 6.304688 0.0625 5.398438 0.453125 4.265625 0.453125 Z M 4.78125 -5.8125 C 4.46875 -5.8125 4.144531 -5.734375 3.8125 -5.578125 C 3.488281 -5.429688 3.160156 -5.210938 2.828125 -4.921875 C 2.890625 -3.878906 2.921875 -2.835938 2.921875 -1.796875 C 3.367188 -1.648438 3.816406 -1.578125 4.265625 -1.578125 C 4.785156 -1.578125 5.179688 -1.757812 5.453125 -2.125 C 5.710938 -2.457031 5.84375 -2.90625 5.84375 -3.46875 C 5.84375 -4.144531 5.8125 -4.617188 5.75 -4.890625 C 5.601562 -5.503906 5.28125 -5.8125 4.78125 -5.8125 Z M 4.78125 -5.8125 "/></g></g></g></svg>