<svg xmlns="http://www.w3.org/2000/svg" width="150" height="40" version="1.0" viewBox="0 0 112.5 30"><defs><clipPath id="a"><path d="M1.574.281h108.871v28.75H1.575Zm0 0"/></clipPath><clipPath id="b"><path d="M8.832.281h94.352a7.262 7.262 0 0 1 7.261 7.258v14.234a7.262 7.262 0 0 1-7.262 7.258H8.833a7.262 7.262 0 0 1-5.133-2.125 7.245 7.245 0 0 1-2.125-5.133V7.54c0-1.926.762-3.773 2.125-5.133A7.262 7.262 0 0 1 8.832.281Zm0 0"/></clipPath><clipPath id="c"><path d="M1.578.281h108.867v28.75H1.578Zm0 0"/></clipPath><clipPath id="d"><path d="M8.836.281h94.344c1.925 0 3.77.766 5.132 2.125a7.262 7.262 0 0 1 2.126 5.133v14.234a7.26 7.26 0 0 1-7.258 7.254H8.836a7.252 7.252 0 0 1-7.258-7.254V7.54c0-1.926.766-3.773 2.125-5.133A7.268 7.268 0 0 1 8.836.281Zm0 0"/></clipPath></defs><g clip-path="url(#a)"><g clip-path="url(#b)"><path fill="#1d7886" d="M1.574.281h108.828v28.75H1.574Zm0 0"/></g></g><g clip-path="url(#c)"><g clip-path="url(#d)"><path fill="none" stroke="#e9a436" stroke-width="2.90324" d="M8.836.281h94.344c1.925 0 3.77.766 5.132 2.125a7.262 7.262 0 0 1 2.125 5.133v14.234a7.26 7.26 0 0 1-7.257 7.254H8.836a7.252 7.252 0 0 1-7.258-7.254V7.54c0-1.926.766-3.773 2.125-5.133A7.268 7.268 0 0 1 8.836.281Zm0 0"/></g></g><path fill="#e9a436" d="M26.447 19.034c-1.18.437-2.664.656-4.453.656-.304 0-.574-.125-.812-.375-.242-.25-.36-.52-.36-.812v-8.016c-.023-.344-.039-.68-.047-1.016a5.272 5.272 0 0 1 .047-.984c.07-.477.508-.77 1.313-.875.383-.102 1.02-.156 1.906-.156.957 0 1.875.308 2.75.922 1.02.718 1.531 1.617 1.531 2.687 0 .574-.109 1.063-.328 1.469-.168.312-.453.656-.86 1.031.49.242.923.602 1.298 1.078.426.531.64 1.063.64 1.594 0 .668-.367 1.305-1.093 1.906a5.39 5.39 0 0 1-1.532.89Zm-2.406-9.531c-.648 0-1.039.007-1.172.015l.016 1.594-.016 1.594c.457.054.805.074 1.047.062 1.54-.125 2.313-.691 2.313-1.703 0-.363-.23-.71-.688-1.047-.469-.344-.969-.515-1.5-.515Zm.89 5.343c-.46 0-1.148-.015-2.062-.047v2.829c.875-.051 1.817-.22 2.828-.5.883-.25 1.32-.524 1.313-.829-.012-.382-.297-.726-.86-1.03-.43-.24-.835-.38-1.218-.423ZM33.409 19.784c-.938 0-1.742-.324-2.407-.969-.742-.695-1.125-1.629-1.156-2.797-.043-1.113.258-2.11.906-2.984.77-1.031 1.836-1.547 3.204-1.547 1.007 0 1.812.406 2.406 1.219.531.718.797 1.617.797 2.687 0 1.18-.313 2.18-.938 3-.699.93-1.637 1.39-2.812 1.39Zm.453-6.297c-.625-.008-1.117.273-1.469.844-.305.48-.453 1.043-.453 1.687 0 .606.172 1.07.516 1.39.27.25.586.376.953.376.437 0 .816-.145 1.14-.438.364-.351.563-.828.594-1.422.063-1.625-.367-2.437-1.281-2.437ZM41.55 19.784c-.938 0-1.743-.324-2.407-.969-.742-.695-1.125-1.629-1.156-2.797-.043-1.113.258-2.11.906-2.984.77-1.031 1.836-1.547 3.203-1.547 1.008 0 1.813.406 2.406 1.219.532.718.797 1.617.797 2.687 0 1.18-.312 2.18-.937 3-.7.93-1.637 1.39-2.813 1.39Zm.452-6.297c-.625-.008-1.117.273-1.468.844-.305.48-.453 1.043-.453 1.687 0 .606.171 1.07.515 1.39.27.25.586.376.953.376.438 0 .817-.145 1.141-.438.363-.351.562-.828.594-1.422.062-1.625-.367-2.437-1.282-2.437ZM51.909 13.237h-.375c-.149-.008-.274-.016-.375-.016-.211 0-.45.024-.719.063.094 2.031.14 3.36.14 3.984v.375c.008.18.016.324.016.438 0 1.156-.367 1.734-1.093 1.734-.282 0-.524-.086-.72-.25-.23-.187-.343-.414-.343-.687 0-.176.004-.446.016-.813.02-.363.03-.64.03-.828 0-.602-.042-1.906-.124-3.906-.313-.02-.79-.063-1.422-.125-.637-.07-.953-.399-.953-.985 0-.281.094-.52.281-.718.195-.196.445-.297.75-.297.188 0 .613.03 1.281.093 0-.156-.011-.421-.03-.796-.024-.32-.032-.57-.032-.75 0-.282.098-.516.297-.704.207-.187.46-.28.765-.28.739 0 1.11.624 1.11 1.874l-.016.625a6.54 6.54 0 0 1 .766-.062c.582 0 .976.039 1.187.109.407.148.61.453.61.922a.954.954 0 0 1-.297.719c-.2.187-.45.28-.75.28ZM59.187 13.8c-.5 0-.804-.208-.906-.626-.2-.039-.402-.062-.61-.062-1.218 0-1.828.168-1.828.5 0 .2.364.465 1.094.797 1 .46 1.676.82 2.031 1.078.727.531 1.094 1.125 1.094 1.781 0 .875-.402 1.54-1.203 1.985-.656.351-1.46.53-2.406.53a5.16 5.16 0 0 1-1.828-.312c-.762-.281-1.14-.695-1.14-1.25 0-.5.3-.75.905-.75.227 0 .563.074 1 .219.438.148.774.219 1.016.219 1.02 0 1.535-.207 1.547-.625 0-.25-.36-.531-1.078-.844-1.032-.457-1.696-.789-1.985-1-.718-.5-1.078-1.102-1.078-1.812 0-1.02.54-1.704 1.625-2.047.625-.207 1.578-.313 2.86-.313.507 0 .882.063 1.125.188.332.18.5.507.5.984 0 .906-.246 1.36-.735 1.36ZM66.739 13.237h-.375c-.149-.008-.274-.016-.375-.016-.211 0-.45.024-.719.063.094 2.031.14 3.36.14 3.984v.375c.009.18.016.324.016.438 0 1.156-.367 1.734-1.093 1.734-.282 0-.524-.086-.72-.25-.23-.187-.343-.414-.343-.687 0-.176.004-.446.016-.813.02-.363.03-.64.03-.828 0-.602-.042-1.906-.124-3.906-.313-.02-.79-.063-1.422-.125-.637-.07-.953-.399-.953-.985 0-.281.094-.52.281-.718.196-.196.446-.297.75-.297.188 0 .613.03 1.281.093 0-.156-.011-.421-.03-.796-.024-.32-.032-.57-.032-.75 0-.282.098-.516.297-.704.207-.187.46-.28.765-.28.739 0 1.11.624 1.11 1.874l-.016.625a6.54 6.54 0 0 1 .766-.062c.582 0 .976.039 1.187.109.407.148.61.453.61.922a.954.954 0 0 1-.297.719c-.2.187-.45.28-.75.28ZM75.033 13.878c-.055.773-.402 1.156-1.047 1.156-.637 0-.953-.328-.953-.985l-.047-.765c-1.137.187-1.95.773-2.437 1.75l.015 3.812a.938.938 0 0 1-.297.703c-.199.188-.449.282-.75.282-.312 0-.554-.102-.718-.297-.168-.18-.25-.406-.25-.688v-4.953c0-.156.003-.39.015-.703.008-.312.016-.547.016-.703 0-.281.082-.516.25-.703.176-.188.422-.281.734-.281.55 0 .88.289.985.859.894-.664 1.89-1 2.984-1 1 0 1.5.672 1.5 2.016v.5ZM82.658 19.83c-.23 0-.601-.25-1.11-.75-.46.22-.866.383-1.218.5-.355.114-.656.173-.906.173-1.211 0-2.121-.325-2.735-.97-.605-.655-.906-1.632-.906-2.937 0-1.207.445-2.242 1.344-3.11.894-.862 1.969-1.296 3.219-1.296.476 0 1.035.137 1.671.406.758.324 1.141.703 1.141 1.14 0 .18-.058.34-.172.485-.054.2-.094.45-.125.75-.023.305-.031.664-.031 1.078 0 .961.066 1.653.203 2.079.008.042.125.304.344.78.195.438.297.684.297.735a.848.848 0 0 1-.313.672 1.03 1.03 0 0 1-.703.266Zm-1.875-5.187c0-.156.008-.336.031-.547.02-.218.055-.453.11-.703-.106-.05-.2-.086-.282-.11a.503.503 0 0 0-.187-.046c-.688 0-1.293.273-1.813.812-.511.543-.765 1.164-.765 1.86 0 .68.117 1.187.36 1.531.25.336.613.5 1.093.5.312 0 .61-.047.89-.14a2.45 2.45 0 0 0 .782-.47c-.149-1.195-.219-2.093-.219-2.687ZM88.229 19.784c-.438 0-.899-.055-1.375-.156v3.078a.96.96 0 0 1-.297.718c-.2.196-.45.297-.75.297-.305 0-.555-.101-.75-.297a.946.946 0 0 1-.297-.718c0-.23.004-1.168.015-2.813.008-1.219.008-2.21 0-2.984a41.717 41.717 0 0 0-.109-2.813c-.074-1.082-.11-1.582-.11-1.5 0-.414.094-.77.282-1.062.219-.344.508-.516.875-.516.281 0 .516.102.703.297a.922.922 0 0 1 .297.688v.062a4.481 4.481 0 0 1 1-.422c.344-.094.687-.14 1.031-.14 1.164 0 2.016.496 2.547 1.484.395.742.594 1.7.594 2.875 0 1.105-.313 2.023-.938 2.75-.68.781-1.586 1.172-2.718 1.172Zm.515-6.266c-.312 0-.637.078-.969.235a4.15 4.15 0 0 0-.984.656c.063 1.043.094 2.086.094 3.125.445.148.894.219 1.344.219.52 0 .914-.18 1.187-.547.258-.332.39-.782.39-1.344 0-.676-.03-1.149-.093-1.422-.148-.613-.469-.922-.969-.922Zm0 0"/></svg>