<svg xmlns="http://www.w3.org/2000/svg" xmlns:xlink="http://www.w3.org/1999/xlink" width="150" zoomAndPan="magnify" viewBox="0 0 112.5 30.000001" height="40" preserveAspectRatio="xMidYMid meet" version="1.0"><defs><g/><clipPath id="879988e638"><path d="M 1.574219 0.28125 L 110.445312 0.28125 L 110.445312 29.03125 L 1.574219 29.03125 Z M 1.574219 0.28125 " clip-rule="nonzero"/></clipPath><clipPath id="dc4826a25a"><path d="M 8.832031 0.28125 L 103.183594 0.28125 C 105.109375 0.28125 106.957031 1.046875 108.316406 2.40625 C 109.679688 3.765625 110.445312 5.613281 110.445312 7.539062 L 110.445312 21.773438 C 110.445312 23.699219 109.679688 25.546875 108.316406 26.90625 C 106.957031 28.265625 105.109375 29.03125 103.183594 29.03125 L 8.832031 29.03125 C 6.90625 29.03125 5.058594 28.265625 3.699219 26.90625 C 2.335938 25.546875 1.574219 23.699219 1.574219 21.773438 L 1.574219 7.539062 C 1.574219 5.613281 2.335938 3.765625 3.699219 2.40625 C 5.058594 1.046875 6.90625 0.28125 8.832031 0.28125 Z M 8.832031 0.28125 " clip-rule="nonzero"/></clipPath><clipPath id="ea58fd8340"><path d="M 1.578125 0.28125 L 110.445312 0.28125 L 110.445312 29.03125 L 1.578125 29.03125 Z M 1.578125 0.28125 " clip-rule="nonzero"/></clipPath><clipPath id="9924c1b21e"><path d="M 8.835938 0.28125 L 103.179688 0.28125 C 105.105469 0.28125 106.949219 1.046875 108.3125 2.40625 C 109.671875 3.765625 110.4375 5.613281 110.4375 7.539062 L 110.4375 21.773438 C 110.4375 23.695312 109.671875 25.542969 108.3125 26.902344 C 106.949219 28.265625 105.105469 29.027344 103.179688 29.027344 L 8.835938 29.027344 C 6.910156 29.027344 5.066406 28.265625 3.703125 26.902344 C 2.34375 25.542969 1.578125 23.695312 1.578125 21.773438 L 1.578125 7.539062 C 1.578125 5.613281 2.34375 3.765625 3.703125 2.40625 C 5.066406 1.046875 6.910156 0.28125 8.835938 0.28125 Z M 8.835938 0.28125 " clip-rule="nonzero"/></clipPath></defs><g clip-path="url(#879988e638)"><g clip-path="url(#dc4826a25a)"><path fill="#1d7886" d="M 1.574219 0.28125 L 110.402344 0.28125 L 110.402344 29.03125 L 1.574219 29.03125 Z M 1.574219 0.28125 " fill-opacity="1" fill-rule="nonzero"/></g></g><g clip-path="url(#ea58fd8340)"><g clip-path="url(#9924c1b21e)"><path stroke-linecap="butt" transform="matrix(0.725806, 0, 0, 0.725806, 1.578403, 0.280445)" fill="none" stroke-linejoin="miter" d="M 9.99927 0.00110902 L 139.984001 0.00110902 C 142.6373 0.00110902 145.177578 1.05597 147.055877 2.928887 C 148.928794 4.801804 149.983655 7.347464 149.983655 10.000763 L 149.983655 29.612569 C 149.983655 32.260486 148.928794 34.806146 147.055877 36.679063 C 145.177578 38.557362 142.6373 39.606841 139.984001 39.606841 L 9.99927 39.606841 C 7.345971 39.606841 4.805693 38.557362 2.927394 36.679063 C 1.054478 34.806146 -0.000383669 32.260486 -0.000383669 29.612569 L -0.000383669 10.000763 C -0.000383669 7.347464 1.054478 4.801804 2.927394 2.928887 C 4.805693 1.05597 7.345971 0.00110902 9.99927 0.00110902 Z M 9.99927 0.00110902 " stroke="#e9a436" stroke-width="4" stroke-opacity="1" stroke-miterlimit="4"/></g></g><g fill="#e9a436" fill-opacity="1"><g transform="translate(34.797662, 19.330644)"><g><path d="M 8.34375 -8.046875 C 7.894531 -8.046875 7.5625 -8.285156 7.34375 -8.765625 C 7.238281 -8.992188 7.132812 -9.128906 7.03125 -9.171875 C 6.957031 -9.210938 6.757812 -9.234375 6.4375 -9.234375 C 5.800781 -9.234375 5.066406 -8.738281 4.234375 -7.75 C 3.078125 -6.363281 2.5 -5.070312 2.5 -3.875 C 2.5 -3.320312 2.679688 -2.847656 3.046875 -2.453125 C 3.410156 -2.066406 3.851562 -1.875 4.375 -1.875 C 4.875 -1.875 5.378906 -2.003906 5.890625 -2.265625 C 6.066406 -2.359375 6.445312 -2.601562 7.03125 -3 C 7.425781 -3.257812 7.726562 -3.390625 7.9375 -3.390625 C 8.238281 -3.390625 8.492188 -3.28125 8.703125 -3.0625 C 8.898438 -2.851562 9 -2.613281 9 -2.34375 C 9 -2.050781 8.867188 -1.796875 8.609375 -1.578125 C 7.222656 -0.398438 5.8125 0.1875 4.375 0.1875 C 3.238281 0.1875 2.28125 -0.226562 1.5 -1.0625 C 0.75 -1.851562 0.375 -2.789062 0.375 -3.875 C 0.375 -5.5625 1.113281 -7.285156 2.59375 -9.046875 C 3.84375 -10.535156 5.125 -11.28125 6.4375 -11.28125 C 6.664062 -11.28125 6.867188 -11.269531 7.046875 -11.25 C 7.222656 -11.238281 7.378906 -11.21875 7.515625 -11.1875 C 7.734375 -11.40625 8 -11.515625 8.3125 -11.515625 C 8.832031 -11.515625 9.148438 -11.21875 9.265625 -10.625 C 9.347656 -10.207031 9.390625 -9.71875 9.390625 -9.15625 C 9.390625 -8.894531 9.316406 -8.660156 9.171875 -8.453125 C 8.984375 -8.179688 8.707031 -8.046875 8.34375 -8.046875 Z M 8.34375 -8.046875 "/></g></g></g><g fill="#e9a436" fill-opacity="1"><g transform="translate(44.374462, 19.330644)"><g><path d="M 7.296875 0.5 C 7.066406 0.5 6.695312 0.25 6.1875 -0.25 C 5.726562 -0.03125 5.320312 0.132812 4.96875 0.25 C 4.613281 0.363281 4.3125 0.421875 4.0625 0.421875 C 2.851562 0.421875 1.941406 0.0976562 1.328125 -0.546875 C 0.722656 -1.203125 0.421875 -2.179688 0.421875 -3.484375 C 0.421875 -4.691406 0.867188 -5.726562 1.765625 -6.59375 C 2.660156 -7.457031 3.734375 -7.890625 4.984375 -7.890625 C 5.460938 -7.890625 6.019531 -7.753906 6.65625 -7.484375 C 7.414062 -7.160156 7.796875 -6.78125 7.796875 -6.34375 C 7.796875 -6.164062 7.738281 -6.003906 7.625 -5.859375 C 7.570312 -5.660156 7.53125 -5.410156 7.5 -5.109375 C 7.476562 -4.804688 7.46875 -4.445312 7.46875 -4.03125 C 7.46875 -3.070312 7.535156 -2.378906 7.671875 -1.953125 C 7.679688 -1.910156 7.796875 -1.648438 8.015625 -1.171875 C 8.210938 -0.734375 8.3125 -0.488281 8.3125 -0.4375 C 8.3125 -0.164062 8.207031 0.0546875 8 0.234375 C 7.800781 0.410156 7.566406 0.5 7.296875 0.5 Z M 5.421875 -4.6875 C 5.421875 -4.84375 5.429688 -5.023438 5.453125 -5.234375 C 5.472656 -5.453125 5.507812 -5.6875 5.5625 -5.9375 C 5.457031 -5.988281 5.363281 -6.023438 5.28125 -6.046875 C 5.207031 -6.078125 5.144531 -6.09375 5.09375 -6.09375 C 4.40625 -6.09375 3.800781 -5.820312 3.28125 -5.28125 C 2.769531 -4.738281 2.515625 -4.117188 2.515625 -3.421875 C 2.515625 -2.742188 2.632812 -2.234375 2.875 -1.890625 C 3.125 -1.554688 3.488281 -1.390625 3.96875 -1.390625 C 4.28125 -1.390625 4.578125 -1.4375 4.859375 -1.53125 C 5.140625 -1.632812 5.398438 -1.789062 5.640625 -2 C 5.492188 -3.195312 5.421875 -4.09375 5.421875 -4.6875 Z M 5.421875 -4.6875 "/></g></g></g><g fill="#e9a436" fill-opacity="1"><g transform="translate(52.976192, 19.330644)"><g><path d="M 6.734375 0.53125 C 6.109375 0.53125 5.757812 0.226562 5.6875 -0.375 C 5.625 -0.894531 5.554688 -1.414062 5.484375 -1.9375 C 5.410156 -2.5 5.375 -3.023438 5.375 -3.515625 C 5.375 -3.640625 5.378906 -3.859375 5.390625 -4.171875 C 5.410156 -4.492188 5.421875 -4.722656 5.421875 -4.859375 C 5.421875 -4.890625 5.425781 -4.976562 5.4375 -5.125 C 5.445312 -5.269531 5.453125 -5.382812 5.453125 -5.46875 C 5.453125 -5.882812 5.34375 -6.09375 5.125 -6.09375 C 4.664062 -6.09375 4.210938 -5.820312 3.765625 -5.28125 C 3.316406 -4.738281 2.96875 -4.054688 2.71875 -3.234375 C 2.707031 -3.066406 2.679688 -2.84375 2.640625 -2.5625 C 2.609375 -2.332031 2.59375 -2.109375 2.59375 -1.890625 C 2.59375 -1.753906 2.609375 -1.539062 2.640625 -1.25 C 2.679688 -0.96875 2.703125 -0.757812 2.703125 -0.625 C 2.703125 -0.332031 2.601562 -0.09375 2.40625 0.09375 C 2.207031 0.28125 1.953125 0.375 1.640625 0.375 C 1.335938 0.375 1.085938 0.28125 0.890625 0.09375 C 0.703125 -0.09375 0.609375 -0.332031 0.609375 -0.625 C 0.609375 -0.757812 0.59375 -0.96875 0.5625 -1.25 C 0.53125 -1.539062 0.515625 -1.753906 0.515625 -1.890625 C 0.515625 -2.378906 0.546875 -3.050781 0.609375 -3.90625 C 0.679688 -4.769531 0.71875 -5.445312 0.71875 -5.9375 C 0.71875 -6.082031 0.707031 -6.304688 0.6875 -6.609375 C 0.675781 -6.910156 0.671875 -7.132812 0.671875 -7.28125 C 0.671875 -7.5625 0.769531 -7.789062 0.96875 -7.96875 C 1.175781 -8.15625 1.429688 -8.25 1.734375 -8.25 C 2.390625 -8.25 2.742188 -7.851562 2.796875 -7.0625 L 2.796875 -6.984375 C 3.535156 -7.722656 4.3125 -8.09375 5.125 -8.09375 C 6.082031 -8.09375 6.738281 -7.695312 7.09375 -6.90625 C 7.34375 -6.363281 7.46875 -5.5625 7.46875 -4.5 L 7.46875 -3.96875 C 7.457031 -3.738281 7.453125 -3.578125 7.453125 -3.484375 C 7.453125 -3.085938 7.503906 -2.578125 7.609375 -1.953125 C 7.722656 -1.335938 7.78125 -0.835938 7.78125 -0.453125 C 7.78125 -0.160156 7.675781 0.0703125 7.46875 0.25 C 7.269531 0.4375 7.023438 0.53125 6.734375 0.53125 Z M 6.734375 0.53125 "/></g></g></g><g fill="#e9a436" fill-opacity="1"><g transform="translate(61.079052, 19.330644)"><g><path d="M 4.828125 -0.5625 C 4.804688 -0.3125 4.703125 -0.109375 4.515625 0.046875 C 4.335938 0.210938 4.113281 0.296875 3.84375 0.296875 C 3.332031 0.296875 2.972656 0.0351562 2.765625 -0.484375 C 2.222656 -1.847656 1.390625 -3.878906 0.265625 -6.578125 C 0.203125 -6.722656 0.171875 -6.867188 0.171875 -7.015625 C 0.171875 -7.285156 0.28125 -7.515625 0.5 -7.703125 C 0.71875 -7.890625 0.96875 -7.984375 1.25 -7.984375 C 1.675781 -7.984375 1.984375 -7.785156 2.171875 -7.390625 C 2.460938 -6.773438 3.023438 -5.347656 3.859375 -3.109375 C 4.117188 -3.679688 4.484375 -4.546875 4.953125 -5.703125 C 5.097656 -6.097656 5.320312 -6.640625 5.625 -7.328125 C 5.820312 -7.734375 6.132812 -7.9375 6.5625 -7.9375 C 6.84375 -7.9375 7.09375 -7.84375 7.3125 -7.65625 C 7.53125 -7.46875 7.640625 -7.238281 7.640625 -6.96875 C 7.640625 -6.78125 7.226562 -5.78125 6.40625 -3.96875 C 5.738281 -2.488281 5.210938 -1.351562 4.828125 -0.5625 Z M 4.828125 -0.5625 "/></g></g></g><g fill="#e9a436" fill-opacity="1"><g transform="translate(68.607455, 19.330644)"><g><path d="M 7.296875 0.5 C 7.066406 0.5 6.695312 0.25 6.1875 -0.25 C 5.726562 -0.03125 5.320312 0.132812 4.96875 0.25 C 4.613281 0.363281 4.3125 0.421875 4.0625 0.421875 C 2.851562 0.421875 1.941406 0.0976562 1.328125 -0.546875 C 0.722656 -1.203125 0.421875 -2.179688 0.421875 -3.484375 C 0.421875 -4.691406 0.867188 -5.726562 1.765625 -6.59375 C 2.660156 -7.457031 3.734375 -7.890625 4.984375 -7.890625 C 5.460938 -7.890625 6.019531 -7.753906 6.65625 -7.484375 C 7.414062 -7.160156 7.796875 -6.78125 7.796875 -6.34375 C 7.796875 -6.164062 7.738281 -6.003906 7.625 -5.859375 C 7.570312 -5.660156 7.53125 -5.410156 7.5 -5.109375 C 7.476562 -4.804688 7.46875 -4.445312 7.46875 -4.03125 C 7.46875 -3.070312 7.535156 -2.378906 7.671875 -1.953125 C 7.679688 -1.910156 7.796875 -1.648438 8.015625 -1.171875 C 8.210938 -0.734375 8.3125 -0.488281 8.3125 -0.4375 C 8.3125 -0.164062 8.207031 0.0546875 8 0.234375 C 7.800781 0.410156 7.566406 0.5 7.296875 0.5 Z M 5.421875 -4.6875 C 5.421875 -4.84375 5.429688 -5.023438 5.453125 -5.234375 C 5.472656 -5.453125 5.507812 -5.6875 5.5625 -5.9375 C 5.457031 -5.988281 5.363281 -6.023438 5.28125 -6.046875 C 5.207031 -6.078125 5.144531 -6.09375 5.09375 -6.09375 C 4.40625 -6.09375 3.800781 -5.820312 3.28125 -5.28125 C 2.769531 -4.738281 2.515625 -4.117188 2.515625 -3.421875 C 2.515625 -2.742188 2.632812 -2.234375 2.875 -1.890625 C 3.125 -1.554688 3.488281 -1.390625 3.96875 -1.390625 C 4.28125 -1.390625 4.578125 -1.4375 4.859375 -1.53125 C 5.140625 -1.632812 5.398438 -1.789062 5.640625 -2 C 5.492188 -3.195312 5.421875 -4.09375 5.421875 -4.6875 Z M 5.421875 -4.6875 "/></g></g></g></svg>