<svg xmlns="http://www.w3.org/2000/svg" width="150" height="40" version="1.0" viewBox="0 0 112.5 30"><defs><clipPath id="a"><path d="M1.574.281h108.871v28.75H1.575Zm0 0"/></clipPath><clipPath id="b"><path d="M8.832.281h94.352a7.262 7.262 0 0 1 7.261 7.258v14.234a7.262 7.262 0 0 1-7.262 7.258H8.833a7.262 7.262 0 0 1-5.133-2.125 7.245 7.245 0 0 1-2.125-5.133V7.54c0-1.926.762-3.773 2.125-5.133A7.262 7.262 0 0 1 8.832.281Zm0 0"/></clipPath><clipPath id="c"><path d="M1.578.281h108.867v28.75H1.578Zm0 0"/></clipPath><clipPath id="d"><path d="M8.836.281h94.344c1.925 0 3.77.766 5.132 2.125a7.262 7.262 0 0 1 2.126 5.133v14.234a7.26 7.26 0 0 1-7.258 7.254H8.836a7.252 7.252 0 0 1-7.258-7.254V7.54c0-1.926.766-3.773 2.125-5.133A7.268 7.268 0 0 1 8.836.281Zm0 0"/></clipPath></defs><g clip-path="url(#a)"><g clip-path="url(#b)"><path fill="#1d7886" d="M1.574.281h108.828v28.75H1.574Zm0 0"/></g></g><g clip-path="url(#c)"><g clip-path="url(#d)"><path fill="none" stroke="#e9a436" stroke-width="2.90324" d="M8.836.281h94.344c1.925 0 3.77.766 5.132 2.125a7.262 7.262 0 0 1 2.125 5.133v14.234a7.26 7.26 0 0 1-7.257 7.254H8.836a7.252 7.252 0 0 1-7.258-7.254V7.54c0-1.926.766-3.773 2.125-5.133A7.268 7.268 0 0 1 8.836.281Zm0 0"/></g></g><path fill="#e9a436" d="M43.141 10.268c-.449 0-.78-.239-1-.72-.105-.226-.21-.362-.312-.405-.074-.04-.274-.063-.594-.063-.637 0-1.37.496-2.203 1.485-1.156 1.386-1.734 2.68-1.734 3.875 0 .554.18 1.027.547 1.421a1.75 1.75 0 0 0 1.328.579c.5 0 1.004-.13 1.515-.391.176-.094.555-.336 1.14-.734.395-.258.696-.391.907-.391.3 0 .555.11.766.328.195.211.297.45.297.719 0 .293-.133.547-.391.765-1.387 1.18-2.797 1.766-4.234 1.766-1.137 0-2.094-.414-2.875-1.25a3.943 3.943 0 0 1-1.125-2.812c0-1.688.738-3.41 2.218-5.172 1.25-1.489 2.532-2.235 3.844-2.235.227 0 .43.012.61.032.175.011.332.03.468.062.219-.219.485-.328.797-.328.52 0 .836.297.953.89.082.418.125.907.125 1.47a1.2 1.2 0 0 1-.218.702c-.188.274-.465.407-.829.407ZM51.671 18.815c-.23 0-.601-.25-1.109-.75-.461.218-.867.382-1.219.5-.355.113-.656.171-.906.171-1.211 0-2.121-.324-2.734-.968-.606-.657-.907-1.633-.907-2.938 0-1.207.446-2.242 1.344-3.11.895-.863 1.969-1.296 3.219-1.296.476 0 1.035.137 1.672.406.758.324 1.14.703 1.14 1.14 0 .18-.058.34-.172.485-.054.2-.093.45-.125.75-.023.305-.03.664-.03 1.078 0 .961.066 1.653.202 2.078.008.043.125.305.344.782.195.437.297.683.297.734a.848.848 0 0 1-.313.672 1.03 1.03 0 0 1-.703.266Zm-1.875-5.188c0-.156.008-.336.032-.547.02-.219.054-.453.109-.703-.106-.05-.2-.086-.281-.11a.503.503 0 0 0-.188-.046c-.687 0-1.293.273-1.812.812-.512.543-.766 1.164-.766 1.86 0 .68.117 1.187.36 1.53.25.337.613.5 1.093.5.313 0 .61-.046.89-.14a2.45 2.45 0 0 0 .782-.468c-.148-1.196-.219-2.094-.219-2.688ZM59.71 18.846c-.624 0-.976-.305-1.046-.906-.063-.52-.133-1.04-.203-1.563a12.055 12.055 0 0 1-.094-2.234c.02-.32.031-.551.031-.688 0-.031.004-.117.016-.265.008-.145.015-.258.015-.344 0-.414-.11-.625-.328-.625-.46 0-.914.273-1.36.812-.448.543-.796 1.227-1.046 2.047-.012.168-.04.39-.078.672-.031.23-.047.453-.047.672 0 .137.016.351.047.64.039.282.062.493.062.626a.954.954 0 0 1-.297.718c-.199.188-.453.282-.765.282-.305 0-.555-.094-.75-.282a.971.971 0 0 1-.281-.718 6.32 6.32 0 0 0-.047-.625 6.641 6.641 0 0 1-.047-.641c0-.488.031-1.16.094-2.016.07-.863.109-1.539.109-2.031 0-.145-.012-.367-.031-.672-.012-.3-.016-.523-.016-.672a.88.88 0 0 1 .297-.687c.207-.188.46-.281.766-.281.656 0 1.007.398 1.062 1.187v.078c.738-.738 1.516-1.11 2.328-1.11.957 0 1.613.4 1.969 1.188.25.543.375 1.344.375 2.407v.53c-.012.231-.016.391-.016.485 0 .399.051.906.157 1.531.113.618.171 1.118.171 1.5a.883.883 0 0 1-.312.704c-.2.187-.445.28-.734.28ZM65.907 17.752a.864.864 0 0 1-.312.61.96.96 0 0 1-.672.25c-.512 0-.871-.262-1.078-.782a447.696 447.696 0 0 0-2.5-6.094 1.089 1.089 0 0 1-.094-.437c0-.27.11-.5.328-.688a1.12 1.12 0 0 1 .75-.28c.426 0 .734.198.922.593.289.617.851 2.043 1.687 4.281.258-.57.625-1.437 1.094-2.594.145-.394.367-.937.672-1.625.195-.406.508-.609.938-.609.28 0 .53.094.75.281a.874.874 0 0 1 .328.688c0 .187-.414 1.187-1.235 3a143.916 143.916 0 0 1-1.578 3.406ZM75.904 18.815c-.23 0-.601-.25-1.109-.75-.461.218-.867.382-1.219.5-.355.113-.656.171-.906.171-1.211 0-2.121-.324-2.734-.968-.606-.657-.907-1.633-.907-2.938 0-1.207.446-2.242 1.344-3.11.895-.863 1.969-1.296 3.219-1.296.476 0 1.035.137 1.672.406.758.324 1.14.703 1.14 1.14 0 .18-.058.34-.172.485-.054.2-.093.45-.125.75-.023.305-.03.664-.03 1.078 0 .961.066 1.653.202 2.078.008.043.125.305.344.782.195.437.297.683.297.734a.848.848 0 0 1-.313.672 1.03 1.03 0 0 1-.703.266Zm-1.875-5.188c0-.156.008-.336.032-.547.02-.219.054-.453.109-.703-.106-.05-.2-.086-.281-.11a.503.503 0 0 0-.188-.046c-.687 0-1.293.273-1.812.812-.512.543-.766 1.164-.766 1.86 0 .68.117 1.187.36 1.53.25.337.613.5 1.093.5.313 0 .61-.046.89-.14a2.45 2.45 0 0 0 .782-.468c-.148-1.196-.219-2.094-.219-2.688Zm0 0"/></svg>