<svg xmlns="http://www.w3.org/2000/svg" width="150" height="40" version="1.0" viewBox="0 0 112.5 30"><defs><clipPath id="a"><path d="M1.574.281h108.871v28.75H1.575Zm0 0"/></clipPath><clipPath id="b"><path d="M8.832.281h94.352a7.262 7.262 0 0 1 7.261 7.258v14.234a7.262 7.262 0 0 1-7.262 7.258H8.833a7.262 7.262 0 0 1-5.133-2.125 7.245 7.245 0 0 1-2.125-5.133V7.54c0-1.926.762-3.773 2.125-5.133A7.262 7.262 0 0 1 8.832.281Zm0 0"/></clipPath><clipPath id="c"><path d="M1.578.281h108.867v28.75H1.578Zm0 0"/></clipPath><clipPath id="d"><path d="M8.836.281h94.344c1.925 0 3.77.766 5.132 2.125a7.262 7.262 0 0 1 2.126 5.133v14.234a7.26 7.26 0 0 1-7.258 7.254H8.836a7.252 7.252 0 0 1-7.258-7.254V7.54c0-1.926.766-3.773 2.125-5.133A7.268 7.268 0 0 1 8.836.281Zm0 0"/></clipPath></defs><g clip-path="url(#a)"><g clip-path="url(#b)"><path fill="#1d7886" d="M1.574.281h108.828v28.75H1.574Zm0 0"/></g></g><g clip-path="url(#c)"><g clip-path="url(#d)"><path fill="none" stroke="#e9a436" stroke-width="2.90324" d="M8.836.281h94.344c1.925 0 3.77.766 5.132 2.125a7.262 7.262 0 0 1 2.125 5.133v14.234a7.26 7.26 0 0 1-7.257 7.254H8.836a7.252 7.252 0 0 1-7.258-7.254V7.54c0-1.926.766-3.773 2.125-5.133A7.268 7.268 0 0 1 8.836.281Zm0 0"/></g></g><path fill="#e9a436" d="M48.825 11.284c-.45 0-.782-.239-1-.719-.106-.227-.211-.363-.313-.406-.074-.04-.273-.063-.594-.063-.636 0-1.37.496-2.203 1.485-1.156 1.386-1.734 2.68-1.734 3.875 0 .554.18 1.027.547 1.422a1.75 1.75 0 0 0 1.328.578c.5 0 1.004-.13 1.516-.391.175-.094.554-.336 1.14-.734.395-.258.696-.391.906-.391.301 0 .555.11.766.328.195.211.297.45.297.719 0 .293-.133.547-.39.766-1.387 1.18-2.798 1.765-4.235 1.765-1.137 0-2.094-.414-2.875-1.25a3.943 3.943 0 0 1-1.125-2.812c0-1.688.738-3.41 2.219-5.172 1.25-1.489 2.531-2.235 3.843-2.235.227 0 .43.012.61.032.176.011.332.03.469.062.218-.219.484-.328.796-.328.52 0 .836.297.954.89.082.419.125.907.125 1.47a1.2 1.2 0 0 1-.22.703c-.187.273-.464.406-.827.406ZM54.37 19.8c-1.281 0-2.289-.29-3.015-.86-.625-.477-.938-1.023-.938-1.64 0-.32.094-.587.281-.797.196-.208.461-.313.797-.313.457 0 .79.234 1 .703.29.617.942.922 1.953.922.864 0 1.704-.187 2.516-.562.844-.383 1.266-.813 1.266-1.282 0-.633-.262-1.05-.782-1.25-.375-.144-1.125-.234-2.25-.265-.875-.02-1.656-.18-2.343-.485-.93-.414-1.387-1.015-1.375-1.797.007-.988.53-1.89 1.562-2.703 1.04-.82 2.18-1.234 3.422-1.234.5 0 1.11.117 1.828.344.906.28 1.36.605 1.36.968 0 .262-.09.496-.266.704-.211.23-.469.343-.781.343-.243 0-.594-.05-1.063-.156-.469-.102-.828-.156-1.078-.156a4.124 4.124 0 0 0-1.844.469c-.605.312-.906.656-.906 1.03 0 .188.086.345.266.47.187.125.46.214.828.265l1.937.094c1.114.094 2 .414 2.657.953.707.605 1.062 1.438 1.062 2.5 0 1.305-.742 2.293-2.219 2.969-1.125.508-2.418.765-3.875.765ZM65.104 19.8c-1.282 0-2.29-.29-3.016-.86-.625-.477-.938-1.023-.938-1.64 0-.32.094-.587.282-.797.195-.208.46-.313.797-.313.457 0 .789.234 1 .703.289.617.941.922 1.953.922.863 0 1.703-.187 2.515-.562.844-.383 1.266-.813 1.266-1.282 0-.633-.262-1.05-.781-1.25-.375-.144-1.125-.234-2.25-.265-.875-.02-1.657-.18-2.344-.485-.93-.414-1.387-1.015-1.375-1.797.008-.988.531-1.89 1.562-2.703 1.04-.82 2.18-1.234 3.422-1.234.5 0 1.11.117 1.828.344.907.28 1.36.605 1.36.968 0 .262-.09.496-.266.704-.21.23-.469.343-.781.343-.242 0-.594-.05-1.063-.156-.468-.102-.828-.156-1.078-.156a4.124 4.124 0 0 0-1.843.469c-.606.312-.907.656-.907 1.03 0 .188.086.345.266.47.187.125.46.214.828.265l1.938.094c1.113.094 2 .414 2.656.953.707.605 1.062 1.438 1.062 2.5 0 1.305-.742 2.293-2.218 2.969-1.125.508-2.418.765-3.875.765Zm0 0"/></svg>