<svg xmlns="http://www.w3.org/2000/svg" xmlns:xlink="http://www.w3.org/1999/xlink" width="150" zoomAndPan="magnify" viewBox="0 0 112.5 30.000001" height="40" preserveAspectRatio="xMidYMid meet" version="1.0"><defs><g/><clipPath id="812560c0d6"><path d="M 1.574219 0.28125 L 110.445312 0.28125 L 110.445312 29.03125 L 1.574219 29.03125 Z M 1.574219 0.28125 " clip-rule="nonzero"/></clipPath><clipPath id="c3ade34505"><path d="M 8.832031 0.28125 L 103.183594 0.28125 C 105.109375 0.28125 106.957031 1.046875 108.316406 2.40625 C 109.679688 3.765625 110.445312 5.613281 110.445312 7.539062 L 110.445312 21.773438 C 110.445312 23.699219 109.679688 25.546875 108.316406 26.90625 C 106.957031 28.265625 105.109375 29.03125 103.183594 29.03125 L 8.832031 29.03125 C 6.90625 29.03125 5.058594 28.265625 3.699219 26.90625 C 2.335938 25.546875 1.574219 23.699219 1.574219 21.773438 L 1.574219 7.539062 C 1.574219 5.613281 2.335938 3.765625 3.699219 2.40625 C 5.058594 1.046875 6.90625 0.28125 8.832031 0.28125 Z M 8.832031 0.28125 " clip-rule="nonzero"/></clipPath><clipPath id="72f8338340"><path d="M 1.578125 0.28125 L 110.445312 0.28125 L 110.445312 29.03125 L 1.578125 29.03125 Z M 1.578125 0.28125 " clip-rule="nonzero"/></clipPath><clipPath id="dd373dbc85"><path d="M 8.835938 0.28125 L 103.179688 0.28125 C 105.105469 0.28125 106.949219 1.046875 108.3125 2.40625 C 109.671875 3.765625 110.4375 5.613281 110.4375 7.539062 L 110.4375 21.773438 C 110.4375 23.695312 109.671875 25.542969 108.3125 26.902344 C 106.949219 28.265625 105.105469 29.027344 103.179688 29.027344 L 8.835938 29.027344 C 6.910156 29.027344 5.066406 28.265625 3.703125 26.902344 C 2.34375 25.542969 1.578125 23.695312 1.578125 21.773438 L 1.578125 7.539062 C 1.578125 5.613281 2.34375 3.765625 3.703125 2.40625 C 5.066406 1.046875 6.910156 0.28125 8.835938 0.28125 Z M 8.835938 0.28125 " clip-rule="nonzero"/></clipPath></defs><g clip-path="url(#812560c0d6)"><g clip-path="url(#c3ade34505)"><path fill="#1d7886" d="M 1.574219 0.28125 L 110.402344 0.28125 L 110.402344 29.03125 L 1.574219 29.03125 Z M 1.574219 0.28125 " fill-opacity="1" fill-rule="nonzero"/></g></g><g clip-path="url(#72f8338340)"><g clip-path="url(#dd373dbc85)"><path stroke-linecap="butt" transform="matrix(0.725806, 0, 0, 0.725806, 1.578403, 0.280445)" fill="none" stroke-linejoin="miter" d="M 9.99927 0.00110902 L 139.984001 0.00110902 C 142.6373 0.00110902 145.177578 1.05597 147.055877 2.928887 C 148.928794 4.801804 149.983655 7.347464 149.983655 10.000763 L 149.983655 29.612569 C 149.983655 32.260486 148.928794 34.806146 147.055877 36.679063 C 145.177578 38.557362 142.6373 39.606841 139.984001 39.606841 L 9.99927 39.606841 C 7.345971 39.606841 4.805693 38.557362 2.927394 36.679063 C 1.054478 34.806146 -0.000383669 32.260486 -0.000383669 29.612569 L -0.000383669 10.000763 C -0.000383669 7.347464 1.054478 4.801804 2.927394 2.928887 C 4.805693 1.05597 7.345971 0.00110902 9.99927 0.00110902 Z M 9.99927 0.00110902 " stroke="#e9a436" stroke-width="4" stroke-opacity="1" stroke-miterlimit="4"/></g></g><g fill="#e9a436" fill-opacity="1"><g transform="translate(44.926554, 19.330644)"><g><path d="M 10.09375 -4.453125 C 9.75 -2.941406 9.054688 -1.738281 8.015625 -0.84375 C 6.960938 0.0625 5.726562 0.515625 4.3125 0.515625 C 2.976562 0.515625 1.972656 0.160156 1.296875 -0.546875 C 0.628906 -1.253906 0.296875 -2.316406 0.296875 -3.734375 C 0.296875 -5.015625 0.613281 -6.332031 1.25 -7.6875 C 1.882812 -9.050781 2.703125 -10.15625 3.703125 -11 C 4.398438 -11.582031 5.148438 -11.875 5.953125 -11.875 C 6.441406 -11.875 7.109375 -11.695312 7.953125 -11.34375 C 8.941406 -10.925781 9.4375 -10.484375 9.4375 -10.015625 C 9.4375 -9.742188 9.332031 -9.5 9.125 -9.28125 C 8.925781 -9.0625 8.675781 -8.953125 8.375 -8.953125 C 8.21875 -8.953125 7.878906 -9.09375 7.359375 -9.375 C 6.847656 -9.664062 6.378906 -9.8125 5.953125 -9.8125 C 5.492188 -9.8125 4.878906 -9.320312 4.109375 -8.34375 C 2.984375 -6.925781 2.421875 -5.390625 2.421875 -3.734375 C 2.421875 -2.890625 2.546875 -2.316406 2.796875 -2.015625 C 3.054688 -1.691406 3.5625 -1.53125 4.3125 -1.53125 C 5.082031 -1.53125 5.757812 -1.75 6.34375 -2.1875 C 6.96875 -2.65625 7.429688 -3.332031 7.734375 -4.21875 C 6.554688 -4.125 5.535156 -3.882812 4.671875 -3.5 C 4.515625 -3.425781 4.359375 -3.390625 4.203125 -3.390625 C 3.890625 -3.390625 3.628906 -3.507812 3.421875 -3.75 C 3.234375 -3.945312 3.140625 -4.179688 3.140625 -4.453125 C 3.140625 -5.222656 4.050781 -5.757812 5.875 -6.0625 C 6.90625 -6.238281 8.109375 -6.328125 9.484375 -6.328125 C 9.785156 -6.328125 10.035156 -6.226562 10.234375 -6.03125 C 10.441406 -5.832031 10.546875 -5.585938 10.546875 -5.296875 C 10.546875 -4.929688 10.394531 -4.648438 10.09375 -4.453125 Z M 10.09375 -4.453125 "/></g></g></g><g fill="#e9a436" fill-opacity="1"><g transform="translate(55.448178, 19.330644)"><g><path d="M 2.5 -9.09375 C 2.175781 -9.09375 1.894531 -9.195312 1.65625 -9.40625 C 1.414062 -9.625 1.296875 -9.890625 1.296875 -10.203125 C 1.296875 -10.515625 1.414062 -10.78125 1.65625 -11 C 1.894531 -11.21875 2.175781 -11.328125 2.5 -11.328125 C 2.820312 -11.328125 3.097656 -11.21875 3.328125 -11 C 3.566406 -10.78125 3.6875 -10.515625 3.6875 -10.203125 C 3.6875 -9.890625 3.566406 -9.625 3.328125 -9.40625 C 3.097656 -9.195312 2.820312 -9.09375 2.5 -9.09375 Z M 3.140625 -3.546875 C 3.140625 -3.253906 3.144531 -2.789062 3.15625 -2.15625 C 3.175781 -1.519531 3.1875 -1.0625 3.1875 -0.78125 C 3.1875 -0.488281 3.085938 -0.242188 2.890625 -0.046875 C 2.691406 0.140625 2.441406 0.234375 2.140625 0.234375 C 1.835938 0.234375 1.585938 0.140625 1.390625 -0.046875 C 1.203125 -0.242188 1.109375 -0.488281 1.109375 -0.78125 C 1.109375 -1.0625 1.097656 -1.519531 1.078125 -2.15625 C 1.054688 -2.789062 1.046875 -3.253906 1.046875 -3.546875 C 1.046875 -3.992188 1.070312 -4.554688 1.125 -5.234375 C 1.175781 -5.910156 1.203125 -6.472656 1.203125 -6.921875 C 1.203125 -7.210938 1.300781 -7.453125 1.5 -7.640625 C 1.695312 -7.828125 1.945312 -7.921875 2.25 -7.921875 C 2.550781 -7.921875 2.796875 -7.828125 2.984375 -7.640625 C 3.179688 -7.453125 3.28125 -7.210938 3.28125 -6.921875 C 3.28125 -6.472656 3.253906 -5.910156 3.203125 -5.234375 C 3.160156 -4.554688 3.140625 -3.992188 3.140625 -3.546875 Z M 3.140625 -3.546875 "/></g></g></g><g fill="#e9a436" fill-opacity="1"><g transform="translate(59.786836, 19.330644)"><g><path d="M 6.109375 -6.09375 C 6.003906 -6.09375 5.878906 -6.09375 5.734375 -6.09375 C 5.585938 -6.101562 5.460938 -6.109375 5.359375 -6.109375 C 5.148438 -6.109375 4.910156 -6.085938 4.640625 -6.046875 C 4.734375 -4.015625 4.78125 -2.6875 4.78125 -2.0625 C 4.78125 -1.988281 4.78125 -1.863281 4.78125 -1.6875 C 4.789062 -1.507812 4.796875 -1.363281 4.796875 -1.25 C 4.796875 -0.09375 4.429688 0.484375 3.703125 0.484375 C 3.421875 0.484375 3.179688 0.398438 2.984375 0.234375 C 2.753906 0.046875 2.640625 -0.179688 2.640625 -0.453125 C 2.640625 -0.628906 2.644531 -0.898438 2.65625 -1.265625 C 2.675781 -1.628906 2.6875 -1.90625 2.6875 -2.09375 C 2.6875 -2.695312 2.644531 -4 2.5625 -6 C 2.25 -6.019531 1.773438 -6.0625 1.140625 -6.125 C 0.503906 -6.195312 0.1875 -6.523438 0.1875 -7.109375 C 0.1875 -7.390625 0.28125 -7.628906 0.46875 -7.828125 C 0.664062 -8.023438 0.914062 -8.125 1.21875 -8.125 C 1.40625 -8.125 1.832031 -8.09375 2.5 -8.03125 C 2.5 -8.1875 2.488281 -8.453125 2.46875 -8.828125 C 2.445312 -9.148438 2.4375 -9.398438 2.4375 -9.578125 C 2.4375 -9.859375 2.535156 -10.09375 2.734375 -10.28125 C 2.941406 -10.46875 3.195312 -10.5625 3.5 -10.5625 C 4.238281 -10.5625 4.609375 -9.9375 4.609375 -8.6875 L 4.59375 -8.0625 C 4.90625 -8.101562 5.160156 -8.125 5.359375 -8.125 C 5.941406 -8.125 6.335938 -8.085938 6.546875 -8.015625 C 6.953125 -7.867188 7.15625 -7.5625 7.15625 -7.09375 C 7.15625 -6.800781 7.054688 -6.5625 6.859375 -6.375 C 6.660156 -6.1875 6.410156 -6.09375 6.109375 -6.09375 Z M 6.109375 -6.09375 "/></g></g></g></svg>