<svg xmlns="http://www.w3.org/2000/svg" width="150" height="40" version="1.0" viewBox="0 0 112.5 30"><defs><clipPath id="a"><path d="M1.574.281h108.871v28.75H1.575Zm0 0"/></clipPath><clipPath id="b"><path d="M8.832.281h94.352a7.262 7.262 0 0 1 7.261 7.258v14.234a7.262 7.262 0 0 1-7.262 7.258H8.833a7.262 7.262 0 0 1-5.133-2.125 7.245 7.245 0 0 1-2.125-5.133V7.54c0-1.926.762-3.773 2.125-5.133A7.262 7.262 0 0 1 8.832.281Zm0 0"/></clipPath><clipPath id="c"><path d="M1.578.281h108.867v28.75H1.578Zm0 0"/></clipPath><clipPath id="d"><path d="M8.836.281h94.344c1.925 0 3.77.766 5.132 2.125a7.262 7.262 0 0 1 2.126 5.133v14.234a7.26 7.26 0 0 1-7.258 7.254H8.836a7.252 7.252 0 0 1-7.258-7.254V7.54c0-1.926.766-3.773 2.125-5.133A7.268 7.268 0 0 1 8.836.281Zm0 0"/></clipPath></defs><g clip-path="url(#a)"><g clip-path="url(#b)"><path fill="#1d7886" d="M1.574.281h108.828v28.75H1.574Zm0 0"/></g></g><g clip-path="url(#c)"><g clip-path="url(#d)"><path fill="none" stroke="#e9a436" stroke-width="2.90324" d="M8.836.281h94.344c1.925 0 3.77.766 5.132 2.125a7.262 7.262 0 0 1 2.125 5.133v14.234a7.26 7.26 0 0 1-7.257 7.254H8.836a7.252 7.252 0 0 1-7.258-7.254V7.54c0-1.926.766-3.773 2.125-5.133A7.268 7.268 0 0 1 8.836.281Zm0 0"/></g></g><path fill="#e9a436" d="M55.02 14.878c-.343 1.511-1.039 2.714-2.078 3.609-1.055.906-2.289 1.36-3.703 1.36-1.336 0-2.34-.356-3.016-1.063-.668-.707-1-1.77-1-3.188 0-1.281.317-2.597.954-3.953.632-1.363 1.453-2.469 2.453-3.312.695-.582 1.445-.875 2.25-.875.488 0 1.156.18 2 .53.988.419 1.484.86 1.484 1.329 0 .273-.105.516-.312.734a.972.972 0 0 1-.75.329c-.157 0-.497-.141-1.016-.422-.512-.29-.98-.438-1.406-.438-.461 0-1.075.492-1.844 1.469-1.125 1.418-1.688 2.953-1.688 4.61 0 .843.125 1.417.375 1.718.258.324.766.484 1.516.484.77 0 1.445-.218 2.031-.656.625-.469 1.086-1.144 1.39-2.031-1.179.094-2.198.336-3.062.719-.156.074-.312.109-.468.109a.983.983 0 0 1-.782-.36.98.98 0 0 1-.28-.702c0-.77.91-1.305 2.734-1.61 1.03-.176 2.234-.265 3.609-.265.3 0 .55.101.75.296.207.2.312.446.312.735a.948.948 0 0 1-.453.844ZM57.948 10.237c-.324 0-.605-.102-.844-.313a1.03 1.03 0 0 1-.359-.796c0-.313.117-.579.36-.797.238-.22.519-.328.843-.328.32 0 .598.109.828.328.239.218.36.484.36.797 0 .312-.121.578-.36.796-.23.211-.508.313-.828.313Zm.64 5.547c0 .293.005.758.016 1.39.02.637.032 1.094.032 1.375 0 .293-.102.54-.297.735-.2.187-.45.281-.75.281-.305 0-.555-.094-.75-.281a1.02 1.02 0 0 1-.281-.735c0-.28-.012-.738-.032-1.375a39.458 39.458 0 0 1-.03-1.39c0-.446.022-1.008.077-1.688.051-.676.078-1.238.078-1.687 0-.29.098-.531.297-.719.195-.187.445-.281.75-.281.301 0 .547.094.735.281a.96.96 0 0 1 .296.719c0 .449-.027 1.011-.078 1.687-.043.68-.062 1.242-.062 1.688ZM65.896 13.237h-.375c-.148-.008-.273-.016-.375-.016-.21 0-.449.024-.719.063.094 2.031.141 3.36.141 3.984v.375c.008.18.016.324.016.438 0 1.156-.367 1.734-1.094 1.734-.281 0-.523-.086-.719-.25-.23-.187-.344-.414-.344-.687 0-.176.004-.446.016-.813.02-.363.031-.64.031-.828 0-.602-.043-1.906-.125-3.906-.312-.02-.789-.063-1.422-.125-.636-.07-.953-.399-.953-.985 0-.281.094-.52.282-.718.195-.196.445-.297.75-.297.187 0 .613.03 1.28.093 0-.156-.01-.421-.03-.796-.024-.32-.032-.57-.032-.75 0-.282.098-.516.297-.704.207-.187.461-.28.766-.28.738 0 1.11.624 1.11 1.874l-.016.625a6.54 6.54 0 0 1 .765-.062c.582 0 .977.039 1.188.109.406.148.61.453.61.922a.954.954 0 0 1-.298.719c-.199.187-.449.28-.75.28Zm0 0"/></svg>