<svg xmlns="http://www.w3.org/2000/svg" xmlns:xlink="http://www.w3.org/1999/xlink" width="150" zoomAndPan="magnify" viewBox="0 0 112.5 30.000001" height="40" preserveAspectRatio="xMidYMid meet" version="1.0"><defs><g/><clipPath id="b00209712f"><path d="M 1.574219 0.28125 L 110.445312 0.28125 L 110.445312 29.03125 L 1.574219 29.03125 Z M 1.574219 0.28125 " clip-rule="nonzero"/></clipPath><clipPath id="72b06e4895"><path d="M 8.832031 0.28125 L 103.183594 0.28125 C 105.109375 0.28125 106.957031 1.046875 108.316406 2.40625 C 109.679688 3.765625 110.445312 5.613281 110.445312 7.539062 L 110.445312 21.773438 C 110.445312 23.699219 109.679688 25.546875 108.316406 26.90625 C 106.957031 28.265625 105.109375 29.03125 103.183594 29.03125 L 8.832031 29.03125 C 6.90625 29.03125 5.058594 28.265625 3.699219 26.90625 C 2.335938 25.546875 1.574219 23.699219 1.574219 21.773438 L 1.574219 7.539062 C 1.574219 5.613281 2.335938 3.765625 3.699219 2.40625 C 5.058594 1.046875 6.90625 0.28125 8.832031 0.28125 Z M 8.832031 0.28125 " clip-rule="nonzero"/></clipPath><clipPath id="0d36ac1729"><path d="M 1.578125 0.28125 L 110.445312 0.28125 L 110.445312 29.03125 L 1.578125 29.03125 Z M 1.578125 0.28125 " clip-rule="nonzero"/></clipPath><clipPath id="47fa1ed18d"><path d="M 8.835938 0.28125 L 103.179688 0.28125 C 105.105469 0.28125 106.949219 1.046875 108.3125 2.40625 C 109.671875 3.765625 110.4375 5.613281 110.4375 7.539062 L 110.4375 21.773438 C 110.4375 23.695312 109.671875 25.542969 108.3125 26.902344 C 106.949219 28.265625 105.105469 29.027344 103.179688 29.027344 L 8.835938 29.027344 C 6.910156 29.027344 5.066406 28.265625 3.703125 26.902344 C 2.34375 25.542969 1.578125 23.695312 1.578125 21.773438 L 1.578125 7.539062 C 1.578125 5.613281 2.34375 3.765625 3.703125 2.40625 C 5.066406 1.046875 6.910156 0.28125 8.835938 0.28125 Z M 8.835938 0.28125 " clip-rule="nonzero"/></clipPath></defs><g clip-path="url(#b00209712f)"><g clip-path="url(#72b06e4895)"><path fill="#1d7886" d="M 1.574219 0.28125 L 110.402344 0.28125 L 110.402344 29.03125 L 1.574219 29.03125 Z M 1.574219 0.28125 " fill-opacity="1" fill-rule="nonzero"/></g></g><g clip-path="url(#0d36ac1729)"><g clip-path="url(#47fa1ed18d)"><path stroke-linecap="butt" transform="matrix(0.725806, 0, 0, 0.725806, 1.578403, 0.280445)" fill="none" stroke-linejoin="miter" d="M 9.99927 0.00110902 L 139.984001 0.00110902 C 142.6373 0.00110902 145.177578 1.05597 147.055877 2.928887 C 148.928794 4.801804 149.983655 7.347464 149.983655 10.000763 L 149.983655 29.612569 C 149.983655 32.260486 148.928794 34.806146 147.055877 36.679063 C 145.177578 38.557362 142.6373 39.606841 139.984001 39.606841 L 9.99927 39.606841 C 7.345971 39.606841 4.805693 38.557362 2.927394 36.679063 C 1.054478 34.806146 -0.000383669 32.260486 -0.000383669 29.612569 L -0.000383669 10.000763 C -0.000383669 7.347464 1.054478 4.801804 2.927394 2.928887 C 4.805693 1.05597 7.345971 0.00110902 9.99927 0.00110902 Z M 9.99927 0.00110902 " stroke="#e9a436" stroke-width="4" stroke-opacity="1" stroke-miterlimit="4"/></g></g><g fill="#e9a436" fill-opacity="1"><g transform="translate(31.839353, 19.330644)"><g><path d="M 10.09375 -4.453125 C 9.75 -2.941406 9.054688 -1.738281 8.015625 -0.84375 C 6.960938 0.0625 5.726562 0.515625 4.3125 0.515625 C 2.976562 0.515625 1.972656 0.160156 1.296875 -0.546875 C 0.628906 -1.253906 0.296875 -2.316406 0.296875 -3.734375 C 0.296875 -5.015625 0.613281 -6.332031 1.25 -7.6875 C 1.882812 -9.050781 2.703125 -10.15625 3.703125 -11 C 4.398438 -11.582031 5.148438 -11.875 5.953125 -11.875 C 6.441406 -11.875 7.109375 -11.695312 7.953125 -11.34375 C 8.941406 -10.925781 9.4375 -10.484375 9.4375 -10.015625 C 9.4375 -9.742188 9.332031 -9.5 9.125 -9.28125 C 8.925781 -9.0625 8.675781 -8.953125 8.375 -8.953125 C 8.21875 -8.953125 7.878906 -9.09375 7.359375 -9.375 C 6.847656 -9.664062 6.378906 -9.8125 5.953125 -9.8125 C 5.492188 -9.8125 4.878906 -9.320312 4.109375 -8.34375 C 2.984375 -6.925781 2.421875 -5.390625 2.421875 -3.734375 C 2.421875 -2.890625 2.546875 -2.316406 2.796875 -2.015625 C 3.054688 -1.691406 3.5625 -1.53125 4.3125 -1.53125 C 5.082031 -1.53125 5.757812 -1.75 6.34375 -2.1875 C 6.96875 -2.65625 7.429688 -3.332031 7.734375 -4.21875 C 6.554688 -4.125 5.535156 -3.882812 4.671875 -3.5 C 4.515625 -3.425781 4.359375 -3.390625 4.203125 -3.390625 C 3.890625 -3.390625 3.628906 -3.507812 3.421875 -3.75 C 3.234375 -3.945312 3.140625 -4.179688 3.140625 -4.453125 C 3.140625 -5.222656 4.050781 -5.757812 5.875 -6.0625 C 6.90625 -6.238281 8.109375 -6.328125 9.484375 -6.328125 C 9.785156 -6.328125 10.035156 -6.226562 10.234375 -6.03125 C 10.441406 -5.832031 10.546875 -5.585938 10.546875 -5.296875 C 10.546875 -4.929688 10.394531 -4.648438 10.09375 -4.453125 Z M 10.09375 -4.453125 "/></g></g></g><g fill="#e9a436" fill-opacity="1"><g transform="translate(42.360977, 19.330644)"><g><path d="M 2.5 -9.09375 C 2.175781 -9.09375 1.894531 -9.195312 1.65625 -9.40625 C 1.414062 -9.625 1.296875 -9.890625 1.296875 -10.203125 C 1.296875 -10.515625 1.414062 -10.78125 1.65625 -11 C 1.894531 -11.21875 2.175781 -11.328125 2.5 -11.328125 C 2.820312 -11.328125 3.097656 -11.21875 3.328125 -11 C 3.566406 -10.78125 3.6875 -10.515625 3.6875 -10.203125 C 3.6875 -9.890625 3.566406 -9.625 3.328125 -9.40625 C 3.097656 -9.195312 2.820312 -9.09375 2.5 -9.09375 Z M 3.140625 -3.546875 C 3.140625 -3.253906 3.144531 -2.789062 3.15625 -2.15625 C 3.175781 -1.519531 3.1875 -1.0625 3.1875 -0.78125 C 3.1875 -0.488281 3.085938 -0.242188 2.890625 -0.046875 C 2.691406 0.140625 2.441406 0.234375 2.140625 0.234375 C 1.835938 0.234375 1.585938 0.140625 1.390625 -0.046875 C 1.203125 -0.242188 1.109375 -0.488281 1.109375 -0.78125 C 1.109375 -1.0625 1.097656 -1.519531 1.078125 -2.15625 C 1.054688 -2.789062 1.046875 -3.253906 1.046875 -3.546875 C 1.046875 -3.992188 1.070312 -4.554688 1.125 -5.234375 C 1.175781 -5.910156 1.203125 -6.472656 1.203125 -6.921875 C 1.203125 -7.210938 1.300781 -7.453125 1.5 -7.640625 C 1.695312 -7.828125 1.945312 -7.921875 2.25 -7.921875 C 2.550781 -7.921875 2.796875 -7.828125 2.984375 -7.640625 C 3.179688 -7.453125 3.28125 -7.210938 3.28125 -6.921875 C 3.28125 -6.472656 3.253906 -5.910156 3.203125 -5.234375 C 3.160156 -4.554688 3.140625 -3.992188 3.140625 -3.546875 Z M 3.140625 -3.546875 "/></g></g></g><g fill="#e9a436" fill-opacity="1"><g transform="translate(46.699635, 19.330644)"><g><path d="M 6.109375 -6.09375 C 6.003906 -6.09375 5.878906 -6.09375 5.734375 -6.09375 C 5.585938 -6.101562 5.460938 -6.109375 5.359375 -6.109375 C 5.148438 -6.109375 4.910156 -6.085938 4.640625 -6.046875 C 4.734375 -4.015625 4.78125 -2.6875 4.78125 -2.0625 C 4.78125 -1.988281 4.78125 -1.863281 4.78125 -1.6875 C 4.789062 -1.507812 4.796875 -1.363281 4.796875 -1.25 C 4.796875 -0.09375 4.429688 0.484375 3.703125 0.484375 C 3.421875 0.484375 3.179688 0.398438 2.984375 0.234375 C 2.753906 0.046875 2.640625 -0.179688 2.640625 -0.453125 C 2.640625 -0.628906 2.644531 -0.898438 2.65625 -1.265625 C 2.675781 -1.628906 2.6875 -1.90625 2.6875 -2.09375 C 2.6875 -2.695312 2.644531 -4 2.5625 -6 C 2.25 -6.019531 1.773438 -6.0625 1.140625 -6.125 C 0.503906 -6.195312 0.1875 -6.523438 0.1875 -7.109375 C 0.1875 -7.390625 0.28125 -7.628906 0.46875 -7.828125 C 0.664062 -8.023438 0.914062 -8.125 1.21875 -8.125 C 1.40625 -8.125 1.832031 -8.09375 2.5 -8.03125 C 2.5 -8.1875 2.488281 -8.453125 2.46875 -8.828125 C 2.445312 -9.148438 2.4375 -9.398438 2.4375 -9.578125 C 2.4375 -9.859375 2.535156 -10.09375 2.734375 -10.28125 C 2.941406 -10.46875 3.195312 -10.5625 3.5 -10.5625 C 4.238281 -10.5625 4.609375 -9.9375 4.609375 -8.6875 L 4.59375 -8.0625 C 4.90625 -8.101562 5.160156 -8.125 5.359375 -8.125 C 5.941406 -8.125 6.335938 -8.085938 6.546875 -8.015625 C 6.953125 -7.867188 7.15625 -7.5625 7.15625 -7.09375 C 7.15625 -6.800781 7.054688 -6.5625 6.859375 -6.375 C 6.660156 -6.1875 6.410156 -6.09375 6.109375 -6.09375 Z M 6.109375 -6.09375 "/></g></g></g><g fill="#e9a436" fill-opacity="1"><g transform="translate(53.993726, 19.330644)"><g><path d="M 3.015625 -6.921875 C 3.378906 -7.285156 3.769531 -7.554688 4.1875 -7.734375 C 4.613281 -7.910156 5.066406 -8 5.546875 -8 C 6.410156 -8 7.03125 -7.753906 7.40625 -7.265625 C 7.6875 -6.910156 7.859375 -6.359375 7.921875 -5.609375 C 7.953125 -4.984375 7.976562 -4.359375 8 -3.734375 C 8.082031 -2.921875 8.132812 -2.425781 8.15625 -2.25 C 8.226562 -1.6875 8.316406 -1.195312 8.421875 -0.78125 C 8.441406 -0.675781 8.453125 -0.582031 8.453125 -0.5 C 8.453125 -0.21875 8.34375 0.0078125 8.125 0.1875 C 7.914062 0.375 7.664062 0.46875 7.375 0.46875 C 6.863281 0.46875 6.535156 0.21875 6.390625 -0.28125 C 6.265625 -0.695312 6.15625 -1.273438 6.0625 -2.015625 C 5.96875 -2.722656 5.921875 -3.304688 5.921875 -3.765625 C 5.921875 -3.890625 5.925781 -4.078125 5.9375 -4.328125 C 5.945312 -4.585938 5.953125 -4.78125 5.953125 -4.90625 C 5.953125 -5.28125 5.945312 -5.5 5.9375 -5.5625 C 5.894531 -5.832031 5.765625 -5.96875 5.546875 -5.96875 C 4.984375 -5.96875 4.476562 -5.710938 4.03125 -5.203125 C 3.800781 -4.941406 3.484375 -4.453125 3.078125 -3.734375 C 3.078125 -1.910156 2.988281 -0.8125 2.8125 -0.4375 C 2.613281 -0.0195312 2.300781 0.1875 1.875 0.1875 C 1.59375 0.1875 1.34375 0.09375 1.125 -0.09375 C 0.90625 -0.289062 0.796875 -0.523438 0.796875 -0.796875 C 0.796875 -0.890625 0.820312 -1.023438 0.875 -1.203125 C 0.914062 -1.316406 0.945312 -2 0.96875 -3.25 C 0.945312 -4.257812 0.953125 -5.941406 0.984375 -8.296875 L 1 -8.546875 C 1.03125 -9.140625 1.046875 -9.539062 1.046875 -9.75 C 1.046875 -9.90625 1.019531 -10.132812 0.96875 -10.4375 C 0.925781 -10.738281 0.90625 -10.96875 0.90625 -11.125 C 0.90625 -11.414062 1.003906 -11.648438 1.203125 -11.828125 C 1.410156 -12.015625 1.660156 -12.109375 1.953125 -12.109375 C 2.453125 -12.109375 2.789062 -11.84375 2.96875 -11.3125 C 3.0625 -11.007812 3.109375 -10.546875 3.109375 -9.921875 C 3.109375 -9.410156 3.09375 -8.898438 3.0625 -8.390625 C 3.03125 -7.890625 3.015625 -7.398438 3.015625 -6.921875 Z M 3.015625 -6.921875 "/></g></g></g><g fill="#e9a436" fill-opacity="1"><g transform="translate(62.9356, 19.330644)"><g><path d="M 7.390625 -4.375 C 7.390625 -4.03125 7.390625 -3.519531 7.390625 -2.84375 C 7.398438 -2.164062 7.40625 -1.65625 7.40625 -1.3125 C 7.40625 -1.207031 7.414062 -1.050781 7.4375 -0.84375 C 7.457031 -0.632812 7.46875 -0.476562 7.46875 -0.375 C 7.46875 -0.09375 7.363281 0.140625 7.15625 0.328125 C 6.945312 0.515625 6.695312 0.609375 6.40625 0.609375 C 5.988281 0.609375 5.679688 0.414062 5.484375 0.03125 C 4.835938 0.269531 4.171875 0.390625 3.484375 0.390625 C 2.765625 0.390625 2.160156 0.238281 1.671875 -0.0625 C 1.128906 -0.40625 0.804688 -0.910156 0.703125 -1.578125 C 0.503906 -2.835938 0.40625 -3.960938 0.40625 -4.953125 C 0.40625 -5.609375 0.476562 -6.359375 0.625 -7.203125 C 0.726562 -7.773438 1.066406 -8.0625 1.640625 -8.0625 C 1.941406 -8.0625 2.191406 -7.96875 2.390625 -7.78125 C 2.597656 -7.59375 2.703125 -7.359375 2.703125 -7.078125 C 2.703125 -6.859375 2.664062 -6.507812 2.59375 -6.03125 C 2.519531 -5.5625 2.484375 -5.203125 2.484375 -4.953125 C 2.484375 -4.242188 2.503906 -3.625 2.546875 -3.09375 C 2.597656 -2.5625 2.675781 -2.125 2.78125 -1.78125 C 2.90625 -1.71875 3.023438 -1.671875 3.140625 -1.640625 C 3.253906 -1.617188 3.367188 -1.609375 3.484375 -1.609375 C 4.046875 -1.609375 4.660156 -1.6875 5.328125 -1.84375 C 5.328125 -2.226562 5.328125 -2.671875 5.328125 -3.171875 C 5.316406 -3.753906 5.3125 -4.175781 5.3125 -4.4375 C 5.3125 -5.46875 5.359375 -6.359375 5.453125 -7.109375 C 5.523438 -7.710938 5.867188 -8.015625 6.484375 -8.015625 C 6.773438 -8.015625 7.023438 -7.921875 7.234375 -7.734375 C 7.453125 -7.546875 7.550781 -7.3125 7.53125 -7.03125 C 7.4375 -5.113281 7.390625 -4.226562 7.390625 -4.375 Z M 7.390625 -4.375 "/></g></g></g><g fill="#e9a436" fill-opacity="1"><g transform="translate(70.985555, 19.330644)"><g><path d="M 4.359375 0.3125 C 3.648438 0.3125 2.976562 0.191406 2.34375 -0.046875 C 2.164062 0.140625 1.941406 0.234375 1.671875 0.234375 C 1.398438 0.234375 1.164062 0.144531 0.96875 -0.03125 C 0.78125 -0.21875 0.6875 -0.445312 0.6875 -0.71875 C 0.6875 -0.84375 0.691406 -1.03125 0.703125 -1.28125 C 0.710938 -1.53125 0.71875 -1.71875 0.71875 -1.84375 L 0.71875 -10.40625 C 0.71875 -10.769531 0.800781 -11.09375 0.96875 -11.375 C 1.164062 -11.726562 1.453125 -11.90625 1.828125 -11.90625 C 2.367188 -11.90625 2.640625 -11.613281 2.640625 -11.03125 C 2.640625 -10.96875 2.628906 -10.863281 2.609375 -10.71875 C 2.585938 -10.570312 2.578125 -10.46875 2.578125 -10.40625 L 2.578125 -7.5 C 2.953125 -7.707031 3.3125 -7.863281 3.65625 -7.96875 C 4 -8.070312 4.332031 -8.125 4.65625 -8.125 C 5.832031 -8.125 6.785156 -7.691406 7.515625 -6.828125 C 8.203125 -6.023438 8.546875 -5.050781 8.546875 -3.90625 C 8.546875 -2.726562 8.148438 -1.738281 7.359375 -0.9375 C 6.546875 -0.101562 5.546875 0.3125 4.359375 0.3125 Z M 4.65625 -6.1875 C 4.382812 -6.1875 4.078125 -6.109375 3.734375 -5.953125 C 3.398438 -5.804688 3.015625 -5.582031 2.578125 -5.28125 C 2.578125 -4.800781 2.578125 -3.734375 2.578125 -2.078125 C 3.273438 -1.773438 3.867188 -1.625 4.359375 -1.625 C 5.003906 -1.625 5.53125 -1.835938 5.9375 -2.265625 C 6.351562 -2.703125 6.5625 -3.25 6.5625 -3.90625 C 6.5625 -4.5625 6.394531 -5.101562 6.0625 -5.53125 C 5.707031 -5.96875 5.238281 -6.1875 4.65625 -6.1875 Z M 4.65625 -6.1875 "/></g></g></g></svg>