<svg xmlns="http://www.w3.org/2000/svg" width="150" height="40" version="1.0" viewBox="0 0 112.5 30"><defs><clipPath id="a"><path d="M1.574.281h108.871v28.75H1.575Zm0 0"/></clipPath><clipPath id="b"><path d="M8.832.281h94.352a7.262 7.262 0 0 1 7.261 7.258v14.234a7.262 7.262 0 0 1-7.262 7.258H8.833a7.262 7.262 0 0 1-5.133-2.125 7.245 7.245 0 0 1-2.125-5.133V7.54c0-1.926.762-3.773 2.125-5.133A7.262 7.262 0 0 1 8.832.281Zm0 0"/></clipPath><clipPath id="c"><path d="M1.578.281h108.867v28.75H1.578Zm0 0"/></clipPath><clipPath id="d"><path d="M8.836.281h94.344c1.925 0 3.77.766 5.132 2.125a7.262 7.262 0 0 1 2.126 5.133v14.234a7.26 7.26 0 0 1-7.258 7.254H8.836a7.252 7.252 0 0 1-7.258-7.254V7.54c0-1.926.766-3.773 2.125-5.133A7.268 7.268 0 0 1 8.836.281Zm0 0"/></clipPath></defs><g clip-path="url(#a)"><g clip-path="url(#b)"><path fill="#1d7886" d="M1.574.281h108.828v28.75H1.574Zm0 0"/></g></g><g clip-path="url(#c)"><g clip-path="url(#d)"><path fill="none" stroke="#e9a436" stroke-width="2.90324" d="M8.836.281h94.344c1.925 0 3.77.766 5.132 2.125a7.262 7.262 0 0 1 2.125 5.133v14.234a7.26 7.26 0 0 1-7.257 7.254H8.836a7.252 7.252 0 0 1-7.258-7.254V7.54c0-1.926.766-3.773 2.125-5.133A7.268 7.268 0 0 1 8.836.281Zm0 0"/></g></g><path fill="#e9a436" d="M41.933 14.878c-.344 1.511-1.039 2.714-2.078 3.609-1.055.906-2.29 1.36-3.703 1.36-1.336 0-2.34-.356-3.016-1.063-.668-.707-1-1.77-1-3.188 0-1.281.317-2.597.953-3.953.633-1.363 1.453-2.469 2.453-3.312.696-.582 1.446-.875 2.25-.875.489 0 1.157.18 2 .53.989.419 1.485.86 1.485 1.329 0 .273-.106.516-.313.734a.972.972 0 0 1-.75.329c-.156 0-.496-.141-1.015-.422-.512-.29-.98-.438-1.407-.438-.46 0-1.074.492-1.843 1.469-1.125 1.418-1.688 2.953-1.688 4.61 0 .843.125 1.417.375 1.718.258.324.766.484 1.516.484.77 0 1.445-.218 2.031-.656.625-.469 1.086-1.144 1.39-2.031-1.179.094-2.198.336-3.062.719-.156.074-.312.109-.469.109a.983.983 0 0 1-.78-.36.98.98 0 0 1-.282-.702c0-.77.91-1.305 2.734-1.61 1.032-.176 2.235-.265 3.61-.265.3 0 .55.101.75.296.207.2.312.446.312.735a.948.948 0 0 1-.453.844ZM44.861 10.237c-.324 0-.605-.102-.844-.313a1.03 1.03 0 0 1-.36-.796c0-.313.118-.579.36-.797.239-.22.52-.328.844-.328.32 0 .598.109.828.328.238.218.36.484.36.797 0 .312-.122.578-.36.796-.23.211-.508.313-.828.313Zm.64 5.547c0 .293.005.758.016 1.39.02.637.031 1.094.031 1.375 0 .293-.101.54-.296.735-.2.187-.45.281-.75.281-.305 0-.555-.094-.75-.281a1.02 1.02 0 0 1-.282-.735c0-.28-.011-.738-.03-1.375a39.458 39.458 0 0 1-.032-1.39c0-.446.023-1.008.078-1.688.05-.676.078-1.238.078-1.687 0-.29.098-.531.297-.719.195-.187.445-.281.75-.281.3 0 .547.094.734.281a.96.96 0 0 1 .297.719c0 .449-.027 1.011-.078 1.687-.043.68-.062 1.242-.062 1.688ZM52.809 13.237h-.375c-.148-.008-.273-.016-.375-.016-.21 0-.45.024-.719.063.094 2.031.14 3.36.14 3.984v.375c.009.18.017.324.017.438 0 1.156-.368 1.734-1.094 1.734-.281 0-.524-.086-.719-.25-.23-.187-.344-.414-.344-.687 0-.176.004-.446.016-.813.02-.363.031-.64.031-.828 0-.602-.043-1.906-.125-3.906-.312-.02-.789-.063-1.422-.125-.636-.07-.953-.399-.953-.985 0-.281.094-.52.281-.718.196-.196.446-.297.75-.297.188 0 .614.03 1.282.093 0-.156-.012-.421-.032-.796-.023-.32-.03-.57-.03-.75 0-.282.097-.516.296-.704.207-.187.46-.28.766-.28.738 0 1.109.624 1.109 1.874l-.016.625a6.54 6.54 0 0 1 .766-.062c.582 0 .977.039 1.188.109.406.148.609.453.609.922a.954.954 0 0 1-.297.719c-.2.187-.45.28-.75.28ZM57.01 12.409a3.754 3.754 0 0 1 1.171-.813 3.528 3.528 0 0 1 1.36-.265c.863 0 1.484.246 1.859.734.281.355.453.906.516 1.656.03.625.054 1.25.078 1.875.082.813.133 1.309.156 1.485.07.562.16 1.054.266 1.468.02.106.03.2.03.282 0 .28-.109.507-.327.687-.211.188-.461.281-.75.281-.512 0-.84-.25-.985-.75-.125-.414-.234-.992-.328-1.734-.094-.707-.14-1.289-.14-1.75 0-.125.004-.312.015-.562.008-.258.016-.454.016-.579 0-.375-.008-.593-.016-.656-.043-.27-.172-.406-.39-.406-.563 0-1.07.258-1.516.766-.23.261-.547.75-.953 1.468 0 1.824-.09 2.922-.266 3.297-.199.418-.511.625-.937.625a1.12 1.12 0 0 1-.75-.281.91.91 0 0 1-.328-.703c0-.094.023-.227.078-.406.039-.114.07-.797.093-2.047-.023-1.008-.015-2.692.016-5.047l.016-.25c.031-.594.047-.992.047-1.203 0-.157-.028-.383-.079-.688a5.215 5.215 0 0 1-.062-.687.9.9 0 0 1 .297-.703c.207-.188.457-.282.75-.282.5 0 .836.266 1.015.797.094.305.141.766.141 1.39 0 .512-.016 1.024-.047 1.532-.031.5-.047.992-.047 1.469ZM70.326 14.956v1.53c.008.68.016 1.188.016 1.532 0 .106.008.262.031.469.02.21.031.367.031.469a.911.911 0 0 1-.312.703c-.211.187-.461.281-.75.281-.418 0-.727-.195-.922-.578a5.746 5.746 0 0 1-2 .36c-.719 0-1.324-.153-1.813-.454-.542-.344-.867-.848-.968-1.515-.2-1.258-.297-2.383-.297-3.375 0-.657.07-1.407.219-2.25.101-.57.441-.86 1.015-.86.301 0 .551.094.75.281a.911.911 0 0 1 .313.704c0 .218-.04.57-.11 1.046-.074.47-.109.829-.109 1.079 0 .71.02 1.328.062 1.859.051.531.13.969.235 1.312.125.063.242.11.36.141.113.023.226.031.343.031.562 0 1.176-.078 1.844-.234v-1.328a66.304 66.304 0 0 1-.016-1.266c0-1.031.047-1.922.14-2.672.071-.601.415-.906 1.032-.906.289 0 .539.094.75.281a.807.807 0 0 1 .297.703c-.094 1.918-.14 2.805-.14 2.657ZM75.345 19.643c-.711 0-1.383-.121-2.016-.36a.89.89 0 0 1-.672.282c-.273 0-.507-.09-.703-.266a.931.931 0 0 1-.28-.687c0-.125.003-.313.015-.563.007-.25.015-.437.015-.562V8.924c0-.363.082-.687.25-.968.196-.352.485-.532.86-.532.539 0 .812.293.812.875 0 .063-.012.168-.031.313-.024.148-.031.25-.031.312v2.907a5.714 5.714 0 0 1 1.078-.47 3.524 3.524 0 0 1 1-.155c1.176 0 2.129.433 2.86 1.297.687.804 1.03 1.777 1.03 2.921 0 1.18-.398 2.168-1.187 2.97-.813.835-1.813 1.25-3 1.25Zm.297-6.5c-.274 0-.578.078-.922.235a7.34 7.34 0 0 0-1.156.671v3.204c.695.304 1.289.453 1.78.453.645 0 1.173-.211 1.58-.641.413-.437.624-.984.624-1.64 0-.657-.168-1.196-.5-1.626-.355-.437-.824-.656-1.406-.656Zm0 0"/></svg>