<svg xmlns="http://www.w3.org/2000/svg" xmlns:xlink="http://www.w3.org/1999/xlink" width="150" zoomAndPan="magnify" viewBox="0 0 112.5 30.000001" height="40" preserveAspectRatio="xMidYMid meet" version="1.0"><defs><g/><clipPath id="27b404fe2d"><path d="M 1.574219 0.28125 L 110.445312 0.28125 L 110.445312 29.03125 L 1.574219 29.03125 Z M 1.574219 0.28125 " clip-rule="nonzero"/></clipPath><clipPath id="0866fa422e"><path d="M 8.832031 0.28125 L 103.183594 0.28125 C 105.109375 0.28125 106.957031 1.046875 108.316406 2.40625 C 109.679688 3.765625 110.445312 5.613281 110.445312 7.539062 L 110.445312 21.773438 C 110.445312 23.699219 109.679688 25.546875 108.316406 26.90625 C 106.957031 28.265625 105.109375 29.03125 103.183594 29.03125 L 8.832031 29.03125 C 6.90625 29.03125 5.058594 28.265625 3.699219 26.90625 C 2.335938 25.546875 1.574219 23.699219 1.574219 21.773438 L 1.574219 7.539062 C 1.574219 5.613281 2.335938 3.765625 3.699219 2.40625 C 5.058594 1.046875 6.90625 0.28125 8.832031 0.28125 Z M 8.832031 0.28125 " clip-rule="nonzero"/></clipPath><clipPath id="2f04d0ecb6"><path d="M 1.578125 0.28125 L 110.445312 0.28125 L 110.445312 29.03125 L 1.578125 29.03125 Z M 1.578125 0.28125 " clip-rule="nonzero"/></clipPath><clipPath id="8214fa3613"><path d="M 8.835938 0.28125 L 103.179688 0.28125 C 105.105469 0.28125 106.949219 1.046875 108.3125 2.40625 C 109.671875 3.765625 110.4375 5.613281 110.4375 7.539062 L 110.4375 21.773438 C 110.4375 23.695312 109.671875 25.542969 108.3125 26.902344 C 106.949219 28.265625 105.105469 29.027344 103.179688 29.027344 L 8.835938 29.027344 C 6.910156 29.027344 5.066406 28.265625 3.703125 26.902344 C 2.34375 25.542969 1.578125 23.695312 1.578125 21.773438 L 1.578125 7.539062 C 1.578125 5.613281 2.34375 3.765625 3.703125 2.40625 C 5.066406 1.046875 6.910156 0.28125 8.835938 0.28125 Z M 8.835938 0.28125 " clip-rule="nonzero"/></clipPath></defs><g clip-path="url(#27b404fe2d)"><g clip-path="url(#0866fa422e)"><path fill="#1d7886" d="M 1.574219 0.28125 L 110.402344 0.28125 L 110.402344 29.03125 L 1.574219 29.03125 Z M 1.574219 0.28125 " fill-opacity="1" fill-rule="nonzero"/></g></g><g clip-path="url(#2f04d0ecb6)"><g clip-path="url(#8214fa3613)"><path stroke-linecap="butt" transform="matrix(0.725806, 0, 0, 0.725806, 1.578403, 0.280445)" fill="none" stroke-linejoin="miter" d="M 9.99927 0.00110902 L 139.984001 0.00110902 C 142.6373 0.00110902 145.177578 1.05597 147.055877 2.928887 C 148.928794 4.801804 149.983655 7.347464 149.983655 10.000763 L 149.983655 29.612569 C 149.983655 32.260486 148.928794 34.806146 147.055877 36.679063 C 145.177578 38.557362 142.6373 39.606841 139.984001 39.606841 L 9.99927 39.606841 C 7.345971 39.606841 4.805693 38.557362 2.927394 36.679063 C 1.054478 34.806146 -0.000383669 32.260486 -0.000383669 29.612569 L -0.000383669 10.000763 C -0.000383669 7.347464 1.054478 4.801804 2.927394 2.928887 C 4.805693 1.05597 7.345971 0.00110902 9.99927 0.00110902 Z M 9.99927 0.00110902 " stroke="#e9a436" stroke-width="4" stroke-opacity="1" stroke-miterlimit="4"/></g></g><g fill="#e9a436" fill-opacity="1"><g transform="translate(38.277646, 19.330644)"><g><path d="M 11.34375 -10.484375 C 11.25 -10.117188 11.203125 -9.800781 11.203125 -9.53125 C 11.203125 -9.382812 11.1875 -9.164062 11.15625 -8.875 C 11.125 -8.582031 11.109375 -8.363281 11.109375 -8.21875 C 11.109375 -7.738281 11.082031 -7.023438 11.03125 -6.078125 C 10.988281 -5.140625 10.96875 -4.429688 10.96875 -3.953125 C 10.96875 -3.585938 10.992188 -3.035156 11.046875 -2.296875 C 11.097656 -1.566406 11.125 -1.019531 11.125 -0.65625 C 11.125 -0.375 11.023438 -0.140625 10.828125 0.046875 C 10.640625 0.234375 10.394531 0.328125 10.09375 0.328125 C 9.800781 0.328125 9.546875 0.234375 9.328125 0.046875 C 9.109375 -0.140625 9 -0.367188 9 -0.640625 C 9 -1.003906 8.984375 -1.554688 8.953125 -2.296875 C 8.921875 -3.035156 8.90625 -3.585938 8.90625 -3.953125 C 8.90625 -4.242188 8.910156 -4.5 8.921875 -4.71875 C 8.128906 -4.6875 7.148438 -4.5625 5.984375 -4.34375 C 5.015625 -4.164062 4.046875 -3.988281 3.078125 -3.8125 C 3.066406 -3.46875 3.035156 -2.894531 2.984375 -2.09375 C 2.929688 -1.382812 2.90625 -0.804688 2.90625 -0.359375 C 2.90625 -0.0859375 2.804688 0.140625 2.609375 0.328125 C 2.410156 0.523438 2.164062 0.625 1.875 0.625 C 1.582031 0.625 1.335938 0.523438 1.140625 0.328125 C 0.941406 0.140625 0.84375 -0.0859375 0.84375 -0.359375 C 0.84375 -0.867188 0.882812 -1.628906 0.96875 -2.640625 C 1.0625 -3.660156 1.109375 -4.421875 1.109375 -4.921875 C 1.109375 -5.566406 1.125 -6.539062 1.15625 -7.84375 C 1.1875 -9.144531 1.203125 -10.117188 1.203125 -10.765625 C 1.203125 -11.035156 1.300781 -11.265625 1.5 -11.453125 C 1.695312 -11.648438 1.941406 -11.75 2.234375 -11.75 C 2.523438 -11.75 2.769531 -11.648438 2.96875 -11.453125 C 3.164062 -11.265625 3.265625 -11.035156 3.265625 -10.765625 C 3.265625 -10.378906 3.25 -9.800781 3.21875 -9.03125 C 3.1875 -8.257812 3.171875 -7.679688 3.171875 -7.296875 C 3.171875 -7.171875 3.15625 -6.929688 3.125 -6.578125 C 3.09375 -6.242188 3.078125 -5.988281 3.078125 -5.8125 L 5.984375 -6.359375 C 7.117188 -6.554688 8.097656 -6.671875 8.921875 -6.703125 C 8.941406 -7.046875 8.972656 -7.953125 9.015625 -9.421875 C 9.023438 -9.816406 9.144531 -10.265625 9.375 -10.765625 C 9.65625 -11.390625 9.972656 -11.703125 10.328125 -11.703125 C 10.597656 -11.703125 10.835938 -11.613281 11.046875 -11.4375 C 11.265625 -11.238281 11.375 -11 11.375 -10.71875 C 11.375 -10.632812 11.363281 -10.554688 11.34375 -10.484375 Z M 11.34375 -10.484375 "/></g></g></g><g fill="#e9a436" fill-opacity="1"><g transform="translate(50.167389, 19.330644)"><g><path d="M 6.109375 -6.09375 C 6.003906 -6.09375 5.878906 -6.09375 5.734375 -6.09375 C 5.585938 -6.101562 5.460938 -6.109375 5.359375 -6.109375 C 5.148438 -6.109375 4.910156 -6.085938 4.640625 -6.046875 C 4.734375 -4.015625 4.78125 -2.6875 4.78125 -2.0625 C 4.78125 -1.988281 4.78125 -1.863281 4.78125 -1.6875 C 4.789062 -1.507812 4.796875 -1.363281 4.796875 -1.25 C 4.796875 -0.09375 4.429688 0.484375 3.703125 0.484375 C 3.421875 0.484375 3.179688 0.398438 2.984375 0.234375 C 2.753906 0.046875 2.640625 -0.179688 2.640625 -0.453125 C 2.640625 -0.628906 2.644531 -0.898438 2.65625 -1.265625 C 2.675781 -1.628906 2.6875 -1.90625 2.6875 -2.09375 C 2.6875 -2.695312 2.644531 -4 2.5625 -6 C 2.25 -6.019531 1.773438 -6.0625 1.140625 -6.125 C 0.503906 -6.195312 0.1875 -6.523438 0.1875 -7.109375 C 0.1875 -7.390625 0.28125 -7.628906 0.46875 -7.828125 C 0.664062 -8.023438 0.914062 -8.125 1.21875 -8.125 C 1.40625 -8.125 1.832031 -8.09375 2.5 -8.03125 C 2.5 -8.1875 2.488281 -8.453125 2.46875 -8.828125 C 2.445312 -9.148438 2.4375 -9.398438 2.4375 -9.578125 C 2.4375 -9.859375 2.535156 -10.09375 2.734375 -10.28125 C 2.941406 -10.46875 3.195312 -10.5625 3.5 -10.5625 C 4.238281 -10.5625 4.609375 -9.9375 4.609375 -8.6875 L 4.59375 -8.0625 C 4.90625 -8.101562 5.160156 -8.125 5.359375 -8.125 C 5.941406 -8.125 6.335938 -8.085938 6.546875 -8.015625 C 6.953125 -7.867188 7.15625 -7.5625 7.15625 -7.09375 C 7.15625 -6.800781 7.054688 -6.5625 6.859375 -6.375 C 6.660156 -6.1875 6.410156 -6.09375 6.109375 -6.09375 Z M 6.109375 -6.09375 "/></g></g></g><g fill="#e9a436" fill-opacity="1"><g transform="translate(57.46148, 19.330644)"><g><path d="M 2.734375 -6.6875 C 3.492188 -7.570312 4.210938 -8.015625 4.890625 -8.015625 C 5.671875 -8.015625 6.238281 -7.71875 6.59375 -7.125 C 6.90625 -7.394531 7.25 -7.597656 7.625 -7.734375 C 8 -7.878906 8.398438 -7.953125 8.828125 -7.953125 C 9.816406 -7.953125 10.488281 -7.457031 10.84375 -6.46875 C 10.914062 -6.269531 11.023438 -5.585938 11.171875 -4.421875 C 11.304688 -3.609375 11.488281 -2.25 11.71875 -0.34375 C 11.726562 -0.0507812 11.625 0.1875 11.40625 0.375 C 11.195312 0.5625 10.945312 0.65625 10.65625 0.65625 C 10.070312 0.65625 9.726562 0.363281 9.625 -0.21875 C 9.539062 -0.726562 9.453125 -1.457031 9.359375 -2.40625 C 9.253906 -3.445312 9.171875 -4.1875 9.109375 -4.625 C 8.972656 -5.519531 8.796875 -5.96875 8.578125 -5.96875 C 8.460938 -5.96875 8.195312 -5.851562 7.78125 -5.625 C 7.375 -5.394531 7.070312 -5.195312 6.875 -5.03125 C 6.875 -4.457031 6.941406 -3.628906 7.078125 -2.546875 C 7.222656 -1.441406 7.296875 -0.613281 7.296875 -0.0625 C 7.296875 0.21875 7.195312 0.453125 7 0.640625 C 6.800781 0.835938 6.550781 0.9375 6.25 0.9375 C 5.945312 0.9375 5.695312 0.835938 5.5 0.640625 C 5.300781 0.453125 5.203125 0.21875 5.203125 -0.0625 C 5.203125 -0.644531 5.140625 -1.492188 5.015625 -2.609375 C 4.898438 -3.722656 4.84375 -4.566406 4.84375 -5.140625 C 4.84375 -5.460938 4.8125 -5.71875 4.75 -5.90625 C 4.164062 -5.570312 3.582031 -5.007812 3 -4.21875 C 2.96875 -4.1875 2.921875 -4.132812 2.859375 -4.0625 C 2.835938 -3.050781 2.828125 -2.253906 2.828125 -1.671875 C 2.828125 -1.523438 2.820312 -1.332031 2.8125 -1.09375 C 2.8125 -0.851562 2.8125 -0.675781 2.8125 -0.5625 C 2.8125 -0.289062 2.695312 -0.078125 2.46875 0.078125 C 2.269531 0.222656 2.019531 0.296875 1.71875 0.296875 C 1.289062 0.296875 1.003906 0.109375 0.859375 -0.265625 C 0.753906 -0.515625 0.703125 -0.914062 0.703125 -1.46875 L 0.703125 -4.28125 C 0.703125 -4.53125 0.691406 -4.894531 0.671875 -5.375 C 0.648438 -5.863281 0.640625 -6.238281 0.640625 -6.5 C 0.640625 -6.945312 0.71875 -7.351562 0.875 -7.71875 C 1.070312 -8.164062 1.347656 -8.390625 1.703125 -8.390625 C 1.984375 -8.390625 2.234375 -8.28125 2.453125 -8.0625 C 2.679688 -7.84375 2.796875 -7.601562 2.796875 -7.34375 C 2.796875 -7.445312 2.773438 -7.226562 2.734375 -6.6875 Z M 2.734375 -6.6875 "/></g></g></g><g fill="#e9a436" fill-opacity="1"><g transform="translate(69.487279, 19.330644)"><g><path d="M 3.09375 -1.109375 C 3.09375 -0.148438 2.75 0.328125 2.0625 0.328125 C 1.757812 0.328125 1.507812 0.226562 1.3125 0.03125 C 1.113281 -0.15625 1.015625 -0.398438 1.015625 -0.703125 L 1.015625 -11.15625 C 1.015625 -11.445312 1.117188 -11.6875 1.328125 -11.875 C 1.535156 -12.050781 1.785156 -12.140625 2.078125 -12.140625 C 2.378906 -12.140625 2.625 -12.046875 2.8125 -11.859375 C 3 -11.679688 3.09375 -11.445312 3.09375 -11.15625 Z M 3.09375 -1.109375 "/></g></g></g></svg>