<svg xmlns="http://www.w3.org/2000/svg" width="150" height="40" version="1.0" viewBox="0 0 112.5 30"><defs><clipPath id="a"><path d="M1.574.281h108.871v28.75H1.575Zm0 0"/></clipPath><clipPath id="b"><path d="M8.832.281h94.352a7.262 7.262 0 0 1 7.261 7.258v14.234a7.262 7.262 0 0 1-7.262 7.258H8.833a7.262 7.262 0 0 1-5.133-2.125 7.245 7.245 0 0 1-2.125-5.133V7.54c0-1.926.762-3.773 2.125-5.133A7.262 7.262 0 0 1 8.832.281Zm0 0"/></clipPath><clipPath id="c"><path d="M1.578.281h108.867v28.75H1.578Zm0 0"/></clipPath><clipPath id="d"><path d="M8.836.281h94.344c1.925 0 3.77.766 5.132 2.125a7.262 7.262 0 0 1 2.126 5.133v14.234a7.26 7.26 0 0 1-7.258 7.254H8.836a7.252 7.252 0 0 1-7.258-7.254V7.54c0-1.926.766-3.773 2.125-5.133A7.268 7.268 0 0 1 8.836.281Zm0 0"/></clipPath></defs><g clip-path="url(#a)"><g clip-path="url(#b)"><path fill="#1d7886" d="M1.574.281h108.828v28.75H1.574Zm0 0"/></g></g><g clip-path="url(#c)"><g clip-path="url(#d)"><path fill="none" stroke="#e9a436" stroke-width="2.90324" d="M8.836.281h94.344c1.925 0 3.77.766 5.132 2.125a7.262 7.262 0 0 1 2.125 5.133v14.234a7.26 7.26 0 0 1-7.257 7.254H8.836a7.252 7.252 0 0 1-7.258-7.254V7.54c0-1.926.766-3.773 2.125-5.133A7.268 7.268 0 0 1 8.836.281Zm0 0"/></g></g><path fill="#e9a436" d="M49.621 8.846c-.093.367-.14.684-.14.953 0 .149-.016.368-.047.657a6.804 6.804 0 0 0-.047.656c0 .48-.027 1.195-.078 2.14a49.888 49.888 0 0 0-.063 2.126c0 .367.024.917.079 1.656.05.73.078 1.277.078 1.64a.938.938 0 0 1-.297.704c-.188.187-.434.28-.735.28-.293 0-.546-.093-.765-.28a.869.869 0 0 1-.328-.688c0-.363-.016-.914-.047-1.656a42.88 42.88 0 0 1-.047-1.656c0-.29.004-.547.016-.766-.793.031-1.774.156-2.938.375-.969.18-1.937.355-2.906.531-.012.344-.043.918-.094 1.719-.055.71-.078 1.289-.078 1.734 0 .274-.102.5-.297.688-.2.195-.445.297-.734.297-.293 0-.54-.102-.735-.297a.902.902 0 0 1-.297-.688c0-.508.04-1.27.125-2.281.094-1.02.141-1.781.141-2.281 0-.645.016-1.617.047-2.922.031-1.3.047-2.274.047-2.922 0-.27.097-.5.297-.687.195-.196.441-.297.734-.297.29 0 .535.101.734.297a.922.922 0 0 1 .297.687c0 .387-.015.965-.047 1.734a47.125 47.125 0 0 0-.046 1.735c0 .125-.016.367-.047.719-.032.335-.047.59-.047.765l2.906-.547c1.133-.195 2.113-.312 2.938-.343.02-.344.05-1.25.093-2.72.008-.394.13-.843.36-1.343.28-.625.597-.937.953-.937.27 0 .508.09.719.265a.936.936 0 0 1 .296.953ZM56.277 13.237h-.375c-.149-.008-.274-.016-.375-.016-.211 0-.45.024-.719.063.094 2.031.14 3.36.14 3.984v.375c.008.18.016.324.016.438 0 1.156-.367 1.734-1.093 1.734-.282 0-.524-.086-.72-.25-.23-.187-.343-.414-.343-.687 0-.176.004-.446.016-.813.02-.363.03-.64.03-.828 0-.602-.042-1.906-.124-3.906-.313-.02-.79-.063-1.422-.125-.637-.07-.953-.399-.953-.985 0-.281.094-.52.281-.718.195-.196.445-.297.75-.297.188 0 .613.03 1.281.093 0-.156-.011-.421-.03-.796-.024-.32-.032-.57-.032-.75 0-.282.098-.516.297-.704.207-.187.46-.28.765-.28.739 0 1.11.624 1.11 1.874l-.016.625a6.54 6.54 0 0 1 .766-.062c.582 0 .976.039 1.187.109.407.148.61.453.61.922a.954.954 0 0 1-.297.719c-.2.187-.45.28-.75.28ZM60.196 12.643c.758-.883 1.476-1.328 2.156-1.328.781 0 1.348.297 1.703.89a3.3 3.3 0 0 1 1.031-.609 3.307 3.307 0 0 1 1.204-.218c.988 0 1.66.496 2.015 1.484.07.2.18.883.328 2.047.133.812.317 2.172.547 4.078a.866.866 0 0 1-.312.719c-.211.187-.461.28-.75.28-.586 0-.93-.292-1.032-.874a34.823 34.823 0 0 1-.265-2.188 64.64 64.64 0 0 0-.25-2.218c-.137-.895-.313-1.344-.531-1.344-.118 0-.383.117-.797.344-.407.23-.711.43-.907.593 0 .575.067 1.403.204 2.485.144 1.105.218 1.933.218 2.484a.938.938 0 0 1-.297.703c-.199.196-.449.297-.75.297-.304 0-.554-.101-.75-.297a.924.924 0 0 1-.296-.703c0-.582-.063-1.43-.188-2.547-.117-1.113-.172-1.957-.172-2.531 0-.32-.031-.578-.094-.766-.585.336-1.167.899-1.75 1.688-.03.031-.078.086-.14.156a104.989 104.989 0 0 0-.031 2.39c0 .15-.008.34-.016.579v.531a.739.739 0 0 1-.344.64c-.199.145-.449.22-.75.22-.43 0-.715-.188-.86-.563-.105-.25-.155-.648-.155-1.203v-2.813c0-.25-.012-.613-.032-1.093a24.076 24.076 0 0 1-.03-1.125c0-.446.077-.852.233-1.22.196-.444.473-.671.829-.671.28 0 .53.11.75.328.226.219.343.461.343.719 0-.102-.023.117-.062.656ZM72.581 18.221c0 .961-.344 1.438-1.031 1.438-.305 0-.555-.102-.75-.297-.2-.188-.297-.43-.297-.734V8.174c0-.289.101-.53.312-.718.207-.176.457-.266.75-.266.301 0 .547.094.735.281a.93.93 0 0 1 .281.703Zm0 0"/></svg>