<svg xmlns="http://www.w3.org/2000/svg" width="150" height="40" version="1.0" viewBox="0 0 112.5 30"><defs><clipPath id="a"><path d="M1.574.281h108.871v28.75H1.575Zm0 0"/></clipPath><clipPath id="b"><path d="M8.832.281h94.352a7.262 7.262 0 0 1 7.261 7.258v14.234a7.262 7.262 0 0 1-7.262 7.258H8.833a7.262 7.262 0 0 1-5.133-2.125 7.245 7.245 0 0 1-2.125-5.133V7.54c0-1.926.762-3.773 2.125-5.133A7.262 7.262 0 0 1 8.832.281Zm0 0"/></clipPath><clipPath id="c"><path d="M1.578.281h108.867v28.75H1.578Zm0 0"/></clipPath><clipPath id="d"><path d="M8.836.281h94.344c1.925 0 3.77.766 5.132 2.125a7.262 7.262 0 0 1 2.126 5.133v14.234a7.26 7.26 0 0 1-7.258 7.254H8.836a7.252 7.252 0 0 1-7.258-7.254V7.54c0-1.926.766-3.773 2.125-5.133A7.268 7.268 0 0 1 8.836.281Zm0 0"/></clipPath></defs><g clip-path="url(#a)"><g clip-path="url(#b)"><path fill="#1d7886" d="M1.574.281h108.828v28.75H1.574Zm0 0"/></g></g><g clip-path="url(#c)"><g clip-path="url(#d)"><path fill="none" stroke="#e9a436" stroke-width="2.90324" d="M8.836.281h94.344c1.925 0 3.77.766 5.132 2.125a7.262 7.262 0 0 1 2.125 5.133v14.234a7.26 7.26 0 0 1-7.257 7.254H8.836a7.252 7.252 0 0 1-7.258-7.254V7.54c0-1.926.766-3.773 2.125-5.133A7.268 7.268 0 0 1 8.836.281Zm0 0"/></g></g><path fill="#e9a436" d="M26.117 10.05c-.086 0-.226-.008-.422-.032-.199-.02-.359-.031-.484-.031h-.594v.547c0 3.605-.257 6.23-.765 7.875-.375 1.219-1.055 1.828-2.032 1.828-.937 0-1.867-.324-2.78-.969-1.044-.719-1.563-1.562-1.563-2.531 0-.79.351-1.188 1.062-1.188.719 0 1.078.391 1.078 1.172 0 .293.254.61.766.953.508.336.988.5 1.437.5.176 0 .305-.332.391-1 .02-.156.078-.937.172-2.343a72.3 72.3 0 0 0 .11-4.297c0-.07-.012-.239-.032-.5l-.172.015a8.025 8.025 0 0 1-.89-.015 27.99 27.99 0 0 0-.891-.031c-.293 0-.543-.086-.75-.266a.957.957 0 0 1-.344-.766c0-.687.453-1.031 1.36-1.031.175 0 .43.012.765.031.332.012.582.016.75.016.32 0 .797-.016 1.422-.047.633-.039 1.113-.062 1.438-.062 1.343 0 2.015.375 2.015 1.125 0 .261-.09.496-.265.703-.211.23-.47.343-.782.343ZM34.662 19.83c-.23 0-.601-.25-1.11-.75-.46.22-.866.383-1.218.5-.355.114-.656.173-.906.173-1.211 0-2.121-.325-2.735-.97-.605-.655-.906-1.632-.906-2.937 0-1.207.446-2.242 1.344-3.11.895-.862 1.969-1.296 3.219-1.296.476 0 1.035.137 1.672.406.757.324 1.14.703 1.14 1.14 0 .18-.058.34-.172.485-.054.2-.093.45-.125.75-.023.305-.03.664-.03 1.078 0 .961.066 1.653.202 2.079.008.042.125.304.344.78.195.438.297.684.297.735a.848.848 0 0 1-.313.672 1.03 1.03 0 0 1-.703.266Zm-1.875-5.187c0-.156.008-.336.031-.547.02-.218.055-.453.11-.703-.106-.05-.2-.086-.281-.11a.503.503 0 0 0-.188-.046c-.687 0-1.293.273-1.812.812-.512.543-.766 1.164-.766 1.86 0 .68.117 1.187.36 1.531.25.336.613.5 1.093.5.313 0 .61-.047.89-.14a2.45 2.45 0 0 0 .782-.47c-.148-1.195-.219-2.093-.219-2.687ZM40.795 18.768a.864.864 0 0 1-.312.61.96.96 0 0 1-.672.25c-.512 0-.871-.262-1.078-.782a447.696 447.696 0 0 0-2.5-6.093 1.089 1.089 0 0 1-.094-.438c0-.27.11-.5.328-.687a1.12 1.12 0 0 1 .75-.282c.426 0 .734.2.922.594.289.617.852 2.043 1.687 4.281.258-.57.625-1.437 1.094-2.593.145-.395.367-.938.672-1.625.195-.407.508-.61.938-.61.28 0 .53.094.75.281a.874.874 0 0 1 .328.688c0 .187-.414 1.187-1.235 3a143.916 143.916 0 0 1-1.578 3.406ZM50.792 19.83c-.23 0-.601-.25-1.109-.75-.461.22-.867.383-1.219.5-.355.114-.656.173-.906.173-1.211 0-2.121-.325-2.734-.97-.606-.655-.907-1.632-.907-2.937 0-1.207.446-2.242 1.344-3.11.895-.862 1.969-1.296 3.219-1.296.476 0 1.035.137 1.672.406.758.324 1.14.703 1.14 1.14 0 .18-.058.34-.172.485-.054.2-.093.45-.125.75-.023.305-.03.664-.03 1.078 0 .961.066 1.653.202 2.079.008.042.125.304.344.78.195.438.297.684.297.735a.848.848 0 0 1-.313.672 1.03 1.03 0 0 1-.703.266Zm-1.875-5.187c0-.156.008-.336.032-.547.02-.218.054-.453.109-.703-.105-.05-.2-.086-.281-.11a.503.503 0 0 0-.188-.046c-.687 0-1.293.273-1.812.812-.512.543-.766 1.164-.766 1.86 0 .68.117 1.187.36 1.531.25.336.613.5 1.093.5.313 0 .61-.047.89-.14a2.45 2.45 0 0 0 .782-.47c-.148-1.195-.219-2.093-.219-2.687ZM58.191 13.8c-.5 0-.805-.208-.906-.626-.2-.039-.403-.062-.61-.062-1.218 0-1.828.168-1.828.5 0 .2.363.465 1.094.797 1 .46 1.676.82 2.031 1.078.727.531 1.094 1.125 1.094 1.781 0 .875-.402 1.54-1.203 1.985-.656.351-1.461.53-2.406.53a5.16 5.16 0 0 1-1.829-.312c-.761-.281-1.14-.695-1.14-1.25 0-.5.3-.75.906-.75.227 0 .563.074 1 .219.438.148.774.219 1.016.219 1.02 0 1.535-.207 1.547-.625 0-.25-.36-.531-1.079-.844-1.03-.457-1.695-.789-1.984-1-.719-.5-1.078-1.102-1.078-1.812 0-1.02.539-1.704 1.625-2.047.625-.207 1.578-.313 2.86-.313.507 0 .882.063 1.124.188.332.18.5.507.5.984 0 .906-.246 1.36-.734 1.36ZM63.883 19.8c-1.117 0-2.047-.313-2.797-.938-.793-.664-1.187-1.54-1.187-2.625 0-1.008.36-2.047 1.078-3.11.8-1.218 1.738-1.828 2.812-1.828.52 0 1.13.141 1.829.422.851.344 1.28.746 1.28 1.203 0 .243-.085.461-.25.657a.898.898 0 0 1-.702.312c-.22 0-.485-.113-.797-.344-.305-.238-.758-.359-1.36-.359-.398 0-.82.383-1.265 1.14-.438.731-.656 1.368-.656 1.907 0 .523.191.933.578 1.234.363.293.843.438 1.437.438.332 0 .742-.125 1.235-.375.488-.258.8-.39.937-.39.27 0 .5.1.688.296a.907.907 0 0 1 .296.672c0 .387-.43.777-1.28 1.172-.774.344-1.4.515-1.876.515ZM74.694 13.878c-.054.773-.402 1.156-1.047 1.156-.636 0-.953-.328-.953-.985l-.047-.765c-1.136.187-1.949.773-2.437 1.75l.015 3.812a.938.938 0 0 1-.296.703c-.2.188-.45.282-.75.282-.313 0-.555-.102-.72-.297-.167-.18-.25-.406-.25-.688v-4.953c0-.156.005-.39.016-.703.008-.312.016-.547.016-.703 0-.281.082-.516.25-.703.176-.188.422-.281.734-.281.551 0 .88.289.985.859.894-.664 1.89-1 2.984-1 1 0 1.5.672 1.5 2.016v.5ZM77.523 10.237c-.325 0-.606-.102-.844-.313a1.03 1.03 0 0 1-.36-.796c0-.313.118-.579.36-.797.238-.22.52-.328.844-.328.32 0 .597.109.828.328.238.218.36.484.36.797 0 .312-.122.578-.36.796-.23.211-.508.313-.828.313Zm.64 5.547c0 .293.004.758.016 1.39.02.637.031 1.094.031 1.375 0 .293-.101.54-.297.735-.199.187-.449.281-.75.281-.304 0-.554-.094-.75-.281a1.02 1.02 0 0 1-.281-.735c0-.28-.012-.738-.031-1.375a39.458 39.458 0 0 1-.032-1.39c0-.446.024-1.008.079-1.688.05-.676.078-1.238.078-1.687 0-.29.097-.531.297-.719.195-.187.445-.281.75-.281.3 0 .546.094.734.281a.96.96 0 0 1 .297.719c0 .449-.028 1.011-.078 1.687-.043.68-.063 1.242-.063 1.688ZM83.627 19.784c-.438 0-.899-.055-1.375-.156v3.078a.96.96 0 0 1-.297.718c-.2.196-.45.297-.75.297-.305 0-.555-.101-.75-.297a.946.946 0 0 1-.297-.718c0-.23.004-1.168.016-2.813.008-1.219.008-2.21 0-2.984a41.717 41.717 0 0 0-.11-2.813c-.074-1.082-.109-1.582-.109-1.5 0-.414.094-.77.281-1.062.219-.344.508-.516.875-.516.281 0 .516.102.703.297a.922.922 0 0 1 .297.688v.062a4.481 4.481 0 0 1 1-.422c.344-.094.688-.14 1.031-.14 1.165 0 2.016.496 2.547 1.484.395.742.594 1.7.594 2.875 0 1.105-.312 2.023-.937 2.75-.68.781-1.586 1.172-2.72 1.172Zm.515-6.266c-.312 0-.636.078-.968.235a4.15 4.15 0 0 0-.985.656c.063 1.043.094 2.086.094 3.125.445.148.895.219 1.344.219.52 0 .914-.18 1.187-.547.258-.332.391-.782.391-1.344 0-.676-.031-1.149-.094-1.422-.148-.613-.469-.922-.969-.922ZM93.747 13.237h-.375c-.148-.008-.273-.016-.375-.016-.21 0-.449.024-.718.063.093 2.031.14 3.36.14 3.984v.375c.008.18.016.324.016.438 0 1.156-.367 1.734-1.094 1.734-.281 0-.523-.086-.719-.25-.23-.187-.343-.414-.343-.687 0-.176.003-.446.015-.813.02-.363.031-.64.031-.828 0-.602-.043-1.906-.125-3.906-.312-.02-.789-.063-1.421-.125-.637-.07-.954-.399-.954-.985 0-.281.094-.52.282-.718.195-.196.445-.297.75-.297.187 0 .613.03 1.28.093 0-.156-.01-.421-.03-.796-.024-.32-.032-.57-.032-.75 0-.282.098-.516.297-.704.207-.187.461-.28.766-.28.738 0 1.11.624 1.11 1.874l-.016.625a6.54 6.54 0 0 1 .765-.062c.582 0 .977.039 1.188.109.406.148.61.453.61.922a.954.954 0 0 1-.298.719c-.199.187-.449.28-.75.28Zm0 0"/></svg>