<svg xmlns="http://www.w3.org/2000/svg" xmlns:xlink="http://www.w3.org/1999/xlink" width="150" zoomAndPan="magnify" viewBox="0 0 112.5 30.000001" height="40" preserveAspectRatio="xMidYMid meet" version="1.0"><defs><g/><clipPath id="fdf003a8ed"><path d="M 1.574219 0.28125 L 110.445312 0.28125 L 110.445312 29.03125 L 1.574219 29.03125 Z M 1.574219 0.28125 " clip-rule="nonzero"/></clipPath><clipPath id="b99487d2ee"><path d="M 8.832031 0.28125 L 103.183594 0.28125 C 105.109375 0.28125 106.957031 1.046875 108.316406 2.40625 C 109.679688 3.765625 110.445312 5.613281 110.445312 7.539062 L 110.445312 21.773438 C 110.445312 23.699219 109.679688 25.546875 108.316406 26.90625 C 106.957031 28.265625 105.109375 29.03125 103.183594 29.03125 L 8.832031 29.03125 C 6.90625 29.03125 5.058594 28.265625 3.699219 26.90625 C 2.335938 25.546875 1.574219 23.699219 1.574219 21.773438 L 1.574219 7.539062 C 1.574219 5.613281 2.335938 3.765625 3.699219 2.40625 C 5.058594 1.046875 6.90625 0.28125 8.832031 0.28125 Z M 8.832031 0.28125 " clip-rule="nonzero"/></clipPath><clipPath id="3ac30c971a"><path d="M 1.578125 0.28125 L 110.445312 0.28125 L 110.445312 29.03125 L 1.578125 29.03125 Z M 1.578125 0.28125 " clip-rule="nonzero"/></clipPath><clipPath id="b61de596a6"><path d="M 8.835938 0.28125 L 103.179688 0.28125 C 105.105469 0.28125 106.949219 1.046875 108.3125 2.40625 C 109.671875 3.765625 110.4375 5.613281 110.4375 7.539062 L 110.4375 21.773438 C 110.4375 23.695312 109.671875 25.542969 108.3125 26.902344 C 106.949219 28.265625 105.105469 29.027344 103.179688 29.027344 L 8.835938 29.027344 C 6.910156 29.027344 5.066406 28.265625 3.703125 26.902344 C 2.34375 25.542969 1.578125 23.695312 1.578125 21.773438 L 1.578125 7.539062 C 1.578125 5.613281 2.34375 3.765625 3.703125 2.40625 C 5.066406 1.046875 6.910156 0.28125 8.835938 0.28125 Z M 8.835938 0.28125 " clip-rule="nonzero"/></clipPath></defs><g clip-path="url(#fdf003a8ed)"><g clip-path="url(#b99487d2ee)"><path fill="#1d7886" d="M 1.574219 0.28125 L 110.402344 0.28125 L 110.402344 29.03125 L 1.574219 29.03125 Z M 1.574219 0.28125 " fill-opacity="1" fill-rule="nonzero"/></g></g><g clip-path="url(#3ac30c971a)"><g clip-path="url(#b61de596a6)"><path stroke-linecap="butt" transform="matrix(0.725806, 0, 0, 0.725806, 1.578403, 0.280445)" fill="none" stroke-linejoin="miter" d="M 9.99927 0.00110902 L 139.984001 0.00110902 C 142.6373 0.00110902 145.177578 1.05597 147.055877 2.928887 C 148.928794 4.801804 149.983655 7.347464 149.983655 10.000763 L 149.983655 29.612569 C 149.983655 32.260486 148.928794 34.806146 147.055877 36.679063 C 145.177578 38.557362 142.6373 39.606841 139.984001 39.606841 L 9.99927 39.606841 C 7.345971 39.606841 4.805693 38.557362 2.927394 36.679063 C 1.054478 34.806146 -0.000383669 32.260486 -0.000383669 29.612569 L -0.000383669 10.000763 C -0.000383669 7.347464 1.054478 4.801804 2.927394 2.928887 C 4.805693 1.05597 7.345971 0.00110902 9.99927 0.00110902 Z M 9.99927 0.00110902 " stroke="#e9a436" stroke-width="4" stroke-opacity="1" stroke-miterlimit="4"/></g></g><g fill="#e9a436" fill-opacity="1"><g transform="translate(17.070489, 19.330644)"><g><path d="M 9.046875 -9.28125 C 8.960938 -9.28125 8.820312 -9.289062 8.625 -9.3125 C 8.425781 -9.332031 8.265625 -9.34375 8.140625 -9.34375 L 7.546875 -9.34375 C 7.546875 -9.425781 7.546875 -9.242188 7.546875 -8.796875 C 7.546875 -5.191406 7.289062 -2.566406 6.78125 -0.921875 C 6.40625 0.296875 5.726562 0.90625 4.75 0.90625 C 3.8125 0.90625 2.882812 0.582031 1.96875 -0.0625 C 0.925781 -0.78125 0.40625 -1.625 0.40625 -2.59375 C 0.40625 -3.382812 0.757812 -3.78125 1.46875 -3.78125 C 2.1875 -3.78125 2.546875 -3.390625 2.546875 -2.609375 C 2.546875 -2.316406 2.800781 -2 3.3125 -1.65625 C 3.820312 -1.320312 4.300781 -1.15625 4.75 -1.15625 C 4.925781 -1.15625 5.054688 -1.488281 5.140625 -2.15625 C 5.160156 -2.3125 5.21875 -3.09375 5.3125 -4.5 C 5.382812 -5.65625 5.421875 -7.085938 5.421875 -8.796875 C 5.421875 -8.867188 5.410156 -9.035156 5.390625 -9.296875 L 5.21875 -9.28125 C 5 -9.269531 4.703125 -9.273438 4.328125 -9.296875 C 3.878906 -9.316406 3.582031 -9.328125 3.4375 -9.328125 C 3.144531 -9.328125 2.894531 -9.414062 2.6875 -9.59375 C 2.457031 -9.789062 2.34375 -10.046875 2.34375 -10.359375 C 2.34375 -11.046875 2.796875 -11.390625 3.703125 -11.390625 C 3.878906 -11.390625 4.132812 -11.378906 4.46875 -11.359375 C 4.800781 -11.347656 5.050781 -11.34375 5.21875 -11.34375 C 5.539062 -11.34375 6.015625 -11.359375 6.640625 -11.390625 C 7.273438 -11.429688 7.753906 -11.453125 8.078125 -11.453125 C 9.421875 -11.453125 10.09375 -11.078125 10.09375 -10.328125 C 10.09375 -10.066406 10.003906 -9.832031 9.828125 -9.625 C 9.617188 -9.394531 9.359375 -9.28125 9.046875 -9.28125 Z M 9.046875 -9.28125 "/></g></g></g><g fill="#e9a436" fill-opacity="1"><g transform="translate(27.365354, 19.330644)"><g><path d="M 7.296875 0.5 C 7.066406 0.5 6.695312 0.25 6.1875 -0.25 C 5.726562 -0.03125 5.320312 0.132812 4.96875 0.25 C 4.613281 0.363281 4.3125 0.421875 4.0625 0.421875 C 2.851562 0.421875 1.941406 0.0976562 1.328125 -0.546875 C 0.722656 -1.203125 0.421875 -2.179688 0.421875 -3.484375 C 0.421875 -4.691406 0.867188 -5.726562 1.765625 -6.59375 C 2.660156 -7.457031 3.734375 -7.890625 4.984375 -7.890625 C 5.460938 -7.890625 6.019531 -7.753906 6.65625 -7.484375 C 7.414062 -7.160156 7.796875 -6.78125 7.796875 -6.34375 C 7.796875 -6.164062 7.738281 -6.003906 7.625 -5.859375 C 7.570312 -5.660156 7.53125 -5.410156 7.5 -5.109375 C 7.476562 -4.804688 7.46875 -4.445312 7.46875 -4.03125 C 7.46875 -3.070312 7.535156 -2.378906 7.671875 -1.953125 C 7.679688 -1.910156 7.796875 -1.648438 8.015625 -1.171875 C 8.210938 -0.734375 8.3125 -0.488281 8.3125 -0.4375 C 8.3125 -0.164062 8.207031 0.0546875 8 0.234375 C 7.800781 0.410156 7.566406 0.5 7.296875 0.5 Z M 5.421875 -4.6875 C 5.421875 -4.84375 5.429688 -5.023438 5.453125 -5.234375 C 5.472656 -5.453125 5.507812 -5.6875 5.5625 -5.9375 C 5.457031 -5.988281 5.363281 -6.023438 5.28125 -6.046875 C 5.207031 -6.078125 5.144531 -6.09375 5.09375 -6.09375 C 4.40625 -6.09375 3.800781 -5.820312 3.28125 -5.28125 C 2.769531 -4.738281 2.515625 -4.117188 2.515625 -3.421875 C 2.515625 -2.742188 2.632812 -2.234375 2.875 -1.890625 C 3.125 -1.554688 3.488281 -1.390625 3.96875 -1.390625 C 4.28125 -1.390625 4.578125 -1.4375 4.859375 -1.53125 C 5.140625 -1.632812 5.398438 -1.789062 5.640625 -2 C 5.492188 -3.195312 5.421875 -4.09375 5.421875 -4.6875 Z M 5.421875 -4.6875 "/></g></g></g><g fill="#e9a436" fill-opacity="1"><g transform="translate(35.967084, 19.330644)"><g><path d="M 4.828125 -0.5625 C 4.804688 -0.3125 4.703125 -0.109375 4.515625 0.046875 C 4.335938 0.210938 4.113281 0.296875 3.84375 0.296875 C 3.332031 0.296875 2.972656 0.0351562 2.765625 -0.484375 C 2.222656 -1.847656 1.390625 -3.878906 0.265625 -6.578125 C 0.203125 -6.722656 0.171875 -6.867188 0.171875 -7.015625 C 0.171875 -7.285156 0.28125 -7.515625 0.5 -7.703125 C 0.71875 -7.890625 0.96875 -7.984375 1.25 -7.984375 C 1.675781 -7.984375 1.984375 -7.785156 2.171875 -7.390625 C 2.460938 -6.773438 3.023438 -5.347656 3.859375 -3.109375 C 4.117188 -3.679688 4.484375 -4.546875 4.953125 -5.703125 C 5.097656 -6.097656 5.320312 -6.640625 5.625 -7.328125 C 5.820312 -7.734375 6.132812 -7.9375 6.5625 -7.9375 C 6.84375 -7.9375 7.09375 -7.84375 7.3125 -7.65625 C 7.53125 -7.46875 7.640625 -7.238281 7.640625 -6.96875 C 7.640625 -6.78125 7.226562 -5.78125 6.40625 -3.96875 C 5.738281 -2.488281 5.210938 -1.351562 4.828125 -0.5625 Z M 4.828125 -0.5625 "/></g></g></g><g fill="#e9a436" fill-opacity="1"><g transform="translate(43.495487, 19.330644)"><g><path d="M 7.296875 0.5 C 7.066406 0.5 6.695312 0.25 6.1875 -0.25 C 5.726562 -0.03125 5.320312 0.132812 4.96875 0.25 C 4.613281 0.363281 4.3125 0.421875 4.0625 0.421875 C 2.851562 0.421875 1.941406 0.0976562 1.328125 -0.546875 C 0.722656 -1.203125 0.421875 -2.179688 0.421875 -3.484375 C 0.421875 -4.691406 0.867188 -5.726562 1.765625 -6.59375 C 2.660156 -7.457031 3.734375 -7.890625 4.984375 -7.890625 C 5.460938 -7.890625 6.019531 -7.753906 6.65625 -7.484375 C 7.414062 -7.160156 7.796875 -6.78125 7.796875 -6.34375 C 7.796875 -6.164062 7.738281 -6.003906 7.625 -5.859375 C 7.570312 -5.660156 7.53125 -5.410156 7.5 -5.109375 C 7.476562 -4.804688 7.46875 -4.445312 7.46875 -4.03125 C 7.46875 -3.070312 7.535156 -2.378906 7.671875 -1.953125 C 7.679688 -1.910156 7.796875 -1.648438 8.015625 -1.171875 C 8.210938 -0.734375 8.3125 -0.488281 8.3125 -0.4375 C 8.3125 -0.164062 8.207031 0.0546875 8 0.234375 C 7.800781 0.410156 7.566406 0.5 7.296875 0.5 Z M 5.421875 -4.6875 C 5.421875 -4.84375 5.429688 -5.023438 5.453125 -5.234375 C 5.472656 -5.453125 5.507812 -5.6875 5.5625 -5.9375 C 5.457031 -5.988281 5.363281 -6.023438 5.28125 -6.046875 C 5.207031 -6.078125 5.144531 -6.09375 5.09375 -6.09375 C 4.40625 -6.09375 3.800781 -5.820312 3.28125 -5.28125 C 2.769531 -4.738281 2.515625 -4.117188 2.515625 -3.421875 C 2.515625 -2.742188 2.632812 -2.234375 2.875 -1.890625 C 3.125 -1.554688 3.488281 -1.390625 3.96875 -1.390625 C 4.28125 -1.390625 4.578125 -1.4375 4.859375 -1.53125 C 5.140625 -1.632812 5.398438 -1.789062 5.640625 -2 C 5.492188 -3.195312 5.421875 -4.09375 5.421875 -4.6875 Z M 5.421875 -4.6875 "/></g></g></g><g fill="#e9a436" fill-opacity="1"><g transform="translate(52.097217, 19.330644)"><g><path d="M 6.09375 -5.53125 C 5.59375 -5.53125 5.289062 -5.738281 5.1875 -6.15625 C 4.988281 -6.195312 4.785156 -6.21875 4.578125 -6.21875 C 3.359375 -6.21875 2.75 -6.050781 2.75 -5.71875 C 2.75 -5.519531 3.113281 -5.253906 3.84375 -4.921875 C 4.84375 -4.460938 5.519531 -4.101562 5.875 -3.84375 C 6.601562 -3.3125 6.96875 -2.71875 6.96875 -2.0625 C 6.96875 -1.1875 6.566406 -0.523438 5.765625 -0.078125 C 5.109375 0.273438 4.304688 0.453125 3.359375 0.453125 C 2.691406 0.453125 2.082031 0.347656 1.53125 0.140625 C 0.769531 -0.140625 0.390625 -0.554688 0.390625 -1.109375 C 0.390625 -1.609375 0.691406 -1.859375 1.296875 -1.859375 C 1.523438 -1.859375 1.859375 -1.785156 2.296875 -1.640625 C 2.734375 -1.492188 3.070312 -1.421875 3.3125 -1.421875 C 4.332031 -1.421875 4.847656 -1.628906 4.859375 -2.046875 C 4.859375 -2.296875 4.5 -2.578125 3.78125 -2.890625 C 2.75 -3.347656 2.085938 -3.679688 1.796875 -3.890625 C 1.078125 -4.390625 0.71875 -4.992188 0.71875 -5.703125 C 0.71875 -6.722656 1.257812 -7.40625 2.34375 -7.75 C 2.96875 -7.957031 3.921875 -8.0625 5.203125 -8.0625 C 5.710938 -8.0625 6.085938 -8 6.328125 -7.875 C 6.660156 -7.695312 6.828125 -7.367188 6.828125 -6.890625 C 6.828125 -5.984375 6.582031 -5.53125 6.09375 -5.53125 Z M 6.09375 -5.53125 "/></g></g></g><g fill="#e9a436" fill-opacity="1"><g transform="translate(59.633185, 19.330644)"><g><path d="M 4.25 0.46875 C 3.132812 0.46875 2.203125 0.15625 1.453125 -0.46875 C 0.660156 -1.132812 0.265625 -2.007812 0.265625 -3.09375 C 0.265625 -4.101562 0.625 -5.140625 1.34375 -6.203125 C 2.144531 -7.421875 3.082031 -8.03125 4.15625 -8.03125 C 4.675781 -8.03125 5.285156 -7.890625 5.984375 -7.609375 C 6.835938 -7.265625 7.265625 -6.863281 7.265625 -6.40625 C 7.265625 -6.164062 7.179688 -5.945312 7.015625 -5.75 C 6.828125 -5.539062 6.59375 -5.4375 6.3125 -5.4375 C 6.09375 -5.4375 5.828125 -5.550781 5.515625 -5.78125 C 5.210938 -6.019531 4.757812 -6.140625 4.15625 -6.140625 C 3.757812 -6.140625 3.335938 -5.757812 2.890625 -5 C 2.453125 -4.269531 2.234375 -3.632812 2.234375 -3.09375 C 2.234375 -2.570312 2.425781 -2.160156 2.8125 -1.859375 C 3.175781 -1.566406 3.65625 -1.421875 4.25 -1.421875 C 4.582031 -1.421875 4.992188 -1.546875 5.484375 -1.796875 C 5.972656 -2.054688 6.285156 -2.1875 6.421875 -2.1875 C 6.691406 -2.1875 6.921875 -2.085938 7.109375 -1.890625 C 7.304688 -1.703125 7.40625 -1.476562 7.40625 -1.21875 C 7.40625 -0.832031 6.976562 -0.441406 6.125 -0.046875 C 5.351562 0.296875 4.726562 0.46875 4.25 0.46875 Z M 4.25 0.46875 "/></g></g></g><g fill="#e9a436" fill-opacity="1"><g transform="translate(67.584872, 19.330644)"><g><path d="M 7.109375 -5.453125 C 7.054688 -4.679688 6.707031 -4.296875 6.0625 -4.296875 C 5.425781 -4.296875 5.109375 -4.625 5.109375 -5.28125 L 5.0625 -6.046875 C 3.925781 -5.859375 3.113281 -5.273438 2.625 -4.296875 L 2.640625 -0.484375 C 2.640625 -0.203125 2.539062 0.03125 2.34375 0.21875 C 2.144531 0.40625 1.894531 0.5 1.59375 0.5 C 1.28125 0.5 1.039062 0.398438 0.875 0.203125 C 0.707031 0.0234375 0.625 -0.203125 0.625 -0.484375 L 0.625 -5.4375 C 0.625 -5.59375 0.628906 -5.828125 0.640625 -6.140625 C 0.648438 -6.453125 0.65625 -6.6875 0.65625 -6.84375 C 0.65625 -7.125 0.738281 -7.359375 0.90625 -7.546875 C 1.082031 -7.734375 1.328125 -7.828125 1.640625 -7.828125 C 2.191406 -7.828125 2.519531 -7.539062 2.625 -6.96875 C 3.519531 -7.632812 4.515625 -7.96875 5.609375 -7.96875 C 6.609375 -7.96875 7.109375 -7.296875 7.109375 -5.953125 C 7.109375 -5.703125 7.109375 -5.535156 7.109375 -5.453125 Z M 7.109375 -5.453125 "/></g></g></g><g fill="#e9a436" fill-opacity="1"><g transform="translate(75.022572, 19.330644)"><g><path d="M 2.5 -9.09375 C 2.175781 -9.09375 1.894531 -9.195312 1.65625 -9.40625 C 1.414062 -9.625 1.296875 -9.890625 1.296875 -10.203125 C 1.296875 -10.515625 1.414062 -10.78125 1.65625 -11 C 1.894531 -11.21875 2.175781 -11.328125 2.5 -11.328125 C 2.820312 -11.328125 3.097656 -11.21875 3.328125 -11 C 3.566406 -10.78125 3.6875 -10.515625 3.6875 -10.203125 C 3.6875 -9.890625 3.566406 -9.625 3.328125 -9.40625 C 3.097656 -9.195312 2.820312 -9.09375 2.5 -9.09375 Z M 3.140625 -3.546875 C 3.140625 -3.253906 3.144531 -2.789062 3.15625 -2.15625 C 3.175781 -1.519531 3.1875 -1.0625 3.1875 -0.78125 C 3.1875 -0.488281 3.085938 -0.242188 2.890625 -0.046875 C 2.691406 0.140625 2.441406 0.234375 2.140625 0.234375 C 1.835938 0.234375 1.585938 0.140625 1.390625 -0.046875 C 1.203125 -0.242188 1.109375 -0.488281 1.109375 -0.78125 C 1.109375 -1.0625 1.097656 -1.519531 1.078125 -2.15625 C 1.054688 -2.789062 1.046875 -3.253906 1.046875 -3.546875 C 1.046875 -3.992188 1.070312 -4.554688 1.125 -5.234375 C 1.175781 -5.910156 1.203125 -6.472656 1.203125 -6.921875 C 1.203125 -7.210938 1.300781 -7.453125 1.5 -7.640625 C 1.695312 -7.828125 1.945312 -7.921875 2.25 -7.921875 C 2.550781 -7.921875 2.796875 -7.828125 2.984375 -7.640625 C 3.179688 -7.453125 3.28125 -7.210938 3.28125 -6.921875 C 3.28125 -6.472656 3.253906 -5.910156 3.203125 -5.234375 C 3.160156 -4.554688 3.140625 -3.992188 3.140625 -3.546875 Z M 3.140625 -3.546875 "/></g></g></g><g fill="#e9a436" fill-opacity="1"><g transform="translate(79.36123, 19.330644)"><g><path d="M 4.265625 0.453125 C 3.828125 0.453125 3.367188 0.398438 2.890625 0.296875 L 2.890625 3.375 C 2.890625 3.664062 2.789062 3.90625 2.59375 4.09375 C 2.394531 4.289062 2.144531 4.390625 1.84375 4.390625 C 1.539062 4.390625 1.289062 4.289062 1.09375 4.09375 C 0.894531 3.90625 0.796875 3.664062 0.796875 3.375 C 0.796875 3.144531 0.800781 2.207031 0.8125 0.5625 C 0.820312 -0.65625 0.820312 -1.648438 0.8125 -2.421875 C 0.800781 -3.515625 0.765625 -4.453125 0.703125 -5.234375 C 0.628906 -6.316406 0.59375 -6.816406 0.59375 -6.734375 C 0.59375 -7.148438 0.6875 -7.503906 0.875 -7.796875 C 1.09375 -8.140625 1.382812 -8.3125 1.75 -8.3125 C 2.03125 -8.3125 2.265625 -8.210938 2.453125 -8.015625 C 2.648438 -7.828125 2.75 -7.597656 2.75 -7.328125 L 2.75 -7.265625 C 3.082031 -7.453125 3.414062 -7.59375 3.75 -7.6875 C 4.09375 -7.78125 4.4375 -7.828125 4.78125 -7.828125 C 5.945312 -7.828125 6.796875 -7.332031 7.328125 -6.34375 C 7.722656 -5.601562 7.921875 -4.644531 7.921875 -3.46875 C 7.921875 -2.363281 7.609375 -1.445312 6.984375 -0.71875 C 6.304688 0.0625 5.398438 0.453125 4.265625 0.453125 Z M 4.78125 -5.8125 C 4.46875 -5.8125 4.144531 -5.734375 3.8125 -5.578125 C 3.488281 -5.429688 3.160156 -5.210938 2.828125 -4.921875 C 2.890625 -3.878906 2.921875 -2.835938 2.921875 -1.796875 C 3.367188 -1.648438 3.816406 -1.578125 4.265625 -1.578125 C 4.785156 -1.578125 5.179688 -1.757812 5.453125 -2.125 C 5.710938 -2.457031 5.84375 -2.90625 5.84375 -3.46875 C 5.84375 -4.144531 5.8125 -4.617188 5.75 -4.890625 C 5.601562 -5.503906 5.28125 -5.8125 4.78125 -5.8125 Z M 4.78125 -5.8125 "/></g></g></g><g fill="#e9a436" fill-opacity="1"><g transform="translate(87.637944, 19.330644)"><g><path d="M 6.109375 -6.09375 C 6.003906 -6.09375 5.878906 -6.09375 5.734375 -6.09375 C 5.585938 -6.101562 5.460938 -6.109375 5.359375 -6.109375 C 5.148438 -6.109375 4.910156 -6.085938 4.640625 -6.046875 C 4.734375 -4.015625 4.78125 -2.6875 4.78125 -2.0625 C 4.78125 -1.988281 4.78125 -1.863281 4.78125 -1.6875 C 4.789062 -1.507812 4.796875 -1.363281 4.796875 -1.25 C 4.796875 -0.09375 4.429688 0.484375 3.703125 0.484375 C 3.421875 0.484375 3.179688 0.398438 2.984375 0.234375 C 2.753906 0.046875 2.640625 -0.179688 2.640625 -0.453125 C 2.640625 -0.628906 2.644531 -0.898438 2.65625 -1.265625 C 2.675781 -1.628906 2.6875 -1.90625 2.6875 -2.09375 C 2.6875 -2.695312 2.644531 -4 2.5625 -6 C 2.25 -6.019531 1.773438 -6.0625 1.140625 -6.125 C 0.503906 -6.195312 0.1875 -6.523438 0.1875 -7.109375 C 0.1875 -7.390625 0.28125 -7.628906 0.46875 -7.828125 C 0.664062 -8.023438 0.914062 -8.125 1.21875 -8.125 C 1.40625 -8.125 1.832031 -8.09375 2.5 -8.03125 C 2.5 -8.1875 2.488281 -8.453125 2.46875 -8.828125 C 2.445312 -9.148438 2.4375 -9.398438 2.4375 -9.578125 C 2.4375 -9.859375 2.535156 -10.09375 2.734375 -10.28125 C 2.941406 -10.46875 3.195312 -10.5625 3.5 -10.5625 C 4.238281 -10.5625 4.609375 -9.9375 4.609375 -8.6875 L 4.59375 -8.0625 C 4.90625 -8.101562 5.160156 -8.125 5.359375 -8.125 C 5.941406 -8.125 6.335938 -8.085938 6.546875 -8.015625 C 6.953125 -7.867188 7.15625 -7.5625 7.15625 -7.09375 C 7.15625 -6.800781 7.054688 -6.5625 6.859375 -6.375 C 6.660156 -6.1875 6.410156 -6.09375 6.109375 -6.09375 Z M 6.109375 -6.09375 "/></g></g></g></svg>