<svg xmlns="http://www.w3.org/2000/svg" width="150" height="40" version="1.0" viewBox="0 0 112.5 30"><defs><clipPath id="a"><path d="M1.574.281h108.871v28.75H1.575Zm0 0"/></clipPath><clipPath id="b"><path d="M8.832.281h94.352a7.262 7.262 0 0 1 7.261 7.258v14.234a7.262 7.262 0 0 1-7.262 7.258H8.833a7.262 7.262 0 0 1-5.133-2.125 7.245 7.245 0 0 1-2.125-5.133V7.54c0-1.926.762-3.773 2.125-5.133A7.262 7.262 0 0 1 8.832.281Zm0 0"/></clipPath><clipPath id="c"><path d="M1.578.281h108.867v28.75H1.578Zm0 0"/></clipPath><clipPath id="d"><path d="M8.836.281h94.344c1.925 0 3.77.766 5.132 2.125a7.262 7.262 0 0 1 2.126 5.133v14.234a7.26 7.26 0 0 1-7.258 7.254H8.836a7.252 7.252 0 0 1-7.258-7.254V7.54c0-1.926.766-3.773 2.125-5.133A7.268 7.268 0 0 1 8.836.281Zm0 0"/></clipPath></defs><g clip-path="url(#a)"><g clip-path="url(#b)"><path fill="#1d7886" d="M1.574.281h108.828v28.75H1.574Zm0 0"/></g></g><g clip-path="url(#c)"><g clip-path="url(#d)"><path fill="none" stroke="#e9a436" stroke-width="2.90324" d="M8.836.281h94.344c1.925 0 3.77.766 5.132 2.125a7.262 7.262 0 0 1 2.125 5.133v14.234a7.26 7.26 0 0 1-7.257 7.254H8.836a7.252 7.252 0 0 1-7.258-7.254V7.54c0-1.926.766-3.773 2.125-5.133A7.268 7.268 0 0 1 8.836.281Zm0 0"/></g></g><path fill="#e9a436" d="M37.083 19.05c-.593.261-1.511.492-2.75.703-1.148.187-2.086.28-2.812.28-1.23 0-1.844-.542-1.844-1.624 0 .086.047-.711.14-2.39.133-2.188.204-4.626.204-7.313 0-.282.097-.52.297-.72a.987.987 0 0 1 .75-.312 1 1 0 0 1 .75.313c.207.2.312.437.312.719 0 2.687-.07 5.164-.203 7.422a23.607 23.607 0 0 0-.14 1.859c1.187-.02 2.718-.313 4.593-.875.113-.04.223-.063.328-.063.32 0 .578.121.766.36.176.199.266.43.266.687 0 .438-.22.758-.657.953ZM45.031 19.83c-.23 0-.601-.25-1.11-.75-.46.22-.866.383-1.218.5-.355.114-.656.173-.906.173-1.211 0-2.121-.325-2.734-.97-.606-.655-.907-1.632-.907-2.937 0-1.207.446-2.242 1.344-3.11.895-.862 1.969-1.296 3.219-1.296.476 0 1.035.137 1.672.406.758.324 1.14.703 1.14 1.14 0 .18-.058.34-.172.485-.054.2-.093.45-.125.75-.023.305-.03.664-.03 1.078 0 .961.066 1.653.202 2.079.008.042.125.304.344.78.195.438.297.684.297.735a.848.848 0 0 1-.313.672 1.03 1.03 0 0 1-.703.266Zm-1.875-5.187c0-.156.008-.336.032-.547.02-.218.054-.453.109-.703-.106-.05-.2-.086-.281-.11a.503.503 0 0 0-.188-.046c-.687 0-1.293.273-1.812.812-.512.543-.766 1.164-.766 1.86 0 .68.117 1.187.36 1.531.25.336.613.5 1.093.5.313 0 .61-.047.89-.14a2.45 2.45 0 0 0 .782-.47c-.148-1.195-.219-2.093-.219-2.687ZM53.446 13.878c-.055.773-.403 1.156-1.047 1.156-.637 0-.953-.328-.953-.985l-.047-.765c-1.137.187-1.95.773-2.438 1.75l.016 3.812a.938.938 0 0 1-.297.703c-.2.188-.45.282-.75.282-.313 0-.555-.102-.719-.297-.168-.18-.25-.406-.25-.688v-4.953c0-.156.004-.39.016-.703.008-.312.015-.547.015-.703 0-.281.082-.516.25-.703.176-.188.422-.281.735-.281.55 0 .879.289.984.859.895-.664 1.89-1 2.985-1 1 0 1.5.672 1.5 2.016v.5ZM61.07 19.83c-.23 0-.6-.25-1.109-.75-.46.22-.867.383-1.218.5-.356.114-.657.173-.907.173-1.21 0-2.12-.325-2.734-.97-.605-.655-.906-1.632-.906-2.937 0-1.207.445-2.242 1.344-3.11.894-.862 1.968-1.296 3.218-1.296.477 0 1.035.137 1.672.406.758.324 1.14.703 1.14 1.14 0 .18-.058.34-.171.485-.055.2-.094.45-.125.75-.024.305-.031.664-.031 1.078 0 .961.066 1.653.203 2.079.008.042.125.304.344.78.195.438.296.684.296.735a.848.848 0 0 1-.312.672 1.03 1.03 0 0 1-.703.266Zm-1.874-5.187c0-.156.008-.336.031-.547.02-.218.055-.453.11-.703-.106-.05-.2-.086-.282-.11a.503.503 0 0 0-.187-.046c-.688 0-1.293.273-1.813.812-.512.543-.765 1.164-.765 1.86 0 .68.117 1.187.359 1.531.25.336.613.5 1.094.5.312 0 .609-.047.89-.14a2.45 2.45 0 0 0 .782-.47c-.149-1.195-.22-2.093-.22-2.687ZM67.204 18.768a.864.864 0 0 1-.313.61.96.96 0 0 1-.672.25c-.511 0-.87-.262-1.078-.782a447.696 447.696 0 0 0-2.5-6.093 1.089 1.089 0 0 1-.094-.438c0-.27.11-.5.329-.687a1.12 1.12 0 0 1 .75-.282c.425 0 .734.2.921.594.29.617.852 2.043 1.688 4.281.258-.57.625-1.437 1.094-2.593.144-.395.367-.938.672-1.625.195-.407.507-.61.937-.61.281 0 .531.094.75.281a.874.874 0 0 1 .328.688c0 .187-.414 1.187-1.234 3a143.916 143.916 0 0 1-1.578 3.406ZM74.482 19.674c-1.2 0-2.183-.289-2.953-.859-.844-.633-1.266-1.531-1.266-2.687 0-1.27.332-2.348 1-3.235.75-.976 1.754-1.469 3.016-1.469.875 0 1.602.141 2.188.422.757.375 1.14.961 1.14 1.75 0 .555-.308 1.043-.922 1.469-.293.2-.86.484-1.703.86l-2.547 1.124c.239.274.532.477.875.61.344.125.735.187 1.172.187.676 0 1.25-.14 1.719-.422.414-.25.75-.375 1-.375.531 0 .797.258.797.766 0 .574-.422 1.043-1.266 1.406-.71.301-1.46.453-2.25.453Zm-.203-6.421c-.469 0-.871.156-1.203.468-.336.313-.602.782-.797 1.407.57-.239 1.14-.477 1.703-.72.676-.312 1.219-.597 1.625-.859-.344-.195-.789-.296-1.328-.296ZM81.652 18.221c0 .961-.343 1.438-1.03 1.438-.306 0-.556-.102-.75-.297-.2-.188-.298-.43-.298-.734V8.174c0-.289.102-.53.313-.718.207-.176.457-.266.75-.266.3 0 .547.094.734.281a.93.93 0 0 1 .281.703Zm0 0"/></svg>