<svg xmlns="http://www.w3.org/2000/svg" xmlns:xlink="http://www.w3.org/1999/xlink" width="150" zoomAndPan="magnify" viewBox="0 0 112.5 30.000001" height="40" preserveAspectRatio="xMidYMid meet" version="1.0"><defs><g/><clipPath id="8e8f58aadb"><path d="M 1.574219 0.28125 L 110.445312 0.28125 L 110.445312 29.03125 L 1.574219 29.03125 Z M 1.574219 0.28125 " clip-rule="nonzero"/></clipPath><clipPath id="05016ce54a"><path d="M 8.832031 0.28125 L 103.183594 0.28125 C 105.109375 0.28125 106.957031 1.046875 108.316406 2.40625 C 109.679688 3.765625 110.445312 5.613281 110.445312 7.539062 L 110.445312 21.773438 C 110.445312 23.699219 109.679688 25.546875 108.316406 26.90625 C 106.957031 28.265625 105.109375 29.03125 103.183594 29.03125 L 8.832031 29.03125 C 6.90625 29.03125 5.058594 28.265625 3.699219 26.90625 C 2.335938 25.546875 1.574219 23.699219 1.574219 21.773438 L 1.574219 7.539062 C 1.574219 5.613281 2.335938 3.765625 3.699219 2.40625 C 5.058594 1.046875 6.90625 0.28125 8.832031 0.28125 Z M 8.832031 0.28125 " clip-rule="nonzero"/></clipPath><clipPath id="52638d8b75"><path d="M 1.578125 0.28125 L 110.445312 0.28125 L 110.445312 29.03125 L 1.578125 29.03125 Z M 1.578125 0.28125 " clip-rule="nonzero"/></clipPath><clipPath id="6fc08ed579"><path d="M 8.835938 0.28125 L 103.179688 0.28125 C 105.105469 0.28125 106.949219 1.046875 108.3125 2.40625 C 109.671875 3.765625 110.4375 5.613281 110.4375 7.539062 L 110.4375 21.773438 C 110.4375 23.695312 109.671875 25.542969 108.3125 26.902344 C 106.949219 28.265625 105.105469 29.027344 103.179688 29.027344 L 8.835938 29.027344 C 6.910156 29.027344 5.066406 28.265625 3.703125 26.902344 C 2.34375 25.542969 1.578125 23.695312 1.578125 21.773438 L 1.578125 7.539062 C 1.578125 5.613281 2.34375 3.765625 3.703125 2.40625 C 5.066406 1.046875 6.910156 0.28125 8.835938 0.28125 Z M 8.835938 0.28125 " clip-rule="nonzero"/></clipPath></defs><g clip-path="url(#8e8f58aadb)"><g clip-path="url(#05016ce54a)"><path fill="#1d7886" d="M 1.574219 0.28125 L 110.402344 0.28125 L 110.402344 29.03125 L 1.574219 29.03125 Z M 1.574219 0.28125 " fill-opacity="1" fill-rule="nonzero"/></g></g><g clip-path="url(#52638d8b75)"><g clip-path="url(#6fc08ed579)"><path stroke-linecap="butt" transform="matrix(0.725806, 0, 0, 0.725806, 1.578403, 0.280445)" fill="none" stroke-linejoin="miter" d="M 9.99927 0.00110902 L 139.984001 0.00110902 C 142.6373 0.00110902 145.177578 1.05597 147.055877 2.928887 C 148.928794 4.801804 149.983655 7.347464 149.983655 10.000763 L 149.983655 29.612569 C 149.983655 32.260486 148.928794 34.806146 147.055877 36.679063 C 145.177578 38.557362 142.6373 39.606841 139.984001 39.606841 L 9.99927 39.606841 C 7.345971 39.606841 4.805693 38.557362 2.927394 36.679063 C 1.054478 34.806146 -0.000383669 32.260486 -0.000383669 29.612569 L -0.000383669 10.000763 C -0.000383669 7.347464 1.054478 4.801804 2.927394 2.928887 C 4.805693 1.05597 7.345971 0.00110902 9.99927 0.00110902 Z M 9.99927 0.00110902 " stroke="#e9a436" stroke-width="4" stroke-opacity="1" stroke-miterlimit="4"/></g></g><g fill="#e9a436" fill-opacity="1"><g transform="translate(29.208304, 19.330644)"><g><path d="M 7.875 -0.28125 C 7.28125 -0.0195312 6.363281 0.210938 5.125 0.421875 C 3.976562 0.609375 3.039062 0.703125 2.3125 0.703125 C 1.082031 0.703125 0.46875 0.160156 0.46875 -0.921875 C 0.46875 -0.835938 0.515625 -1.632812 0.609375 -3.3125 C 0.742188 -5.5 0.8125 -7.9375 0.8125 -10.625 C 0.8125 -10.90625 0.910156 -11.144531 1.109375 -11.34375 C 1.304688 -11.550781 1.554688 -11.65625 1.859375 -11.65625 C 2.160156 -11.65625 2.410156 -11.550781 2.609375 -11.34375 C 2.816406 -11.144531 2.921875 -10.90625 2.921875 -10.625 C 2.921875 -7.9375 2.851562 -5.460938 2.71875 -3.203125 C 2.664062 -2.796875 2.617188 -2.175781 2.578125 -1.34375 C 3.765625 -1.363281 5.296875 -1.65625 7.171875 -2.21875 C 7.285156 -2.257812 7.394531 -2.28125 7.5 -2.28125 C 7.820312 -2.28125 8.078125 -2.160156 8.265625 -1.921875 C 8.441406 -1.722656 8.53125 -1.492188 8.53125 -1.234375 C 8.53125 -0.796875 8.3125 -0.476562 7.875 -0.28125 Z M 7.875 -0.28125 "/></g></g></g><g fill="#e9a436" fill-opacity="1"><g transform="translate(37.734448, 19.330644)"><g><path d="M 7.296875 0.5 C 7.066406 0.5 6.695312 0.25 6.1875 -0.25 C 5.726562 -0.03125 5.320312 0.132812 4.96875 0.25 C 4.613281 0.363281 4.3125 0.421875 4.0625 0.421875 C 2.851562 0.421875 1.941406 0.0976562 1.328125 -0.546875 C 0.722656 -1.203125 0.421875 -2.179688 0.421875 -3.484375 C 0.421875 -4.691406 0.867188 -5.726562 1.765625 -6.59375 C 2.660156 -7.457031 3.734375 -7.890625 4.984375 -7.890625 C 5.460938 -7.890625 6.019531 -7.753906 6.65625 -7.484375 C 7.414062 -7.160156 7.796875 -6.78125 7.796875 -6.34375 C 7.796875 -6.164062 7.738281 -6.003906 7.625 -5.859375 C 7.570312 -5.660156 7.53125 -5.410156 7.5 -5.109375 C 7.476562 -4.804688 7.46875 -4.445312 7.46875 -4.03125 C 7.46875 -3.070312 7.535156 -2.378906 7.671875 -1.953125 C 7.679688 -1.910156 7.796875 -1.648438 8.015625 -1.171875 C 8.210938 -0.734375 8.3125 -0.488281 8.3125 -0.4375 C 8.3125 -0.164062 8.207031 0.0546875 8 0.234375 C 7.800781 0.410156 7.566406 0.5 7.296875 0.5 Z M 5.421875 -4.6875 C 5.421875 -4.84375 5.429688 -5.023438 5.453125 -5.234375 C 5.472656 -5.453125 5.507812 -5.6875 5.5625 -5.9375 C 5.457031 -5.988281 5.363281 -6.023438 5.28125 -6.046875 C 5.207031 -6.078125 5.144531 -6.09375 5.09375 -6.09375 C 4.40625 -6.09375 3.800781 -5.820312 3.28125 -5.28125 C 2.769531 -4.738281 2.515625 -4.117188 2.515625 -3.421875 C 2.515625 -2.742188 2.632812 -2.234375 2.875 -1.890625 C 3.125 -1.554688 3.488281 -1.390625 3.96875 -1.390625 C 4.28125 -1.390625 4.578125 -1.4375 4.859375 -1.53125 C 5.140625 -1.632812 5.398438 -1.789062 5.640625 -2 C 5.492188 -3.195312 5.421875 -4.09375 5.421875 -4.6875 Z M 5.421875 -4.6875 "/></g></g></g><g fill="#e9a436" fill-opacity="1"><g transform="translate(46.336178, 19.330644)"><g><path d="M 7.109375 -5.453125 C 7.054688 -4.679688 6.707031 -4.296875 6.0625 -4.296875 C 5.425781 -4.296875 5.109375 -4.625 5.109375 -5.28125 L 5.0625 -6.046875 C 3.925781 -5.859375 3.113281 -5.273438 2.625 -4.296875 L 2.640625 -0.484375 C 2.640625 -0.203125 2.539062 0.03125 2.34375 0.21875 C 2.144531 0.40625 1.894531 0.5 1.59375 0.5 C 1.28125 0.5 1.039062 0.398438 0.875 0.203125 C 0.707031 0.0234375 0.625 -0.203125 0.625 -0.484375 L 0.625 -5.4375 C 0.625 -5.59375 0.628906 -5.828125 0.640625 -6.140625 C 0.648438 -6.453125 0.65625 -6.6875 0.65625 -6.84375 C 0.65625 -7.125 0.738281 -7.359375 0.90625 -7.546875 C 1.082031 -7.734375 1.328125 -7.828125 1.640625 -7.828125 C 2.191406 -7.828125 2.519531 -7.539062 2.625 -6.96875 C 3.519531 -7.632812 4.515625 -7.96875 5.609375 -7.96875 C 6.609375 -7.96875 7.109375 -7.296875 7.109375 -5.953125 C 7.109375 -5.703125 7.109375 -5.535156 7.109375 -5.453125 Z M 7.109375 -5.453125 "/></g></g></g><g fill="#e9a436" fill-opacity="1"><g transform="translate(53.773878, 19.330644)"><g><path d="M 7.296875 0.5 C 7.066406 0.5 6.695312 0.25 6.1875 -0.25 C 5.726562 -0.03125 5.320312 0.132812 4.96875 0.25 C 4.613281 0.363281 4.3125 0.421875 4.0625 0.421875 C 2.851562 0.421875 1.941406 0.0976562 1.328125 -0.546875 C 0.722656 -1.203125 0.421875 -2.179688 0.421875 -3.484375 C 0.421875 -4.691406 0.867188 -5.726562 1.765625 -6.59375 C 2.660156 -7.457031 3.734375 -7.890625 4.984375 -7.890625 C 5.460938 -7.890625 6.019531 -7.753906 6.65625 -7.484375 C 7.414062 -7.160156 7.796875 -6.78125 7.796875 -6.34375 C 7.796875 -6.164062 7.738281 -6.003906 7.625 -5.859375 C 7.570312 -5.660156 7.53125 -5.410156 7.5 -5.109375 C 7.476562 -4.804688 7.46875 -4.445312 7.46875 -4.03125 C 7.46875 -3.070312 7.535156 -2.378906 7.671875 -1.953125 C 7.679688 -1.910156 7.796875 -1.648438 8.015625 -1.171875 C 8.210938 -0.734375 8.3125 -0.488281 8.3125 -0.4375 C 8.3125 -0.164062 8.207031 0.0546875 8 0.234375 C 7.800781 0.410156 7.566406 0.5 7.296875 0.5 Z M 5.421875 -4.6875 C 5.421875 -4.84375 5.429688 -5.023438 5.453125 -5.234375 C 5.472656 -5.453125 5.507812 -5.6875 5.5625 -5.9375 C 5.457031 -5.988281 5.363281 -6.023438 5.28125 -6.046875 C 5.207031 -6.078125 5.144531 -6.09375 5.09375 -6.09375 C 4.40625 -6.09375 3.800781 -5.820312 3.28125 -5.28125 C 2.769531 -4.738281 2.515625 -4.117188 2.515625 -3.421875 C 2.515625 -2.742188 2.632812 -2.234375 2.875 -1.890625 C 3.125 -1.554688 3.488281 -1.390625 3.96875 -1.390625 C 4.28125 -1.390625 4.578125 -1.4375 4.859375 -1.53125 C 5.140625 -1.632812 5.398438 -1.789062 5.640625 -2 C 5.492188 -3.195312 5.421875 -4.09375 5.421875 -4.6875 Z M 5.421875 -4.6875 "/></g></g></g><g fill="#e9a436" fill-opacity="1"><g transform="translate(62.375608, 19.330644)"><g><path d="M 4.828125 -0.5625 C 4.804688 -0.3125 4.703125 -0.109375 4.515625 0.046875 C 4.335938 0.210938 4.113281 0.296875 3.84375 0.296875 C 3.332031 0.296875 2.972656 0.0351562 2.765625 -0.484375 C 2.222656 -1.847656 1.390625 -3.878906 0.265625 -6.578125 C 0.203125 -6.722656 0.171875 -6.867188 0.171875 -7.015625 C 0.171875 -7.285156 0.28125 -7.515625 0.5 -7.703125 C 0.71875 -7.890625 0.96875 -7.984375 1.25 -7.984375 C 1.675781 -7.984375 1.984375 -7.785156 2.171875 -7.390625 C 2.460938 -6.773438 3.023438 -5.347656 3.859375 -3.109375 C 4.117188 -3.679688 4.484375 -4.546875 4.953125 -5.703125 C 5.097656 -6.097656 5.320312 -6.640625 5.625 -7.328125 C 5.820312 -7.734375 6.132812 -7.9375 6.5625 -7.9375 C 6.84375 -7.9375 7.09375 -7.84375 7.3125 -7.65625 C 7.53125 -7.46875 7.640625 -7.238281 7.640625 -6.96875 C 7.640625 -6.78125 7.226562 -5.78125 6.40625 -3.96875 C 5.738281 -2.488281 5.210938 -1.351562 4.828125 -0.5625 Z M 4.828125 -0.5625 "/></g></g></g><g fill="#e9a436" fill-opacity="1"><g transform="translate(69.904011, 19.330644)"><g><path d="M 4.578125 0.34375 C 3.378906 0.34375 2.394531 0.0546875 1.625 -0.515625 C 0.78125 -1.148438 0.359375 -2.046875 0.359375 -3.203125 C 0.359375 -4.472656 0.691406 -5.550781 1.359375 -6.4375 C 2.109375 -7.414062 3.113281 -7.90625 4.375 -7.90625 C 5.25 -7.90625 5.976562 -7.765625 6.5625 -7.484375 C 7.320312 -7.109375 7.703125 -6.523438 7.703125 -5.734375 C 7.703125 -5.179688 7.394531 -4.691406 6.78125 -4.265625 C 6.488281 -4.066406 5.921875 -3.78125 5.078125 -3.40625 L 2.53125 -2.28125 C 2.769531 -2.007812 3.0625 -1.804688 3.40625 -1.671875 C 3.75 -1.546875 4.140625 -1.484375 4.578125 -1.484375 C 5.253906 -1.484375 5.828125 -1.625 6.296875 -1.90625 C 6.710938 -2.15625 7.046875 -2.28125 7.296875 -2.28125 C 7.828125 -2.28125 8.09375 -2.023438 8.09375 -1.515625 C 8.09375 -0.941406 7.671875 -0.472656 6.828125 -0.109375 C 6.117188 0.191406 5.367188 0.34375 4.578125 0.34375 Z M 4.375 -6.078125 C 3.90625 -6.078125 3.503906 -5.921875 3.171875 -5.609375 C 2.835938 -5.296875 2.570312 -4.828125 2.375 -4.203125 C 2.945312 -4.441406 3.515625 -4.679688 4.078125 -4.921875 C 4.753906 -5.234375 5.296875 -5.519531 5.703125 -5.78125 C 5.359375 -5.976562 4.914062 -6.078125 4.375 -6.078125 Z M 4.375 -6.078125 "/></g></g></g><g fill="#e9a436" fill-opacity="1"><g transform="translate(78.558657, 19.330644)"><g><path d="M 3.09375 -1.109375 C 3.09375 -0.148438 2.75 0.328125 2.0625 0.328125 C 1.757812 0.328125 1.507812 0.226562 1.3125 0.03125 C 1.113281 -0.15625 1.015625 -0.398438 1.015625 -0.703125 L 1.015625 -11.15625 C 1.015625 -11.445312 1.117188 -11.6875 1.328125 -11.875 C 1.535156 -12.050781 1.785156 -12.140625 2.078125 -12.140625 C 2.378906 -12.140625 2.625 -12.046875 2.8125 -11.859375 C 3 -11.679688 3.09375 -11.445312 3.09375 -11.15625 Z M 3.09375 -1.109375 "/></g></g></g></svg>