<svg xmlns="http://www.w3.org/2000/svg" xmlns:xlink="http://www.w3.org/1999/xlink" width="150" zoomAndPan="magnify" viewBox="0 0 112.5 30.000001" height="40" preserveAspectRatio="xMidYMid meet" version="1.0"><defs><g/><clipPath id="fe27aab04d"><path d="M 1.574219 0.28125 L 110.445312 0.28125 L 110.445312 29.03125 L 1.574219 29.03125 Z M 1.574219 0.28125 " clip-rule="nonzero"/></clipPath><clipPath id="907a3054de"><path d="M 8.832031 0.28125 L 103.183594 0.28125 C 105.109375 0.28125 106.957031 1.046875 108.316406 2.40625 C 109.679688 3.765625 110.445312 5.613281 110.445312 7.539062 L 110.445312 21.773438 C 110.445312 23.699219 109.679688 25.546875 108.316406 26.90625 C 106.957031 28.265625 105.109375 29.03125 103.183594 29.03125 L 8.832031 29.03125 C 6.90625 29.03125 5.058594 28.265625 3.699219 26.90625 C 2.335938 25.546875 1.574219 23.699219 1.574219 21.773438 L 1.574219 7.539062 C 1.574219 5.613281 2.335938 3.765625 3.699219 2.40625 C 5.058594 1.046875 6.90625 0.28125 8.832031 0.28125 Z M 8.832031 0.28125 " clip-rule="nonzero"/></clipPath><clipPath id="61fe5886b0"><path d="M 1.578125 0.28125 L 110.445312 0.28125 L 110.445312 29.03125 L 1.578125 29.03125 Z M 1.578125 0.28125 " clip-rule="nonzero"/></clipPath><clipPath id="c978d579b7"><path d="M 8.835938 0.28125 L 103.179688 0.28125 C 105.105469 0.28125 106.949219 1.046875 108.3125 2.40625 C 109.671875 3.765625 110.4375 5.613281 110.4375 7.539062 L 110.4375 21.773438 C 110.4375 23.695312 109.671875 25.542969 108.3125 26.902344 C 106.949219 28.265625 105.105469 29.027344 103.179688 29.027344 L 8.835938 29.027344 C 6.910156 29.027344 5.066406 28.265625 3.703125 26.902344 C 2.34375 25.542969 1.578125 23.695312 1.578125 21.773438 L 1.578125 7.539062 C 1.578125 5.613281 2.34375 3.765625 3.703125 2.40625 C 5.066406 1.046875 6.910156 0.28125 8.835938 0.28125 Z M 8.835938 0.28125 " clip-rule="nonzero"/></clipPath></defs><g clip-path="url(#fe27aab04d)"><g clip-path="url(#907a3054de)"><path fill="#1d7886" d="M 1.574219 0.28125 L 110.402344 0.28125 L 110.402344 29.03125 L 1.574219 29.03125 Z M 1.574219 0.28125 " fill-opacity="1" fill-rule="nonzero"/></g></g><g clip-path="url(#61fe5886b0)"><g clip-path="url(#c978d579b7)"><path stroke-linecap="butt" transform="matrix(0.725806, 0, 0, 0.725806, 1.578403, 0.280445)" fill="none" stroke-linejoin="miter" d="M 9.99927 0.00110902 L 139.984001 0.00110902 C 142.6373 0.00110902 145.177578 1.05597 147.055877 2.928887 C 148.928794 4.801804 149.983655 7.347464 149.983655 10.000763 L 149.983655 29.612569 C 149.983655 32.260486 148.928794 34.806146 147.055877 36.679063 C 145.177578 38.557362 142.6373 39.606841 139.984001 39.606841 L 9.99927 39.606841 C 7.345971 39.606841 4.805693 38.557362 2.927394 36.679063 C 1.054478 34.806146 -0.000383669 32.260486 -0.000383669 29.612569 L -0.000383669 10.000763 C -0.000383669 7.347464 1.054478 4.801804 2.927394 2.928887 C 4.805693 1.05597 7.345971 0.00110902 9.99927 0.00110902 Z M 9.99927 0.00110902 " stroke="#e9a436" stroke-width="4" stroke-opacity="1" stroke-miterlimit="4"/></g></g><g fill="#e9a436" fill-opacity="1"><g transform="translate(34.979114, 18.314515)"><g><path d="M 4 -5.96875 C 3.769531 -5.15625 3.453125 -3.925781 3.046875 -2.28125 C 2.953125 -1.707031 2.859375 -1.140625 2.765625 -0.578125 C 2.554688 0.140625 2.175781 0.5 1.625 0.5 C 1.28125 0.5 1.003906 0.378906 0.796875 0.140625 C 0.628906 -0.0546875 0.546875 -0.296875 0.546875 -0.578125 C 0.546875 -1.390625 0.71875 -2.382812 1.0625 -3.5625 C 1.582031 -5.320312 1.863281 -6.296875 1.90625 -6.484375 C 2.050781 -7.265625 2.195312 -8.039062 2.34375 -8.8125 C 2.570312 -9.882812 2.816406 -10.597656 3.078125 -10.953125 C 3.347656 -11.304688 3.6875 -11.484375 4.09375 -11.484375 C 4.550781 -11.484375 4.890625 -11.253906 5.109375 -10.796875 C 5.304688 -10.347656 5.519531 -9.445312 5.75 -8.09375 C 5.976562 -6.78125 6.3125 -5.363281 6.75 -3.84375 C 7.320312 -5.34375 7.851562 -6.988281 8.34375 -8.78125 L 8.765625 -10.515625 C 9.035156 -11.234375 9.457031 -11.59375 10.03125 -11.59375 C 10.582031 -11.59375 10.992188 -11.175781 11.265625 -10.34375 C 11.367188 -10.007812 11.484375 -9.378906 11.609375 -8.453125 C 11.898438 -6.304688 12.269531 -4.46875 12.71875 -2.9375 C 13.164062 -1.375 13.390625 -0.523438 13.390625 -0.390625 C 13.390625 -0.0976562 13.269531 0.148438 13.03125 0.359375 C 12.8125 0.535156 12.5625 0.625 12.28125 0.625 C 11.738281 0.625 11.332031 0.234375 11.0625 -0.546875 L 10.640625 -2.375 C 10.398438 -3.289062 10.140625 -4.597656 9.859375 -6.296875 C 9.628906 -5.617188 9.25 -4.554688 8.71875 -3.109375 L 8.265625 -1.71875 C 8.078125 -1.164062 7.882812 -0.710938 7.6875 -0.359375 C 7.414062 0.109375 7.039062 0.34375 6.5625 0.34375 C 6.09375 0.34375 5.734375 0.0625 5.484375 -0.5 L 5.0625 -1.90625 C 4.664062 -3.195312 4.3125 -4.550781 4 -5.96875 Z M 4 -5.96875 "/></g></g></g><g fill="#e9a436" fill-opacity="1"><g transform="translate(48.645131, 18.314515)"><g><path d="M 8.28125 -6.390625 C 7.738281 -5.242188 6.867188 -3.445312 5.671875 -1 C 5.023438 0.3125 4.535156 1.40625 4.203125 2.28125 C 4.097656 2.59375 3.929688 3.054688 3.703125 3.671875 C 3.523438 4.140625 3.203125 4.375 2.734375 4.375 C 2.453125 4.375 2.203125 4.28125 1.984375 4.09375 C 1.765625 3.90625 1.65625 3.671875 1.65625 3.390625 C 1.65625 2.921875 2.191406 1.535156 3.265625 -0.765625 C 2.703125 -1.859375 1.820312 -3.472656 0.625 -5.609375 C 0.5 -5.796875 0.375 -5.988281 0.25 -6.1875 C 0.113281 -6.414062 0.046875 -6.625 0.046875 -6.8125 C 0.046875 -7.09375 0.15625 -7.332031 0.375 -7.53125 C 0.59375 -7.738281 0.84375 -7.84375 1.125 -7.84375 C 1.457031 -7.84375 1.710938 -7.722656 1.890625 -7.484375 C 2.609375 -6.523438 3.445312 -5.085938 4.40625 -3.171875 C 4.9375 -4.367188 5.265625 -5.09375 5.390625 -5.34375 C 5.742188 -6.09375 6.09375 -6.75 6.4375 -7.3125 C 6.65625 -7.675781 6.953125 -7.859375 7.328125 -7.859375 C 7.609375 -7.859375 7.859375 -7.757812 8.078125 -7.5625 C 8.304688 -7.375 8.421875 -7.144531 8.421875 -6.875 C 8.421875 -6.726562 8.375 -6.566406 8.28125 -6.390625 Z M 8.28125 -6.390625 "/></g></g></g><g fill="#e9a436" fill-opacity="1"><g transform="translate(57.201509, 18.314515)"><g><path d="M 6.09375 -5.53125 C 5.59375 -5.53125 5.289062 -5.738281 5.1875 -6.15625 C 4.988281 -6.195312 4.785156 -6.21875 4.578125 -6.21875 C 3.359375 -6.21875 2.75 -6.050781 2.75 -5.71875 C 2.75 -5.519531 3.113281 -5.253906 3.84375 -4.921875 C 4.84375 -4.460938 5.519531 -4.101562 5.875 -3.84375 C 6.601562 -3.3125 6.96875 -2.71875 6.96875 -2.0625 C 6.96875 -1.1875 6.566406 -0.523438 5.765625 -0.078125 C 5.109375 0.273438 4.304688 0.453125 3.359375 0.453125 C 2.691406 0.453125 2.082031 0.347656 1.53125 0.140625 C 0.769531 -0.140625 0.390625 -0.554688 0.390625 -1.109375 C 0.390625 -1.609375 0.691406 -1.859375 1.296875 -1.859375 C 1.523438 -1.859375 1.859375 -1.785156 2.296875 -1.640625 C 2.734375 -1.492188 3.070312 -1.421875 3.3125 -1.421875 C 4.332031 -1.421875 4.847656 -1.628906 4.859375 -2.046875 C 4.859375 -2.296875 4.5 -2.578125 3.78125 -2.890625 C 2.75 -3.347656 2.085938 -3.679688 1.796875 -3.890625 C 1.078125 -4.390625 0.71875 -4.992188 0.71875 -5.703125 C 0.71875 -6.722656 1.257812 -7.40625 2.34375 -7.75 C 2.96875 -7.957031 3.921875 -8.0625 5.203125 -8.0625 C 5.710938 -8.0625 6.085938 -8 6.328125 -7.875 C 6.660156 -7.695312 6.828125 -7.367188 6.828125 -6.890625 C 6.828125 -5.984375 6.582031 -5.53125 6.09375 -5.53125 Z M 6.09375 -5.53125 "/></g></g></g><g fill="#e9a436" fill-opacity="1"><g transform="translate(64.737477, 18.314515)"><g><path d="M 7.171875 -2.34375 C 7.054688 -1.414062 6.941406 -0.492188 6.828125 0.421875 C 6.703125 1.441406 6.640625 2.363281 6.640625 3.1875 C 6.640625 3.476562 6.539062 3.71875 6.34375 3.90625 C 6.144531 4.101562 5.894531 4.203125 5.59375 4.203125 C 4.894531 4.203125 4.546875 3.78125 4.546875 2.9375 C 4.546875 2.8125 4.554688 2.6875 4.578125 2.5625 C 4.617188 2.195312 4.6875 1.46875 4.78125 0.375 C 4.570312 0.425781 4.382812 0.453125 4.21875 0.453125 C 3.050781 0.453125 2.097656 0.15625 1.359375 -0.4375 C 0.554688 -1.070312 0.15625 -1.945312 0.15625 -3.0625 C 0.15625 -4.539062 0.59375 -5.734375 1.46875 -6.640625 C 2.382812 -7.578125 3.625 -8.039062 5.1875 -8.03125 C 5.457031 -8.03125 5.675781 -7.960938 5.84375 -7.828125 C 6.019531 -7.941406 6.195312 -8 6.375 -8 C 6.664062 -8 6.914062 -7.890625 7.125 -7.671875 C 7.332031 -7.460938 7.4375 -7.222656 7.4375 -6.953125 C 7.4375 -5.523438 7.347656 -3.988281 7.171875 -2.34375 Z M 5.15625 -6.203125 C 4.894531 -6.222656 4.738281 -6.226562 4.6875 -6.21875 C 3.851562 -6.082031 3.222656 -5.679688 2.796875 -5.015625 C 2.441406 -4.460938 2.265625 -3.804688 2.265625 -3.046875 C 2.265625 -2.554688 2.414062 -2.160156 2.71875 -1.859375 C 3.0625 -1.523438 3.539062 -1.363281 4.15625 -1.375 C 4.507812 -1.382812 4.769531 -1.578125 4.9375 -1.953125 C 5.164062 -2.441406 5.285156 -3.316406 5.296875 -4.578125 C 5.296875 -4.660156 5.328125 -5.195312 5.390625 -6.1875 C 5.328125 -6.1875 5.25 -6.191406 5.15625 -6.203125 Z M 5.15625 -6.203125 "/></g></g></g><g fill="#e9a436" fill-opacity="1"><g transform="translate(72.787432, 18.314515)"><g><path d="M 3.09375 -1.109375 C 3.09375 -0.148438 2.75 0.328125 2.0625 0.328125 C 1.757812 0.328125 1.507812 0.226562 1.3125 0.03125 C 1.113281 -0.15625 1.015625 -0.398438 1.015625 -0.703125 L 1.015625 -11.15625 C 1.015625 -11.445312 1.117188 -11.6875 1.328125 -11.875 C 1.535156 -12.050781 1.785156 -12.140625 2.078125 -12.140625 C 2.378906 -12.140625 2.625 -12.046875 2.8125 -11.859375 C 3 -11.679688 3.09375 -11.445312 3.09375 -11.15625 Z M 3.09375 -1.109375 "/></g></g></g></svg>