<svg xmlns="http://www.w3.org/2000/svg" width="150" height="40" version="1.0" viewBox="0 0 112.5 30"><defs><clipPath id="a"><path d="M1.574.281h108.871v28.75H1.575Zm0 0"/></clipPath><clipPath id="b"><path d="M8.832.281h94.352a7.262 7.262 0 0 1 7.261 7.258v14.234a7.262 7.262 0 0 1-7.262 7.258H8.833a7.262 7.262 0 0 1-5.133-2.125 7.245 7.245 0 0 1-2.125-5.133V7.54c0-1.926.762-3.773 2.125-5.133A7.262 7.262 0 0 1 8.832.281Zm0 0"/></clipPath><clipPath id="c"><path d="M1.578.281h108.867v28.75H1.578Zm0 0"/></clipPath><clipPath id="d"><path d="M8.836.281h94.344c1.925 0 3.77.766 5.132 2.125a7.262 7.262 0 0 1 2.126 5.133v14.234a7.26 7.26 0 0 1-7.258 7.254H8.836a7.252 7.252 0 0 1-7.258-7.254V7.54c0-1.926.766-3.773 2.125-5.133A7.268 7.268 0 0 1 8.836.281Zm0 0"/></clipPath></defs><g clip-path="url(#a)"><g clip-path="url(#b)"><path fill="#1d7886" d="M1.574.281h108.828v28.75H1.574Zm0 0"/></g></g><g clip-path="url(#c)"><g clip-path="url(#d)"><path fill="none" stroke="#e9a436" stroke-width="2.90324" d="M8.836.281h94.344c1.925 0 3.77.766 5.132 2.125a7.262 7.262 0 0 1 2.125 5.133v14.234a7.26 7.26 0 0 1-7.257 7.254H8.836a7.252 7.252 0 0 1-7.258-7.254V7.54c0-1.926.766-3.773 2.125-5.133A7.268 7.268 0 0 1 8.836.281Zm0 0"/></g></g><path fill="#e9a436" d="M38.98 12.346c-.231.812-.548 2.043-.954 3.687l-.281 1.703c-.211.72-.59 1.079-1.14 1.079-.345 0-.622-.122-.829-.36a1.067 1.067 0 0 1-.25-.719c0-.812.172-1.804.516-2.984.52-1.758.8-2.734.843-2.922.145-.781.29-1.555.438-2.328.226-1.07.473-1.785.734-2.14.27-.352.61-.532 1.016-.532.457 0 .797.23 1.015.688.196.449.41 1.351.641 2.703.227 1.312.563 2.73 1 4.25.57-1.5 1.102-3.145 1.594-4.938l.422-1.734c.27-.719.691-1.078 1.265-1.078.551 0 .961.418 1.235 1.25.101.336.218.965.343 1.89.29 2.149.66 3.985 1.11 5.516.445 1.563.672 2.414.672 2.547 0 .293-.121.539-.36.75a1.166 1.166 0 0 1-.75.266c-.543 0-.949-.391-1.218-1.172l-.422-1.828c-.242-.915-.5-2.223-.782-3.922-.23.68-.609 1.742-1.14 3.187l-.453 1.39a8.334 8.334 0 0 1-.578 1.36c-.274.469-.649.703-1.125.703-.47 0-.829-.281-1.079-.843l-.421-1.407a50.78 50.78 0 0 1-1.063-4.062ZM56.926 11.924a522.517 522.517 0 0 1-2.609 5.39c-.648 1.313-1.137 2.407-1.469 3.282-.105.312-.273.773-.5 1.39-.18.47-.5.704-.968.704a1.12 1.12 0 0 1-.75-.282.888.888 0 0 1-.329-.703c0-.469.536-1.855 1.61-4.156-.563-1.094-1.446-2.707-2.64-4.844-.126-.187-.25-.379-.376-.578-.137-.227-.203-.437-.203-.625 0-.281.11-.52.328-.719.219-.207.469-.312.75-.312.332 0 .586.12.766.36.719.96 1.554 2.398 2.515 4.312.532-1.196.86-1.922.985-2.172.351-.75.703-1.406 1.047-1.969.218-.363.515-.547.89-.547.282 0 .532.102.75.297.227.188.344.418.344.688 0 .148-.047.308-.14.484ZM63.295 12.783c-.5 0-.804-.207-.906-.625-.2-.039-.402-.062-.61-.062-1.218 0-1.827.168-1.827.5 0 .199.363.465 1.093.797 1 .46 1.676.82 2.032 1.078.726.531 1.093 1.125 1.093 1.781 0 .875-.402 1.54-1.203 1.984-.656.352-1.46.532-2.406.532a5.16 5.16 0 0 1-1.828-.313c-.762-.281-1.14-.695-1.14-1.25 0-.5.3-.75.905-.75.227 0 .563.074 1 .219.438.148.774.219 1.016.219 1.02 0 1.535-.207 1.547-.625 0-.25-.36-.532-1.078-.844-1.031-.457-1.696-.79-1.985-1-.718-.5-1.078-1.102-1.078-1.813 0-1.02.54-1.703 1.625-2.046.625-.208 1.578-.313 2.86-.313.507 0 .882.063 1.125.188.332.18.5.507.5.984 0 .906-.246 1.36-.735 1.36ZM71.91 15.97c-.118.93-.231 1.852-.344 2.766a22.922 22.922 0 0 0-.188 2.766.96.96 0 0 1-.297.719c-.199.195-.449.297-.75.297-.699 0-1.047-.422-1.047-1.266 0-.125.008-.25.032-.375.039-.367.109-1.094.203-2.187-.211.05-.399.078-.563.078-1.168 0-2.12-.297-2.86-.891-.804-.633-1.202-1.508-1.202-2.625 0-1.477.437-2.672 1.312-3.578.914-.938 2.156-1.399 3.719-1.39.27 0 .488.07.656.202a.972.972 0 0 1 .531-.171c.29 0 .54.109.75.328a1 1 0 0 1 .313.718c0 1.43-.09 2.965-.266 4.61Zm-2.016-3.859a3.203 3.203 0 0 0-.469-.015c-.836.136-1.465.539-1.89 1.203-.356.555-.532 1.21-.532 1.969 0 .492.149.886.453 1.187.344.336.82.496 1.438.485.351-.008.613-.204.781-.579.227-.488.348-1.363.36-2.625 0-.082.03-.617.093-1.609-.062 0-.14-.004-.234-.016ZM75.881 17.205c0 .961-.344 1.438-1.031 1.438-.305 0-.555-.102-.75-.297-.2-.188-.297-.43-.297-.735V7.158c0-.289.102-.531.313-.718.207-.176.457-.266.75-.266.3 0 .546.094.734.281a.93.93 0 0 1 .281.703Zm0 0"/></svg>