<svg xmlns="http://www.w3.org/2000/svg" xmlns:xlink="http://www.w3.org/1999/xlink" width="150" zoomAndPan="magnify" viewBox="0 0 112.5 30.000001" height="40" preserveAspectRatio="xMidYMid meet" version="1.0"><defs><g/><clipPath id="f8cd70b090"><path d="M 1.574219 0.28125 L 110.445312 0.28125 L 110.445312 29.03125 L 1.574219 29.03125 Z M 1.574219 0.28125 " clip-rule="nonzero"/></clipPath><clipPath id="3bb2e5269e"><path d="M 8.832031 0.28125 L 103.183594 0.28125 C 105.109375 0.28125 106.957031 1.046875 108.316406 2.40625 C 109.679688 3.765625 110.445312 5.613281 110.445312 7.539062 L 110.445312 21.773438 C 110.445312 23.699219 109.679688 25.546875 108.316406 26.90625 C 106.957031 28.265625 105.109375 29.03125 103.183594 29.03125 L 8.832031 29.03125 C 6.90625 29.03125 5.058594 28.265625 3.699219 26.90625 C 2.335938 25.546875 1.574219 23.699219 1.574219 21.773438 L 1.574219 7.539062 C 1.574219 5.613281 2.335938 3.765625 3.699219 2.40625 C 5.058594 1.046875 6.90625 0.28125 8.832031 0.28125 Z M 8.832031 0.28125 " clip-rule="nonzero"/></clipPath><clipPath id="e20397d9af"><path d="M 1.578125 0.28125 L 110.445312 0.28125 L 110.445312 29.03125 L 1.578125 29.03125 Z M 1.578125 0.28125 " clip-rule="nonzero"/></clipPath><clipPath id="7cd1c758d3"><path d="M 8.835938 0.28125 L 103.179688 0.28125 C 105.105469 0.28125 106.949219 1.046875 108.3125 2.40625 C 109.671875 3.765625 110.4375 5.613281 110.4375 7.539062 L 110.4375 21.773438 C 110.4375 23.695312 109.671875 25.542969 108.3125 26.902344 C 106.949219 28.265625 105.105469 29.027344 103.179688 29.027344 L 8.835938 29.027344 C 6.910156 29.027344 5.066406 28.265625 3.703125 26.902344 C 2.34375 25.542969 1.578125 23.695312 1.578125 21.773438 L 1.578125 7.539062 C 1.578125 5.613281 2.34375 3.765625 3.703125 2.40625 C 5.066406 1.046875 6.910156 0.28125 8.835938 0.28125 Z M 8.835938 0.28125 " clip-rule="nonzero"/></clipPath></defs><g clip-path="url(#f8cd70b090)"><g clip-path="url(#3bb2e5269e)"><path fill="#1d7886" d="M 1.574219 0.28125 L 110.402344 0.28125 L 110.402344 29.03125 L 1.574219 29.03125 Z M 1.574219 0.28125 " fill-opacity="1" fill-rule="nonzero"/></g></g><g clip-path="url(#e20397d9af)"><g clip-path="url(#7cd1c758d3)"><path stroke-linecap="butt" transform="matrix(0.725806, 0, 0, 0.725806, 1.578403, 0.280445)" fill="none" stroke-linejoin="miter" d="M 9.99927 0.00110902 L 139.984001 0.00110902 C 142.6373 0.00110902 145.177578 1.05597 147.055877 2.928887 C 148.928794 4.801804 149.983655 7.347464 149.983655 10.000763 L 149.983655 29.612569 C 149.983655 32.260486 148.928794 34.806146 147.055877 36.679063 C 145.177578 38.557362 142.6373 39.606841 139.984001 39.606841 L 9.99927 39.606841 C 7.345971 39.606841 4.805693 38.557362 2.927394 36.679063 C 1.054478 34.806146 -0.000383669 32.260486 -0.000383669 29.612569 L -0.000383669 10.000763 C -0.000383669 7.347464 1.054478 4.801804 2.927394 2.928887 C 4.805693 1.05597 7.345971 0.00110902 9.99927 0.00110902 Z M 9.99927 0.00110902 " stroke="#e9a436" stroke-width="4" stroke-opacity="1" stroke-miterlimit="4"/></g></g><g fill="#e9a436" fill-opacity="1"><g transform="translate(19.170142, 18.314515)"><g><path d="M 3.125 -4.21875 C 3.039062 -4.21875 2.828125 -4.234375 2.484375 -4.265625 C 2.453125 -3.566406 2.4375 -2.410156 2.4375 -0.796875 C 2.4375 -0.523438 2.34375 -0.289062 2.15625 -0.09375 C 1.96875 0.09375 1.734375 0.1875 1.453125 0.1875 C 1.160156 0.1875 0.921875 0.09375 0.734375 -0.09375 C 0.546875 -0.289062 0.453125 -0.523438 0.453125 -0.796875 L 0.453125 -2.90625 C 0.453125 -3.6875 0.503906 -4.84375 0.609375 -6.375 C 0.703125 -7.925781 0.75 -9.085938 0.75 -9.859375 C 0.757812 -11.171875 1.128906 -11.796875 1.859375 -11.734375 C 2.023438 -11.785156 2.257812 -11.820312 2.5625 -11.84375 C 2.875 -11.863281 3.242188 -11.875 3.671875 -11.875 C 4.660156 -11.875 5.585938 -11.554688 6.453125 -10.921875 C 7.421875 -10.203125 7.90625 -9.328125 7.90625 -8.296875 C 7.90625 -7.003906 7.390625 -5.976562 6.359375 -5.21875 C 5.453125 -4.550781 4.375 -4.21875 3.125 -4.21875 Z M 3.5 -9.921875 C 3.34375 -9.921875 3.203125 -9.921875 3.078125 -9.921875 C 2.953125 -9.921875 2.847656 -9.914062 2.765625 -9.90625 C 2.765625 -9.664062 2.757812 -9.3125 2.75 -8.84375 C 2.738281 -8.28125 2.691406 -7.40625 2.609375 -6.21875 C 2.867188 -6.175781 3.039062 -6.15625 3.125 -6.15625 C 3.90625 -6.15625 4.554688 -6.34375 5.078125 -6.71875 C 5.628906 -7.113281 5.90625 -7.640625 5.90625 -8.296875 C 5.90625 -8.722656 5.648438 -9.101562 5.140625 -9.4375 C 4.640625 -9.757812 4.09375 -9.921875 3.5 -9.921875 Z M 3.5 -9.921875 "/></g></g></g><g fill="#e9a436" fill-opacity="1"><g transform="translate(27.416622, 18.314515)"><g><path d="M 3.015625 -6.921875 C 3.378906 -7.285156 3.769531 -7.554688 4.1875 -7.734375 C 4.613281 -7.910156 5.066406 -8 5.546875 -8 C 6.410156 -8 7.03125 -7.753906 7.40625 -7.265625 C 7.6875 -6.910156 7.859375 -6.359375 7.921875 -5.609375 C 7.953125 -4.984375 7.976562 -4.359375 8 -3.734375 C 8.082031 -2.921875 8.132812 -2.425781 8.15625 -2.25 C 8.226562 -1.6875 8.316406 -1.195312 8.421875 -0.78125 C 8.441406 -0.675781 8.453125 -0.582031 8.453125 -0.5 C 8.453125 -0.21875 8.34375 0.0078125 8.125 0.1875 C 7.914062 0.375 7.664062 0.46875 7.375 0.46875 C 6.863281 0.46875 6.535156 0.21875 6.390625 -0.28125 C 6.265625 -0.695312 6.15625 -1.273438 6.0625 -2.015625 C 5.96875 -2.722656 5.921875 -3.304688 5.921875 -3.765625 C 5.921875 -3.890625 5.925781 -4.078125 5.9375 -4.328125 C 5.945312 -4.585938 5.953125 -4.78125 5.953125 -4.90625 C 5.953125 -5.28125 5.945312 -5.5 5.9375 -5.5625 C 5.894531 -5.832031 5.765625 -5.96875 5.546875 -5.96875 C 4.984375 -5.96875 4.476562 -5.710938 4.03125 -5.203125 C 3.800781 -4.941406 3.484375 -4.453125 3.078125 -3.734375 C 3.078125 -1.910156 2.988281 -0.8125 2.8125 -0.4375 C 2.613281 -0.0195312 2.300781 0.1875 1.875 0.1875 C 1.59375 0.1875 1.34375 0.09375 1.125 -0.09375 C 0.90625 -0.289062 0.796875 -0.523438 0.796875 -0.796875 C 0.796875 -0.890625 0.820312 -1.023438 0.875 -1.203125 C 0.914062 -1.316406 0.945312 -2 0.96875 -3.25 C 0.945312 -4.257812 0.953125 -5.941406 0.984375 -8.296875 L 1 -8.546875 C 1.03125 -9.140625 1.046875 -9.539062 1.046875 -9.75 C 1.046875 -9.90625 1.019531 -10.132812 0.96875 -10.4375 C 0.925781 -10.738281 0.90625 -10.96875 0.90625 -11.125 C 0.90625 -11.414062 1.003906 -11.648438 1.203125 -11.828125 C 1.410156 -12.015625 1.660156 -12.109375 1.953125 -12.109375 C 2.453125 -12.109375 2.789062 -11.84375 2.96875 -11.3125 C 3.0625 -11.007812 3.109375 -10.546875 3.109375 -9.921875 C 3.109375 -9.410156 3.09375 -8.898438 3.0625 -8.390625 C 3.03125 -7.890625 3.015625 -7.398438 3.015625 -6.921875 Z M 3.015625 -6.921875 "/></g></g></g><g fill="#e9a436" fill-opacity="1"><g transform="translate(36.358496, 18.314515)"><g><path d="M 3.890625 0.453125 C 2.953125 0.453125 2.148438 0.128906 1.484375 -0.515625 C 0.742188 -1.210938 0.359375 -2.144531 0.328125 -3.3125 C 0.285156 -4.425781 0.585938 -5.421875 1.234375 -6.296875 C 2.003906 -7.328125 3.070312 -7.84375 4.4375 -7.84375 C 5.445312 -7.84375 6.25 -7.4375 6.84375 -6.625 C 7.375 -5.90625 7.640625 -5.007812 7.640625 -3.9375 C 7.640625 -2.757812 7.328125 -1.757812 6.703125 -0.9375 C 6.003906 -0.0078125 5.066406 0.453125 3.890625 0.453125 Z M 4.34375 -5.84375 C 3.71875 -5.851562 3.226562 -5.570312 2.875 -5 C 2.570312 -4.519531 2.421875 -3.957031 2.421875 -3.3125 C 2.421875 -2.707031 2.59375 -2.242188 2.9375 -1.921875 C 3.207031 -1.671875 3.523438 -1.546875 3.890625 -1.546875 C 4.328125 -1.546875 4.707031 -1.691406 5.03125 -1.984375 C 5.394531 -2.335938 5.59375 -2.8125 5.625 -3.40625 C 5.6875 -5.03125 5.257812 -5.84375 4.34375 -5.84375 Z M 4.34375 -5.84375 "/></g></g></g><g fill="#e9a436" fill-opacity="1"><g transform="translate(44.499155, 18.314515)"><g><path d="M 6.109375 -6.09375 C 6.003906 -6.09375 5.878906 -6.09375 5.734375 -6.09375 C 5.585938 -6.101562 5.460938 -6.109375 5.359375 -6.109375 C 5.148438 -6.109375 4.910156 -6.085938 4.640625 -6.046875 C 4.734375 -4.015625 4.78125 -2.6875 4.78125 -2.0625 C 4.78125 -1.988281 4.78125 -1.863281 4.78125 -1.6875 C 4.789062 -1.507812 4.796875 -1.363281 4.796875 -1.25 C 4.796875 -0.09375 4.429688 0.484375 3.703125 0.484375 C 3.421875 0.484375 3.179688 0.398438 2.984375 0.234375 C 2.753906 0.046875 2.640625 -0.179688 2.640625 -0.453125 C 2.640625 -0.628906 2.644531 -0.898438 2.65625 -1.265625 C 2.675781 -1.628906 2.6875 -1.90625 2.6875 -2.09375 C 2.6875 -2.695312 2.644531 -4 2.5625 -6 C 2.25 -6.019531 1.773438 -6.0625 1.140625 -6.125 C 0.503906 -6.195312 0.1875 -6.523438 0.1875 -7.109375 C 0.1875 -7.390625 0.28125 -7.628906 0.46875 -7.828125 C 0.664062 -8.023438 0.914062 -8.125 1.21875 -8.125 C 1.40625 -8.125 1.832031 -8.09375 2.5 -8.03125 C 2.5 -8.1875 2.488281 -8.453125 2.46875 -8.828125 C 2.445312 -9.148438 2.4375 -9.398438 2.4375 -9.578125 C 2.4375 -9.859375 2.535156 -10.09375 2.734375 -10.28125 C 2.941406 -10.46875 3.195312 -10.5625 3.5 -10.5625 C 4.238281 -10.5625 4.609375 -9.9375 4.609375 -8.6875 L 4.59375 -8.0625 C 4.90625 -8.101562 5.160156 -8.125 5.359375 -8.125 C 5.941406 -8.125 6.335938 -8.085938 6.546875 -8.015625 C 6.953125 -7.867188 7.15625 -7.5625 7.15625 -7.09375 C 7.15625 -6.800781 7.054688 -6.5625 6.859375 -6.375 C 6.660156 -6.1875 6.410156 -6.09375 6.109375 -6.09375 Z M 6.109375 -6.09375 "/></g></g></g><g fill="#e9a436" fill-opacity="1"><g transform="translate(51.793246, 18.314515)"><g><path d="M 3.890625 0.453125 C 2.953125 0.453125 2.148438 0.128906 1.484375 -0.515625 C 0.742188 -1.210938 0.359375 -2.144531 0.328125 -3.3125 C 0.285156 -4.425781 0.585938 -5.421875 1.234375 -6.296875 C 2.003906 -7.328125 3.070312 -7.84375 4.4375 -7.84375 C 5.445312 -7.84375 6.25 -7.4375 6.84375 -6.625 C 7.375 -5.90625 7.640625 -5.007812 7.640625 -3.9375 C 7.640625 -2.757812 7.328125 -1.757812 6.703125 -0.9375 C 6.003906 -0.0078125 5.066406 0.453125 3.890625 0.453125 Z M 4.34375 -5.84375 C 3.71875 -5.851562 3.226562 -5.570312 2.875 -5 C 2.570312 -4.519531 2.421875 -3.957031 2.421875 -3.3125 C 2.421875 -2.707031 2.59375 -2.242188 2.9375 -1.921875 C 3.207031 -1.671875 3.523438 -1.546875 3.890625 -1.546875 C 4.328125 -1.546875 4.707031 -1.691406 5.03125 -1.984375 C 5.394531 -2.335938 5.59375 -2.8125 5.625 -3.40625 C 5.6875 -5.03125 5.257812 -5.84375 4.34375 -5.84375 Z M 4.34375 -5.84375 "/></g></g></g><g fill="#e9a436" fill-opacity="1"><g transform="translate(59.933905, 18.314515)"><g><path d="M 6.09375 -5.53125 C 5.59375 -5.53125 5.289062 -5.738281 5.1875 -6.15625 C 4.988281 -6.195312 4.785156 -6.21875 4.578125 -6.21875 C 3.359375 -6.21875 2.75 -6.050781 2.75 -5.71875 C 2.75 -5.519531 3.113281 -5.253906 3.84375 -4.921875 C 4.84375 -4.460938 5.519531 -4.101562 5.875 -3.84375 C 6.601562 -3.3125 6.96875 -2.71875 6.96875 -2.0625 C 6.96875 -1.1875 6.566406 -0.523438 5.765625 -0.078125 C 5.109375 0.273438 4.304688 0.453125 3.359375 0.453125 C 2.691406 0.453125 2.082031 0.347656 1.53125 0.140625 C 0.769531 -0.140625 0.390625 -0.554688 0.390625 -1.109375 C 0.390625 -1.609375 0.691406 -1.859375 1.296875 -1.859375 C 1.523438 -1.859375 1.859375 -1.785156 2.296875 -1.640625 C 2.734375 -1.492188 3.070312 -1.421875 3.3125 -1.421875 C 4.332031 -1.421875 4.847656 -1.628906 4.859375 -2.046875 C 4.859375 -2.296875 4.5 -2.578125 3.78125 -2.890625 C 2.75 -3.347656 2.085938 -3.679688 1.796875 -3.890625 C 1.078125 -4.390625 0.71875 -4.992188 0.71875 -5.703125 C 0.71875 -6.722656 1.257812 -7.40625 2.34375 -7.75 C 2.96875 -7.957031 3.921875 -8.0625 5.203125 -8.0625 C 5.710938 -8.0625 6.085938 -8 6.328125 -7.875 C 6.660156 -7.695312 6.828125 -7.367188 6.828125 -6.890625 C 6.828125 -5.984375 6.582031 -5.53125 6.09375 -5.53125 Z M 6.09375 -5.53125 "/></g></g></g><g fill="#e9a436" fill-opacity="1"><g transform="translate(67.469872, 18.314515)"><g><path d="M 3.015625 -6.921875 C 3.378906 -7.285156 3.769531 -7.554688 4.1875 -7.734375 C 4.613281 -7.910156 5.066406 -8 5.546875 -8 C 6.410156 -8 7.03125 -7.753906 7.40625 -7.265625 C 7.6875 -6.910156 7.859375 -6.359375 7.921875 -5.609375 C 7.953125 -4.984375 7.976562 -4.359375 8 -3.734375 C 8.082031 -2.921875 8.132812 -2.425781 8.15625 -2.25 C 8.226562 -1.6875 8.316406 -1.195312 8.421875 -0.78125 C 8.441406 -0.675781 8.453125 -0.582031 8.453125 -0.5 C 8.453125 -0.21875 8.34375 0.0078125 8.125 0.1875 C 7.914062 0.375 7.664062 0.46875 7.375 0.46875 C 6.863281 0.46875 6.535156 0.21875 6.390625 -0.28125 C 6.265625 -0.695312 6.15625 -1.273438 6.0625 -2.015625 C 5.96875 -2.722656 5.921875 -3.304688 5.921875 -3.765625 C 5.921875 -3.890625 5.925781 -4.078125 5.9375 -4.328125 C 5.945312 -4.585938 5.953125 -4.78125 5.953125 -4.90625 C 5.953125 -5.28125 5.945312 -5.5 5.9375 -5.5625 C 5.894531 -5.832031 5.765625 -5.96875 5.546875 -5.96875 C 4.984375 -5.96875 4.476562 -5.710938 4.03125 -5.203125 C 3.800781 -4.941406 3.484375 -4.453125 3.078125 -3.734375 C 3.078125 -1.910156 2.988281 -0.8125 2.8125 -0.4375 C 2.613281 -0.0195312 2.300781 0.1875 1.875 0.1875 C 1.59375 0.1875 1.34375 0.09375 1.125 -0.09375 C 0.90625 -0.289062 0.796875 -0.523438 0.796875 -0.796875 C 0.796875 -0.890625 0.820312 -1.023438 0.875 -1.203125 C 0.914062 -1.316406 0.945312 -2 0.96875 -3.25 C 0.945312 -4.257812 0.953125 -5.941406 0.984375 -8.296875 L 1 -8.546875 C 1.03125 -9.140625 1.046875 -9.539062 1.046875 -9.75 C 1.046875 -9.90625 1.019531 -10.132812 0.96875 -10.4375 C 0.925781 -10.738281 0.90625 -10.96875 0.90625 -11.125 C 0.90625 -11.414062 1.003906 -11.648438 1.203125 -11.828125 C 1.410156 -12.015625 1.660156 -12.109375 1.953125 -12.109375 C 2.453125 -12.109375 2.789062 -11.84375 2.96875 -11.3125 C 3.0625 -11.007812 3.109375 -10.546875 3.109375 -9.921875 C 3.109375 -9.410156 3.09375 -8.898438 3.0625 -8.390625 C 3.03125 -7.890625 3.015625 -7.398438 3.015625 -6.921875 Z M 3.015625 -6.921875 "/></g></g></g><g fill="#e9a436" fill-opacity="1"><g transform="translate(76.411747, 18.314515)"><g><path d="M 3.890625 0.453125 C 2.953125 0.453125 2.148438 0.128906 1.484375 -0.515625 C 0.742188 -1.210938 0.359375 -2.144531 0.328125 -3.3125 C 0.285156 -4.425781 0.585938 -5.421875 1.234375 -6.296875 C 2.003906 -7.328125 3.070312 -7.84375 4.4375 -7.84375 C 5.445312 -7.84375 6.25 -7.4375 6.84375 -6.625 C 7.375 -5.90625 7.640625 -5.007812 7.640625 -3.9375 C 7.640625 -2.757812 7.328125 -1.757812 6.703125 -0.9375 C 6.003906 -0.0078125 5.066406 0.453125 3.890625 0.453125 Z M 4.34375 -5.84375 C 3.71875 -5.851562 3.226562 -5.570312 2.875 -5 C 2.570312 -4.519531 2.421875 -3.957031 2.421875 -3.3125 C 2.421875 -2.707031 2.59375 -2.242188 2.9375 -1.921875 C 3.207031 -1.671875 3.523438 -1.546875 3.890625 -1.546875 C 4.328125 -1.546875 4.707031 -1.691406 5.03125 -1.984375 C 5.394531 -2.335938 5.59375 -2.8125 5.625 -3.40625 C 5.6875 -5.03125 5.257812 -5.84375 4.34375 -5.84375 Z M 4.34375 -5.84375 "/></g></g></g><g fill="#e9a436" fill-opacity="1"><g transform="translate(84.552405, 18.314515)"><g><path d="M 4.265625 0.453125 C 3.828125 0.453125 3.367188 0.398438 2.890625 0.296875 L 2.890625 3.375 C 2.890625 3.664062 2.789062 3.90625 2.59375 4.09375 C 2.394531 4.289062 2.144531 4.390625 1.84375 4.390625 C 1.539062 4.390625 1.289062 4.289062 1.09375 4.09375 C 0.894531 3.90625 0.796875 3.664062 0.796875 3.375 C 0.796875 3.144531 0.800781 2.207031 0.8125 0.5625 C 0.820312 -0.65625 0.820312 -1.648438 0.8125 -2.421875 C 0.800781 -3.515625 0.765625 -4.453125 0.703125 -5.234375 C 0.628906 -6.316406 0.59375 -6.816406 0.59375 -6.734375 C 0.59375 -7.148438 0.6875 -7.503906 0.875 -7.796875 C 1.09375 -8.140625 1.382812 -8.3125 1.75 -8.3125 C 2.03125 -8.3125 2.265625 -8.210938 2.453125 -8.015625 C 2.648438 -7.828125 2.75 -7.597656 2.75 -7.328125 L 2.75 -7.265625 C 3.082031 -7.453125 3.414062 -7.59375 3.75 -7.6875 C 4.09375 -7.78125 4.4375 -7.828125 4.78125 -7.828125 C 5.945312 -7.828125 6.796875 -7.332031 7.328125 -6.34375 C 7.722656 -5.601562 7.921875 -4.644531 7.921875 -3.46875 C 7.921875 -2.363281 7.609375 -1.445312 6.984375 -0.71875 C 6.304688 0.0625 5.398438 0.453125 4.265625 0.453125 Z M 4.78125 -5.8125 C 4.46875 -5.8125 4.144531 -5.734375 3.8125 -5.578125 C 3.488281 -5.429688 3.160156 -5.210938 2.828125 -4.921875 C 2.890625 -3.878906 2.921875 -2.835938 2.921875 -1.796875 C 3.367188 -1.648438 3.816406 -1.578125 4.265625 -1.578125 C 4.785156 -1.578125 5.179688 -1.757812 5.453125 -2.125 C 5.710938 -2.457031 5.84375 -2.90625 5.84375 -3.46875 C 5.84375 -4.144531 5.8125 -4.617188 5.75 -4.890625 C 5.601562 -5.503906 5.28125 -5.8125 4.78125 -5.8125 Z M 4.78125 -5.8125 "/></g></g></g></svg>