<svg xmlns="http://www.w3.org/2000/svg" width="150" height="40" version="1.0" viewBox="0 0 112.5 30"><defs><clipPath id="a"><path d="M1.574.281h108.871v28.75H1.575Zm0 0"/></clipPath><clipPath id="b"><path d="M8.832.281h94.352a7.262 7.262 0 0 1 7.261 7.258v14.234a7.262 7.262 0 0 1-7.262 7.258H8.833a7.262 7.262 0 0 1-5.133-2.125 7.245 7.245 0 0 1-2.125-5.133V7.54c0-1.926.762-3.773 2.125-5.133A7.262 7.262 0 0 1 8.832.281Zm0 0"/></clipPath><clipPath id="c"><path d="M1.578.281h108.867v28.75H1.578Zm0 0"/></clipPath><clipPath id="d"><path d="M8.836.281h94.344c1.925 0 3.77.766 5.132 2.125a7.262 7.262 0 0 1 2.126 5.133v14.234a7.26 7.26 0 0 1-7.258 7.254H8.836a7.252 7.252 0 0 1-7.258-7.254V7.54c0-1.926.766-3.773 2.125-5.133A7.268 7.268 0 0 1 8.836.281Zm0 0"/></clipPath></defs><g clip-path="url(#a)"><g clip-path="url(#b)"><path fill="#1d7886" d="M1.574.281h108.828v28.75H1.574Zm0 0"/></g></g><g clip-path="url(#c)"><g clip-path="url(#d)"><path fill="none" stroke="#e9a436" stroke-width="2.90324" d="M8.836.281h94.344c1.925 0 3.77.766 5.132 2.125a7.262 7.262 0 0 1 2.125 5.133v14.234a7.26 7.26 0 0 1-7.257 7.254H8.836a7.252 7.252 0 0 1-7.258-7.254V7.54c0-1.926.766-3.773 2.125-5.133A7.268 7.268 0 0 1 8.836.281Zm0 0"/></g></g><path fill="#e9a436" d="M22.295 14.096c-.086 0-.297-.016-.64-.047-.032.7-.047 1.855-.047 3.469a.98.98 0 0 1-.282.703.954.954 0 0 1-.703.281.971.971 0 0 1-.718-.281.98.98 0 0 1-.282-.703v-2.11c0-.781.051-1.937.157-3.468.093-1.551.14-2.711.14-3.485.008-1.312.379-1.937 1.11-1.875a3.41 3.41 0 0 1 .703-.11c.312-.019.68-.03 1.109-.03.988 0 1.914.32 2.781.953.969.718 1.453 1.593 1.453 2.625 0 1.293-.515 2.32-1.546 3.078-.907.668-1.985 1-3.235 1Zm.375-5.703h-.422c-.125 0-.23.007-.312.015 0 .242-.008.594-.016 1.063a60.63 60.63 0 0 1-.14 2.625c.257.043.43.062.515.062.781 0 1.43-.187 1.953-.562.551-.395.828-.922.828-1.578 0-.426-.257-.805-.765-1.141a2.985 2.985 0 0 0-1.64-.484ZM30.432 11.393a3.754 3.754 0 0 1 1.172-.813 3.528 3.528 0 0 1 1.36-.265c.863 0 1.484.246 1.859.734.281.355.453.906.515 1.656.032.625.055 1.25.079 1.875.082.813.132 1.309.156 1.485.07.562.16 1.054.265 1.468.02.106.032.2.032.282 0 .28-.11.507-.328.687-.211.188-.461.281-.75.281-.512 0-.84-.25-.985-.75-.125-.414-.234-.992-.328-1.734-.094-.707-.14-1.29-.14-1.75 0-.125.003-.313.015-.563.008-.257.016-.453.016-.578 0-.375-.008-.593-.016-.656-.043-.27-.172-.406-.39-.406-.563 0-1.07.258-1.516.765-.23.262-.547.75-.953 1.47 0 1.823-.09 2.921-.266 3.296-.2.418-.512.625-.937.625a1.12 1.12 0 0 1-.75-.281.91.91 0 0 1-.329-.703c0-.094.024-.227.079-.407.039-.113.07-.796.093-2.046-.023-1.008-.015-2.692.016-5.047l.016-.25c.03-.594.046-.993.046-1.203 0-.157-.027-.383-.078-.688a5.215 5.215 0 0 1-.062-.687.9.9 0 0 1 .297-.704c.207-.187.457-.28.75-.28.5 0 .836.265 1.015.796.094.305.141.766.141 1.39 0 .512-.016 1.024-.047 1.532-.031.5-.047.992-.047 1.469ZM40.25 18.768c-.938 0-1.743-.325-2.407-.97-.742-.694-1.125-1.628-1.156-2.796-.043-1.113.257-2.11.906-2.984.77-1.032 1.836-1.547 3.203-1.547 1.008 0 1.812.406 2.406 1.219.531.718.797 1.617.797 2.687 0 1.18-.312 2.18-.937 3-.7.93-1.637 1.39-2.813 1.39Zm.452-6.297c-.625-.008-1.117.273-1.469.844-.304.48-.453 1.042-.453 1.687 0 .605.172 1.07.516 1.39.27.25.586.376.953.376.438 0 .817-.145 1.14-.438.364-.351.563-.828.594-1.422.063-1.625-.367-2.437-1.28-2.437ZM50.609 12.22h-.375c-.149-.007-.274-.015-.375-.015-.211 0-.45.024-.72.063.095 2.03.141 3.359.141 3.984v.375c.008.18.016.324.016.438 0 1.156-.367 1.734-1.094 1.734-.281 0-.523-.086-.718-.25-.23-.188-.344-.414-.344-.688 0-.175.004-.445.015-.812.02-.363.032-.64.032-.828 0-.602-.043-1.906-.125-3.906-.313-.02-.79-.063-1.422-.125-.637-.07-.953-.399-.953-.985 0-.281.093-.52.28-.719.196-.195.446-.296.75-.296.188 0 .614.03 1.282.093 0-.156-.012-.422-.031-.797-.024-.32-.031-.57-.031-.75 0-.28.097-.515.297-.703.207-.187.46-.281.765-.281.738 0 1.11.625 1.11 1.875l-.016.625a6.54 6.54 0 0 1 .766-.062c.582 0 .976.039 1.187.109.406.148.61.453.61.922a.954.954 0 0 1-.297.719c-.2.187-.45.28-.75.28ZM55.684 18.768c-.938 0-1.742-.325-2.406-.97-.743-.694-1.125-1.628-1.157-2.796-.043-1.113.258-2.11.907-2.984.77-1.032 1.836-1.547 3.203-1.547 1.008 0 1.812.406 2.406 1.219.531.718.797 1.617.797 2.687 0 1.18-.313 2.18-.938 3-.699.93-1.636 1.39-2.812 1.39Zm.453-6.297c-.625-.008-1.117.273-1.469.844-.304.48-.453 1.042-.453 1.687 0 .605.172 1.07.516 1.39.27.25.586.376.953.376.437 0 .816-.145 1.14-.438.364-.351.563-.828.594-1.422.063-1.625-.367-2.437-1.281-2.437ZM66.028 12.783c-.5 0-.805-.207-.907-.625-.199-.039-.402-.062-.609-.062-1.219 0-1.828.168-1.828.5 0 .199.363.465 1.094.797 1 .46 1.675.82 2.03 1.078.727.531 1.095 1.125 1.095 1.781 0 .875-.403 1.54-1.203 1.984-.657.352-1.461.532-2.407.532a5.16 5.16 0 0 1-1.828-.313c-.762-.281-1.14-.695-1.14-1.25 0-.5.3-.75.906-.75.226 0 .562.074 1 .219.437.148.773.219 1.015.219 1.02 0 1.536-.207 1.547-.625 0-.25-.36-.532-1.078-.844-1.031-.457-1.695-.79-1.984-1-.719-.5-1.078-1.102-1.078-1.813 0-1.02.539-1.703 1.625-2.046.625-.208 1.578-.313 2.859-.313.508 0 .883.063 1.125.188.332.18.5.507.5.984 0 .906-.246 1.36-.734 1.36ZM70.485 11.393a3.754 3.754 0 0 1 1.172-.813 3.528 3.528 0 0 1 1.36-.265c.863 0 1.484.246 1.86.734.28.355.452.906.515 1.656.031.625.054 1.25.078 1.875.082.813.133 1.309.156 1.485.07.562.16 1.054.266 1.468.02.106.031.2.031.282 0 .28-.11.507-.328.687-.211.188-.461.281-.75.281-.512 0-.84-.25-.985-.75-.125-.414-.234-.992-.328-1.734-.093-.707-.14-1.29-.14-1.75 0-.125.004-.313.015-.563.008-.257.016-.453.016-.578 0-.375-.008-.593-.016-.656-.043-.27-.172-.406-.39-.406-.563 0-1.07.258-1.516.765-.23.262-.547.75-.953 1.47 0 1.823-.09 2.921-.266 3.296-.199.418-.511.625-.937.625a1.12 1.12 0 0 1-.75-.281.91.91 0 0 1-.328-.703c0-.094.023-.227.078-.407.039-.113.07-.796.094-2.046-.024-1.008-.016-2.692.015-5.047l.016-.25c.031-.594.047-.993.047-1.203 0-.157-.028-.383-.078-.688a5.215 5.215 0 0 1-.063-.687.9.9 0 0 1 .297-.704c.207-.187.457-.28.75-.28.5 0 .836.265 1.016.796.093.305.14.766.14 1.39 0 .512-.015 1.024-.047 1.532-.03.5-.047.992-.047 1.469ZM80.302 18.768c-.937 0-1.742-.325-2.406-.97-.742-.694-1.125-1.628-1.156-2.796-.043-1.113.258-2.11.906-2.984.77-1.032 1.836-1.547 3.203-1.547 1.008 0 1.813.406 2.406 1.219.532.718.797 1.617.797 2.687 0 1.18-.312 2.18-.937 3-.7.93-1.637 1.39-2.813 1.39Zm.453-6.297c-.625-.008-1.117.273-1.468.844-.305.48-.453 1.042-.453 1.687 0 .605.171 1.07.515 1.39.27.25.586.376.953.376.438 0 .817-.145 1.141-.438.363-.351.562-.828.594-1.422.062-1.625-.367-2.437-1.282-2.437ZM88.818 18.768c-.437 0-.898-.055-1.375-.157v3.079a.96.96 0 0 1-.297.718c-.2.196-.45.297-.75.297-.305 0-.555-.101-.75-.297a.946.946 0 0 1-.297-.718c0-.231.004-1.168.016-2.813.008-1.219.008-2.21 0-2.984a41.717 41.717 0 0 0-.11-2.813c-.074-1.082-.109-1.582-.109-1.5 0-.414.094-.77.281-1.062.22-.344.508-.516.875-.516.282 0 .516.102.704.297a.922.922 0 0 1 .296.687v.063a4.481 4.481 0 0 1 1-.422c.344-.094.688-.14 1.032-.14 1.164 0 2.015.495 2.547 1.484.394.742.593 1.699.593 2.875 0 1.105-.312 2.023-.937 2.75-.68.781-1.586 1.172-2.719 1.172Zm.516-6.266c-.313 0-.637.078-.97.234a4.15 4.15 0 0 0-.983.657c.062 1.043.093 2.086.093 3.125.446.148.895.218 1.344.218.52 0 .914-.18 1.188-.546.257-.333.39-.782.39-1.344 0-.676-.031-1.149-.094-1.422-.148-.613-.468-.922-.968-.922Zm0 0"/></svg>