<svg xmlns="http://www.w3.org/2000/svg" width="150" height="40" version="1.0" viewBox="0 0 112.5 30"><defs><clipPath id="a"><path d="M1.574.281h108.871v28.75H1.575Zm0 0"/></clipPath><clipPath id="b"><path d="M8.832.281h94.352a7.262 7.262 0 0 1 7.261 7.258v14.234a7.262 7.262 0 0 1-7.262 7.258H8.833a7.262 7.262 0 0 1-5.133-2.125 7.245 7.245 0 0 1-2.125-5.133V7.54c0-1.926.762-3.773 2.125-5.133A7.262 7.262 0 0 1 8.832.281Zm0 0"/></clipPath><clipPath id="c"><path d="M1.578.281h108.867v28.75H1.578Zm0 0"/></clipPath><clipPath id="d"><path d="M8.836.281h94.344c1.925 0 3.77.766 5.132 2.125a7.262 7.262 0 0 1 2.126 5.133v14.234a7.26 7.26 0 0 1-7.258 7.254H8.836a7.252 7.252 0 0 1-7.258-7.254V7.54c0-1.926.766-3.773 2.125-5.133A7.268 7.268 0 0 1 8.836.281Zm0 0"/></clipPath></defs><g clip-path="url(#a)"><g clip-path="url(#b)"><path fill="#1d7886" d="M1.574.281h108.828v28.75H1.574Zm0 0"/></g></g><g clip-path="url(#c)"><g clip-path="url(#d)"><path fill="none" stroke="#e9a436" stroke-width="2.90324" d="M8.836.281h94.344c1.925 0 3.77.766 5.132 2.125a7.262 7.262 0 0 1 2.125 5.133v14.234a7.26 7.26 0 0 1-7.257 7.254H8.836a7.252 7.252 0 0 1-7.258-7.254V7.54c0-1.926.766-3.773 2.125-5.133A7.268 7.268 0 0 1 8.836.281Zm0 0"/></g></g><path fill="#e9a436" d="M46.396 15.112c-.086 0-.297-.016-.64-.047-.032.7-.048 1.855-.048 3.469a.98.98 0 0 1-.28.703.954.954 0 0 1-.704.281.971.971 0 0 1-.719-.281.98.98 0 0 1-.281-.703v-2.11c0-.78.05-1.937.156-3.468.094-1.551.14-2.711.14-3.485.009-1.312.38-1.937 1.11-1.875a3.41 3.41 0 0 1 .703-.11c.313-.019.68-.03 1.11-.03.988 0 1.914.32 2.78.953.97.719 1.454 1.594 1.454 2.625 0 1.293-.516 2.32-1.547 3.078-.906.668-1.984 1-3.234 1Zm.375-5.703h-.422c-.125 0-.23.008-.313.015 0 .243-.007.594-.015 1.063a60.63 60.63 0 0 1-.14 2.625c.257.043.429.062.515.062.781 0 1.43-.187 1.953-.562.55-.395.828-.922.828-1.578 0-.426-.258-.805-.766-1.14a2.985 2.985 0 0 0-1.64-.485ZM54.533 12.409a3.754 3.754 0 0 1 1.172-.813 3.528 3.528 0 0 1 1.36-.265c.862 0 1.484.246 1.859.734.28.355.453.906.515 1.656.031.625.055 1.25.078 1.875.082.813.133 1.309.157 1.485.07.562.16 1.054.265 1.468.02.106.031.2.031.282 0 .28-.109.507-.328.687-.21.188-.46.281-.75.281-.511 0-.84-.25-.984-.75-.125-.414-.234-.992-.328-1.734-.094-.707-.14-1.289-.14-1.75 0-.125.003-.312.015-.562.008-.258.015-.454.015-.579 0-.375-.007-.593-.015-.656-.043-.27-.172-.406-.39-.406-.563 0-1.071.258-1.516.766-.23.261-.547.75-.954 1.468 0 1.824-.09 2.922-.265 3.297-.2.418-.512.625-.938.625a1.12 1.12 0 0 1-.75-.281.91.91 0 0 1-.328-.703c0-.094.024-.227.078-.406.04-.114.07-.797.094-2.047-.023-1.008-.016-2.692.016-5.047l.015-.25c.032-.594.047-.992.047-1.203 0-.157-.027-.383-.078-.688a5.215 5.215 0 0 1-.062-.687.9.9 0 0 1 .296-.703c.207-.188.457-.282.75-.282.5 0 .836.266 1.016.797.094.305.14.766.14 1.39 0 .512-.015 1.024-.046 1.532-.031.5-.047.992-.047 1.469ZM64.725 19.784c-.438 0-.899-.055-1.375-.156v3.078a.96.96 0 0 1-.297.718c-.2.196-.45.297-.75.297-.305 0-.555-.101-.75-.297a.946.946 0 0 1-.297-.718c0-.23.004-1.168.016-2.813.007-1.219.007-2.21 0-2.984a41.717 41.717 0 0 0-.11-2.813c-.074-1.082-.11-1.582-.11-1.5 0-.414.095-.77.282-1.062.219-.344.508-.516.875-.516.281 0 .516.102.703.297a.922.922 0 0 1 .297.688v.062a4.481 4.481 0 0 1 1-.422c.344-.094.688-.14 1.031-.14 1.164 0 2.016.496 2.547 1.484.395.742.594 1.7.594 2.875 0 1.105-.312 2.023-.937 2.75-.68.781-1.586 1.172-2.72 1.172Zm.515-6.266c-.312 0-.636.078-.968.235a4.15 4.15 0 0 0-.985.656c.063 1.043.094 2.086.094 3.125.445.148.895.219 1.344.219.52 0 .914-.18 1.187-.547.258-.332.39-.782.39-1.344 0-.676-.03-1.149-.093-1.422-.148-.613-.469-.922-.969-.922Zm0 0"/></svg>