<svg xmlns="http://www.w3.org/2000/svg" xmlns:xlink="http://www.w3.org/1999/xlink" width="150" zoomAndPan="magnify" viewBox="0 0 112.5 30.000001" height="40" preserveAspectRatio="xMidYMid meet" version="1.0"><defs><g/><clipPath id="18da47fd1e"><path d="M 1.574219 0.28125 L 110.445312 0.28125 L 110.445312 29.03125 L 1.574219 29.03125 Z M 1.574219 0.28125 " clip-rule="nonzero"/></clipPath><clipPath id="d803a57423"><path d="M 8.832031 0.28125 L 103.183594 0.28125 C 105.109375 0.28125 106.957031 1.046875 108.316406 2.40625 C 109.679688 3.765625 110.445312 5.613281 110.445312 7.539062 L 110.445312 21.773438 C 110.445312 23.699219 109.679688 25.546875 108.316406 26.90625 C 106.957031 28.265625 105.109375 29.03125 103.183594 29.03125 L 8.832031 29.03125 C 6.90625 29.03125 5.058594 28.265625 3.699219 26.90625 C 2.335938 25.546875 1.574219 23.699219 1.574219 21.773438 L 1.574219 7.539062 C 1.574219 5.613281 2.335938 3.765625 3.699219 2.40625 C 5.058594 1.046875 6.90625 0.28125 8.832031 0.28125 Z M 8.832031 0.28125 " clip-rule="nonzero"/></clipPath><clipPath id="c98a170824"><path d="M 1.578125 0.28125 L 110.445312 0.28125 L 110.445312 29.03125 L 1.578125 29.03125 Z M 1.578125 0.28125 " clip-rule="nonzero"/></clipPath><clipPath id="608ff04924"><path d="M 8.835938 0.28125 L 103.179688 0.28125 C 105.105469 0.28125 106.949219 1.046875 108.3125 2.40625 C 109.671875 3.765625 110.4375 5.613281 110.4375 7.539062 L 110.4375 21.773438 C 110.4375 23.695312 109.671875 25.542969 108.3125 26.902344 C 106.949219 28.265625 105.105469 29.027344 103.179688 29.027344 L 8.835938 29.027344 C 6.910156 29.027344 5.066406 28.265625 3.703125 26.902344 C 2.34375 25.542969 1.578125 23.695312 1.578125 21.773438 L 1.578125 7.539062 C 1.578125 5.613281 2.34375 3.765625 3.703125 2.40625 C 5.066406 1.046875 6.910156 0.28125 8.835938 0.28125 Z M 8.835938 0.28125 " clip-rule="nonzero"/></clipPath></defs><g clip-path="url(#18da47fd1e)"><g clip-path="url(#d803a57423)"><path fill="#1d7886" d="M 1.574219 0.28125 L 110.402344 0.28125 L 110.402344 29.03125 L 1.574219 29.03125 Z M 1.574219 0.28125 " fill-opacity="1" fill-rule="nonzero"/></g></g><g clip-path="url(#c98a170824)"><g clip-path="url(#608ff04924)"><path stroke-linecap="butt" transform="matrix(0.725806, 0, 0, 0.725806, 1.578403, 0.280445)" fill="none" stroke-linejoin="miter" d="M 9.99927 0.00110902 L 139.984001 0.00110902 C 142.6373 0.00110902 145.177578 1.05597 147.055877 2.928887 C 148.928794 4.801804 149.983655 7.347464 149.983655 10.000763 L 149.983655 29.612569 C 149.983655 32.260486 148.928794 34.806146 147.055877 36.679063 C 145.177578 38.557362 142.6373 39.606841 139.984001 39.606841 L 9.99927 39.606841 C 7.345971 39.606841 4.805693 38.557362 2.927394 36.679063 C 1.054478 34.806146 -0.000383669 32.260486 -0.000383669 29.612569 L -0.000383669 10.000763 C -0.000383669 7.347464 1.054478 4.801804 2.927394 2.928887 C 4.805693 1.05597 7.345971 0.00110902 9.99927 0.00110902 Z M 9.99927 0.00110902 " stroke="#e9a436" stroke-width="4" stroke-opacity="1" stroke-miterlimit="4"/></g></g><g fill="#e9a436" fill-opacity="1"><g transform="translate(43.270805, 19.330644)"><g><path d="M 3.125 -4.21875 C 3.039062 -4.21875 2.828125 -4.234375 2.484375 -4.265625 C 2.453125 -3.566406 2.4375 -2.410156 2.4375 -0.796875 C 2.4375 -0.523438 2.34375 -0.289062 2.15625 -0.09375 C 1.96875 0.09375 1.734375 0.1875 1.453125 0.1875 C 1.160156 0.1875 0.921875 0.09375 0.734375 -0.09375 C 0.546875 -0.289062 0.453125 -0.523438 0.453125 -0.796875 L 0.453125 -2.90625 C 0.453125 -3.6875 0.503906 -4.84375 0.609375 -6.375 C 0.703125 -7.925781 0.75 -9.085938 0.75 -9.859375 C 0.757812 -11.171875 1.128906 -11.796875 1.859375 -11.734375 C 2.023438 -11.785156 2.257812 -11.820312 2.5625 -11.84375 C 2.875 -11.863281 3.242188 -11.875 3.671875 -11.875 C 4.660156 -11.875 5.585938 -11.554688 6.453125 -10.921875 C 7.421875 -10.203125 7.90625 -9.328125 7.90625 -8.296875 C 7.90625 -7.003906 7.390625 -5.976562 6.359375 -5.21875 C 5.453125 -4.550781 4.375 -4.21875 3.125 -4.21875 Z M 3.5 -9.921875 C 3.34375 -9.921875 3.203125 -9.921875 3.078125 -9.921875 C 2.953125 -9.921875 2.847656 -9.914062 2.765625 -9.90625 C 2.765625 -9.664062 2.757812 -9.3125 2.75 -8.84375 C 2.738281 -8.28125 2.691406 -7.40625 2.609375 -6.21875 C 2.867188 -6.175781 3.039062 -6.15625 3.125 -6.15625 C 3.90625 -6.15625 4.554688 -6.34375 5.078125 -6.71875 C 5.628906 -7.113281 5.90625 -7.640625 5.90625 -8.296875 C 5.90625 -8.722656 5.648438 -9.101562 5.140625 -9.4375 C 4.640625 -9.757812 4.09375 -9.921875 3.5 -9.921875 Z M 3.5 -9.921875 "/></g></g></g><g fill="#e9a436" fill-opacity="1"><g transform="translate(51.517284, 19.330644)"><g><path d="M 3.015625 -6.921875 C 3.378906 -7.285156 3.769531 -7.554688 4.1875 -7.734375 C 4.613281 -7.910156 5.066406 -8 5.546875 -8 C 6.410156 -8 7.03125 -7.753906 7.40625 -7.265625 C 7.6875 -6.910156 7.859375 -6.359375 7.921875 -5.609375 C 7.953125 -4.984375 7.976562 -4.359375 8 -3.734375 C 8.082031 -2.921875 8.132812 -2.425781 8.15625 -2.25 C 8.226562 -1.6875 8.316406 -1.195312 8.421875 -0.78125 C 8.441406 -0.675781 8.453125 -0.582031 8.453125 -0.5 C 8.453125 -0.21875 8.34375 0.0078125 8.125 0.1875 C 7.914062 0.375 7.664062 0.46875 7.375 0.46875 C 6.863281 0.46875 6.535156 0.21875 6.390625 -0.28125 C 6.265625 -0.695312 6.15625 -1.273438 6.0625 -2.015625 C 5.96875 -2.722656 5.921875 -3.304688 5.921875 -3.765625 C 5.921875 -3.890625 5.925781 -4.078125 5.9375 -4.328125 C 5.945312 -4.585938 5.953125 -4.78125 5.953125 -4.90625 C 5.953125 -5.28125 5.945312 -5.5 5.9375 -5.5625 C 5.894531 -5.832031 5.765625 -5.96875 5.546875 -5.96875 C 4.984375 -5.96875 4.476562 -5.710938 4.03125 -5.203125 C 3.800781 -4.941406 3.484375 -4.453125 3.078125 -3.734375 C 3.078125 -1.910156 2.988281 -0.8125 2.8125 -0.4375 C 2.613281 -0.0195312 2.300781 0.1875 1.875 0.1875 C 1.59375 0.1875 1.34375 0.09375 1.125 -0.09375 C 0.90625 -0.289062 0.796875 -0.523438 0.796875 -0.796875 C 0.796875 -0.890625 0.820312 -1.023438 0.875 -1.203125 C 0.914062 -1.316406 0.945312 -2 0.96875 -3.25 C 0.945312 -4.257812 0.953125 -5.941406 0.984375 -8.296875 L 1 -8.546875 C 1.03125 -9.140625 1.046875 -9.539062 1.046875 -9.75 C 1.046875 -9.90625 1.019531 -10.132812 0.96875 -10.4375 C 0.925781 -10.738281 0.90625 -10.96875 0.90625 -11.125 C 0.90625 -11.414062 1.003906 -11.648438 1.203125 -11.828125 C 1.410156 -12.015625 1.660156 -12.109375 1.953125 -12.109375 C 2.453125 -12.109375 2.789062 -11.84375 2.96875 -11.3125 C 3.0625 -11.007812 3.109375 -10.546875 3.109375 -9.921875 C 3.109375 -9.410156 3.09375 -8.898438 3.0625 -8.390625 C 3.03125 -7.890625 3.015625 -7.398438 3.015625 -6.921875 Z M 3.015625 -6.921875 "/></g></g></g><g fill="#e9a436" fill-opacity="1"><g transform="translate(60.459159, 19.330644)"><g><path d="M 4.265625 0.453125 C 3.828125 0.453125 3.367188 0.398438 2.890625 0.296875 L 2.890625 3.375 C 2.890625 3.664062 2.789062 3.90625 2.59375 4.09375 C 2.394531 4.289062 2.144531 4.390625 1.84375 4.390625 C 1.539062 4.390625 1.289062 4.289062 1.09375 4.09375 C 0.894531 3.90625 0.796875 3.664062 0.796875 3.375 C 0.796875 3.144531 0.800781 2.207031 0.8125 0.5625 C 0.820312 -0.65625 0.820312 -1.648438 0.8125 -2.421875 C 0.800781 -3.515625 0.765625 -4.453125 0.703125 -5.234375 C 0.628906 -6.316406 0.59375 -6.816406 0.59375 -6.734375 C 0.59375 -7.148438 0.6875 -7.503906 0.875 -7.796875 C 1.09375 -8.140625 1.382812 -8.3125 1.75 -8.3125 C 2.03125 -8.3125 2.265625 -8.210938 2.453125 -8.015625 C 2.648438 -7.828125 2.75 -7.597656 2.75 -7.328125 L 2.75 -7.265625 C 3.082031 -7.453125 3.414062 -7.59375 3.75 -7.6875 C 4.09375 -7.78125 4.4375 -7.828125 4.78125 -7.828125 C 5.945312 -7.828125 6.796875 -7.332031 7.328125 -6.34375 C 7.722656 -5.601562 7.921875 -4.644531 7.921875 -3.46875 C 7.921875 -2.363281 7.609375 -1.445312 6.984375 -0.71875 C 6.304688 0.0625 5.398438 0.453125 4.265625 0.453125 Z M 4.78125 -5.8125 C 4.46875 -5.8125 4.144531 -5.734375 3.8125 -5.578125 C 3.488281 -5.429688 3.160156 -5.210938 2.828125 -4.921875 C 2.890625 -3.878906 2.921875 -2.835938 2.921875 -1.796875 C 3.367188 -1.648438 3.816406 -1.578125 4.265625 -1.578125 C 4.785156 -1.578125 5.179688 -1.757812 5.453125 -2.125 C 5.710938 -2.457031 5.84375 -2.90625 5.84375 -3.46875 C 5.84375 -4.144531 5.8125 -4.617188 5.75 -4.890625 C 5.601562 -5.503906 5.28125 -5.8125 4.78125 -5.8125 Z M 4.78125 -5.8125 "/></g></g></g></svg>