<svg xmlns="http://www.w3.org/2000/svg" width="150" height="40" version="1.0" viewBox="0 0 112.5 30"><defs><clipPath id="a"><path d="M1.574.281h108.871v28.75H1.575Zm0 0"/></clipPath><clipPath id="b"><path d="M8.832.281h94.352a7.262 7.262 0 0 1 7.261 7.258v14.234a7.262 7.262 0 0 1-7.262 7.258H8.833a7.262 7.262 0 0 1-5.133-2.125 7.245 7.245 0 0 1-2.125-5.133V7.54c0-1.926.762-3.773 2.125-5.133A7.262 7.262 0 0 1 8.832.281Zm0 0"/></clipPath><clipPath id="c"><path d="M1.578.281h108.867v28.75H1.578Zm0 0"/></clipPath><clipPath id="d"><path d="M8.836.281h94.344c1.925 0 3.77.766 5.132 2.125a7.262 7.262 0 0 1 2.126 5.133v14.234a7.26 7.26 0 0 1-7.258 7.254H8.836a7.252 7.252 0 0 1-7.258-7.254V7.54c0-1.926.766-3.773 2.125-5.133A7.268 7.268 0 0 1 8.836.281Zm0 0"/></clipPath></defs><g clip-path="url(#a)"><g clip-path="url(#b)"><path fill="#1d7886" d="M1.574.281h108.828v28.75H1.574Zm0 0"/></g></g><g clip-path="url(#c)"><g clip-path="url(#d)"><path fill="none" stroke="#e9a436" stroke-width="2.90324" d="M8.836.281h94.344c1.925 0 3.77.766 5.132 2.125a7.262 7.262 0 0 1 2.125 5.133v14.234a7.26 7.26 0 0 1-7.257 7.254H8.836a7.252 7.252 0 0 1-7.258-7.254V7.54c0-1.926.766-3.773 2.125-5.133A7.268 7.268 0 0 1 8.836.281Zm0 0"/></g></g><path fill="#e9a436" d="M43.44 19.8c-1.282 0-2.29-.29-3.017-.86-.625-.477-.937-1.023-.937-1.64 0-.32.094-.587.281-.797.196-.208.461-.313.797-.313.457 0 .79.234 1 .703.29.617.941.922 1.953.922.863 0 1.703-.187 2.516-.562.844-.383 1.265-.813 1.265-1.282 0-.633-.261-1.05-.78-1.25-.376-.144-1.126-.234-2.25-.265-.876-.02-1.657-.18-2.345-.485-.93-.414-1.386-1.015-1.375-1.797.008-.988.532-1.89 1.563-2.703 1.039-.82 2.18-1.234 3.422-1.234.5 0 1.11.117 1.828.344.906.28 1.36.605 1.36.968 0 .262-.09.496-.266.704-.211.23-.469.343-.782.343-.242 0-.593-.05-1.062-.156-.469-.102-.828-.156-1.078-.156a4.124 4.124 0 0 0-1.844.469c-.605.312-.906.656-.906 1.03 0 .188.086.345.265.47.188.125.461.214.829.265l1.937.094c1.113.094 2 .414 2.656.953.707.605 1.063 1.438 1.063 2.5 0 1.305-.742 2.293-2.219 2.969-1.125.508-2.418.765-3.875.765ZM54.11 19.8c-1.117 0-2.047-.313-2.797-.938-.793-.664-1.188-1.54-1.188-2.625 0-1.008.36-2.047 1.079-3.11.8-1.218 1.738-1.828 2.812-1.828.52 0 1.129.141 1.828.422.852.344 1.281.746 1.281 1.203 0 .243-.085.461-.25.657a.898.898 0 0 1-.703.312c-.218 0-.484-.113-.797-.344-.304-.238-.757-.359-1.359-.359-.398 0-.82.383-1.266 1.14-.437.731-.656 1.368-.656 1.907 0 .523.192.933.578 1.234.364.293.844.438 1.438.438.332 0 .742-.125 1.234-.375.489-.258.801-.39.938-.39.27 0 .5.1.687.296a.907.907 0 0 1 .297.672c0 .387-.43.777-1.281 1.172-.774.344-1.399.515-1.875.515ZM63.905 13.8c-.5 0-.804-.208-.906-.626-.2-.039-.402-.062-.61-.062-1.218 0-1.827.168-1.827.5 0 .2.363.465 1.093.797 1 .46 1.676.82 2.032 1.078.726.531 1.093 1.125 1.093 1.781 0 .875-.402 1.54-1.203 1.985-.656.351-1.46.53-2.406.53a5.16 5.16 0 0 1-1.828-.312c-.762-.281-1.14-.695-1.14-1.25 0-.5.3-.75.905-.75.227 0 .563.074 1 .219.438.148.774.219 1.016.219 1.02 0 1.535-.207 1.547-.625 0-.25-.36-.531-1.078-.844-1.031-.457-1.696-.789-1.985-1-.718-.5-1.078-1.102-1.078-1.812 0-1.02.54-1.704 1.625-2.047.625-.207 1.578-.313 2.86-.313.507 0 .882.063 1.125.188.332.18.5.507.5.984 0 .906-.246 1.36-.735 1.36ZM71.441 13.8c-.5 0-.804-.208-.906-.626-.2-.039-.402-.062-.61-.062-1.218 0-1.827.168-1.827.5 0 .2.363.465 1.093.797 1 .46 1.676.82 2.032 1.078.726.531 1.093 1.125 1.093 1.781 0 .875-.402 1.54-1.203 1.985-.656.351-1.46.53-2.406.53a5.16 5.16 0 0 1-1.828-.312c-.762-.281-1.14-.695-1.14-1.25 0-.5.3-.75.905-.75.227 0 .563.074 1 .219.438.148.774.219 1.016.219 1.02 0 1.535-.207 1.547-.625 0-.25-.36-.531-1.078-.844-1.031-.457-1.696-.789-1.985-1-.718-.5-1.078-1.102-1.078-1.812 0-1.02.54-1.704 1.625-2.047.625-.207 1.578-.313 2.86-.313.507 0 .882.063 1.125.188.332.18.5.507.5.984 0 .906-.246 1.36-.735 1.36Zm0 0"/></svg>