<svg xmlns="http://www.w3.org/2000/svg" xmlns:xlink="http://www.w3.org/1999/xlink" width="150" zoomAndPan="magnify" viewBox="0 0 112.5 30.000001" height="40" preserveAspectRatio="xMidYMid meet" version="1.0"><defs><g/><clipPath id="cc9ebdcb5c"><path d="M 1.574219 0.28125 L 110.445312 0.28125 L 110.445312 29.03125 L 1.574219 29.03125 Z M 1.574219 0.28125 " clip-rule="nonzero"/></clipPath><clipPath id="1a85351467"><path d="M 8.832031 0.28125 L 103.183594 0.28125 C 105.109375 0.28125 106.957031 1.046875 108.316406 2.40625 C 109.679688 3.765625 110.445312 5.613281 110.445312 7.539062 L 110.445312 21.773438 C 110.445312 23.699219 109.679688 25.546875 108.316406 26.90625 C 106.957031 28.265625 105.109375 29.03125 103.183594 29.03125 L 8.832031 29.03125 C 6.90625 29.03125 5.058594 28.265625 3.699219 26.90625 C 2.335938 25.546875 1.574219 23.699219 1.574219 21.773438 L 1.574219 7.539062 C 1.574219 5.613281 2.335938 3.765625 3.699219 2.40625 C 5.058594 1.046875 6.90625 0.28125 8.832031 0.28125 Z M 8.832031 0.28125 " clip-rule="nonzero"/></clipPath><clipPath id="064d187972"><path d="M 1.578125 0.28125 L 110.445312 0.28125 L 110.445312 29.03125 L 1.578125 29.03125 Z M 1.578125 0.28125 " clip-rule="nonzero"/></clipPath><clipPath id="d1818956f7"><path d="M 8.835938 0.28125 L 103.179688 0.28125 C 105.105469 0.28125 106.949219 1.046875 108.3125 2.40625 C 109.671875 3.765625 110.4375 5.613281 110.4375 7.539062 L 110.4375 21.773438 C 110.4375 23.695312 109.671875 25.542969 108.3125 26.902344 C 106.949219 28.265625 105.105469 29.027344 103.179688 29.027344 L 8.835938 29.027344 C 6.910156 29.027344 5.066406 28.265625 3.703125 26.902344 C 2.34375 25.542969 1.578125 23.695312 1.578125 21.773438 L 1.578125 7.539062 C 1.578125 5.613281 2.34375 3.765625 3.703125 2.40625 C 5.066406 1.046875 6.910156 0.28125 8.835938 0.28125 Z M 8.835938 0.28125 " clip-rule="nonzero"/></clipPath></defs><g clip-path="url(#cc9ebdcb5c)"><g clip-path="url(#1a85351467)"><path fill="#1d7886" d="M 1.574219 0.28125 L 110.402344 0.28125 L 110.402344 29.03125 L 1.574219 29.03125 Z M 1.574219 0.28125 " fill-opacity="1" fill-rule="nonzero"/></g></g><g clip-path="url(#064d187972)"><g clip-path="url(#d1818956f7)"><path stroke-linecap="butt" transform="matrix(0.725806, 0, 0, 0.725806, 1.578403, 0.280445)" fill="none" stroke-linejoin="miter" d="M 9.99927 0.00110902 L 139.984001 0.00110902 C 142.6373 0.00110902 145.177578 1.05597 147.055877 2.928887 C 148.928794 4.801804 149.983655 7.347464 149.983655 10.000763 L 149.983655 29.612569 C 149.983655 32.260486 148.928794 34.806146 147.055877 36.679063 C 145.177578 38.557362 142.6373 39.606841 139.984001 39.606841 L 9.99927 39.606841 C 7.345971 39.606841 4.805693 38.557362 2.927394 36.679063 C 1.054478 34.806146 -0.000383669 32.260486 -0.000383669 29.612569 L -0.000383669 10.000763 C -0.000383669 7.347464 1.054478 4.801804 2.927394 2.928887 C 4.805693 1.05597 7.345971 0.00110902 9.99927 0.00110902 Z M 9.99927 0.00110902 " stroke="#e9a436" stroke-width="4" stroke-opacity="1" stroke-miterlimit="4"/></g></g><g fill="#e9a436" fill-opacity="1"><g transform="translate(39.126581, 19.330644)"><g><path d="M 4.3125 0.46875 C 3.03125 0.46875 2.023438 0.179688 1.296875 -0.390625 C 0.671875 -0.867188 0.359375 -1.414062 0.359375 -2.03125 C 0.359375 -2.351562 0.453125 -2.617188 0.640625 -2.828125 C 0.835938 -3.035156 1.101562 -3.140625 1.4375 -3.140625 C 1.894531 -3.140625 2.226562 -2.90625 2.4375 -2.4375 C 2.726562 -1.820312 3.378906 -1.515625 4.390625 -1.515625 C 5.253906 -1.515625 6.09375 -1.703125 6.90625 -2.078125 C 7.75 -2.460938 8.171875 -2.890625 8.171875 -3.359375 C 8.171875 -3.992188 7.910156 -4.410156 7.390625 -4.609375 C 7.015625 -4.753906 6.265625 -4.84375 5.140625 -4.875 C 4.265625 -4.894531 3.484375 -5.054688 2.796875 -5.359375 C 1.867188 -5.773438 1.410156 -6.375 1.421875 -7.15625 C 1.429688 -8.144531 1.953125 -9.046875 2.984375 -9.859375 C 4.023438 -10.679688 5.164062 -11.09375 6.40625 -11.09375 C 6.90625 -11.09375 7.515625 -10.976562 8.234375 -10.75 C 9.140625 -10.46875 9.59375 -10.144531 9.59375 -9.78125 C 9.59375 -9.519531 9.503906 -9.285156 9.328125 -9.078125 C 9.117188 -8.847656 8.859375 -8.734375 8.546875 -8.734375 C 8.304688 -8.734375 7.953125 -8.785156 7.484375 -8.890625 C 7.015625 -8.992188 6.65625 -9.046875 6.40625 -9.046875 C 5.757812 -9.035156 5.144531 -8.878906 4.5625 -8.578125 C 3.957031 -8.265625 3.65625 -7.921875 3.65625 -7.546875 C 3.65625 -7.359375 3.742188 -7.203125 3.921875 -7.078125 C 4.109375 -6.953125 4.382812 -6.863281 4.75 -6.8125 C 5.394531 -6.78125 6.039062 -6.75 6.6875 -6.71875 C 7.800781 -6.625 8.6875 -6.304688 9.34375 -5.765625 C 10.050781 -5.160156 10.40625 -4.328125 10.40625 -3.265625 C 10.40625 -1.960938 9.664062 -0.972656 8.1875 -0.296875 C 7.0625 0.210938 5.769531 0.46875 4.3125 0.46875 Z M 4.3125 0.46875 "/></g></g></g><g fill="#e9a436" fill-opacity="1"><g transform="translate(49.859846, 19.330644)"><g><path d="M 4.25 0.46875 C 3.132812 0.46875 2.203125 0.15625 1.453125 -0.46875 C 0.660156 -1.132812 0.265625 -2.007812 0.265625 -3.09375 C 0.265625 -4.101562 0.625 -5.140625 1.34375 -6.203125 C 2.144531 -7.421875 3.082031 -8.03125 4.15625 -8.03125 C 4.675781 -8.03125 5.285156 -7.890625 5.984375 -7.609375 C 6.835938 -7.265625 7.265625 -6.863281 7.265625 -6.40625 C 7.265625 -6.164062 7.179688 -5.945312 7.015625 -5.75 C 6.828125 -5.539062 6.59375 -5.4375 6.3125 -5.4375 C 6.09375 -5.4375 5.828125 -5.550781 5.515625 -5.78125 C 5.210938 -6.019531 4.757812 -6.140625 4.15625 -6.140625 C 3.757812 -6.140625 3.335938 -5.757812 2.890625 -5 C 2.453125 -4.269531 2.234375 -3.632812 2.234375 -3.09375 C 2.234375 -2.570312 2.425781 -2.160156 2.8125 -1.859375 C 3.175781 -1.566406 3.65625 -1.421875 4.25 -1.421875 C 4.582031 -1.421875 4.992188 -1.546875 5.484375 -1.796875 C 5.972656 -2.054688 6.285156 -2.1875 6.421875 -2.1875 C 6.691406 -2.1875 6.921875 -2.085938 7.109375 -1.890625 C 7.304688 -1.703125 7.40625 -1.476562 7.40625 -1.21875 C 7.40625 -0.832031 6.976562 -0.441406 6.125 -0.046875 C 5.351562 0.296875 4.726562 0.46875 4.25 0.46875 Z M 4.25 0.46875 "/></g></g></g><g fill="#e9a436" fill-opacity="1"><g transform="translate(57.811534, 19.330644)"><g><path d="M 6.09375 -5.53125 C 5.59375 -5.53125 5.289062 -5.738281 5.1875 -6.15625 C 4.988281 -6.195312 4.785156 -6.21875 4.578125 -6.21875 C 3.359375 -6.21875 2.75 -6.050781 2.75 -5.71875 C 2.75 -5.519531 3.113281 -5.253906 3.84375 -4.921875 C 4.84375 -4.460938 5.519531 -4.101562 5.875 -3.84375 C 6.601562 -3.3125 6.96875 -2.71875 6.96875 -2.0625 C 6.96875 -1.1875 6.566406 -0.523438 5.765625 -0.078125 C 5.109375 0.273438 4.304688 0.453125 3.359375 0.453125 C 2.691406 0.453125 2.082031 0.347656 1.53125 0.140625 C 0.769531 -0.140625 0.390625 -0.554688 0.390625 -1.109375 C 0.390625 -1.609375 0.691406 -1.859375 1.296875 -1.859375 C 1.523438 -1.859375 1.859375 -1.785156 2.296875 -1.640625 C 2.734375 -1.492188 3.070312 -1.421875 3.3125 -1.421875 C 4.332031 -1.421875 4.847656 -1.628906 4.859375 -2.046875 C 4.859375 -2.296875 4.5 -2.578125 3.78125 -2.890625 C 2.75 -3.347656 2.085938 -3.679688 1.796875 -3.890625 C 1.078125 -4.390625 0.71875 -4.992188 0.71875 -5.703125 C 0.71875 -6.722656 1.257812 -7.40625 2.34375 -7.75 C 2.96875 -7.957031 3.921875 -8.0625 5.203125 -8.0625 C 5.710938 -8.0625 6.085938 -8 6.328125 -7.875 C 6.660156 -7.695312 6.828125 -7.367188 6.828125 -6.890625 C 6.828125 -5.984375 6.582031 -5.53125 6.09375 -5.53125 Z M 6.09375 -5.53125 "/></g></g></g><g fill="#e9a436" fill-opacity="1"><g transform="translate(65.347501, 19.330644)"><g><path d="M 6.09375 -5.53125 C 5.59375 -5.53125 5.289062 -5.738281 5.1875 -6.15625 C 4.988281 -6.195312 4.785156 -6.21875 4.578125 -6.21875 C 3.359375 -6.21875 2.75 -6.050781 2.75 -5.71875 C 2.75 -5.519531 3.113281 -5.253906 3.84375 -4.921875 C 4.84375 -4.460938 5.519531 -4.101562 5.875 -3.84375 C 6.601562 -3.3125 6.96875 -2.71875 6.96875 -2.0625 C 6.96875 -1.1875 6.566406 -0.523438 5.765625 -0.078125 C 5.109375 0.273438 4.304688 0.453125 3.359375 0.453125 C 2.691406 0.453125 2.082031 0.347656 1.53125 0.140625 C 0.769531 -0.140625 0.390625 -0.554688 0.390625 -1.109375 C 0.390625 -1.609375 0.691406 -1.859375 1.296875 -1.859375 C 1.523438 -1.859375 1.859375 -1.785156 2.296875 -1.640625 C 2.734375 -1.492188 3.070312 -1.421875 3.3125 -1.421875 C 4.332031 -1.421875 4.847656 -1.628906 4.859375 -2.046875 C 4.859375 -2.296875 4.5 -2.578125 3.78125 -2.890625 C 2.75 -3.347656 2.085938 -3.679688 1.796875 -3.890625 C 1.078125 -4.390625 0.71875 -4.992188 0.71875 -5.703125 C 0.71875 -6.722656 1.257812 -7.40625 2.34375 -7.75 C 2.96875 -7.957031 3.921875 -8.0625 5.203125 -8.0625 C 5.710938 -8.0625 6.085938 -8 6.328125 -7.875 C 6.660156 -7.695312 6.828125 -7.367188 6.828125 -6.890625 C 6.828125 -5.984375 6.582031 -5.53125 6.09375 -5.53125 Z M 6.09375 -5.53125 "/></g></g></g></svg>