<svg xmlns="http://www.w3.org/2000/svg" width="150" height="40" version="1.0" viewBox="0 0 112.5 30"><defs><clipPath id="a"><path d="M1.574.281h108.871v28.75H1.575Zm0 0"/></clipPath><clipPath id="b"><path d="M8.832.281h94.352a7.262 7.262 0 0 1 7.261 7.258v14.234a7.262 7.262 0 0 1-7.262 7.258H8.833a7.262 7.262 0 0 1-5.133-2.125 7.245 7.245 0 0 1-2.125-5.133V7.54c0-1.926.762-3.773 2.125-5.133A7.262 7.262 0 0 1 8.832.281Zm0 0"/></clipPath><clipPath id="c"><path d="M1.578.281h108.867v28.75H1.578Zm0 0"/></clipPath><clipPath id="d"><path d="M8.836.281h94.344c1.925 0 3.77.766 5.132 2.125a7.262 7.262 0 0 1 2.126 5.133v14.234a7.26 7.26 0 0 1-7.258 7.254H8.836a7.252 7.252 0 0 1-7.258-7.254V7.54c0-1.926.766-3.773 2.125-5.133A7.268 7.268 0 0 1 8.836.281Zm0 0"/></clipPath></defs><g clip-path="url(#a)"><g clip-path="url(#b)"><path fill="#1d7886" d="M1.574.281h108.828v28.75H1.574Zm0 0"/></g></g><g clip-path="url(#c)"><g clip-path="url(#d)"><path fill="none" stroke="#e9a436" stroke-width="2.90324" d="M8.836.281h94.344c1.925 0 3.77.766 5.132 2.125a7.262 7.262 0 0 1 2.125 5.133v14.234a7.26 7.26 0 0 1-7.257 7.254H8.836a7.252 7.252 0 0 1-7.258-7.254V7.54c0-1.926.766-3.773 2.125-5.133A7.268 7.268 0 0 1 8.836.281Zm0 0"/></g></g><path fill="#e9a436" d="M48.805 18.783c-1.281 0-2.29-.289-3.016-.86-.625-.476-.937-1.023-.937-1.64 0-.32.093-.586.281-.797.195-.207.46-.312.797-.312.457 0 .789.234 1 .703.289.617.941.922 1.953.922.863 0 1.703-.188 2.516-.563.843-.382 1.265-.812 1.265-1.28 0-.634-.261-1.052-.781-1.25-.375-.145-1.125-.235-2.25-.266-.875-.02-1.656-.18-2.344-.485-.93-.414-1.386-1.015-1.375-1.797.008-.988.531-1.89 1.563-2.703 1.039-.82 2.18-1.234 3.422-1.234.5 0 1.109.117 1.828.344.906.28 1.36.605 1.36.968 0 .262-.09.496-.267.703-.21.23-.468.344-.78.344-.243 0-.595-.05-1.063-.156-.469-.102-.828-.156-1.078-.156a4.124 4.124 0 0 0-1.844.468c-.606.313-.906.657-.906 1.032 0 .187.086.343.265.468.188.125.461.215.828.266l1.938.094c1.113.094 2 .414 2.656.953.707.605 1.063 1.437 1.063 2.5 0 1.305-.743 2.293-2.22 2.969-1.124.507-2.417.765-3.874.765ZM62.398 15.97c-.118.93-.231 1.852-.344 2.766a22.922 22.922 0 0 0-.188 2.766.96.96 0 0 1-.297.719c-.199.195-.449.297-.75.297-.699 0-1.046-.422-1.046-1.266 0-.125.007-.25.03-.375.04-.367.11-1.094.204-2.187-.211.05-.399.078-.563.078-1.168 0-2.12-.297-2.859-.891-.805-.633-1.203-1.508-1.203-2.625 0-1.477.437-2.672 1.312-3.578.914-.938 2.157-1.399 3.72-1.39.269 0 .487.07.655.202a.972.972 0 0 1 .532-.171c.289 0 .539.109.75.328a1 1 0 0 1 .312.718c0 1.43-.09 2.965-.265 4.61Zm-2.016-3.859a3.203 3.203 0 0 0-.469-.015c-.836.136-1.465.539-1.89 1.203-.356.555-.532 1.21-.532 1.969 0 .492.149.886.453 1.187.344.336.82.496 1.438.485.351-.008.613-.204.781-.579.227-.488.348-1.363.36-2.625 0-.082.03-.617.093-1.609-.062 0-.14-.004-.234-.016ZM66.37 17.205c0 .961-.344 1.438-1.032 1.438-.305 0-.555-.102-.75-.297-.2-.188-.297-.43-.297-.735V7.158c0-.289.102-.531.313-.718.207-.176.457-.266.75-.266.3 0 .547.094.734.281a.93.93 0 0 1 .281.703Zm0 0"/></svg>