<svg xmlns="http://www.w3.org/2000/svg" xmlns:xlink="http://www.w3.org/1999/xlink" width="150" zoomAndPan="magnify" viewBox="0 0 112.5 30.000001" height="40" preserveAspectRatio="xMidYMid meet" version="1.0"><defs><g/><clipPath id="1e571e5dc6"><path d="M 1.574219 0.28125 L 110.445312 0.28125 L 110.445312 29.03125 L 1.574219 29.03125 Z M 1.574219 0.28125 " clip-rule="nonzero"/></clipPath><clipPath id="1f2a7ebe07"><path d="M 8.832031 0.28125 L 103.183594 0.28125 C 105.109375 0.28125 106.957031 1.046875 108.316406 2.40625 C 109.679688 3.765625 110.445312 5.613281 110.445312 7.539062 L 110.445312 21.773438 C 110.445312 23.699219 109.679688 25.546875 108.316406 26.90625 C 106.957031 28.265625 105.109375 29.03125 103.183594 29.03125 L 8.832031 29.03125 C 6.90625 29.03125 5.058594 28.265625 3.699219 26.90625 C 2.335938 25.546875 1.574219 23.699219 1.574219 21.773438 L 1.574219 7.539062 C 1.574219 5.613281 2.335938 3.765625 3.699219 2.40625 C 5.058594 1.046875 6.90625 0.28125 8.832031 0.28125 Z M 8.832031 0.28125 " clip-rule="nonzero"/></clipPath><clipPath id="762735d742"><path d="M 1.578125 0.28125 L 110.445312 0.28125 L 110.445312 29.03125 L 1.578125 29.03125 Z M 1.578125 0.28125 " clip-rule="nonzero"/></clipPath><clipPath id="ee5f3109db"><path d="M 8.835938 0.28125 L 103.179688 0.28125 C 105.105469 0.28125 106.949219 1.046875 108.3125 2.40625 C 109.671875 3.765625 110.4375 5.613281 110.4375 7.539062 L 110.4375 21.773438 C 110.4375 23.695312 109.671875 25.542969 108.3125 26.902344 C 106.949219 28.265625 105.105469 29.027344 103.179688 29.027344 L 8.835938 29.027344 C 6.910156 29.027344 5.066406 28.265625 3.703125 26.902344 C 2.34375 25.542969 1.578125 23.695312 1.578125 21.773438 L 1.578125 7.539062 C 1.578125 5.613281 2.34375 3.765625 3.703125 2.40625 C 5.066406 1.046875 6.910156 0.28125 8.835938 0.28125 Z M 8.835938 0.28125 " clip-rule="nonzero"/></clipPath></defs><g clip-path="url(#1e571e5dc6)"><g clip-path="url(#1f2a7ebe07)"><path fill="#1d7886" d="M 1.574219 0.28125 L 110.402344 0.28125 L 110.402344 29.03125 L 1.574219 29.03125 Z M 1.574219 0.28125 " fill-opacity="1" fill-rule="nonzero"/></g></g><g clip-path="url(#762735d742)"><g clip-path="url(#ee5f3109db)"><path stroke-linecap="butt" transform="matrix(0.725806, 0, 0, 0.725806, 1.578403, 0.280445)" fill="none" stroke-linejoin="miter" d="M 9.99927 0.00110902 L 139.984001 0.00110902 C 142.6373 0.00110902 145.177578 1.05597 147.055877 2.928887 C 148.928794 4.801804 149.983655 7.347464 149.983655 10.000763 L 149.983655 29.612569 C 149.983655 32.260486 148.928794 34.806146 147.055877 36.679063 C 145.177578 38.557362 142.6373 39.606841 139.984001 39.606841 L 9.99927 39.606841 C 7.345971 39.606841 4.805693 38.557362 2.927394 36.679063 C 1.054478 34.806146 -0.000383669 32.260486 -0.000383669 29.612569 L -0.000383669 10.000763 C -0.000383669 7.347464 1.054478 4.801804 2.927394 2.928887 C 4.805693 1.05597 7.345971 0.00110902 9.99927 0.00110902 Z M 9.99927 0.00110902 " stroke="#e9a436" stroke-width="4" stroke-opacity="1" stroke-miterlimit="4"/></g></g><g fill="#e9a436" fill-opacity="1"><g transform="translate(39.589931, 19.330644)"><g><path d="M 4.3125 0.46875 C 3.03125 0.46875 2.023438 0.179688 1.296875 -0.390625 C 0.671875 -0.867188 0.359375 -1.414062 0.359375 -2.03125 C 0.359375 -2.351562 0.453125 -2.617188 0.640625 -2.828125 C 0.835938 -3.035156 1.101562 -3.140625 1.4375 -3.140625 C 1.894531 -3.140625 2.226562 -2.90625 2.4375 -2.4375 C 2.726562 -1.820312 3.378906 -1.515625 4.390625 -1.515625 C 5.253906 -1.515625 6.09375 -1.703125 6.90625 -2.078125 C 7.75 -2.460938 8.171875 -2.890625 8.171875 -3.359375 C 8.171875 -3.992188 7.910156 -4.410156 7.390625 -4.609375 C 7.015625 -4.753906 6.265625 -4.84375 5.140625 -4.875 C 4.265625 -4.894531 3.484375 -5.054688 2.796875 -5.359375 C 1.867188 -5.773438 1.410156 -6.375 1.421875 -7.15625 C 1.429688 -8.144531 1.953125 -9.046875 2.984375 -9.859375 C 4.023438 -10.679688 5.164062 -11.09375 6.40625 -11.09375 C 6.90625 -11.09375 7.515625 -10.976562 8.234375 -10.75 C 9.140625 -10.46875 9.59375 -10.144531 9.59375 -9.78125 C 9.59375 -9.519531 9.503906 -9.285156 9.328125 -9.078125 C 9.117188 -8.847656 8.859375 -8.734375 8.546875 -8.734375 C 8.304688 -8.734375 7.953125 -8.785156 7.484375 -8.890625 C 7.015625 -8.992188 6.65625 -9.046875 6.40625 -9.046875 C 5.757812 -9.035156 5.144531 -8.878906 4.5625 -8.578125 C 3.957031 -8.265625 3.65625 -7.921875 3.65625 -7.546875 C 3.65625 -7.359375 3.742188 -7.203125 3.921875 -7.078125 C 4.109375 -6.953125 4.382812 -6.863281 4.75 -6.8125 C 5.394531 -6.78125 6.039062 -6.75 6.6875 -6.71875 C 7.800781 -6.625 8.6875 -6.304688 9.34375 -5.765625 C 10.050781 -5.160156 10.40625 -4.328125 10.40625 -3.265625 C 10.40625 -1.960938 9.664062 -0.972656 8.1875 -0.296875 C 7.0625 0.210938 5.769531 0.46875 4.3125 0.46875 Z M 4.3125 0.46875 "/></g></g></g><g fill="#e9a436" fill-opacity="1"><g transform="translate(50.323197, 19.330644)"><g><path d="M 12.4375 3.3125 C 12.070312 3.3125 10.851562 2.378906 8.78125 0.515625 C 7.9375 0.816406 7.113281 0.96875 6.3125 0.96875 C 4.707031 0.96875 3.296875 0.351562 2.078125 -0.875 C 0.878906 -2.082031 0.28125 -3.457031 0.28125 -5 C 0.28125 -6.820312 0.984375 -8.363281 2.390625 -9.625 C 3.753906 -10.84375 5.375 -11.453125 7.25 -11.453125 C 9.25 -11.453125 10.757812 -10.734375 11.78125 -9.296875 C 12.644531 -8.078125 13.078125 -6.519531 13.078125 -4.625 C 13.078125 -3.039062 12.316406 -1.679688 10.796875 -0.546875 C 11.097656 -0.273438 11.554688 0.128906 12.171875 0.671875 L 13.03125 1.34375 C 13.363281 1.65625 13.53125 1.957031 13.53125 2.25 C 13.53125 2.53125 13.425781 2.773438 13.21875 2.984375 C 13.007812 3.203125 12.75 3.3125 12.4375 3.3125 Z M 7.25 -9.375 C 5.9375 -9.375 4.8125 -8.953125 3.875 -8.109375 C 2.914062 -7.265625 2.4375 -6.226562 2.4375 -5 C 2.4375 -4.019531 2.832031 -3.125 3.625 -2.3125 C 4.425781 -1.507812 5.320312 -1.109375 6.3125 -1.109375 C 6.445312 -1.109375 6.585938 -1.117188 6.734375 -1.140625 C 5.992188 -1.847656 5.625 -2.421875 5.625 -2.859375 C 5.625 -3.160156 5.738281 -3.414062 5.96875 -3.625 C 6.1875 -3.8125 6.4375 -3.90625 6.71875 -3.90625 C 7.0625 -3.90625 7.359375 -3.75 7.609375 -3.4375 C 8.046875 -2.882812 8.539062 -2.382812 9.09375 -1.9375 C 10.300781 -2.675781 10.90625 -3.570312 10.90625 -4.625 C 10.90625 -6.007812 10.617188 -7.125 10.046875 -7.96875 C 9.398438 -8.90625 8.46875 -9.375 7.25 -9.375 Z M 7.25 -9.375 "/></g></g></g><g fill="#e9a436" fill-opacity="1"><g transform="translate(63.890957, 19.330644)"><g><path d="M 7.875 -0.28125 C 7.28125 -0.0195312 6.363281 0.210938 5.125 0.421875 C 3.976562 0.609375 3.039062 0.703125 2.3125 0.703125 C 1.082031 0.703125 0.46875 0.160156 0.46875 -0.921875 C 0.46875 -0.835938 0.515625 -1.632812 0.609375 -3.3125 C 0.742188 -5.5 0.8125 -7.9375 0.8125 -10.625 C 0.8125 -10.90625 0.910156 -11.144531 1.109375 -11.34375 C 1.304688 -11.550781 1.554688 -11.65625 1.859375 -11.65625 C 2.160156 -11.65625 2.410156 -11.550781 2.609375 -11.34375 C 2.816406 -11.144531 2.921875 -10.90625 2.921875 -10.625 C 2.921875 -7.9375 2.851562 -5.460938 2.71875 -3.203125 C 2.664062 -2.796875 2.617188 -2.175781 2.578125 -1.34375 C 3.765625 -1.363281 5.296875 -1.65625 7.171875 -2.21875 C 7.285156 -2.257812 7.394531 -2.28125 7.5 -2.28125 C 7.820312 -2.28125 8.078125 -2.160156 8.265625 -1.921875 C 8.441406 -1.722656 8.53125 -1.492188 8.53125 -1.234375 C 8.53125 -0.796875 8.3125 -0.476562 7.875 -0.28125 Z M 7.875 -0.28125 "/></g></g></g></svg>