<svg xmlns="http://www.w3.org/2000/svg" width="150" height="40" version="1.0" viewBox="0 0 112.5 30"><defs><clipPath id="a"><path d="M1.574.281h108.871v28.75H1.575Zm0 0"/></clipPath><clipPath id="b"><path d="M8.832.281h94.352a7.262 7.262 0 0 1 7.261 7.258v14.234a7.262 7.262 0 0 1-7.262 7.258H8.833a7.262 7.262 0 0 1-5.133-2.125 7.245 7.245 0 0 1-2.125-5.133V7.54c0-1.926.762-3.773 2.125-5.133A7.262 7.262 0 0 1 8.832.281Zm0 0"/></clipPath><clipPath id="c"><path d="M1.578.281h108.867v28.75H1.578Zm0 0"/></clipPath><clipPath id="d"><path d="M8.836.281h94.344c1.925 0 3.77.766 5.132 2.125a7.262 7.262 0 0 1 2.126 5.133v14.234a7.26 7.26 0 0 1-7.258 7.254H8.836a7.252 7.252 0 0 1-7.258-7.254V7.54c0-1.926.766-3.773 2.125-5.133A7.268 7.268 0 0 1 8.836.281Zm0 0"/></clipPath></defs><g clip-path="url(#a)"><g clip-path="url(#b)"><path fill="#1d7886" d="M1.574.281h108.828v28.75H1.574Zm0 0"/></g></g><g clip-path="url(#c)"><g clip-path="url(#d)"><path fill="none" stroke="#e9a436" stroke-width="2.90324" d="M8.836.281h94.344c1.925 0 3.77.766 5.132 2.125a7.262 7.262 0 0 1 2.125 5.133v14.234a7.26 7.26 0 0 1-7.257 7.254H8.836a7.252 7.252 0 0 1-7.258-7.254V7.54c0-1.926.766-3.773 2.125-5.133A7.268 7.268 0 0 1 8.836.281Zm0 0"/></g></g><path fill="#e9a436" d="M16.881 10.268c-.398 0-1.008-.031-1.828-.094-.805-.05-1.418-.07-1.844-.062.02.574.086 1.594.203 3.062.102 1.305.157 2.336.157 3.094 0 .168.015.422.046.766.04.336.063.586.063.75 0 .386-.086.73-.25 1.031-.2.387-.492.578-.875.578-.281 0-.527-.086-.734-.265a.904.904 0 0 1-.36-.735c0-.07.008-.18.031-.328a1.7 1.7 0 0 0 .047-.328c0-.227-.015-.578-.047-1.047-.03-.469-.046-.82-.046-1.062 0-.676-.055-1.594-.157-2.75-.125-1.32-.199-2.235-.218-2.735h-.391c-1.125 0-2.016-.082-2.672-.25-.562-.133-.844-.46-.844-.984 0-.258.086-.492.266-.703a.925.925 0 0 1 .828-.328c.176.011.578.054 1.203.125.5.054.906.078 1.219.078h1.375c.613-.008 1.07-.016 1.375-.016.383 0 .957.027 1.719.078.77.055 1.347.078 1.734.078.3 0 .55.102.75.297.207.188.313.43.313.719 0 .293-.106.539-.313.734-.2.2-.45.297-.75.297ZM25.152 19.83c-.23 0-.601-.25-1.11-.75-.46.22-.866.383-1.218.5-.355.114-.656.173-.906.173-1.211 0-2.121-.325-2.735-.97-.605-.655-.906-1.632-.906-2.937 0-1.207.445-2.242 1.344-3.11.894-.862 1.969-1.296 3.219-1.296.476 0 1.035.137 1.671.406.758.324 1.141.703 1.141 1.14 0 .18-.058.34-.172.485-.054.2-.094.45-.125.75-.023.305-.031.664-.031 1.078 0 .961.066 1.653.203 2.079.008.042.125.304.344.78.195.438.297.684.297.735a.848.848 0 0 1-.313.672 1.03 1.03 0 0 1-.703.266Zm-1.875-5.187c0-.156.008-.336.031-.547.02-.218.055-.453.11-.703-.106-.05-.2-.086-.282-.11a.503.503 0 0 0-.187-.046c-.688 0-1.293.273-1.813.812-.511.543-.765 1.164-.765 1.86 0 .68.117 1.187.36 1.531.25.336.613.5 1.093.5.312 0 .61-.047.89-.14a2.45 2.45 0 0 0 .782-.47c-.149-1.195-.219-2.093-.219-2.687ZM28.957 10.237c-.324 0-.606-.102-.844-.313a1.03 1.03 0 0 1-.36-.796c0-.313.118-.579.36-.797.238-.22.52-.328.844-.328.32 0 .598.109.828.328.238.218.36.484.36.797 0 .312-.122.578-.36.796-.23.211-.508.313-.828.313Zm.64 5.547c0 .293.004.758.016 1.39.02.637.031 1.094.031 1.375 0 .293-.101.54-.296.735-.2.187-.45.281-.75.281-.305 0-.555-.094-.75-.281a1.02 1.02 0 0 1-.282-.735c0-.28-.011-.738-.03-1.375a39.458 39.458 0 0 1-.032-1.39c0-.446.023-1.008.078-1.688.05-.676.078-1.238.078-1.687 0-.29.098-.531.297-.719.195-.187.445-.281.75-.281.3 0 .547.094.734.281a.96.96 0 0 1 .297.719c0 .449-.027 1.011-.078 1.687-.043.68-.062 1.242-.062 1.688ZM33.89 18.221c0 .961-.344 1.438-1.032 1.438-.305 0-.555-.102-.75-.297-.2-.188-.297-.43-.297-.734V8.174c0-.289.102-.53.313-.718.207-.176.457-.266.75-.266.3 0 .547.094.734.281a.93.93 0 0 1 .281.703ZM45.474 12.674a103.482 103.482 0 0 1-1.594 5.375c-.149.461-.39.93-.735 1.407a1.107 1.107 0 0 1-.968.484c-.637-.012-1.137-.617-1.5-1.828-.137-.469-.297-1.332-.485-2.594-.105.219-.172.367-.203.438-.262.625-.64 1.593-1.14 2.906-.075.219-.188.39-.344.516-.211.332-.524.507-.938.53-.242.009-.492-.202-.75-.64-.281-.437-.508-1-.672-1.687-.156-.625-.402-1.989-.734-4.094-.074-.445-.11-.8-.11-1.063 0-.27.102-.5.313-.687.219-.188.473-.281.766-.281.539 0 .875.273 1 .812.062.281.117.633.172 1.047.05.594.086.945.109 1.047.063.398.16 1.039.297 1.922.375-1.02.805-2.29 1.297-3.813.195-.656.582-.984 1.156-.984.563 0 .93.367 1.11 1.094.124.523.253 1.195.39 2.015.207 1.188.336 1.899.39 2.125.04-.156.438-1.687 1.188-4.593.102-.438.414-.657.938-.657.289 0 .547.094.765.282a.888.888 0 0 1 .328.703.733.733 0 0 1-.046.218ZM48.126 10.237c-.325 0-.606-.102-.844-.313a1.03 1.03 0 0 1-.36-.796c0-.313.118-.579.36-.797.238-.22.52-.328.844-.328.32 0 .597.109.828.328.238.218.36.484.36.797 0 .312-.122.578-.36.796-.23.211-.508.313-.828.313Zm.64 5.547c0 .293.004.758.016 1.39.02.637.031 1.094.031 1.375 0 .293-.101.54-.297.735-.199.187-.449.281-.75.281-.304 0-.554-.094-.75-.281a1.02 1.02 0 0 1-.28-.735c0-.28-.013-.738-.032-1.375a39.458 39.458 0 0 1-.031-1.39c0-.446.023-1.008.078-1.688.05-.676.078-1.238.078-1.687 0-.29.097-.531.297-.719.195-.187.445-.281.75-.281.3 0 .547.094.734.281a.96.96 0 0 1 .297.719c0 .449-.027 1.011-.078 1.687-.043.68-.063 1.242-.063 1.688ZM56.699 19.862c-.625 0-.977-.305-1.047-.906-.063-.52-.133-1.04-.203-1.563a12.055 12.055 0 0 1-.094-2.234c.02-.32.031-.551.031-.688 0-.031.004-.117.016-.265.008-.145.015-.258.015-.344 0-.414-.109-.625-.328-.625-.46 0-.914.273-1.359.812-.45.543-.797 1.227-1.047 2.047-.012.168-.039.39-.078.672-.031.23-.047.453-.047.672 0 .137.016.352.047.64.039.282.062.493.062.626a.954.954 0 0 1-.296.718c-.2.188-.454.282-.766.282-.305 0-.555-.094-.75-.282a.971.971 0 0 1-.281-.718 6.32 6.32 0 0 0-.047-.625 6.641 6.641 0 0 1-.047-.641c0-.488.031-1.16.094-2.016.07-.863.11-1.539.11-2.03 0-.145-.013-.368-.032-.673-.012-.3-.016-.523-.016-.672a.88.88 0 0 1 .297-.687c.207-.188.461-.281.766-.281.656 0 1.008.398 1.062 1.187v.078c.738-.738 1.516-1.11 2.328-1.11.957 0 1.614.4 1.97 1.188.25.543.374 1.344.374 2.407v.53c-.012.231-.016.392-.016.485 0 .399.051.907.157 1.532.113.617.172 1.117.172 1.5a.883.883 0 0 1-.313.703c-.2.187-.445.28-.734.28ZM64.38 11.737c.062-1.719.14-2.906.234-3.563.082-.593.406-.89.969-.89.3 0 .539.094.719.281a.954.954 0 0 1 .28.703c0 .73-.058 1.82-.171 3.266-.117 1.449-.172 2.539-.172 3.265 0 1.782.055 2.98.172 3.594a.89.89 0 0 1-.281.906 1.03 1.03 0 0 1-.703.266.878.878 0 0 1-.829-.5c-.343.2-.699.348-1.062.453a4.254 4.254 0 0 1-1.14.156c-1.137 0-2.075-.359-2.813-1.078-.762-.738-1.14-1.676-1.14-2.812 0-1.352.378-2.446 1.14-3.281.77-.833 1.77-1.25 3-1.25.383 0 .722.042 1.015.125.301.074.563.195.782.359Zm-.157 2.375a1.737 1.737 0 0 0-.656-.703c-.262-.156-.578-.235-.953-.235-.742 0-1.297.215-1.672.641-.375.43-.562 1.074-.562 1.938 0 .542.195 1.011.593 1.406.407.386.88.578 1.422.578.383 0 .676-.047.875-.14.133-.063.368-.223.703-.485.082-.07.165-.149.25-.234-.011-.239-.011-1.16 0-2.766ZM82.216 11.284c-.45 0-.781-.239-1-.719-.105-.227-.21-.363-.312-.406-.075-.04-.274-.063-.594-.063-.637 0-1.371.496-2.203 1.485-1.157 1.386-1.735 2.68-1.735 3.875 0 .554.18 1.027.547 1.422a1.75 1.75 0 0 0 1.328.578c.5 0 1.004-.13 1.516-.391.176-.094.555-.336 1.14-.734.395-.258.696-.391.907-.391.3 0 .555.11.765.328.196.211.297.45.297.719 0 .293-.132.547-.39.766-1.387 1.18-2.797 1.765-4.235 1.765-1.136 0-2.093-.414-2.875-1.25a3.943 3.943 0 0 1-1.125-2.812c0-1.688.739-3.41 2.22-5.172 1.25-1.489 2.53-2.235 3.843-2.235.226 0 .43.012.61.032.175.011.331.03.468.062.219-.219.484-.328.797-.328.52 0 .836.297.953.89.082.419.125.907.125 1.47a1.2 1.2 0 0 1-.219.703c-.187.273-.465.406-.828.406ZM87.762 19.8c-1.282 0-2.29-.29-3.016-.86-.625-.477-.938-1.023-.938-1.64 0-.32.094-.587.282-.797.195-.208.46-.313.797-.313.457 0 .789.234 1 .703.289.617.941.922 1.953.922.863 0 1.703-.187 2.515-.562.844-.383 1.266-.813 1.266-1.282 0-.633-.262-1.05-.781-1.25-.375-.144-1.125-.234-2.25-.265-.875-.02-1.657-.18-2.344-.485-.93-.414-1.387-1.015-1.375-1.797.008-.988.531-1.89 1.562-2.703 1.04-.82 2.18-1.234 3.422-1.234.5 0 1.11.117 1.828.344.907.28 1.36.605 1.36.968 0 .262-.09.496-.266.704-.21.23-.469.343-.781.343-.242 0-.594-.05-1.063-.156-.468-.102-.828-.156-1.078-.156a4.124 4.124 0 0 0-1.843.469c-.606.312-.907.656-.907 1.03 0 .188.086.345.266.47.187.125.46.214.828.265l1.938.094c1.113.094 2 .414 2.656.953.707.605 1.062 1.438 1.062 2.5 0 1.305-.742 2.293-2.218 2.969-1.125.508-2.418.765-3.875.765ZM98.495 19.8c-1.281 0-2.29-.29-3.016-.86-.625-.477-.937-1.023-.937-1.64 0-.32.094-.587.281-.797.195-.208.46-.313.797-.313.457 0 .789.234 1 .703.289.617.941.922 1.953.922.863 0 1.703-.187 2.516-.562.843-.383 1.265-.813 1.265-1.282 0-.633-.261-1.05-.781-1.25-.375-.144-1.125-.234-2.25-.265-.875-.02-1.656-.18-2.344-.485-.93-.414-1.386-1.015-1.375-1.797.008-.988.532-1.89 1.563-2.703 1.039-.82 2.18-1.234 3.422-1.234.5 0 1.109.117 1.828.344.906.28 1.36.605 1.36.968 0 .262-.09.496-.266.704-.211.23-.47.343-.782.343-.242 0-.593-.05-1.062-.156-.469-.102-.828-.156-1.078-.156a4.124 4.124 0 0 0-1.844.469c-.606.312-.906.656-.906 1.03 0 .188.086.345.265.47.188.125.461.214.828.265l1.938.094c1.113.094 2 .414 2.656.953.707.605 1.063 1.438 1.063 2.5 0 1.305-.743 2.293-2.22 2.969-1.124.508-2.417.765-3.874.765Zm0 0"/></svg>