<svg xmlns="http://www.w3.org/2000/svg" xmlns:xlink="http://www.w3.org/1999/xlink" width="150" zoomAndPan="magnify" viewBox="0 0 112.5 30.000001" height="40" preserveAspectRatio="xMidYMid meet" version="1.0"><defs><g/><clipPath id="d9e9d91fe2"><path d="M 1.574219 0.28125 L 110.445312 0.28125 L 110.445312 29.03125 L 1.574219 29.03125 Z M 1.574219 0.28125 " clip-rule="nonzero"/></clipPath><clipPath id="09d3cf8a23"><path d="M 8.832031 0.28125 L 103.183594 0.28125 C 105.109375 0.28125 106.957031 1.046875 108.316406 2.40625 C 109.679688 3.765625 110.445312 5.613281 110.445312 7.539062 L 110.445312 21.773438 C 110.445312 23.699219 109.679688 25.546875 108.316406 26.90625 C 106.957031 28.265625 105.109375 29.03125 103.183594 29.03125 L 8.832031 29.03125 C 6.90625 29.03125 5.058594 28.265625 3.699219 26.90625 C 2.335938 25.546875 1.574219 23.699219 1.574219 21.773438 L 1.574219 7.539062 C 1.574219 5.613281 2.335938 3.765625 3.699219 2.40625 C 5.058594 1.046875 6.90625 0.28125 8.832031 0.28125 Z M 8.832031 0.28125 " clip-rule="nonzero"/></clipPath><clipPath id="5143b1d8c2"><path d="M 1.578125 0.28125 L 110.445312 0.28125 L 110.445312 29.03125 L 1.578125 29.03125 Z M 1.578125 0.28125 " clip-rule="nonzero"/></clipPath><clipPath id="fb2b9efcb5"><path d="M 8.835938 0.28125 L 103.179688 0.28125 C 105.105469 0.28125 106.949219 1.046875 108.3125 2.40625 C 109.671875 3.765625 110.4375 5.613281 110.4375 7.539062 L 110.4375 21.773438 C 110.4375 23.695312 109.671875 25.542969 108.3125 26.902344 C 106.949219 28.265625 105.105469 29.027344 103.179688 29.027344 L 8.835938 29.027344 C 6.910156 29.027344 5.066406 28.265625 3.703125 26.902344 C 2.34375 25.542969 1.578125 23.695312 1.578125 21.773438 L 1.578125 7.539062 C 1.578125 5.613281 2.34375 3.765625 3.703125 2.40625 C 5.066406 1.046875 6.910156 0.28125 8.835938 0.28125 Z M 8.835938 0.28125 " clip-rule="nonzero"/></clipPath></defs><g clip-path="url(#d9e9d91fe2)"><g clip-path="url(#09d3cf8a23)"><path fill="#1d7886" d="M 1.574219 0.28125 L 110.402344 0.28125 L 110.402344 29.03125 L 1.574219 29.03125 Z M 1.574219 0.28125 " fill-opacity="1" fill-rule="nonzero"/></g></g><g clip-path="url(#5143b1d8c2)"><g clip-path="url(#fb2b9efcb5)"><path stroke-linecap="butt" transform="matrix(0.725806, 0, 0, 0.725806, 1.578403, 0.280445)" fill="none" stroke-linejoin="miter" d="M 9.99927 0.00110902 L 139.984001 0.00110902 C 142.6373 0.00110902 145.177578 1.05597 147.055877 2.928887 C 148.928794 4.801804 149.983655 7.347464 149.983655 10.000763 L 149.983655 29.612569 C 149.983655 32.260486 148.928794 34.806146 147.055877 36.679063 C 145.177578 38.557362 142.6373 39.606841 139.984001 39.606841 L 9.99927 39.606841 C 7.345971 39.606841 4.805693 38.557362 2.927394 36.679063 C 1.054478 34.806146 -0.000383669 32.260486 -0.000383669 29.612569 L -0.000383669 10.000763 C -0.000383669 7.347464 1.054478 4.801804 2.927394 2.928887 C 4.805693 1.05597 7.345971 0.00110902 9.99927 0.00110902 Z M 9.99927 0.00110902 " stroke="#e9a436" stroke-width="4" stroke-opacity="1" stroke-miterlimit="4"/></g></g><g fill="#e9a436" fill-opacity="1"><g transform="translate(7.084172, 19.330644)"><g><path d="M 9.796875 -9.0625 C 9.398438 -9.0625 8.789062 -9.09375 7.96875 -9.15625 C 7.164062 -9.207031 6.550781 -9.226562 6.125 -9.21875 C 6.144531 -8.644531 6.210938 -7.625 6.328125 -6.15625 C 6.429688 -4.851562 6.484375 -3.820312 6.484375 -3.0625 C 6.484375 -2.894531 6.5 -2.640625 6.53125 -2.296875 C 6.570312 -1.960938 6.59375 -1.710938 6.59375 -1.546875 C 6.59375 -1.160156 6.507812 -0.816406 6.34375 -0.515625 C 6.144531 -0.128906 5.851562 0.0625 5.46875 0.0625 C 5.1875 0.0625 4.941406 -0.0234375 4.734375 -0.203125 C 4.492188 -0.398438 4.375 -0.644531 4.375 -0.9375 C 4.375 -1.007812 4.382812 -1.117188 4.40625 -1.265625 C 4.4375 -1.410156 4.453125 -1.519531 4.453125 -1.59375 C 4.453125 -1.820312 4.4375 -2.171875 4.40625 -2.640625 C 4.375 -3.109375 4.359375 -3.460938 4.359375 -3.703125 C 4.359375 -4.378906 4.304688 -5.296875 4.203125 -6.453125 C 4.078125 -7.773438 4.003906 -8.6875 3.984375 -9.1875 L 3.59375 -9.1875 C 2.46875 -9.1875 1.578125 -9.269531 0.921875 -9.4375 C 0.359375 -9.570312 0.078125 -9.898438 0.078125 -10.421875 C 0.078125 -10.679688 0.164062 -10.914062 0.34375 -11.125 C 0.5625 -11.375 0.835938 -11.484375 1.171875 -11.453125 C 1.347656 -11.441406 1.75 -11.398438 2.375 -11.328125 C 2.875 -11.273438 3.28125 -11.25 3.59375 -11.25 C 3.894531 -11.25 4.351562 -11.25 4.96875 -11.25 C 5.582031 -11.257812 6.039062 -11.265625 6.34375 -11.265625 C 6.726562 -11.265625 7.300781 -11.238281 8.0625 -11.1875 C 8.832031 -11.132812 9.410156 -11.109375 9.796875 -11.109375 C 10.097656 -11.109375 10.347656 -11.007812 10.546875 -10.8125 C 10.753906 -10.625 10.859375 -10.382812 10.859375 -10.09375 C 10.859375 -9.800781 10.753906 -9.554688 10.546875 -9.359375 C 10.347656 -9.160156 10.097656 -9.0625 9.796875 -9.0625 Z M 9.796875 -9.0625 "/></g></g></g><g fill="#e9a436" fill-opacity="1"><g transform="translate(17.855236, 19.330644)"><g><path d="M 7.296875 0.5 C 7.066406 0.5 6.695312 0.25 6.1875 -0.25 C 5.726562 -0.03125 5.320312 0.132812 4.96875 0.25 C 4.613281 0.363281 4.3125 0.421875 4.0625 0.421875 C 2.851562 0.421875 1.941406 0.0976562 1.328125 -0.546875 C 0.722656 -1.203125 0.421875 -2.179688 0.421875 -3.484375 C 0.421875 -4.691406 0.867188 -5.726562 1.765625 -6.59375 C 2.660156 -7.457031 3.734375 -7.890625 4.984375 -7.890625 C 5.460938 -7.890625 6.019531 -7.753906 6.65625 -7.484375 C 7.414062 -7.160156 7.796875 -6.78125 7.796875 -6.34375 C 7.796875 -6.164062 7.738281 -6.003906 7.625 -5.859375 C 7.570312 -5.660156 7.53125 -5.410156 7.5 -5.109375 C 7.476562 -4.804688 7.46875 -4.445312 7.46875 -4.03125 C 7.46875 -3.070312 7.535156 -2.378906 7.671875 -1.953125 C 7.679688 -1.910156 7.796875 -1.648438 8.015625 -1.171875 C 8.210938 -0.734375 8.3125 -0.488281 8.3125 -0.4375 C 8.3125 -0.164062 8.207031 0.0546875 8 0.234375 C 7.800781 0.410156 7.566406 0.5 7.296875 0.5 Z M 5.421875 -4.6875 C 5.421875 -4.84375 5.429688 -5.023438 5.453125 -5.234375 C 5.472656 -5.453125 5.507812 -5.6875 5.5625 -5.9375 C 5.457031 -5.988281 5.363281 -6.023438 5.28125 -6.046875 C 5.207031 -6.078125 5.144531 -6.09375 5.09375 -6.09375 C 4.40625 -6.09375 3.800781 -5.820312 3.28125 -5.28125 C 2.769531 -4.738281 2.515625 -4.117188 2.515625 -3.421875 C 2.515625 -2.742188 2.632812 -2.234375 2.875 -1.890625 C 3.125 -1.554688 3.488281 -1.390625 3.96875 -1.390625 C 4.28125 -1.390625 4.578125 -1.4375 4.859375 -1.53125 C 5.140625 -1.632812 5.398438 -1.789062 5.640625 -2 C 5.492188 -3.195312 5.421875 -4.09375 5.421875 -4.6875 Z M 5.421875 -4.6875 "/></g></g></g><g fill="#e9a436" fill-opacity="1"><g transform="translate(26.456966, 19.330644)"><g><path d="M 2.5 -9.09375 C 2.175781 -9.09375 1.894531 -9.195312 1.65625 -9.40625 C 1.414062 -9.625 1.296875 -9.890625 1.296875 -10.203125 C 1.296875 -10.515625 1.414062 -10.78125 1.65625 -11 C 1.894531 -11.21875 2.175781 -11.328125 2.5 -11.328125 C 2.820312 -11.328125 3.097656 -11.21875 3.328125 -11 C 3.566406 -10.78125 3.6875 -10.515625 3.6875 -10.203125 C 3.6875 -9.890625 3.566406 -9.625 3.328125 -9.40625 C 3.097656 -9.195312 2.820312 -9.09375 2.5 -9.09375 Z M 3.140625 -3.546875 C 3.140625 -3.253906 3.144531 -2.789062 3.15625 -2.15625 C 3.175781 -1.519531 3.1875 -1.0625 3.1875 -0.78125 C 3.1875 -0.488281 3.085938 -0.242188 2.890625 -0.046875 C 2.691406 0.140625 2.441406 0.234375 2.140625 0.234375 C 1.835938 0.234375 1.585938 0.140625 1.390625 -0.046875 C 1.203125 -0.242188 1.109375 -0.488281 1.109375 -0.78125 C 1.109375 -1.0625 1.097656 -1.519531 1.078125 -2.15625 C 1.054688 -2.789062 1.046875 -3.253906 1.046875 -3.546875 C 1.046875 -3.992188 1.070312 -4.554688 1.125 -5.234375 C 1.175781 -5.910156 1.203125 -6.472656 1.203125 -6.921875 C 1.203125 -7.210938 1.300781 -7.453125 1.5 -7.640625 C 1.695312 -7.828125 1.945312 -7.921875 2.25 -7.921875 C 2.550781 -7.921875 2.796875 -7.828125 2.984375 -7.640625 C 3.179688 -7.453125 3.28125 -7.210938 3.28125 -6.921875 C 3.28125 -6.472656 3.253906 -5.910156 3.203125 -5.234375 C 3.160156 -4.554688 3.140625 -3.992188 3.140625 -3.546875 Z M 3.140625 -3.546875 "/></g></g></g><g fill="#e9a436" fill-opacity="1"><g transform="translate(30.795625, 19.330644)"><g><path d="M 3.09375 -1.109375 C 3.09375 -0.148438 2.75 0.328125 2.0625 0.328125 C 1.757812 0.328125 1.507812 0.226562 1.3125 0.03125 C 1.113281 -0.15625 1.015625 -0.398438 1.015625 -0.703125 L 1.015625 -11.15625 C 1.015625 -11.445312 1.117188 -11.6875 1.328125 -11.875 C 1.535156 -12.050781 1.785156 -12.140625 2.078125 -12.140625 C 2.378906 -12.140625 2.625 -12.046875 2.8125 -11.859375 C 3 -11.679688 3.09375 -11.445312 3.09375 -11.15625 Z M 3.09375 -1.109375 "/></g></g></g><g fill="#e9a436" fill-opacity="1"><g transform="translate(35.036026, 19.330644)"><g><path d="M 10.4375 -6.65625 C 9.90625 -4.6875 9.375 -2.894531 8.84375 -1.28125 C 8.695312 -0.820312 8.453125 -0.351562 8.109375 0.125 C 7.867188 0.457031 7.546875 0.617188 7.140625 0.609375 C 6.503906 0.597656 6.003906 -0.0078125 5.640625 -1.21875 C 5.503906 -1.6875 5.34375 -2.550781 5.15625 -3.8125 C 5.050781 -3.59375 4.984375 -3.445312 4.953125 -3.375 C 4.691406 -2.75 4.3125 -1.78125 3.8125 -0.46875 C 3.738281 -0.25 3.625 -0.078125 3.46875 0.046875 C 3.257812 0.378906 2.945312 0.554688 2.53125 0.578125 C 2.289062 0.585938 2.039062 0.375 1.78125 -0.0625 C 1.5 -0.5 1.273438 -1.0625 1.109375 -1.75 C 0.953125 -2.375 0.707031 -3.738281 0.375 -5.84375 C 0.300781 -6.289062 0.265625 -6.644531 0.265625 -6.90625 C 0.265625 -7.175781 0.367188 -7.40625 0.578125 -7.59375 C 0.796875 -7.78125 1.050781 -7.875 1.34375 -7.875 C 1.882812 -7.875 2.21875 -7.601562 2.34375 -7.0625 C 2.40625 -6.78125 2.460938 -6.429688 2.515625 -6.015625 C 2.566406 -5.421875 2.601562 -5.070312 2.625 -4.96875 C 2.6875 -4.570312 2.785156 -3.929688 2.921875 -3.046875 C 3.296875 -4.066406 3.726562 -5.335938 4.21875 -6.859375 C 4.414062 -7.515625 4.800781 -7.84375 5.375 -7.84375 C 5.9375 -7.84375 6.304688 -7.476562 6.484375 -6.75 C 6.609375 -6.226562 6.738281 -5.554688 6.875 -4.734375 C 7.082031 -3.546875 7.210938 -2.835938 7.265625 -2.609375 C 7.304688 -2.765625 7.703125 -4.296875 8.453125 -7.203125 C 8.554688 -7.640625 8.867188 -7.859375 9.390625 -7.859375 C 9.679688 -7.859375 9.9375 -7.765625 10.15625 -7.578125 C 10.375 -7.390625 10.484375 -7.15625 10.484375 -6.875 C 10.484375 -6.820312 10.46875 -6.75 10.4375 -6.65625 Z M 10.4375 -6.65625 "/></g></g></g><g fill="#e9a436" fill-opacity="1"><g transform="translate(45.625683, 19.330644)"><g><path d="M 2.5 -9.09375 C 2.175781 -9.09375 1.894531 -9.195312 1.65625 -9.40625 C 1.414062 -9.625 1.296875 -9.890625 1.296875 -10.203125 C 1.296875 -10.515625 1.414062 -10.78125 1.65625 -11 C 1.894531 -11.21875 2.175781 -11.328125 2.5 -11.328125 C 2.820312 -11.328125 3.097656 -11.21875 3.328125 -11 C 3.566406 -10.78125 3.6875 -10.515625 3.6875 -10.203125 C 3.6875 -9.890625 3.566406 -9.625 3.328125 -9.40625 C 3.097656 -9.195312 2.820312 -9.09375 2.5 -9.09375 Z M 3.140625 -3.546875 C 3.140625 -3.253906 3.144531 -2.789062 3.15625 -2.15625 C 3.175781 -1.519531 3.1875 -1.0625 3.1875 -0.78125 C 3.1875 -0.488281 3.085938 -0.242188 2.890625 -0.046875 C 2.691406 0.140625 2.441406 0.234375 2.140625 0.234375 C 1.835938 0.234375 1.585938 0.140625 1.390625 -0.046875 C 1.203125 -0.242188 1.109375 -0.488281 1.109375 -0.78125 C 1.109375 -1.0625 1.097656 -1.519531 1.078125 -2.15625 C 1.054688 -2.789062 1.046875 -3.253906 1.046875 -3.546875 C 1.046875 -3.992188 1.070312 -4.554688 1.125 -5.234375 C 1.175781 -5.910156 1.203125 -6.472656 1.203125 -6.921875 C 1.203125 -7.210938 1.300781 -7.453125 1.5 -7.640625 C 1.695312 -7.828125 1.945312 -7.921875 2.25 -7.921875 C 2.550781 -7.921875 2.796875 -7.828125 2.984375 -7.640625 C 3.179688 -7.453125 3.28125 -7.210938 3.28125 -6.921875 C 3.28125 -6.472656 3.253906 -5.910156 3.203125 -5.234375 C 3.160156 -4.554688 3.140625 -3.992188 3.140625 -3.546875 Z M 3.140625 -3.546875 "/></g></g></g><g fill="#e9a436" fill-opacity="1"><g transform="translate(49.964341, 19.330644)"><g><path d="M 6.734375 0.53125 C 6.109375 0.53125 5.757812 0.226562 5.6875 -0.375 C 5.625 -0.894531 5.554688 -1.414062 5.484375 -1.9375 C 5.410156 -2.5 5.375 -3.023438 5.375 -3.515625 C 5.375 -3.640625 5.378906 -3.859375 5.390625 -4.171875 C 5.410156 -4.492188 5.421875 -4.722656 5.421875 -4.859375 C 5.421875 -4.890625 5.425781 -4.976562 5.4375 -5.125 C 5.445312 -5.269531 5.453125 -5.382812 5.453125 -5.46875 C 5.453125 -5.882812 5.34375 -6.09375 5.125 -6.09375 C 4.664062 -6.09375 4.210938 -5.820312 3.765625 -5.28125 C 3.316406 -4.738281 2.96875 -4.054688 2.71875 -3.234375 C 2.707031 -3.066406 2.679688 -2.84375 2.640625 -2.5625 C 2.609375 -2.332031 2.59375 -2.109375 2.59375 -1.890625 C 2.59375 -1.753906 2.609375 -1.539062 2.640625 -1.25 C 2.679688 -0.96875 2.703125 -0.757812 2.703125 -0.625 C 2.703125 -0.332031 2.601562 -0.09375 2.40625 0.09375 C 2.207031 0.28125 1.953125 0.375 1.640625 0.375 C 1.335938 0.375 1.085938 0.28125 0.890625 0.09375 C 0.703125 -0.09375 0.609375 -0.332031 0.609375 -0.625 C 0.609375 -0.757812 0.59375 -0.96875 0.5625 -1.25 C 0.53125 -1.539062 0.515625 -1.753906 0.515625 -1.890625 C 0.515625 -2.378906 0.546875 -3.050781 0.609375 -3.90625 C 0.679688 -4.769531 0.71875 -5.445312 0.71875 -5.9375 C 0.71875 -6.082031 0.707031 -6.304688 0.6875 -6.609375 C 0.675781 -6.910156 0.671875 -7.132812 0.671875 -7.28125 C 0.671875 -7.5625 0.769531 -7.789062 0.96875 -7.96875 C 1.175781 -8.15625 1.429688 -8.25 1.734375 -8.25 C 2.390625 -8.25 2.742188 -7.851562 2.796875 -7.0625 L 2.796875 -6.984375 C 3.535156 -7.722656 4.3125 -8.09375 5.125 -8.09375 C 6.082031 -8.09375 6.738281 -7.695312 7.09375 -6.90625 C 7.34375 -6.363281 7.46875 -5.5625 7.46875 -4.5 L 7.46875 -3.96875 C 7.457031 -3.738281 7.453125 -3.578125 7.453125 -3.484375 C 7.453125 -3.085938 7.503906 -2.578125 7.609375 -1.953125 C 7.722656 -1.335938 7.78125 -0.835938 7.78125 -0.453125 C 7.78125 -0.160156 7.675781 0.0703125 7.46875 0.25 C 7.269531 0.4375 7.023438 0.53125 6.734375 0.53125 Z M 6.734375 0.53125 "/></g></g></g><g fill="#e9a436" fill-opacity="1"><g transform="translate(58.067201, 19.330644)"><g><path d="M 6.3125 -7.59375 C 6.375 -9.3125 6.453125 -10.5 6.546875 -11.15625 C 6.628906 -11.75 6.953125 -12.046875 7.515625 -12.046875 C 7.816406 -12.046875 8.054688 -11.953125 8.234375 -11.765625 C 8.421875 -11.578125 8.515625 -11.34375 8.515625 -11.0625 C 8.515625 -10.332031 8.457031 -9.242188 8.34375 -7.796875 C 8.226562 -6.347656 8.171875 -5.257812 8.171875 -4.53125 C 8.171875 -2.75 8.226562 -1.550781 8.34375 -0.9375 C 8.363281 -0.863281 8.375 -0.789062 8.375 -0.71875 C 8.375 -0.445312 8.269531 -0.21875 8.0625 -0.03125 C 7.863281 0.144531 7.628906 0.234375 7.359375 0.234375 C 6.984375 0.234375 6.707031 0.0664062 6.53125 -0.265625 C 6.1875 -0.0664062 5.832031 0.0820312 5.46875 0.1875 C 5.101562 0.289062 4.722656 0.34375 4.328125 0.34375 C 3.191406 0.34375 2.253906 -0.015625 1.515625 -0.734375 C 0.753906 -1.472656 0.375 -2.410156 0.375 -3.546875 C 0.375 -4.898438 0.753906 -5.992188 1.515625 -6.828125 C 2.285156 -7.660156 3.285156 -8.078125 4.515625 -8.078125 C 4.898438 -8.078125 5.238281 -8.035156 5.53125 -7.953125 C 5.832031 -7.878906 6.09375 -7.757812 6.3125 -7.59375 Z M 6.15625 -5.21875 C 5.988281 -5.53125 5.769531 -5.765625 5.5 -5.921875 C 5.238281 -6.078125 4.921875 -6.15625 4.546875 -6.15625 C 3.804688 -6.15625 3.25 -5.941406 2.875 -5.515625 C 2.5 -5.085938 2.3125 -4.441406 2.3125 -3.578125 C 2.3125 -3.035156 2.507812 -2.566406 2.90625 -2.171875 C 3.3125 -1.785156 3.785156 -1.59375 4.328125 -1.59375 C 4.710938 -1.59375 5.003906 -1.640625 5.203125 -1.734375 C 5.335938 -1.796875 5.570312 -1.957031 5.90625 -2.21875 C 5.988281 -2.289062 6.070312 -2.367188 6.15625 -2.453125 C 6.144531 -2.691406 6.144531 -3.613281 6.15625 -5.21875 Z M 6.15625 -5.21875 "/></g></g></g><g fill="#e9a436" fill-opacity="1"><g transform="translate(67.160248, 19.330644)"><g/></g></g><g fill="#e9a436" fill-opacity="1"><g transform="translate(73.872319, 19.330644)"><g><path d="M 8.34375 -8.046875 C 7.894531 -8.046875 7.5625 -8.285156 7.34375 -8.765625 C 7.238281 -8.992188 7.132812 -9.128906 7.03125 -9.171875 C 6.957031 -9.210938 6.757812 -9.234375 6.4375 -9.234375 C 5.800781 -9.234375 5.066406 -8.738281 4.234375 -7.75 C 3.078125 -6.363281 2.5 -5.070312 2.5 -3.875 C 2.5 -3.320312 2.679688 -2.847656 3.046875 -2.453125 C 3.410156 -2.066406 3.851562 -1.875 4.375 -1.875 C 4.875 -1.875 5.378906 -2.003906 5.890625 -2.265625 C 6.066406 -2.359375 6.445312 -2.601562 7.03125 -3 C 7.425781 -3.257812 7.726562 -3.390625 7.9375 -3.390625 C 8.238281 -3.390625 8.492188 -3.28125 8.703125 -3.0625 C 8.898438 -2.851562 9 -2.613281 9 -2.34375 C 9 -2.050781 8.867188 -1.796875 8.609375 -1.578125 C 7.222656 -0.398438 5.8125 0.1875 4.375 0.1875 C 3.238281 0.1875 2.28125 -0.226562 1.5 -1.0625 C 0.75 -1.851562 0.375 -2.789062 0.375 -3.875 C 0.375 -5.5625 1.113281 -7.285156 2.59375 -9.046875 C 3.84375 -10.535156 5.125 -11.28125 6.4375 -11.28125 C 6.664062 -11.28125 6.867188 -11.269531 7.046875 -11.25 C 7.222656 -11.238281 7.378906 -11.21875 7.515625 -11.1875 C 7.734375 -11.40625 8 -11.515625 8.3125 -11.515625 C 8.832031 -11.515625 9.148438 -11.21875 9.265625 -10.625 C 9.347656 -10.207031 9.390625 -9.71875 9.390625 -9.15625 C 9.390625 -8.894531 9.316406 -8.660156 9.171875 -8.453125 C 8.984375 -8.179688 8.707031 -8.046875 8.34375 -8.046875 Z M 8.34375 -8.046875 "/></g></g></g><g fill="#e9a436" fill-opacity="1"><g transform="translate(83.449119, 19.330644)"><g><path d="M 4.3125 0.46875 C 3.03125 0.46875 2.023438 0.179688 1.296875 -0.390625 C 0.671875 -0.867188 0.359375 -1.414062 0.359375 -2.03125 C 0.359375 -2.351562 0.453125 -2.617188 0.640625 -2.828125 C 0.835938 -3.035156 1.101562 -3.140625 1.4375 -3.140625 C 1.894531 -3.140625 2.226562 -2.90625 2.4375 -2.4375 C 2.726562 -1.820312 3.378906 -1.515625 4.390625 -1.515625 C 5.253906 -1.515625 6.09375 -1.703125 6.90625 -2.078125 C 7.75 -2.460938 8.171875 -2.890625 8.171875 -3.359375 C 8.171875 -3.992188 7.910156 -4.410156 7.390625 -4.609375 C 7.015625 -4.753906 6.265625 -4.84375 5.140625 -4.875 C 4.265625 -4.894531 3.484375 -5.054688 2.796875 -5.359375 C 1.867188 -5.773438 1.410156 -6.375 1.421875 -7.15625 C 1.429688 -8.144531 1.953125 -9.046875 2.984375 -9.859375 C 4.023438 -10.679688 5.164062 -11.09375 6.40625 -11.09375 C 6.90625 -11.09375 7.515625 -10.976562 8.234375 -10.75 C 9.140625 -10.46875 9.59375 -10.144531 9.59375 -9.78125 C 9.59375 -9.519531 9.503906 -9.285156 9.328125 -9.078125 C 9.117188 -8.847656 8.859375 -8.734375 8.546875 -8.734375 C 8.304688 -8.734375 7.953125 -8.785156 7.484375 -8.890625 C 7.015625 -8.992188 6.65625 -9.046875 6.40625 -9.046875 C 5.757812 -9.035156 5.144531 -8.878906 4.5625 -8.578125 C 3.957031 -8.265625 3.65625 -7.921875 3.65625 -7.546875 C 3.65625 -7.359375 3.742188 -7.203125 3.921875 -7.078125 C 4.109375 -6.953125 4.382812 -6.863281 4.75 -6.8125 C 5.394531 -6.78125 6.039062 -6.75 6.6875 -6.71875 C 7.800781 -6.625 8.6875 -6.304688 9.34375 -5.765625 C 10.050781 -5.160156 10.40625 -4.328125 10.40625 -3.265625 C 10.40625 -1.960938 9.664062 -0.972656 8.1875 -0.296875 C 7.0625 0.210938 5.769531 0.46875 4.3125 0.46875 Z M 4.3125 0.46875 "/></g></g></g><g fill="#e9a436" fill-opacity="1"><g transform="translate(94.182385, 19.330644)"><g><path d="M 4.3125 0.46875 C 3.03125 0.46875 2.023438 0.179688 1.296875 -0.390625 C 0.671875 -0.867188 0.359375 -1.414062 0.359375 -2.03125 C 0.359375 -2.351562 0.453125 -2.617188 0.640625 -2.828125 C 0.835938 -3.035156 1.101562 -3.140625 1.4375 -3.140625 C 1.894531 -3.140625 2.226562 -2.90625 2.4375 -2.4375 C 2.726562 -1.820312 3.378906 -1.515625 4.390625 -1.515625 C 5.253906 -1.515625 6.09375 -1.703125 6.90625 -2.078125 C 7.75 -2.460938 8.171875 -2.890625 8.171875 -3.359375 C 8.171875 -3.992188 7.910156 -4.410156 7.390625 -4.609375 C 7.015625 -4.753906 6.265625 -4.84375 5.140625 -4.875 C 4.265625 -4.894531 3.484375 -5.054688 2.796875 -5.359375 C 1.867188 -5.773438 1.410156 -6.375 1.421875 -7.15625 C 1.429688 -8.144531 1.953125 -9.046875 2.984375 -9.859375 C 4.023438 -10.679688 5.164062 -11.09375 6.40625 -11.09375 C 6.90625 -11.09375 7.515625 -10.976562 8.234375 -10.75 C 9.140625 -10.46875 9.59375 -10.144531 9.59375 -9.78125 C 9.59375 -9.519531 9.503906 -9.285156 9.328125 -9.078125 C 9.117188 -8.847656 8.859375 -8.734375 8.546875 -8.734375 C 8.304688 -8.734375 7.953125 -8.785156 7.484375 -8.890625 C 7.015625 -8.992188 6.65625 -9.046875 6.40625 -9.046875 C 5.757812 -9.035156 5.144531 -8.878906 4.5625 -8.578125 C 3.957031 -8.265625 3.65625 -7.921875 3.65625 -7.546875 C 3.65625 -7.359375 3.742188 -7.203125 3.921875 -7.078125 C 4.109375 -6.953125 4.382812 -6.863281 4.75 -6.8125 C 5.394531 -6.78125 6.039062 -6.75 6.6875 -6.71875 C 7.800781 -6.625 8.6875 -6.304688 9.34375 -5.765625 C 10.050781 -5.160156 10.40625 -4.328125 10.40625 -3.265625 C 10.40625 -1.960938 9.664062 -0.972656 8.1875 -0.296875 C 7.0625 0.210938 5.769531 0.46875 4.3125 0.46875 Z M 4.3125 0.46875 "/></g></g></g></svg>