<svg xmlns="http://www.w3.org/2000/svg" xmlns:xlink="http://www.w3.org/1999/xlink" width="150" zoomAndPan="magnify" viewBox="0 0 112.5 30.000001" height="40" preserveAspectRatio="xMidYMid meet" version="1.0"><defs><g/><clipPath id="e92be9dde0"><path d="M 1.574219 0.28125 L 110.445312 0.28125 L 110.445312 29.03125 L 1.574219 29.03125 Z M 1.574219 0.28125 " clip-rule="nonzero"/></clipPath><clipPath id="ba2f0fcdba"><path d="M 8.832031 0.28125 L 103.183594 0.28125 C 105.109375 0.28125 106.957031 1.046875 108.316406 2.40625 C 109.679688 3.765625 110.445312 5.613281 110.445312 7.539062 L 110.445312 21.773438 C 110.445312 23.699219 109.679688 25.546875 108.316406 26.90625 C 106.957031 28.265625 105.109375 29.03125 103.183594 29.03125 L 8.832031 29.03125 C 6.90625 29.03125 5.058594 28.265625 3.699219 26.90625 C 2.335938 25.546875 1.574219 23.699219 1.574219 21.773438 L 1.574219 7.539062 C 1.574219 5.613281 2.335938 3.765625 3.699219 2.40625 C 5.058594 1.046875 6.90625 0.28125 8.832031 0.28125 Z M 8.832031 0.28125 " clip-rule="nonzero"/></clipPath><clipPath id="05bdeb044c"><path d="M 1.578125 0.28125 L 110.445312 0.28125 L 110.445312 29.03125 L 1.578125 29.03125 Z M 1.578125 0.28125 " clip-rule="nonzero"/></clipPath><clipPath id="0fb6f1de4f"><path d="M 8.835938 0.28125 L 103.179688 0.28125 C 105.105469 0.28125 106.949219 1.046875 108.3125 2.40625 C 109.671875 3.765625 110.4375 5.613281 110.4375 7.539062 L 110.4375 21.773438 C 110.4375 23.695312 109.671875 25.542969 108.3125 26.902344 C 106.949219 28.265625 105.105469 29.027344 103.179688 29.027344 L 8.835938 29.027344 C 6.910156 29.027344 5.066406 28.265625 3.703125 26.902344 C 2.34375 25.542969 1.578125 23.695312 1.578125 21.773438 L 1.578125 7.539062 C 1.578125 5.613281 2.34375 3.765625 3.703125 2.40625 C 5.066406 1.046875 6.910156 0.28125 8.835938 0.28125 Z M 8.835938 0.28125 " clip-rule="nonzero"/></clipPath></defs><g clip-path="url(#e92be9dde0)"><g clip-path="url(#ba2f0fcdba)"><path fill="#1d7886" d="M 1.574219 0.28125 L 110.402344 0.28125 L 110.402344 29.03125 L 1.574219 29.03125 Z M 1.574219 0.28125 " fill-opacity="1" fill-rule="nonzero"/></g></g><g clip-path="url(#05bdeb044c)"><g clip-path="url(#0fb6f1de4f)"><path stroke-linecap="butt" transform="matrix(0.725806, 0, 0, 0.725806, 1.578403, 0.280445)" fill="none" stroke-linejoin="miter" d="M 9.99927 0.00110902 L 139.984001 0.00110902 C 142.6373 0.00110902 145.177578 1.05597 147.055877 2.928887 C 148.928794 4.801804 149.983655 7.347464 149.983655 10.000763 L 149.983655 29.612569 C 149.983655 32.260486 148.928794 34.806146 147.055877 36.679063 C 145.177578 38.557362 142.6373 39.606841 139.984001 39.606841 L 9.99927 39.606841 C 7.345971 39.606841 4.805693 38.557362 2.927394 36.679063 C 1.054478 34.806146 -0.000383669 32.260486 -0.000383669 29.612569 L -0.000383669 10.000763 C -0.000383669 7.347464 1.054478 4.801804 2.927394 2.928887 C 4.805693 1.05597 7.345971 0.00110902 9.99927 0.00110902 Z M 9.99927 0.00110902 " stroke="#e9a436" stroke-width="4" stroke-opacity="1" stroke-miterlimit="4"/></g></g><g fill="#e9a436" fill-opacity="1"><g transform="translate(16.45485, 18.314515)"><g><path d="M 9.796875 -9.0625 C 9.398438 -9.0625 8.789062 -9.09375 7.96875 -9.15625 C 7.164062 -9.207031 6.550781 -9.226562 6.125 -9.21875 C 6.144531 -8.644531 6.210938 -7.625 6.328125 -6.15625 C 6.429688 -4.851562 6.484375 -3.820312 6.484375 -3.0625 C 6.484375 -2.894531 6.5 -2.640625 6.53125 -2.296875 C 6.570312 -1.960938 6.59375 -1.710938 6.59375 -1.546875 C 6.59375 -1.160156 6.507812 -0.816406 6.34375 -0.515625 C 6.144531 -0.128906 5.851562 0.0625 5.46875 0.0625 C 5.1875 0.0625 4.941406 -0.0234375 4.734375 -0.203125 C 4.492188 -0.398438 4.375 -0.644531 4.375 -0.9375 C 4.375 -1.007812 4.382812 -1.117188 4.40625 -1.265625 C 4.4375 -1.410156 4.453125 -1.519531 4.453125 -1.59375 C 4.453125 -1.820312 4.4375 -2.171875 4.40625 -2.640625 C 4.375 -3.109375 4.359375 -3.460938 4.359375 -3.703125 C 4.359375 -4.378906 4.304688 -5.296875 4.203125 -6.453125 C 4.078125 -7.773438 4.003906 -8.6875 3.984375 -9.1875 L 3.59375 -9.1875 C 2.46875 -9.1875 1.578125 -9.269531 0.921875 -9.4375 C 0.359375 -9.570312 0.078125 -9.898438 0.078125 -10.421875 C 0.078125 -10.679688 0.164062 -10.914062 0.34375 -11.125 C 0.5625 -11.375 0.835938 -11.484375 1.171875 -11.453125 C 1.347656 -11.441406 1.75 -11.398438 2.375 -11.328125 C 2.875 -11.273438 3.28125 -11.25 3.59375 -11.25 C 3.894531 -11.25 4.351562 -11.25 4.96875 -11.25 C 5.582031 -11.257812 6.039062 -11.265625 6.34375 -11.265625 C 6.726562 -11.265625 7.300781 -11.238281 8.0625 -11.1875 C 8.832031 -11.132812 9.410156 -11.109375 9.796875 -11.109375 C 10.097656 -11.109375 10.347656 -11.007812 10.546875 -10.8125 C 10.753906 -10.625 10.859375 -10.382812 10.859375 -10.09375 C 10.859375 -9.800781 10.753906 -9.554688 10.546875 -9.359375 C 10.347656 -9.160156 10.097656 -9.0625 9.796875 -9.0625 Z M 9.796875 -9.0625 "/></g></g></g><g fill="#e9a436" fill-opacity="1"><g transform="translate(27.225915, 18.314515)"><g><path d="M 8.28125 -6.390625 C 7.738281 -5.242188 6.867188 -3.445312 5.671875 -1 C 5.023438 0.3125 4.535156 1.40625 4.203125 2.28125 C 4.097656 2.59375 3.929688 3.054688 3.703125 3.671875 C 3.523438 4.140625 3.203125 4.375 2.734375 4.375 C 2.453125 4.375 2.203125 4.28125 1.984375 4.09375 C 1.765625 3.90625 1.65625 3.671875 1.65625 3.390625 C 1.65625 2.921875 2.191406 1.535156 3.265625 -0.765625 C 2.703125 -1.859375 1.820312 -3.472656 0.625 -5.609375 C 0.5 -5.796875 0.375 -5.988281 0.25 -6.1875 C 0.113281 -6.414062 0.046875 -6.625 0.046875 -6.8125 C 0.046875 -7.09375 0.15625 -7.332031 0.375 -7.53125 C 0.59375 -7.738281 0.84375 -7.84375 1.125 -7.84375 C 1.457031 -7.84375 1.710938 -7.722656 1.890625 -7.484375 C 2.609375 -6.523438 3.445312 -5.085938 4.40625 -3.171875 C 4.9375 -4.367188 5.265625 -5.09375 5.390625 -5.34375 C 5.742188 -6.09375 6.09375 -6.75 6.4375 -7.3125 C 6.65625 -7.675781 6.953125 -7.859375 7.328125 -7.859375 C 7.609375 -7.859375 7.859375 -7.757812 8.078125 -7.5625 C 8.304688 -7.375 8.421875 -7.144531 8.421875 -6.875 C 8.421875 -6.726562 8.375 -6.566406 8.28125 -6.390625 Z M 8.28125 -6.390625 "/></g></g></g><g fill="#e9a436" fill-opacity="1"><g transform="translate(35.782293, 18.314515)"><g><path d="M 4.265625 0.453125 C 3.828125 0.453125 3.367188 0.398438 2.890625 0.296875 L 2.890625 3.375 C 2.890625 3.664062 2.789062 3.90625 2.59375 4.09375 C 2.394531 4.289062 2.144531 4.390625 1.84375 4.390625 C 1.539062 4.390625 1.289062 4.289062 1.09375 4.09375 C 0.894531 3.90625 0.796875 3.664062 0.796875 3.375 C 0.796875 3.144531 0.800781 2.207031 0.8125 0.5625 C 0.820312 -0.65625 0.820312 -1.648438 0.8125 -2.421875 C 0.800781 -3.515625 0.765625 -4.453125 0.703125 -5.234375 C 0.628906 -6.316406 0.59375 -6.816406 0.59375 -6.734375 C 0.59375 -7.148438 0.6875 -7.503906 0.875 -7.796875 C 1.09375 -8.140625 1.382812 -8.3125 1.75 -8.3125 C 2.03125 -8.3125 2.265625 -8.210938 2.453125 -8.015625 C 2.648438 -7.828125 2.75 -7.597656 2.75 -7.328125 L 2.75 -7.265625 C 3.082031 -7.453125 3.414062 -7.59375 3.75 -7.6875 C 4.09375 -7.78125 4.4375 -7.828125 4.78125 -7.828125 C 5.945312 -7.828125 6.796875 -7.332031 7.328125 -6.34375 C 7.722656 -5.601562 7.921875 -4.644531 7.921875 -3.46875 C 7.921875 -2.363281 7.609375 -1.445312 6.984375 -0.71875 C 6.304688 0.0625 5.398438 0.453125 4.265625 0.453125 Z M 4.78125 -5.8125 C 4.46875 -5.8125 4.144531 -5.734375 3.8125 -5.578125 C 3.488281 -5.429688 3.160156 -5.210938 2.828125 -4.921875 C 2.890625 -3.878906 2.921875 -2.835938 2.921875 -1.796875 C 3.367188 -1.648438 3.816406 -1.578125 4.265625 -1.578125 C 4.785156 -1.578125 5.179688 -1.757812 5.453125 -2.125 C 5.710938 -2.457031 5.84375 -2.90625 5.84375 -3.46875 C 5.84375 -4.144531 5.8125 -4.617188 5.75 -4.890625 C 5.601562 -5.503906 5.28125 -5.8125 4.78125 -5.8125 Z M 4.78125 -5.8125 "/></g></g></g><g fill="#e9a436" fill-opacity="1"><g transform="translate(44.059007, 18.314515)"><g><path d="M 4.578125 0.34375 C 3.378906 0.34375 2.394531 0.0546875 1.625 -0.515625 C 0.78125 -1.148438 0.359375 -2.046875 0.359375 -3.203125 C 0.359375 -4.472656 0.691406 -5.550781 1.359375 -6.4375 C 2.109375 -7.414062 3.113281 -7.90625 4.375 -7.90625 C 5.25 -7.90625 5.976562 -7.765625 6.5625 -7.484375 C 7.320312 -7.109375 7.703125 -6.523438 7.703125 -5.734375 C 7.703125 -5.179688 7.394531 -4.691406 6.78125 -4.265625 C 6.488281 -4.066406 5.921875 -3.78125 5.078125 -3.40625 L 2.53125 -2.28125 C 2.769531 -2.007812 3.0625 -1.804688 3.40625 -1.671875 C 3.75 -1.546875 4.140625 -1.484375 4.578125 -1.484375 C 5.253906 -1.484375 5.828125 -1.625 6.296875 -1.90625 C 6.710938 -2.15625 7.046875 -2.28125 7.296875 -2.28125 C 7.828125 -2.28125 8.09375 -2.023438 8.09375 -1.515625 C 8.09375 -0.941406 7.671875 -0.472656 6.828125 -0.109375 C 6.117188 0.191406 5.367188 0.34375 4.578125 0.34375 Z M 4.375 -6.078125 C 3.90625 -6.078125 3.503906 -5.921875 3.171875 -5.609375 C 2.835938 -5.296875 2.570312 -4.828125 2.375 -4.203125 C 2.945312 -4.441406 3.515625 -4.679688 4.078125 -4.921875 C 4.753906 -5.234375 5.296875 -5.519531 5.703125 -5.78125 C 5.359375 -5.976562 4.914062 -6.078125 4.375 -6.078125 Z M 4.375 -6.078125 "/></g></g></g><g fill="#e9a436" fill-opacity="1"><g transform="translate(52.713653, 18.314515)"><g><path d="M 6.09375 -5.53125 C 5.59375 -5.53125 5.289062 -5.738281 5.1875 -6.15625 C 4.988281 -6.195312 4.785156 -6.21875 4.578125 -6.21875 C 3.359375 -6.21875 2.75 -6.050781 2.75 -5.71875 C 2.75 -5.519531 3.113281 -5.253906 3.84375 -4.921875 C 4.84375 -4.460938 5.519531 -4.101562 5.875 -3.84375 C 6.601562 -3.3125 6.96875 -2.71875 6.96875 -2.0625 C 6.96875 -1.1875 6.566406 -0.523438 5.765625 -0.078125 C 5.109375 0.273438 4.304688 0.453125 3.359375 0.453125 C 2.691406 0.453125 2.082031 0.347656 1.53125 0.140625 C 0.769531 -0.140625 0.390625 -0.554688 0.390625 -1.109375 C 0.390625 -1.609375 0.691406 -1.859375 1.296875 -1.859375 C 1.523438 -1.859375 1.859375 -1.785156 2.296875 -1.640625 C 2.734375 -1.492188 3.070312 -1.421875 3.3125 -1.421875 C 4.332031 -1.421875 4.847656 -1.628906 4.859375 -2.046875 C 4.859375 -2.296875 4.5 -2.578125 3.78125 -2.890625 C 2.75 -3.347656 2.085938 -3.679688 1.796875 -3.890625 C 1.078125 -4.390625 0.71875 -4.992188 0.71875 -5.703125 C 0.71875 -6.722656 1.257812 -7.40625 2.34375 -7.75 C 2.96875 -7.957031 3.921875 -8.0625 5.203125 -8.0625 C 5.710938 -8.0625 6.085938 -8 6.328125 -7.875 C 6.660156 -7.695312 6.828125 -7.367188 6.828125 -6.890625 C 6.828125 -5.984375 6.582031 -5.53125 6.09375 -5.53125 Z M 6.09375 -5.53125 "/></g></g></g><g fill="#e9a436" fill-opacity="1"><g transform="translate(60.249621, 18.314515)"><g><path d="M 4.25 0.46875 C 3.132812 0.46875 2.203125 0.15625 1.453125 -0.46875 C 0.660156 -1.132812 0.265625 -2.007812 0.265625 -3.09375 C 0.265625 -4.101562 0.625 -5.140625 1.34375 -6.203125 C 2.144531 -7.421875 3.082031 -8.03125 4.15625 -8.03125 C 4.675781 -8.03125 5.285156 -7.890625 5.984375 -7.609375 C 6.835938 -7.265625 7.265625 -6.863281 7.265625 -6.40625 C 7.265625 -6.164062 7.179688 -5.945312 7.015625 -5.75 C 6.828125 -5.539062 6.59375 -5.4375 6.3125 -5.4375 C 6.09375 -5.4375 5.828125 -5.550781 5.515625 -5.78125 C 5.210938 -6.019531 4.757812 -6.140625 4.15625 -6.140625 C 3.757812 -6.140625 3.335938 -5.757812 2.890625 -5 C 2.453125 -4.269531 2.234375 -3.632812 2.234375 -3.09375 C 2.234375 -2.570312 2.425781 -2.160156 2.8125 -1.859375 C 3.175781 -1.566406 3.65625 -1.421875 4.25 -1.421875 C 4.582031 -1.421875 4.992188 -1.546875 5.484375 -1.796875 C 5.972656 -2.054688 6.285156 -2.1875 6.421875 -2.1875 C 6.691406 -2.1875 6.921875 -2.085938 7.109375 -1.890625 C 7.304688 -1.703125 7.40625 -1.476562 7.40625 -1.21875 C 7.40625 -0.832031 6.976562 -0.441406 6.125 -0.046875 C 5.351562 0.296875 4.726562 0.46875 4.25 0.46875 Z M 4.25 0.46875 "/></g></g></g><g fill="#e9a436" fill-opacity="1"><g transform="translate(68.201308, 18.314515)"><g><path d="M 7.109375 -5.453125 C 7.054688 -4.679688 6.707031 -4.296875 6.0625 -4.296875 C 5.425781 -4.296875 5.109375 -4.625 5.109375 -5.28125 L 5.0625 -6.046875 C 3.925781 -5.859375 3.113281 -5.273438 2.625 -4.296875 L 2.640625 -0.484375 C 2.640625 -0.203125 2.539062 0.03125 2.34375 0.21875 C 2.144531 0.40625 1.894531 0.5 1.59375 0.5 C 1.28125 0.5 1.039062 0.398438 0.875 0.203125 C 0.707031 0.0234375 0.625 -0.203125 0.625 -0.484375 L 0.625 -5.4375 C 0.625 -5.59375 0.628906 -5.828125 0.640625 -6.140625 C 0.648438 -6.453125 0.65625 -6.6875 0.65625 -6.84375 C 0.65625 -7.125 0.738281 -7.359375 0.90625 -7.546875 C 1.082031 -7.734375 1.328125 -7.828125 1.640625 -7.828125 C 2.191406 -7.828125 2.519531 -7.539062 2.625 -6.96875 C 3.519531 -7.632812 4.515625 -7.96875 5.609375 -7.96875 C 6.609375 -7.96875 7.109375 -7.296875 7.109375 -5.953125 C 7.109375 -5.703125 7.109375 -5.535156 7.109375 -5.453125 Z M 7.109375 -5.453125 "/></g></g></g><g fill="#e9a436" fill-opacity="1"><g transform="translate(75.639008, 18.314515)"><g><path d="M 2.5 -9.09375 C 2.175781 -9.09375 1.894531 -9.195312 1.65625 -9.40625 C 1.414062 -9.625 1.296875 -9.890625 1.296875 -10.203125 C 1.296875 -10.515625 1.414062 -10.78125 1.65625 -11 C 1.894531 -11.21875 2.175781 -11.328125 2.5 -11.328125 C 2.820312 -11.328125 3.097656 -11.21875 3.328125 -11 C 3.566406 -10.78125 3.6875 -10.515625 3.6875 -10.203125 C 3.6875 -9.890625 3.566406 -9.625 3.328125 -9.40625 C 3.097656 -9.195312 2.820312 -9.09375 2.5 -9.09375 Z M 3.140625 -3.546875 C 3.140625 -3.253906 3.144531 -2.789062 3.15625 -2.15625 C 3.175781 -1.519531 3.1875 -1.0625 3.1875 -0.78125 C 3.1875 -0.488281 3.085938 -0.242188 2.890625 -0.046875 C 2.691406 0.140625 2.441406 0.234375 2.140625 0.234375 C 1.835938 0.234375 1.585938 0.140625 1.390625 -0.046875 C 1.203125 -0.242188 1.109375 -0.488281 1.109375 -0.78125 C 1.109375 -1.0625 1.097656 -1.519531 1.078125 -2.15625 C 1.054688 -2.789062 1.046875 -3.253906 1.046875 -3.546875 C 1.046875 -3.992188 1.070312 -4.554688 1.125 -5.234375 C 1.175781 -5.910156 1.203125 -6.472656 1.203125 -6.921875 C 1.203125 -7.210938 1.300781 -7.453125 1.5 -7.640625 C 1.695312 -7.828125 1.945312 -7.921875 2.25 -7.921875 C 2.550781 -7.921875 2.796875 -7.828125 2.984375 -7.640625 C 3.179688 -7.453125 3.28125 -7.210938 3.28125 -6.921875 C 3.28125 -6.472656 3.253906 -5.910156 3.203125 -5.234375 C 3.160156 -4.554688 3.140625 -3.992188 3.140625 -3.546875 Z M 3.140625 -3.546875 "/></g></g></g><g fill="#e9a436" fill-opacity="1"><g transform="translate(79.977666, 18.314515)"><g><path d="M 4.265625 0.453125 C 3.828125 0.453125 3.367188 0.398438 2.890625 0.296875 L 2.890625 3.375 C 2.890625 3.664062 2.789062 3.90625 2.59375 4.09375 C 2.394531 4.289062 2.144531 4.390625 1.84375 4.390625 C 1.539062 4.390625 1.289062 4.289062 1.09375 4.09375 C 0.894531 3.90625 0.796875 3.664062 0.796875 3.375 C 0.796875 3.144531 0.800781 2.207031 0.8125 0.5625 C 0.820312 -0.65625 0.820312 -1.648438 0.8125 -2.421875 C 0.800781 -3.515625 0.765625 -4.453125 0.703125 -5.234375 C 0.628906 -6.316406 0.59375 -6.816406 0.59375 -6.734375 C 0.59375 -7.148438 0.6875 -7.503906 0.875 -7.796875 C 1.09375 -8.140625 1.382812 -8.3125 1.75 -8.3125 C 2.03125 -8.3125 2.265625 -8.210938 2.453125 -8.015625 C 2.648438 -7.828125 2.75 -7.597656 2.75 -7.328125 L 2.75 -7.265625 C 3.082031 -7.453125 3.414062 -7.59375 3.75 -7.6875 C 4.09375 -7.78125 4.4375 -7.828125 4.78125 -7.828125 C 5.945312 -7.828125 6.796875 -7.332031 7.328125 -6.34375 C 7.722656 -5.601562 7.921875 -4.644531 7.921875 -3.46875 C 7.921875 -2.363281 7.609375 -1.445312 6.984375 -0.71875 C 6.304688 0.0625 5.398438 0.453125 4.265625 0.453125 Z M 4.78125 -5.8125 C 4.46875 -5.8125 4.144531 -5.734375 3.8125 -5.578125 C 3.488281 -5.429688 3.160156 -5.210938 2.828125 -4.921875 C 2.890625 -3.878906 2.921875 -2.835938 2.921875 -1.796875 C 3.367188 -1.648438 3.816406 -1.578125 4.265625 -1.578125 C 4.785156 -1.578125 5.179688 -1.757812 5.453125 -2.125 C 5.710938 -2.457031 5.84375 -2.90625 5.84375 -3.46875 C 5.84375 -4.144531 5.8125 -4.617188 5.75 -4.890625 C 5.601562 -5.503906 5.28125 -5.8125 4.78125 -5.8125 Z M 4.78125 -5.8125 "/></g></g></g><g fill="#e9a436" fill-opacity="1"><g transform="translate(88.25438, 18.314515)"><g><path d="M 6.109375 -6.09375 C 6.003906 -6.09375 5.878906 -6.09375 5.734375 -6.09375 C 5.585938 -6.101562 5.460938 -6.109375 5.359375 -6.109375 C 5.148438 -6.109375 4.910156 -6.085938 4.640625 -6.046875 C 4.734375 -4.015625 4.78125 -2.6875 4.78125 -2.0625 C 4.78125 -1.988281 4.78125 -1.863281 4.78125 -1.6875 C 4.789062 -1.507812 4.796875 -1.363281 4.796875 -1.25 C 4.796875 -0.09375 4.429688 0.484375 3.703125 0.484375 C 3.421875 0.484375 3.179688 0.398438 2.984375 0.234375 C 2.753906 0.046875 2.640625 -0.179688 2.640625 -0.453125 C 2.640625 -0.628906 2.644531 -0.898438 2.65625 -1.265625 C 2.675781 -1.628906 2.6875 -1.90625 2.6875 -2.09375 C 2.6875 -2.695312 2.644531 -4 2.5625 -6 C 2.25 -6.019531 1.773438 -6.0625 1.140625 -6.125 C 0.503906 -6.195312 0.1875 -6.523438 0.1875 -7.109375 C 0.1875 -7.390625 0.28125 -7.628906 0.46875 -7.828125 C 0.664062 -8.023438 0.914062 -8.125 1.21875 -8.125 C 1.40625 -8.125 1.832031 -8.09375 2.5 -8.03125 C 2.5 -8.1875 2.488281 -8.453125 2.46875 -8.828125 C 2.445312 -9.148438 2.4375 -9.398438 2.4375 -9.578125 C 2.4375 -9.859375 2.535156 -10.09375 2.734375 -10.28125 C 2.941406 -10.46875 3.195312 -10.5625 3.5 -10.5625 C 4.238281 -10.5625 4.609375 -9.9375 4.609375 -8.6875 L 4.59375 -8.0625 C 4.90625 -8.101562 5.160156 -8.125 5.359375 -8.125 C 5.941406 -8.125 6.335938 -8.085938 6.546875 -8.015625 C 6.953125 -7.867188 7.15625 -7.5625 7.15625 -7.09375 C 7.15625 -6.800781 7.054688 -6.5625 6.859375 -6.375 C 6.660156 -6.1875 6.410156 -6.09375 6.109375 -6.09375 Z M 6.109375 -6.09375 "/></g></g></g></svg>