<svg xmlns="http://www.w3.org/2000/svg" width="150" height="40" version="1.0" viewBox="0 0 112.5 30"><defs><clipPath id="a"><path d="M1.574.281h108.871v28.75H1.575Zm0 0"/></clipPath><clipPath id="b"><path d="M8.832.281h94.352a7.262 7.262 0 0 1 7.261 7.258v14.234a7.262 7.262 0 0 1-7.262 7.258H8.833a7.262 7.262 0 0 1-5.133-2.125 7.245 7.245 0 0 1-2.125-5.133V7.54c0-1.926.762-3.773 2.125-5.133A7.262 7.262 0 0 1 8.832.281Zm0 0"/></clipPath><clipPath id="c"><path d="M1.578.281h108.867v28.75H1.578Zm0 0"/></clipPath><clipPath id="d"><path d="M8.836.281h94.344c1.925 0 3.77.766 5.132 2.125a7.262 7.262 0 0 1 2.126 5.133v14.234a7.26 7.26 0 0 1-7.258 7.254H8.836a7.252 7.252 0 0 1-7.258-7.254V7.54c0-1.926.766-3.773 2.125-5.133A7.268 7.268 0 0 1 8.836.281Zm0 0"/></clipPath></defs><g clip-path="url(#a)"><g clip-path="url(#b)"><path fill="#1d7886" d="M1.574.281h108.828v28.75H1.574Zm0 0"/></g></g><g clip-path="url(#c)"><g clip-path="url(#d)"><path fill="none" stroke="#e9a436" stroke-width="2.90324" d="M8.836.281h94.344c1.925 0 3.77.766 5.132 2.125a7.262 7.262 0 0 1 2.125 5.133v14.234a7.26 7.26 0 0 1-7.257 7.254H8.836a7.252 7.252 0 0 1-7.258-7.254V7.54c0-1.926.766-3.773 2.125-5.133A7.268 7.268 0 0 1 8.836.281Zm0 0"/></g></g><path fill="#e9a436" d="M26.252 9.252c-.399 0-1.008-.031-1.828-.094-.805-.05-1.418-.07-1.844-.062.02.574.086 1.594.203 3.062.102 1.305.156 2.336.156 3.094 0 .168.016.422.047.766.04.336.063.586.063.75 0 .386-.086.73-.25 1.03-.2.388-.493.579-.875.579-.282 0-.528-.086-.735-.266a.904.904 0 0 1-.36-.734c0-.07.009-.18.032-.328a1.7 1.7 0 0 0 .047-.328c0-.227-.016-.578-.047-1.047s-.047-.82-.047-1.063c0-.675-.054-1.593-.156-2.75-.125-1.32-.2-2.234-.219-2.734h-.39c-1.125 0-2.016-.082-2.672-.25-.563-.133-.844-.46-.844-.984 0-.258.086-.493.266-.703a.925.925 0 0 1 .828-.329c.176.012.578.055 1.203.125.5.055.906.079 1.219.079h1.375c.613-.008 1.07-.016 1.375-.016.382 0 .957.027 1.718.078.77.055 1.348.078 1.735.078.3 0 .55.102.75.297.207.188.312.43.312.719 0 .293-.105.539-.312.734-.2.2-.45.297-.75.297ZM35.507 11.924a522.517 522.517 0 0 1-2.61 5.39c-.648 1.313-1.136 2.407-1.468 3.282-.105.312-.273.773-.5 1.39-.18.47-.5.704-.969.704a1.12 1.12 0 0 1-.75-.282.888.888 0 0 1-.328-.703c0-.469.535-1.855 1.61-4.156-.563-1.094-1.446-2.707-2.641-4.844-.125-.187-.25-.379-.375-.578-.137-.227-.203-.437-.203-.625 0-.281.11-.52.328-.719.219-.207.469-.312.75-.312.332 0 .586.12.766.36.718.96 1.554 2.398 2.515 4.312.531-1.196.86-1.922.985-2.172.351-.75.703-1.406 1.046-1.969.22-.363.516-.547.891-.547.281 0 .531.102.75.297.227.188.344.418.344.688 0 .148-.047.308-.14.484ZM40.048 18.768c-.438 0-.899-.055-1.375-.157v3.079a.96.96 0 0 1-.297.718c-.2.196-.45.297-.75.297-.305 0-.555-.101-.75-.297a.946.946 0 0 1-.297-.718c0-.231.004-1.168.016-2.813.008-1.219.008-2.21 0-2.984a41.717 41.717 0 0 0-.11-2.813c-.074-1.082-.109-1.582-.109-1.5 0-.414.094-.77.281-1.062.219-.344.508-.516.875-.516.282 0 .516.102.703.297a.922.922 0 0 1 .297.687v.063a4.481 4.481 0 0 1 1-.422c.344-.094.688-.14 1.032-.14 1.164 0 2.015.495 2.546 1.484.395.742.594 1.699.594 2.875 0 1.105-.312 2.023-.937 2.75-.68.781-1.586 1.172-2.72 1.172Zm.516-6.266c-.313 0-.637.078-.97.234a4.15 4.15 0 0 0-.984.657c.063 1.043.094 2.086.094 3.125.445.148.895.218 1.344.218.52 0 .914-.18 1.187-.546.258-.333.391-.782.391-1.344 0-.676-.031-1.149-.094-1.422-.148-.613-.468-.922-.968-.922ZM48.637 18.658c-1.2 0-2.183-.289-2.953-.86-.844-.632-1.266-1.53-1.266-2.687 0-1.27.332-2.347 1-3.234.75-.977 1.754-1.469 3.016-1.469.875 0 1.602.14 2.188.422.757.375 1.14.961 1.14 1.75 0 .555-.308 1.043-.922 1.469-.293.2-.86.484-1.703.86l-2.547 1.124c.239.274.532.477.875.61.344.125.735.187 1.172.187.676 0 1.25-.14 1.719-.422.414-.25.75-.375 1-.375.531 0 .797.258.797.766 0 .574-.422 1.043-1.266 1.406-.71.3-1.46.453-2.25.453Zm-.203-6.422c-.469 0-.871.157-1.203.47-.336.312-.602.78-.797 1.405.57-.238 1.14-.476 1.703-.718.676-.313 1.219-.598 1.625-.86-.344-.195-.789-.297-1.328-.297ZM58.807 12.783c-.5 0-.804-.207-.906-.625-.2-.039-.402-.062-.61-.062-1.218 0-1.827.168-1.827.5 0 .199.363.465 1.093.797 1 .46 1.676.82 2.032 1.078.726.531 1.093 1.125 1.093 1.781 0 .875-.402 1.54-1.203 1.984-.656.352-1.46.532-2.406.532a5.16 5.16 0 0 1-1.828-.313c-.762-.281-1.14-.695-1.14-1.25 0-.5.3-.75.906-.75.226 0 .562.074 1 .219.437.148.773.219 1.015.219 1.02 0 1.535-.207 1.547-.625 0-.25-.36-.532-1.078-.844-1.031-.457-1.695-.79-1.984-1-.72-.5-1.079-1.102-1.079-1.813 0-1.02.54-1.703 1.625-2.046.625-.208 1.579-.313 2.86-.313.508 0 .883.063 1.125.188.332.18.5.507.5.984 0 .906-.246 1.36-.735 1.36ZM64.5 18.783c-1.118 0-2.047-.312-2.797-.937-.793-.664-1.188-1.54-1.188-2.625 0-1.008.36-2.047 1.078-3.11.801-1.218 1.739-1.828 2.813-1.828.52 0 1.129.14 1.828.422.852.344 1.281.746 1.281 1.203 0 .242-.086.461-.25.657a.898.898 0 0 1-.703.312c-.219 0-.484-.113-.797-.344-.304-.238-.758-.36-1.36-.36-.398 0-.82.384-1.265 1.142-.437.73-.656 1.367-.656 1.906 0 .523.191.933.578 1.234.363.293.844.438 1.438.438.332 0 .742-.125 1.234-.375.488-.258.8-.391.937-.391.27 0 .5.102.688.297a.907.907 0 0 1 .297.672c0 .386-.43.777-1.281 1.172-.774.343-1.399.515-1.875.515ZM75.31 12.861c-.054.774-.402 1.157-1.046 1.157-.637 0-.953-.328-.953-.985l-.047-.765c-1.137.187-1.95.773-2.438 1.75l.016 3.812a.938.938 0 0 1-.297.703c-.2.188-.45.282-.75.282-.312 0-.555-.102-.719-.297-.168-.18-.25-.407-.25-.688v-4.953c0-.156.004-.39.016-.703.008-.313.016-.547.016-.703 0-.281.082-.516.25-.703.175-.188.421-.282.734-.282.55 0 .879.29.984.86.895-.664 1.89-1 2.985-1 1 0 1.5.672 1.5 2.015v.5ZM78.139 9.22c-.324 0-.605-.1-.844-.312a1.03 1.03 0 0 1-.36-.797c0-.312.118-.578.36-.796.239-.22.52-.329.844-.329.32 0 .598.11.828.329.238.218.36.484.36.796 0 .313-.122.579-.36.797-.23.211-.508.313-.828.313Zm.64 5.548c0 .293.005.757.016 1.39.02.637.032 1.094.032 1.375 0 .293-.102.54-.297.735-.2.187-.45.28-.75.28-.305 0-.555-.093-.75-.28a1.02 1.02 0 0 1-.282-.735c0-.281-.011-.738-.03-1.375a39.458 39.458 0 0 1-.032-1.39c0-.446.023-1.008.078-1.688.05-.676.078-1.238.078-1.687 0-.29.098-.532.297-.72.195-.187.445-.28.75-.28.3 0 .547.093.734.28a.96.96 0 0 1 .297.72c0 .449-.027 1.011-.078 1.687-.043.68-.062 1.242-.062 1.688ZM84.243 18.768c-.437 0-.898-.055-1.375-.157v3.079a.96.96 0 0 1-.297.718c-.199.196-.449.297-.75.297-.304 0-.554-.101-.75-.297a.946.946 0 0 1-.296-.718c0-.231.003-1.168.015-2.813.008-1.219.008-2.21 0-2.984a41.717 41.717 0 0 0-.11-2.813c-.073-1.082-.109-1.582-.109-1.5 0-.414.094-.77.282-1.062.218-.344.507-.516.875-.516.28 0 .515.102.703.297a.922.922 0 0 1 .297.687v.063a4.481 4.481 0 0 1 1-.422c.343-.094.687-.14 1.03-.14 1.165 0 2.017.495 2.548 1.484.394.742.594 1.699.594 2.875 0 1.105-.313 2.023-.938 2.75-.68.781-1.586 1.172-2.719 1.172Zm.516-6.266c-.313 0-.637.078-.969.234a4.15 4.15 0 0 0-.984.657c.062 1.043.094 2.086.094 3.125.445.148.894.218 1.343.218.52 0 .914-.18 1.188-.546.258-.333.39-.782.39-1.344 0-.676-.03-1.149-.093-1.422-.149-.613-.47-.922-.97-.922ZM94.364 12.22h-.375c-.149-.007-.274-.015-.375-.015-.211 0-.45.024-.719.063.094 2.03.14 3.359.14 3.984v.375c.008.18.016.324.016.438 0 1.156-.367 1.734-1.093 1.734-.282 0-.524-.086-.72-.25-.23-.188-.343-.414-.343-.688 0-.175.004-.445.016-.812.02-.363.03-.64.03-.828 0-.602-.042-1.906-.124-3.906-.313-.02-.79-.063-1.422-.125-.637-.07-.953-.399-.953-.985 0-.281.094-.52.281-.719.195-.195.445-.296.75-.296.188 0 .613.03 1.281.093 0-.156-.011-.422-.03-.797-.024-.32-.032-.57-.032-.75 0-.28.098-.515.297-.703.207-.187.46-.281.765-.281.739 0 1.11.625 1.11 1.875l-.016.625a6.54 6.54 0 0 1 .766-.062c.582 0 .976.039 1.187.109.407.148.61.453.61.922a.954.954 0 0 1-.297.719c-.2.187-.45.28-.75.28Zm0 0"/></svg>