<svg xmlns="http://www.w3.org/2000/svg" xmlns:xlink="http://www.w3.org/1999/xlink" width="150" zoomAndPan="magnify" viewBox="0 0 112.5 30.000001" height="40" preserveAspectRatio="xMidYMid meet" version="1.0"><defs><g/><clipPath id="6a1b34b2a2"><path d="M 1.574219 0.28125 L 110.445312 0.28125 L 110.445312 29.03125 L 1.574219 29.03125 Z M 1.574219 0.28125 " clip-rule="nonzero"/></clipPath><clipPath id="7732ceba15"><path d="M 8.832031 0.28125 L 103.183594 0.28125 C 105.109375 0.28125 106.957031 1.046875 108.316406 2.40625 C 109.679688 3.765625 110.445312 5.613281 110.445312 7.539062 L 110.445312 21.773438 C 110.445312 23.699219 109.679688 25.546875 108.316406 26.90625 C 106.957031 28.265625 105.109375 29.03125 103.183594 29.03125 L 8.832031 29.03125 C 6.90625 29.03125 5.058594 28.265625 3.699219 26.90625 C 2.335938 25.546875 1.574219 23.699219 1.574219 21.773438 L 1.574219 7.539062 C 1.574219 5.613281 2.335938 3.765625 3.699219 2.40625 C 5.058594 1.046875 6.90625 0.28125 8.832031 0.28125 Z M 8.832031 0.28125 " clip-rule="nonzero"/></clipPath><clipPath id="6d79b451fc"><path d="M 1.578125 0.28125 L 110.445312 0.28125 L 110.445312 29.03125 L 1.578125 29.03125 Z M 1.578125 0.28125 " clip-rule="nonzero"/></clipPath><clipPath id="e983eaa41a"><path d="M 8.835938 0.28125 L 103.179688 0.28125 C 105.105469 0.28125 106.949219 1.046875 108.3125 2.40625 C 109.671875 3.765625 110.4375 5.613281 110.4375 7.539062 L 110.4375 21.773438 C 110.4375 23.695312 109.671875 25.542969 108.3125 26.902344 C 106.949219 28.265625 105.105469 29.027344 103.179688 29.027344 L 8.835938 29.027344 C 6.910156 29.027344 5.066406 28.265625 3.703125 26.902344 C 2.34375 25.542969 1.578125 23.695312 1.578125 21.773438 L 1.578125 7.539062 C 1.578125 5.613281 2.34375 3.765625 3.703125 2.40625 C 5.066406 1.046875 6.910156 0.28125 8.835938 0.28125 Z M 8.835938 0.28125 " clip-rule="nonzero"/></clipPath></defs><g clip-path="url(#6a1b34b2a2)"><g clip-path="url(#7732ceba15)"><path fill="#1d7886" d="M 1.574219 0.28125 L 110.402344 0.28125 L 110.402344 29.03125 L 1.574219 29.03125 Z M 1.574219 0.28125 " fill-opacity="1" fill-rule="nonzero"/></g></g><g clip-path="url(#6d79b451fc)"><g clip-path="url(#e983eaa41a)"><path stroke-linecap="butt" transform="matrix(0.725806, 0, 0, 0.725806, 1.578403, 0.280445)" fill="none" stroke-linejoin="miter" d="M 9.99927 0.00110902 L 139.984001 0.00110902 C 142.6373 0.00110902 145.177578 1.05597 147.055877 2.928887 C 148.928794 4.801804 149.983655 7.347464 149.983655 10.000763 L 149.983655 29.612569 C 149.983655 32.260486 148.928794 34.806146 147.055877 36.679063 C 145.177578 38.557362 142.6373 39.606841 139.984001 39.606841 L 9.99927 39.606841 C 7.345971 39.606841 4.805693 38.557362 2.927394 36.679063 C 1.054478 34.806146 -0.000383669 32.260486 -0.000383669 29.612569 L -0.000383669 10.000763 C -0.000383669 7.347464 1.054478 4.801804 2.927394 2.928887 C 4.805693 1.05597 7.345971 0.00110902 9.99927 0.00110902 Z M 9.99927 0.00110902 " stroke="#e9a436" stroke-width="4" stroke-opacity="1" stroke-miterlimit="4"/></g></g><g fill="#e9a436" fill-opacity="1"><g transform="translate(33.135438, 18.314515)"><g><path d="M 8.71875 -1.3125 C 8.351562 -0.8125 7.910156 -0.394531 7.390625 -0.0625 C 6.753906 0.34375 6.101562 0.546875 5.4375 0.546875 C 4.15625 0.546875 3.203125 0.296875 2.578125 -0.203125 C 1.253906 -1.242188 0.59375 -3.050781 0.59375 -5.625 C 0.59375 -5.875 0.601562 -6.242188 0.625 -6.734375 C 0.65625 -7.222656 0.671875 -7.59375 0.671875 -7.84375 C 0.671875 -8.039062 0.675781 -8.332031 0.6875 -8.71875 C 0.695312 -9.113281 0.703125 -9.410156 0.703125 -9.609375 C 0.703125 -10.003906 0.773438 -10.382812 0.921875 -10.75 C 1.109375 -11.21875 1.378906 -11.453125 1.734375 -11.453125 C 2.015625 -11.453125 2.257812 -11.363281 2.46875 -11.1875 C 2.695312 -10.988281 2.8125 -10.738281 2.8125 -10.4375 C 2.8125 -10.15625 2.804688 -9.722656 2.796875 -9.140625 C 2.796875 -8.554688 2.796875 -8.117188 2.796875 -7.828125 C 2.796875 -7.585938 2.78125 -7.222656 2.75 -6.734375 C 2.726562 -6.242188 2.71875 -5.875 2.71875 -5.625 C 2.71875 -4.84375 2.8125 -4.117188 3 -3.453125 C 3.207031 -2.648438 3.515625 -2.09375 3.921875 -1.78125 C 4.128906 -1.613281 4.632812 -1.523438 5.4375 -1.515625 C 6.769531 -1.492188 7.664062 -2.628906 8.125 -4.921875 C 8.363281 -6.097656 8.484375 -7.757812 8.484375 -9.90625 C 8.484375 -10.1875 8.566406 -10.457031 8.734375 -10.71875 C 8.960938 -11.070312 9.285156 -11.25 9.703125 -11.25 C 10.046875 -11.25 10.304688 -11.117188 10.484375 -10.859375 C 10.609375 -10.671875 10.671875 -10.46875 10.671875 -10.25 C 10.671875 -8.257812 10.578125 -6.707031 10.390625 -5.59375 C 10.109375 -3.875 9.550781 -2.445312 8.71875 -1.3125 Z M 8.71875 -1.3125 "/></g></g></g><g fill="#e9a436" fill-opacity="1"><g transform="translate(44.541428, 18.314515)"><g><path d="M 2.5 -9.09375 C 2.175781 -9.09375 1.894531 -9.195312 1.65625 -9.40625 C 1.414062 -9.625 1.296875 -9.890625 1.296875 -10.203125 C 1.296875 -10.515625 1.414062 -10.78125 1.65625 -11 C 1.894531 -11.21875 2.175781 -11.328125 2.5 -11.328125 C 2.820312 -11.328125 3.097656 -11.21875 3.328125 -11 C 3.566406 -10.78125 3.6875 -10.515625 3.6875 -10.203125 C 3.6875 -9.890625 3.566406 -9.625 3.328125 -9.40625 C 3.097656 -9.195312 2.820312 -9.09375 2.5 -9.09375 Z M 3.140625 -3.546875 C 3.140625 -3.253906 3.144531 -2.789062 3.15625 -2.15625 C 3.175781 -1.519531 3.1875 -1.0625 3.1875 -0.78125 C 3.1875 -0.488281 3.085938 -0.242188 2.890625 -0.046875 C 2.691406 0.140625 2.441406 0.234375 2.140625 0.234375 C 1.835938 0.234375 1.585938 0.140625 1.390625 -0.046875 C 1.203125 -0.242188 1.109375 -0.488281 1.109375 -0.78125 C 1.109375 -1.0625 1.097656 -1.519531 1.078125 -2.15625 C 1.054688 -2.789062 1.046875 -3.253906 1.046875 -3.546875 C 1.046875 -3.992188 1.070312 -4.554688 1.125 -5.234375 C 1.175781 -5.910156 1.203125 -6.472656 1.203125 -6.921875 C 1.203125 -7.210938 1.300781 -7.453125 1.5 -7.640625 C 1.695312 -7.828125 1.945312 -7.921875 2.25 -7.921875 C 2.550781 -7.921875 2.796875 -7.828125 2.984375 -7.640625 C 3.179688 -7.453125 3.28125 -7.210938 3.28125 -6.921875 C 3.28125 -6.472656 3.253906 -5.910156 3.203125 -5.234375 C 3.160156 -4.554688 3.140625 -3.992188 3.140625 -3.546875 Z M 3.140625 -3.546875 "/></g></g></g><g fill="#e9a436" fill-opacity="1"><g transform="translate(48.880086, 18.314515)"><g><path d="M 6.609375 -3.265625 C 5.910156 -3.210938 4.671875 -3.1875 2.890625 -3.1875 C 2.578125 -3.1875 2.304688 -3.253906 2.078125 -3.390625 C 1.796875 -3.566406 1.65625 -3.800781 1.65625 -4.09375 C 1.65625 -4.382812 1.796875 -4.613281 2.078125 -4.78125 C 2.304688 -4.925781 2.578125 -5 2.890625 -5 C 3.296875 -5 3.894531 -5.007812 4.6875 -5.03125 C 5.476562 -5.0625 6.078125 -5.078125 6.484375 -5.078125 C 6.796875 -5.078125 7.066406 -5.015625 7.296875 -4.890625 C 7.597656 -4.722656 7.75 -4.484375 7.75 -4.171875 C 7.75 -3.617188 7.367188 -3.316406 6.609375 -3.265625 Z M 6.609375 -3.265625 "/></g></g></g><g fill="#e9a436" fill-opacity="1"><g transform="translate(58.328384, 18.314515)"><g><path d="M 8.71875 -1.3125 C 8.351562 -0.8125 7.910156 -0.394531 7.390625 -0.0625 C 6.753906 0.34375 6.101562 0.546875 5.4375 0.546875 C 4.15625 0.546875 3.203125 0.296875 2.578125 -0.203125 C 1.253906 -1.242188 0.59375 -3.050781 0.59375 -5.625 C 0.59375 -5.875 0.601562 -6.242188 0.625 -6.734375 C 0.65625 -7.222656 0.671875 -7.59375 0.671875 -7.84375 C 0.671875 -8.039062 0.675781 -8.332031 0.6875 -8.71875 C 0.695312 -9.113281 0.703125 -9.410156 0.703125 -9.609375 C 0.703125 -10.003906 0.773438 -10.382812 0.921875 -10.75 C 1.109375 -11.21875 1.378906 -11.453125 1.734375 -11.453125 C 2.015625 -11.453125 2.257812 -11.363281 2.46875 -11.1875 C 2.695312 -10.988281 2.8125 -10.738281 2.8125 -10.4375 C 2.8125 -10.15625 2.804688 -9.722656 2.796875 -9.140625 C 2.796875 -8.554688 2.796875 -8.117188 2.796875 -7.828125 C 2.796875 -7.585938 2.78125 -7.222656 2.75 -6.734375 C 2.726562 -6.242188 2.71875 -5.875 2.71875 -5.625 C 2.71875 -4.84375 2.8125 -4.117188 3 -3.453125 C 3.207031 -2.648438 3.515625 -2.09375 3.921875 -1.78125 C 4.128906 -1.613281 4.632812 -1.523438 5.4375 -1.515625 C 6.769531 -1.492188 7.664062 -2.628906 8.125 -4.921875 C 8.363281 -6.097656 8.484375 -7.757812 8.484375 -9.90625 C 8.484375 -10.1875 8.566406 -10.457031 8.734375 -10.71875 C 8.960938 -11.070312 9.285156 -11.25 9.703125 -11.25 C 10.046875 -11.25 10.304688 -11.117188 10.484375 -10.859375 C 10.609375 -10.671875 10.671875 -10.46875 10.671875 -10.25 C 10.671875 -8.257812 10.578125 -6.707031 10.390625 -5.59375 C 10.109375 -3.875 9.550781 -2.445312 8.71875 -1.3125 Z M 8.71875 -1.3125 "/></g></g></g><g fill="#e9a436" fill-opacity="1"><g transform="translate(69.734374, 18.314515)"><g><path d="M 8.21875 -6.125 C 7.925781 -5.882812 7.554688 -5.5625 7.109375 -5.15625 L 5.953125 -4.078125 L 8.25 -1.265625 C 8.414062 -1.054688 8.5 -0.851562 8.5 -0.65625 C 8.5 -0.382812 8.394531 -0.15625 8.1875 0.03125 C 7.976562 0.226562 7.738281 0.328125 7.46875 0.328125 C 7.175781 0.328125 6.921875 0.207031 6.703125 -0.03125 C 6.253906 -0.519531 5.503906 -1.410156 4.453125 -2.703125 C 4.046875 -2.296875 3.414062 -1.703125 2.5625 -0.921875 C 2.289062 -0.691406 2.082031 -0.5 1.9375 -0.34375 C 1.71875 -0.113281 1.46875 0 1.1875 0 C 0.914062 0 0.675781 -0.0976562 0.46875 -0.296875 C 0.257812 -0.492188 0.15625 -0.722656 0.15625 -0.984375 C 0.15625 -1.273438 0.363281 -1.609375 0.78125 -1.984375 C 1.113281 -2.273438 1.445312 -2.5625 1.78125 -2.84375 C 2.082031 -3.144531 2.5625 -3.613281 3.21875 -4.25 C 2.9375 -4.644531 2.648438 -5.039062 2.359375 -5.4375 C 2.015625 -5.894531 1.6875 -6.253906 1.375 -6.515625 C 1.113281 -6.734375 0.984375 -6.976562 0.984375 -7.25 C 0.984375 -7.507812 1.082031 -7.738281 1.28125 -7.9375 C 1.476562 -8.144531 1.71875 -8.25 2 -8.25 C 2.351562 -8.25 2.847656 -7.890625 3.484375 -7.171875 L 4.6875 -5.625 C 5.125 -5.976562 5.554688 -6.335938 5.984375 -6.703125 C 6.515625 -7.171875 6.894531 -7.566406 7.125 -7.890625 C 7.34375 -8.203125 7.617188 -8.359375 7.953125 -8.359375 C 8.222656 -8.359375 8.460938 -8.257812 8.671875 -8.0625 C 8.890625 -7.875 9 -7.648438 9 -7.390625 C 9 -7.054688 8.738281 -6.632812 8.21875 -6.125 Z M 8.21875 -6.125 "/></g></g></g></svg>