<svg xmlns="http://www.w3.org/2000/svg" width="150" height="40" version="1.0" viewBox="0 0 112.5 30"><defs><clipPath id="a"><path d="M1.574.281h108.871v28.75H1.575Zm0 0"/></clipPath><clipPath id="b"><path d="M8.832.281h94.352a7.262 7.262 0 0 1 7.261 7.258v14.234a7.262 7.262 0 0 1-7.262 7.258H8.833a7.262 7.262 0 0 1-5.133-2.125 7.245 7.245 0 0 1-2.125-5.133V7.54c0-1.926.762-3.773 2.125-5.133A7.262 7.262 0 0 1 8.832.281Zm0 0"/></clipPath><clipPath id="c"><path d="M1.578.281h108.867v28.75H1.578Zm0 0"/></clipPath><clipPath id="d"><path d="M8.836.281h94.344c1.925 0 3.77.766 5.132 2.125a7.262 7.262 0 0 1 2.126 5.133v14.234a7.26 7.26 0 0 1-7.258 7.254H8.836a7.252 7.252 0 0 1-7.258-7.254V7.54c0-1.926.766-3.773 2.125-5.133A7.268 7.268 0 0 1 8.836.281Zm0 0"/></clipPath></defs><g clip-path="url(#a)"><g clip-path="url(#b)"><path fill="#1d7886" d="M1.574.281h108.828v28.75H1.574Zm0 0"/></g></g><g clip-path="url(#c)"><g clip-path="url(#d)"><path fill="none" stroke="#e9a436" stroke-width="2.90324" d="M8.836.281h94.344c1.925 0 3.77.766 5.132 2.125a7.262 7.262 0 0 1 2.125 5.133v14.234a7.26 7.26 0 0 1-7.257 7.254H8.836a7.252 7.252 0 0 1-7.258-7.254V7.54c0-1.926.766-3.773 2.125-5.133A7.268 7.268 0 0 1 8.836.281Zm0 0"/></g></g><path fill="#e9a436" d="M41.854 17.002c-.367.5-.808.918-1.328 1.25-.637.406-1.289.61-1.953.61-1.281 0-2.234-.25-2.86-.75-1.324-1.04-1.984-2.848-1.984-5.422 0-.25.008-.618.031-1.11.032-.488.047-.86.047-1.11 0-.195.004-.488.016-.874.008-.395.016-.692.016-.89 0-.395.07-.774.218-1.141.188-.47.457-.704.813-.704.281 0 .523.09.734.266.227.2.344.45.344.75 0 .281-.008.715-.016 1.297v1.312c0 .243-.015.606-.047 1.094-.023.492-.03.86-.03 1.11 0 .78.093 1.507.28 2.171.207.805.516 1.36.922 1.672.207.168.711.258 1.516.266 1.332.023 2.227-1.113 2.687-3.406.239-1.176.36-2.836.36-4.985 0-.281.082-.55.25-.812.226-.352.55-.531.969-.531.343 0 .601.132.78.39.126.188.188.39.188.61 0 1.992-.093 3.542-.28 4.656-.282 1.719-.84 3.148-1.673 4.281ZM47.041 9.22c-.324 0-.605-.1-.843-.312a1.03 1.03 0 0 1-.36-.797c0-.312.117-.578.36-.796.238-.22.52-.329.843-.329.32 0 .598.11.829.329.238.218.359.484.359.796 0 .313-.121.579-.36.797-.23.211-.507.313-.828.313Zm.641 5.548c0 .293.004.757.016 1.39.02.637.03 1.094.03 1.375 0 .293-.1.54-.296.735-.2.187-.45.28-.75.28-.305 0-.555-.093-.75-.28a1.02 1.02 0 0 1-.281-.735c0-.281-.012-.738-.031-1.375a39.458 39.458 0 0 1-.032-1.39c0-.446.024-1.008.078-1.688.051-.676.079-1.238.079-1.687 0-.29.097-.532.296-.72.196-.187.446-.28.75-.28.301 0 .547.093.735.28a.96.96 0 0 1 .297.72c0 .449-.028 1.011-.078 1.687-.043.68-.063 1.242-.063 1.688ZM55.49 15.049c-.7.055-1.938.078-3.72.078a1.55 1.55 0 0 1-.812-.203c-.281-.176-.422-.41-.422-.703 0-.29.141-.52.422-.688.227-.144.5-.218.813-.218.406 0 1.004-.008 1.797-.032.789-.031 1.39-.047 1.796-.047.313 0 .582.063.813.188.3.168.453.406.453.719 0 .554-.383.855-1.14.906ZM67.047 17.002c-.367.5-.808.918-1.328 1.25-.637.406-1.29.61-1.953.61-1.281 0-2.234-.25-2.86-.75-1.324-1.04-1.984-2.848-1.984-5.422 0-.25.008-.618.031-1.11.032-.488.047-.86.047-1.11 0-.195.004-.488.016-.874.008-.395.016-.692.016-.89 0-.395.07-.774.218-1.141.188-.47.457-.704.813-.704.281 0 .523.09.734.266.227.2.344.45.344.75 0 .281-.008.715-.016 1.297v1.312c0 .243-.015.606-.047 1.094-.023.492-.03.86-.03 1.11 0 .78.093 1.507.28 2.171.207.805.516 1.36.922 1.672.207.168.711.258 1.516.266 1.332.023 2.226-1.113 2.687-3.406.239-1.176.36-2.836.36-4.985 0-.281.082-.55.25-.812.226-.352.55-.531.969-.531.343 0 .601.132.78.39.126.188.188.39.188.61 0 1.992-.093 3.542-.281 4.656-.281 1.719-.84 3.148-1.672 4.281ZM77.953 12.19c-.293.242-.664.562-1.11.968l-1.156 1.078 2.297 2.813c.164.21.25.414.25.61a.89.89 0 0 1-.312.687c-.211.195-.45.297-.719.297-.293 0-.547-.121-.766-.36-.449-.488-1.199-1.379-2.25-2.672-.406.407-1.039 1-1.89 1.782-.274.23-.48.422-.625.578-.219.23-.469.344-.75.344-.274 0-.512-.098-.719-.297a.907.907 0 0 1-.312-.688c0-.289.207-.625.625-1 .332-.289.664-.578 1-.86.3-.3.78-.769 1.437-1.405-.281-.395-.57-.79-.86-1.188-.343-.457-.671-.816-.984-1.078-.261-.219-.39-.461-.39-.734 0-.258.097-.489.297-.688a.956.956 0 0 1 .718-.312c.352 0 .848.359 1.485 1.078l1.203 1.547c.437-.352.867-.711 1.297-1.079.531-.468.91-.863 1.14-1.187.22-.313.493-.469.828-.469.27 0 .508.102.72.297.218.188.327.414.327.672 0 .336-.261.758-.78 1.266Zm0 0"/></svg>