<svg xmlns="http://www.w3.org/2000/svg" xmlns:xlink="http://www.w3.org/1999/xlink" width="150" zoomAndPan="magnify" viewBox="0 0 112.5 30.000001" height="40" preserveAspectRatio="xMidYMid meet" version="1.0"><defs><g/><clipPath id="04e9bce052"><path d="M 1.574219 0.28125 L 110.445312 0.28125 L 110.445312 29.03125 L 1.574219 29.03125 Z M 1.574219 0.28125 " clip-rule="nonzero"/></clipPath><clipPath id="450fb5cdc4"><path d="M 8.832031 0.28125 L 103.183594 0.28125 C 105.109375 0.28125 106.957031 1.046875 108.316406 2.40625 C 109.679688 3.765625 110.445312 5.613281 110.445312 7.539062 L 110.445312 21.773438 C 110.445312 23.699219 109.679688 25.546875 108.316406 26.90625 C 106.957031 28.265625 105.109375 29.03125 103.183594 29.03125 L 8.832031 29.03125 C 6.90625 29.03125 5.058594 28.265625 3.699219 26.90625 C 2.335938 25.546875 1.574219 23.699219 1.574219 21.773438 L 1.574219 7.539062 C 1.574219 5.613281 2.335938 3.765625 3.699219 2.40625 C 5.058594 1.046875 6.90625 0.28125 8.832031 0.28125 Z M 8.832031 0.28125 " clip-rule="nonzero"/></clipPath><clipPath id="b73e8c99f2"><path d="M 1.578125 0.28125 L 110.445312 0.28125 L 110.445312 29.03125 L 1.578125 29.03125 Z M 1.578125 0.28125 " clip-rule="nonzero"/></clipPath><clipPath id="9bd94af7b0"><path d="M 8.835938 0.28125 L 103.179688 0.28125 C 105.105469 0.28125 106.949219 1.046875 108.3125 2.40625 C 109.671875 3.765625 110.4375 5.613281 110.4375 7.539062 L 110.4375 21.773438 C 110.4375 23.695312 109.671875 25.542969 108.3125 26.902344 C 106.949219 28.265625 105.105469 29.027344 103.179688 29.027344 L 8.835938 29.027344 C 6.910156 29.027344 5.066406 28.265625 3.703125 26.902344 C 2.34375 25.542969 1.578125 23.695312 1.578125 21.773438 L 1.578125 7.539062 C 1.578125 5.613281 2.34375 3.765625 3.703125 2.40625 C 5.066406 1.046875 6.910156 0.28125 8.835938 0.28125 Z M 8.835938 0.28125 " clip-rule="nonzero"/></clipPath></defs><g clip-path="url(#04e9bce052)"><g clip-path="url(#450fb5cdc4)"><path fill="#1d7886" d="M 1.574219 0.28125 L 110.402344 0.28125 L 110.402344 29.03125 L 1.574219 29.03125 Z M 1.574219 0.28125 " fill-opacity="1" fill-rule="nonzero"/></g></g><g clip-path="url(#b73e8c99f2)"><g clip-path="url(#9bd94af7b0)"><path stroke-linecap="butt" transform="matrix(0.725806, 0, 0, 0.725806, 1.578403, 0.280445)" fill="none" stroke-linejoin="miter" d="M 9.99927 0.00110902 L 139.984001 0.00110902 C 142.6373 0.00110902 145.177578 1.05597 147.055877 2.928887 C 148.928794 4.801804 149.983655 7.347464 149.983655 10.000763 L 149.983655 29.612569 C 149.983655 32.260486 148.928794 34.806146 147.055877 36.679063 C 145.177578 38.557362 142.6373 39.606841 139.984001 39.606841 L 9.99927 39.606841 C 7.345971 39.606841 4.805693 38.557362 2.927394 36.679063 C 1.054478 34.806146 -0.000383669 32.260486 -0.000383669 29.612569 L -0.000383669 10.000763 C -0.000383669 7.347464 1.054478 4.801804 2.927394 2.928887 C 4.805693 1.05597 7.345971 0.00110902 9.99927 0.00110902 Z M 9.99927 0.00110902 " stroke="#e9a436" stroke-width="4" stroke-opacity="1" stroke-miterlimit="4"/></g></g><g fill="#e9a436" fill-opacity="1"><g transform="translate(42.428351, 19.330644)"><g><path d="M 4.796875 -3.171875 C 5.554688 -5.085938 6.144531 -6.613281 6.5625 -7.75 C 6.78125 -8.351562 7 -8.957031 7.21875 -9.5625 C 7.519531 -10.269531 7.84375 -10.820312 8.1875 -11.21875 C 8.40625 -11.46875 8.675781 -11.59375 9 -11.59375 C 9.28125 -11.59375 9.53125 -11.492188 9.75 -11.296875 C 9.96875 -11.097656 10.078125 -10.851562 10.078125 -10.5625 C 10.078125 -10.363281 10.007812 -10.164062 9.875 -9.96875 C 9.601562 -9.582031 9.351562 -9.109375 9.125 -8.546875 C 9.113281 -8.523438 8.925781 -8.023438 8.5625 -7.046875 C 8.113281 -5.890625 7.441406 -4.144531 6.546875 -1.8125 C 6.304688 -1.207031 6.019531 -0.597656 5.6875 0.015625 C 5.46875 0.410156 5.148438 0.609375 4.734375 0.609375 C 4.210938 0.609375 3.847656 0.359375 3.640625 -0.140625 C 3.023438 -1.609375 2.34375 -3.722656 1.59375 -6.484375 C 1.382812 -7.160156 1.175781 -7.835938 0.96875 -8.515625 C 0.6875 -9.460938 0.546875 -10.125 0.546875 -10.5 C 0.546875 -10.789062 0.65625 -11.035156 0.875 -11.234375 C 1.082031 -11.410156 1.332031 -11.5 1.625 -11.5 C 2.101562 -11.5 2.4375 -11.25 2.625 -10.75 C 2.726562 -10.3125 2.832031 -9.875 2.9375 -9.4375 C 3.101562 -8.894531 3.34375 -8.082031 3.65625 -7 C 4.039062 -5.550781 4.421875 -4.273438 4.796875 -3.171875 Z M 4.796875 -3.171875 "/></g></g></g><g fill="#e9a436" fill-opacity="1"><g transform="translate(52.874389, 19.330644)"><g><path d="M 7.390625 -4.375 C 7.390625 -4.03125 7.390625 -3.519531 7.390625 -2.84375 C 7.398438 -2.164062 7.40625 -1.65625 7.40625 -1.3125 C 7.40625 -1.207031 7.414062 -1.050781 7.4375 -0.84375 C 7.457031 -0.632812 7.46875 -0.476562 7.46875 -0.375 C 7.46875 -0.09375 7.363281 0.140625 7.15625 0.328125 C 6.945312 0.515625 6.695312 0.609375 6.40625 0.609375 C 5.988281 0.609375 5.679688 0.414062 5.484375 0.03125 C 4.835938 0.269531 4.171875 0.390625 3.484375 0.390625 C 2.765625 0.390625 2.160156 0.238281 1.671875 -0.0625 C 1.128906 -0.40625 0.804688 -0.910156 0.703125 -1.578125 C 0.503906 -2.835938 0.40625 -3.960938 0.40625 -4.953125 C 0.40625 -5.609375 0.476562 -6.359375 0.625 -7.203125 C 0.726562 -7.773438 1.066406 -8.0625 1.640625 -8.0625 C 1.941406 -8.0625 2.191406 -7.96875 2.390625 -7.78125 C 2.597656 -7.59375 2.703125 -7.359375 2.703125 -7.078125 C 2.703125 -6.859375 2.664062 -6.507812 2.59375 -6.03125 C 2.519531 -5.5625 2.484375 -5.203125 2.484375 -4.953125 C 2.484375 -4.242188 2.503906 -3.625 2.546875 -3.09375 C 2.597656 -2.5625 2.675781 -2.125 2.78125 -1.78125 C 2.90625 -1.71875 3.023438 -1.671875 3.140625 -1.640625 C 3.253906 -1.617188 3.367188 -1.609375 3.484375 -1.609375 C 4.046875 -1.609375 4.660156 -1.6875 5.328125 -1.84375 C 5.328125 -2.226562 5.328125 -2.671875 5.328125 -3.171875 C 5.316406 -3.753906 5.3125 -4.175781 5.3125 -4.4375 C 5.3125 -5.46875 5.359375 -6.359375 5.453125 -7.109375 C 5.523438 -7.710938 5.867188 -8.015625 6.484375 -8.015625 C 6.773438 -8.015625 7.023438 -7.921875 7.234375 -7.734375 C 7.453125 -7.546875 7.550781 -7.3125 7.53125 -7.03125 C 7.4375 -5.113281 7.390625 -4.226562 7.390625 -4.375 Z M 7.390625 -4.375 "/></g></g></g><g fill="#e9a436" fill-opacity="1"><g transform="translate(60.924344, 19.330644)"><g><path d="M 4.578125 0.34375 C 3.378906 0.34375 2.394531 0.0546875 1.625 -0.515625 C 0.78125 -1.148438 0.359375 -2.046875 0.359375 -3.203125 C 0.359375 -4.472656 0.691406 -5.550781 1.359375 -6.4375 C 2.109375 -7.414062 3.113281 -7.90625 4.375 -7.90625 C 5.25 -7.90625 5.976562 -7.765625 6.5625 -7.484375 C 7.320312 -7.109375 7.703125 -6.523438 7.703125 -5.734375 C 7.703125 -5.179688 7.394531 -4.691406 6.78125 -4.265625 C 6.488281 -4.066406 5.921875 -3.78125 5.078125 -3.40625 L 2.53125 -2.28125 C 2.769531 -2.007812 3.0625 -1.804688 3.40625 -1.671875 C 3.75 -1.546875 4.140625 -1.484375 4.578125 -1.484375 C 5.253906 -1.484375 5.828125 -1.625 6.296875 -1.90625 C 6.710938 -2.15625 7.046875 -2.28125 7.296875 -2.28125 C 7.828125 -2.28125 8.09375 -2.023438 8.09375 -1.515625 C 8.09375 -0.941406 7.671875 -0.472656 6.828125 -0.109375 C 6.117188 0.191406 5.367188 0.34375 4.578125 0.34375 Z M 4.375 -6.078125 C 3.90625 -6.078125 3.503906 -5.921875 3.171875 -5.609375 C 2.835938 -5.296875 2.570312 -4.828125 2.375 -4.203125 C 2.945312 -4.441406 3.515625 -4.679688 4.078125 -4.921875 C 4.753906 -5.234375 5.296875 -5.519531 5.703125 -5.78125 C 5.359375 -5.976562 4.914062 -6.078125 4.375 -6.078125 Z M 4.375 -6.078125 "/></g></g></g></svg>