<svg xmlns="http://www.w3.org/2000/svg" width="150" height="40" version="1.0" viewBox="0 0 112.5 30"><defs><clipPath id="a"><path d="M1.574.281h108.871v28.75H1.575Zm0 0"/></clipPath><clipPath id="b"><path d="M8.832.281h94.352a7.262 7.262 0 0 1 7.261 7.258v14.234a7.262 7.262 0 0 1-7.262 7.258H8.833a7.262 7.262 0 0 1-5.133-2.125 7.245 7.245 0 0 1-2.125-5.133V7.54c0-1.926.762-3.773 2.125-5.133A7.262 7.262 0 0 1 8.832.281Zm0 0"/></clipPath><clipPath id="c"><path d="M1.578.281h108.867v28.75H1.578Zm0 0"/></clipPath><clipPath id="d"><path d="M8.836.281h94.344c1.925 0 3.77.766 5.132 2.125a7.262 7.262 0 0 1 2.126 5.133v14.234a7.26 7.26 0 0 1-7.258 7.254H8.836a7.252 7.252 0 0 1-7.258-7.254V7.54c0-1.926.766-3.773 2.125-5.133A7.268 7.268 0 0 1 8.836.281Zm0 0"/></clipPath></defs><g clip-path="url(#a)"><g clip-path="url(#b)"><path fill="#1d7886" d="M1.574.281h108.828v28.75H1.574Zm0 0"/></g></g><g clip-path="url(#c)"><g clip-path="url(#d)"><path fill="none" stroke="#e9a436" stroke-width="2.90324" d="M8.836.281h94.344c1.925 0 3.77.766 5.132 2.125a7.262 7.262 0 0 1 2.125 5.133v14.234a7.26 7.26 0 0 1-7.257 7.254H8.836a7.252 7.252 0 0 1-7.258-7.254V7.54c0-1.926.766-3.773 2.125-5.133A7.268 7.268 0 0 1 8.836.281Zm0 0"/></g></g><path fill="#e9a436" d="M47.225 16.159a211.181 211.181 0 0 0 1.766-4.578c.219-.602.437-1.207.656-1.813.3-.707.625-1.258.969-1.656.219-.25.488-.375.812-.375.282 0 .532.101.75.297.22.199.328.445.328.734 0 .2-.07.399-.203.594-.273.387-.523.86-.75 1.422-.011.023-.199.523-.562 1.5a1465.52 1465.52 0 0 0-2.016 5.234 17.451 17.451 0 0 1-.86 1.828c-.218.395-.538.594-.952.594-.524 0-.887-.25-1.094-.75-.617-1.469-1.297-3.582-2.047-6.344-.21-.676-.418-1.351-.625-2.031-.281-.945-.422-1.61-.422-1.984 0-.29.11-.536.328-.735.207-.176.457-.265.75-.265.477 0 .813.25 1 .75.102.437.207.875.313 1.312.164.543.406 1.356.719 2.438.382 1.449.765 2.726 1.14 3.828ZM60.265 14.956v1.53c.008.68.016 1.188.016 1.532 0 .106.007.262.03.469.02.21.032.367.032.469a.911.911 0 0 1-.312.703c-.211.187-.461.281-.75.281-.418 0-.727-.195-.922-.578a5.746 5.746 0 0 1-2 .36c-.719 0-1.324-.153-1.813-.454-.543-.344-.867-.848-.968-1.515-.2-1.258-.297-2.383-.297-3.375 0-.657.07-1.407.218-2.25.102-.57.442-.86 1.016-.86.3 0 .55.094.75.281a.911.911 0 0 1 .313.704c0 .218-.04.57-.11 1.046-.074.47-.11.829-.11 1.079 0 .71.02 1.328.063 1.859.051.531.13.969.235 1.312.125.063.242.11.359.141.113.023.227.031.344.031.562 0 1.176-.078 1.844-.234v-1.328a66.304 66.304 0 0 1-.016-1.266c0-1.031.047-1.922.14-2.672.07-.601.415-.906 1.032-.906.289 0 .539.094.75.281a.807.807 0 0 1 .297.703c-.094 1.918-.141 2.805-.141 2.657ZM65.502 19.674c-1.199 0-2.183-.289-2.953-.859-.843-.633-1.265-1.531-1.265-2.687 0-1.27.332-2.348 1-3.235.75-.976 1.754-1.469 3.015-1.469.875 0 1.602.141 2.188.422.758.375 1.14.961 1.14 1.75 0 .555-.308 1.043-.921 1.469-.293.2-.86.484-1.704.86l-2.546 1.124c.238.274.53.477.875.61.343.125.734.187 1.171.187.676 0 1.25-.14 1.72-.422.413-.25.75-.375 1-.375.53 0 .796.258.796.766 0 .574-.422 1.043-1.266 1.406-.71.301-1.46.453-2.25.453Zm-.203-6.421c-.468 0-.87.156-1.203.468-.336.313-.601.782-.797 1.407.57-.239 1.141-.477 1.703-.72.676-.312 1.22-.597 1.625-.859-.343-.195-.789-.296-1.328-.296Zm0 0"/></svg>